<svg width="682" height="238" viewBox="0 0 682 238" fill="none" xmlns="http://www.w3.org/2000/svg">
<g filter="url(#filter0_d_3_2)">
<path d="M42.4301 18.43C42.4301 22.01 41.7201 24.98 40.3101 27.34C38.8901 29.7 37 31.45 34.63 32.59C36.48 33.53 38.13 34.27 39.58 34.81C41.03 35.35 42.47 35.86 43.9 36.35C43.93 36.55 43.95 36.72 43.95 36.86V37.27C43.95 38.54 43.62 39.48 42.95 40.1C42.28 40.72 41.38 41.03 40.24 41.03C38.94 41.03 37.47 40.61 35.85 39.76C34.22 38.91 32.47 37.73 30.58 36.2L27.9 34.05H27.61C25.5 34.05 23.53 33.72 21.71 33.05C19.89 32.38 18.32 31.39 17 30.07C15.68 28.75 14.65 27.12 13.9 25.17C13.15 23.22 12.78 20.97 12.78 18.44C12.78 15.91 13.16 13.68 13.93 11.76C14.69 9.84001 15.74 8.21997 17.08 6.90997C18.41 5.58997 19.98 4.59999 21.79 3.92999C23.6 3.25999 25.54 2.92999 27.62 2.92999C29.7 2.92999 31.65 3.25999 33.45 3.92999C35.25 4.59999 36.82 5.58997 38.16 6.90997C39.49 8.22997 40.5401 9.85001 41.3101 11.76C42.0701 13.68 42.46 15.91 42.46 18.44L42.4301 18.43ZM35.9399 18.43C35.9399 15.05 35.18 12.48 33.67 10.72C32.16 8.95997 30.13 8.09003 27.59 8.09003C25.05 8.09003 23.0801 8.96997 21.5601 10.72C20.0401 12.47 19.29 15.05 19.29 18.43C19.29 21.81 20.04 24.47 21.53 26.21C23.03 27.95 25.04 28.82 27.58 28.82C30.12 28.82 32.14 27.95 33.66 26.21C35.18 24.47 35.9301 21.88 35.9301 18.43H35.9399Z" fill="white"/>
<path d="M55.17 2.96002C58.62 2.96002 61.3 3.68997 63.22 5.15997C65.14 6.61997 66.1 8.67 66.1 11.31C66.1 12.19 65.9599 12.99 65.6899 13.7C65.4099 14.42 65.06 15.04 64.64 15.58C64.22 16.12 63.74 16.57 63.22 16.95C62.7 17.33 62.18 17.61 61.66 17.8C62.31 18.03 62.95 18.34 63.59 18.73C64.22 19.12 64.79 19.62 65.27 20.22C65.76 20.82 66.16 21.52 66.47 22.32C66.78 23.12 66.9301 24.04 66.9301 25.08C66.9301 26.51 66.64 27.78 66.08 28.89C65.51 30 64.7099 30.93 63.6899 31.7C62.6699 32.46 61.44 33.04 60.01 33.43C58.58 33.82 57.02 34.02 55.33 34.02C53.8 34.02 52.43 33.9 51.23 33.68C50.03 33.45 49 33.14 48.16 32.73C47.31 32.32 46.67 31.84 46.23 31.29C45.79 30.74 45.5699 30.15 45.5699 29.53C45.5699 28.85 45.74 28.26 46.08 27.77C46.42 27.28 46.85 26.91 47.37 26.65C48.12 27.2 49.06 27.73 50.2 28.24C51.34 28.74 52.8299 29 54.6899 29C56.5499 29 58.1 28.63 59.15 27.88C60.21 27.13 60.74 26.06 60.74 24.66C60.74 23.36 60.28 22.34 59.35 21.61C58.42 20.88 56.98 20.51 55.03 20.51H50.6899C50.5299 20.25 50.38 19.91 50.25 19.49C50.12 19.07 50.05 18.6 50.05 18.07C50.05 17.52 50.11 17.03 50.25 16.61C50.38 16.19 50.5299 15.85 50.6899 15.58H54.89C56.65 15.58 57.92 15.24 58.72 14.56C59.52 13.88 59.92 12.97 59.92 11.83C59.92 10.63 59.45 9.68 58.5 9C57.56 8.32 56.21 7.97998 54.45 7.97998C52.99 7.97998 51.72 8.18003 50.64 8.59003C49.57 9.00003 48.66 9.43999 47.91 9.92999C47.49 9.63999 47.11 9.26 46.79 8.81C46.46 8.35 46.3 7.82001 46.3 7.20001C46.3 6.58001 46.52 6.00999 46.96 5.48999C47.4 4.96999 48.01 4.52002 48.79 4.15002C49.57 3.78002 50.51 3.48999 51.6 3.29999C52.69 3.09999 53.8799 3.01001 55.1899 3.01001L55.17 2.96002Z" fill="white"/>
</g>
<g filter="url(#filter1_d_3_2)">
<path d="M45.2099 107.46C45.0699 108.45 44.7399 109.3 44.1999 110C43.6599 110.7 43.0399 111.18 42.3399 111.45C41.6399 111.72 40.9 111.75 40.11 111.55C39.32 111.35 38.59 110.82 37.91 109.96C37.32 109.24 37 108.44 36.93 107.56C36.86 106.68 36.74 105.81 36.56 104.96C36.11 102.48 35.45 99.93 34.6 97.32C31.8 97.37 29.03 97.39 26.28 97.39C23.53 97.39 20.78 97.41 18.03 97.46C17.62 98.63 17.27 99.83 16.98 101.04C16.69 102.26 16.4 103.45 16.13 104.62C15.9 105.52 15.7 106.46 15.52 107.43C15.34 108.4 14.93 109.25 14.3 109.97C13.53 110.87 12.71 111.38 11.83 111.49C10.95 111.6 10.16 111.46 9.46 111.05C8.76 110.64 8.2 110.02 7.77 109.19C7.34 108.36 7.19999 107.4 7.32999 106.31C7.46999 104.91 7.73999 103.54 8.13999 102.19C8.54999 100.84 8.92995 99.48 9.28995 98.13C11.32 90.38 13.93 82.87 17.14 75.61C17.41 74.98 17.69 74.37 17.99 73.78C18.29 73.19 18.5699 72.61 18.8399 72.02C19.1499 71.39 19.47 70.71 19.79 69.99C20.1 69.27 20.48 68.6 20.91 67.99C21.34 67.38 21.85 66.86 22.43 66.43C23.02 66 23.7399 65.79 24.5899 65.79C25.7199 65.79 26.66 66.15 27.43 66.87C30.5 69.94 33.02 73.4 35 77.25C36.98 81.1 38.7599 85.04 40.3399 89.05C41.2899 89.01 42.21 89.01 43.11 89.05C44.01 89.09 44.82 89.5 45.54 90.27C46.17 90.9 46.54 91.58 46.66 92.3C46.77 93.02 46.6999 93.72 46.4599 94.4C46.2099 95.08 45.81 95.66 45.24 96.16C44.68 96.66 43.99 96.99 43.18 97.17C43.63 98.75 44.03 100.36 44.36 102C44.7 103.65 44.9799 105.3 45.2099 106.97V107.44V107.46ZM31.41 89.06C30.55 87.03 29.64 85.01 28.67 83.01C27.7 81.01 26.61 79.1 25.39 77.3C24.49 79.28 23.64 81.26 22.85 83.22C22.06 85.18 21.33 87.18 20.65 89.21C22.77 89.17 24.63 89.14 26.23 89.14C27.83 89.14 29.55 89.12 31.4 89.07L31.41 89.06Z" fill="white"/>
<path d="M52.24 71.34C52.38 70.84 52.6 70.36 52.92 69.89C53.23 69.42 53.61 69 54.04 68.64C54.47 68.28 54.9399 68.02 55.4599 67.86C55.9799 67.7 56.51 67.71 57.05 67.89C58.72 67.21 60.42 66.65 62.16 66.2C63.9 65.75 65.63 65.49 67.37 65.42C69.1 65.35 70.82 65.51 72.51 65.89C74.2 66.27 75.83 66.98 77.41 68.02C78.67 68.83 79.79 69.85 80.76 71.06C81.73 72.28 82.53 73.56 83.16 74.91C84.24 77.35 84.74 79.77 84.65 82.18C84.56 84.59 83.9999 86.84 82.9599 88.91C81.9199 90.98 80.4699 92.81 78.5999 94.39C76.7299 95.97 74.53 97.12 72.01 97.84C70.12 98.38 68.19 98.64 66.23 98.62C64.27 98.6 62.3399 98.47 60.4499 98.25V104.81C60.4499 105.31 60.47 105.82 60.52 106.36C60.56 106.9 60.58 107.44 60.55 107.98C60.53 108.52 60.4599 109.05 60.3499 109.57C60.2399 110.09 60.0199 110.57 59.7099 111.02C59.1699 111.92 58.47 112.47 57.61 112.68C56.75 112.88 55.93 112.84 55.14 112.54C54.35 112.25 53.67 111.75 53.11 111.05C52.55 110.35 52.26 109.51 52.26 108.51V96.34C51.4 95.89 50.77 95.33 50.37 94.65C49.96 93.97 49.7799 93.29 49.8299 92.59C49.8699 91.89 50.1 91.23 50.51 90.59C50.92 89.96 51.4799 89.4401 52.1999 89.0301V71.72L52.27 71.31L52.24 71.34ZM71.92 74.32C70.03 73.55 68.1 73.33 66.14 73.64C64.18 73.96 62.27 74.54 60.43 75.4V90.14C62.55 90.5 64.71 90.59 66.92 90.41C69.13 90.23 71.16 89.55 73.01 88.38C74.32 87.52 75.2199 86.44 75.7199 85.13C76.2199 83.82 76.4 82.49 76.26 81.14C76.12 79.79 75.67 78.49 74.91 77.25C74.14 76.01 73.15 75.03 71.93 74.31L71.92 74.32Z" fill="white"/>
<path d="M89.03 71.34C89.17 70.84 89.3899 70.36 89.7099 69.89C90.0199 69.42 90.3999 69 90.8299 68.64C91.2599 68.28 91.73 68.02 92.25 67.86C92.77 67.7 93.2999 67.71 93.8399 67.89C95.5099 67.21 97.2099 66.65 98.9499 66.2C100.69 65.75 102.42 65.49 104.16 65.42C105.89 65.35 107.61 65.51 109.3 65.89C110.99 66.27 112.62 66.98 114.2 68.02C115.46 68.83 116.58 69.85 117.55 71.06C118.52 72.28 119.32 73.56 119.95 74.91C121.03 77.35 121.53 79.77 121.44 82.18C121.35 84.59 120.79 86.84 119.75 88.91C118.71 90.99 117.26 92.81 115.39 94.39C113.52 95.97 111.32 97.12 108.8 97.84C106.91 98.38 104.98 98.64 103.02 98.62C101.06 98.6 99.13 98.47 97.24 98.25V104.81C97.24 105.31 97.26 105.82 97.31 106.36C97.35 106.9 97.3699 107.44 97.3399 107.98C97.3199 108.52 97.25 109.05 97.14 109.57C97.03 110.09 96.81 110.57 96.5 111.02C95.96 111.92 95.26 112.47 94.4 112.68C93.54 112.88 92.72 112.84 91.93 112.54C91.14 112.25 90.46 111.75 89.9 111.05C89.34 110.35 89.05 109.51 89.05 108.51V96.34C88.19 95.89 87.56 95.33 87.16 94.65C86.75 93.97 86.57 93.29 86.62 92.59C86.66 91.89 86.89 91.23 87.3 90.59C87.71 89.96 88.27 89.4401 88.99 89.0301V71.72L89.06 71.31L89.03 71.34ZM108.71 74.32C106.82 73.55 104.89 73.33 102.93 73.64C100.97 73.96 99.0599 74.54 97.2199 75.4V90.14C99.3399 90.5 101.5 90.59 103.71 90.41C105.92 90.23 107.95 89.55 109.8 88.38C111.11 87.52 112.01 86.44 112.51 85.13C113.01 83.82 113.19 82.49 113.05 81.14C112.91 79.79 112.46 78.49 111.7 77.25C110.93 76.01 109.94 75.03 108.72 74.31L108.71 74.32Z" fill="white"/>
<path d="M176.48 102.86C177.52 103.36 178.31 103.99 178.85 104.75C179.39 105.52 179.65 106.29 179.63 107.08C179.61 107.87 179.31 108.61 178.75 109.31C178.19 110.01 177.32 110.54 176.15 110.9C175.7 111.03 175.07 111.11 174.26 111.14C173.45 111.16 172.32 111.17 170.88 111.17H165.4C163.19 111.17 160.46 111.19 157.22 111.24C156.41 111.28 155.57 111.31 154.72 111.31C153.87 111.31 153.12 111.02 152.49 110.43C151.95 109.98 151.55 109.29 151.31 108.37C151.06 107.45 150.9 106.48 150.84 105.46C150.77 104.45 150.75 103.43 150.77 102.42C150.79 101.41 150.8 100.56 150.8 99.88C150.8 98.53 150.8 96.97 150.83 95.21C150.85 93.45 150.87 91.66 150.9 89.83C150.93 88 150.93 86.21 150.93 84.45V79.78C150.93 77.39 150.95 75.46 151 74C151.04 72.54 151.15 71.39 151.3 70.55C151.46 69.72 151.72 69.11 152.08 68.72C152.44 68.34 152.94 68.01 153.57 67.74C154.11 67.52 154.71 67.44 155.36 67.5C156.01 67.57 156.62 67.75 157.19 68.04C157.75 68.33 158.23 68.74 158.61 69.26C158.99 69.78 159.18 70.35 159.18 70.98C159.27 76.39 159.27 81.76 159.18 87.08C159.09 92.4 159.05 97.72 159.05 103.04C161.89 103.04 164.72 103.01 167.54 102.94C170.36 102.87 173.21 102.79 176.1 102.7L176.51 102.83L176.48 102.86Z" fill="white"/>
<path d="M219.84 107.46C219.7 108.45 219.37 109.3 218.83 110C218.29 110.7 217.67 111.18 216.97 111.45C216.27 111.72 215.53 111.75 214.74 111.55C213.95 111.35 213.22 110.82 212.54 109.96C211.95 109.24 211.63 108.44 211.56 107.56C211.49 106.68 211.37 105.81 211.19 104.96C210.74 102.48 210.08 99.93 209.23 97.32C206.43 97.37 203.66 97.39 200.91 97.39C198.16 97.39 195.41 97.41 192.66 97.46C192.25 98.63 191.9 99.83 191.61 101.04C191.32 102.26 191.04 103.45 190.77 104.62C190.54 105.52 190.34 106.46 190.16 107.43C189.98 108.4 189.57 109.25 188.94 109.97C188.17 110.87 187.35 111.38 186.47 111.49C185.59 111.6 184.8 111.46 184.1 111.05C183.4 110.64 182.84 110.02 182.41 109.19C181.98 108.36 181.83 107.4 181.97 106.31C182.11 104.91 182.38 103.54 182.78 102.19C183.19 100.84 183.57 99.48 183.93 98.13C185.96 90.38 188.57 82.87 191.78 75.61C192.05 74.98 192.33 74.37 192.62 73.78C192.91 73.19 193.2 72.61 193.47 72.02C193.78 71.39 194.1 70.71 194.42 69.99C194.73 69.27 195.11 68.6 195.54 67.99C195.97 67.38 196.48 66.86 197.06 66.43C197.64 66 198.37 65.79 199.22 65.79C200.35 65.79 201.29 66.15 202.06 66.87C205.13 69.94 207.65 73.4 209.64 77.25C211.62 81.1 213.4 85.04 214.98 89.05C215.93 89.01 216.85 89.01 217.75 89.05C218.65 89.09 219.46 89.5 220.18 90.27C220.81 90.9 221.18 91.58 221.3 92.3C221.41 93.02 221.34 93.72 221.1 94.4C220.85 95.08 220.45 95.66 219.88 96.16C219.32 96.66 218.63 96.99 217.82 97.17C218.27 98.75 218.67 100.36 219 102C219.34 103.65 219.62 105.3 219.85 106.97V107.44L219.84 107.46ZM206.04 89.06C205.18 87.03 204.27 85.01 203.3 83.01C202.33 81.01 201.24 79.1 200.02 77.3C199.12 79.28 198.27 81.26 197.48 83.22C196.69 85.18 195.96 87.18 195.28 89.21C197.4 89.17 199.26 89.14 200.86 89.14C202.46 89.14 204.19 89.12 206.03 89.07L206.04 89.06Z" fill="white"/>
<path d="M250 70.67C250.27 69.77 250.71 69.02 251.32 68.44C251.93 67.86 252.59 67.47 253.32 67.29C254.04 67.11 254.77 67.16 255.52 67.43C256.27 67.7 256.91 68.24 257.45 69.05C257.63 69.28 257.8 69.55 257.96 69.86C258.12 70.18 258.2 70.47 258.2 70.74C258.2 71.24 258.18 72.07 258.13 73.24C258.09 74.41 258.05 75.61 258.03 76.82C258.01 78.04 257.97 79.12 257.93 80.07C257.89 81.02 257.86 81.51 257.86 81.56C257.77 84 257.61 86.42 257.39 88.83C257.16 91.24 256.85 93.67 256.44 96.1C256.08 97.99 255.65 99.74 255.15 101.34C254.65 102.94 253.98 104.36 253.12 105.6C252.26 106.84 251.18 107.91 249.87 108.81C248.56 109.71 246.94 110.43 245 110.97C244.23 111.19 243.43 111.35 242.6 111.44C241.77 111.53 240.97 111.57 240.2 111.57C237.95 111.57 235.65 111.14 233.3 110.28C230.64 109.24 228.63 107.53 227.28 105.14C225.93 102.75 224.98 100.08 224.44 97.13C223.9 94.18 223.64 91.19 223.66 88.17C223.68 85.15 223.69 82.49 223.69 80.19C223.69 79.24 223.69 78.29 223.72 77.32C223.74 76.35 223.78 75.39 223.82 74.44C223.82 73.76 223.84 73.05 223.89 72.31C223.94 71.57 224.07 70.86 224.3 70.18C224.52 69.5 224.88 68.92 225.35 68.42C225.82 67.92 226.49 67.59 227.35 67.41C227.85 67.32 228.37 67.37 228.94 67.54C229.5 67.72 230.01 67.98 230.46 68.32C230.91 68.66 231.29 69.06 231.61 69.54C231.92 70.01 232.08 70.52 232.08 71.06V73.93C232.08 74.27 232.07 74.62 232.05 74.98C232.03 75.34 232.02 75.81 232.02 76.4C231.93 79.38 231.89 82.34 231.89 85.29C231.89 88.24 232.07 91.19 232.43 94.12C232.56 95.34 232.77 96.6 233.04 97.91C233.31 99.22 233.85 100.35 234.66 101.29C235.38 102.15 236.32 102.74 237.47 103.08C238.62 103.42 239.79 103.52 240.99 103.38C242.18 103.25 243.31 102.91 244.37 102.37C245.43 101.83 246.25 101.11 246.84 100.21C247.43 99.31 247.88 98.25 248.19 97.03C248.5 95.81 248.74 94.55 248.9 93.24C249.06 91.93 249.17 90.64 249.24 89.35C249.31 88.06 249.36 86.88 249.41 85.8C249.5 84.54 249.57 83.46 249.61 82.55C249.65 81.65 249.7 80.57 249.74 79.3C249.78 78.35 249.81 77.41 249.81 76.46C249.81 75.51 249.83 74.57 249.88 73.62L250.01 70.64L250 70.67Z" fill="white"/>
<path d="M291.32 69.31C291.59 68.41 292.03 67.66 292.64 67.08C293.25 66.5 293.91 66.11 294.64 65.93C295.36 65.75 296.09 65.8 296.84 66.07C297.59 66.34 298.23 66.88 298.77 67.69C298.95 67.92 299.12 68.19 299.28 68.5C299.44 68.82 299.52 69.11 299.52 69.38C299.61 75.83 299.58 82.26 299.42 88.69C299.26 95.12 299 101.55 298.64 108C298.64 109.04 298.31 109.85 297.66 110.43C297.01 111.01 296.26 111.39 295.43 111.55C294.6 111.71 293.75 111.62 292.89 111.28C292.03 110.94 291.4 110.37 291 109.56C290.96 109.51 290.93 109.47 290.93 109.42V109.56C288 104.74 284.91 100.1 281.66 95.66C278.41 91.22 275.03 86.81 271.51 82.44V102.93C271.51 104.33 271.49 105.47 271.44 106.35C271.39 107.23 271.34 107.92 271.27 108.41C271.2 108.91 271.1 109.33 270.97 109.7C270.56 110.78 269.94 111.5 269.11 111.86C268.28 112.22 267.43 112.31 266.57 112.13C265.71 111.95 264.97 111.5 264.34 110.78C263.71 110.06 263.39 109.16 263.39 108.07V89.2C263.39 87.31 263.38 85.54 263.36 83.89C263.34 82.24 263.33 80.86 263.33 79.73C263.33 78.2 263.31 76.68 263.26 75.17C263.21 73.66 263.21 72.14 263.26 70.6C263.26 69.83 263.45 69.18 263.84 68.64C264.22 68.1 264.71 67.68 265.29 67.39C265.87 67.1 266.51 66.93 267.18 66.88C267.86 66.84 268.51 66.92 269.14 67.15C269.68 67.33 270.23 67.7 270.8 68.27C271.36 68.83 271.92 69.44 272.46 70.1C273 70.75 273.51 71.41 273.98 72.06C274.45 72.71 274.85 73.24 275.16 73.65C276.33 75.09 277.68 76.75 279.22 78.62C280.76 80.49 282.17 82.26 283.48 83.93C284.79 85.64 286.06 87.36 287.3 89.07C288.54 90.78 289.75 92.5 290.92 94.21C291.05 90.11 291.14 86.03 291.19 81.97C291.23 77.91 291.26 73.83 291.26 69.73L291.33 69.32L291.32 69.31Z" fill="white"/>
<path d="M330.62 97.52C331.34 96.8 332.16 96.38 333.09 96.27C334.01 96.16 334.86 96.28 335.63 96.64C336.4 97 336.99 97.58 337.42 98.36C337.85 99.15 337.95 100.08 337.72 101.17C337.45 102.25 336.93 103.26 336.16 104.18C335.39 105.1 334.63 105.95 333.86 106.72C332.1 108.57 330.15 109.93 328.01 110.81C325.87 111.69 323.7 112.1 321.52 112.06C319.33 112.01 317.19 111.5 315.1 110.5C313 109.51 311.12 108.02 309.45 106.04C308.46 104.87 307.62 103.63 306.95 102.32C306.27 101.01 305.75 99.64 305.39 98.19C304.85 96.07 304.6 93.86 304.65 91.56C304.69 89.26 305.06 87.03 305.73 84.86C306.41 82.7 307.36 80.66 308.6 78.74C309.84 76.82 311.36 75.19 313.17 73.84C314.48 72.85 315.8 71.99 317.13 71.27C318.46 70.55 319.87 69.87 321.36 69.24C322.22 68.88 323.1 68.53 324 68.19C324.9 67.85 325.83 67.5899 326.77 67.4099C327.72 67.2299 328.66 67.16 329.61 67.21C330.56 67.26 331.48 67.46 332.38 67.82C333.01 68.09 333.64 68.46 334.27 68.94C334.9 69.41 335.49 69.95 336.03 70.56C336.57 71.17 337.04 71.81 337.45 72.49C337.86 73.17 338.15 73.82 338.33 74.45C338.47 75.04 338.5 75.63 338.43 76.24C338.36 76.85 338.18 77.4 337.89 77.9C337.6 78.4 337.2 78.81 336.71 79.15C336.21 79.49 335.65 79.7 335.02 79.79C333.98 79.92 333.18 79.81 332.62 79.45C332.06 79.09 331.61 78.64 331.27 78.1C330.93 77.56 330.6 77.03 330.29 76.51C329.97 75.99 329.52 75.62 328.94 75.39C328.58 75.39 328.31 75.41 328.13 75.46C326.6 75.87 325.05 76.42 323.5 77.12C321.94 77.82 320.5 78.6599 319.17 79.6599C317.84 80.6499 316.68 81.8 315.69 83.11C314.7 84.42 313.98 85.88 313.53 87.51C312.99 89.45 312.79 91.41 312.92 93.39C313.05 95.37 313.6 97.25 314.54 99C315.08 100.04 315.8 100.94 316.7 101.71C317.6 102.48 318.59 103.05 319.68 103.43C320.76 103.81 321.87 103.95 322.99 103.84C324.12 103.73 325.2 103.33 326.24 102.66C327.14 102.03 327.95 101.25 328.67 100.33C329.39 99.41 330.05 98.47 330.63 97.52H330.62Z" fill="white"/>
<path d="M375.26 86.36C376.34 86.68 377.15 87.25 377.69 88.08C378.23 88.91 378.49 89.78 378.47 90.68C378.45 91.58 378.17 92.43 377.63 93.22C377.09 94.01 376.3 94.52 375.26 94.74V106.51C375.26 107.64 374.98 108.64 374.41 109.52C373.85 110.4 373.16 111.02 372.35 111.38C371.54 111.74 370.68 111.82 369.78 111.62C368.88 111.42 368.07 110.82 367.35 109.83C367.03 109.38 366.82 108.86 366.71 108.27C366.6 107.68 366.54 107.14 366.54 106.65V94.95H350.78V106.45C350.78 106.95 350.74 107.45 350.65 107.97C350.56 108.49 350.4 108.95 350.18 109.36C349.59 110.44 348.85 111.14 347.95 111.46C347.05 111.77 346.17 111.76 345.31 111.43C344.45 111.1 343.72 110.51 343.11 109.67C342.5 108.84 342.2 107.81 342.2 106.59V71.62C342.2 70.45 342.55 69.43 343.25 68.58C343.95 67.72 344.75 67.13 345.65 66.79C346.55 66.45 347.46 66.43 348.39 66.72C349.32 67.01 350 67.72 350.45 68.85C350.58 69.21 350.67 69.54 350.72 69.83C350.76 70.12 350.79 70.45 350.79 70.81V86.1H366.55V71.63C366.55 70.73 366.75 69.87 367.16 69.06C367.66 68.07 368.37 67.37 369.29 66.96C370.21 66.55 371.12 66.44 372 66.62C372.88 66.8 373.65 67.24 374.3 67.94C374.95 68.64 375.28 69.6 375.28 70.82V86.38L375.26 86.36Z" fill="white"/>
</g>
<g filter="url(#filter2_d_3_2)">
<path d="M18.11 213.89V222.54C17.89 222.62 17.59 222.7 17.23 222.77C16.87 222.84 16.46 222.87 16.02 222.87C15.16 222.87 14.54 222.71 14.16 222.39C13.78 222.07 13.6 221.53 13.6 220.78V199.21C13.6 198.74 13.73 198.37 14 198.1C14.26 197.84 14.63 197.63 15.11 197.49C15.97 197.18 17 196.98 18.2 196.86C19.4 196.75 20.53 196.69 21.59 196.69C25.21 196.69 27.9 197.46 29.64 198.99C31.38 200.52 32.25 202.6 32.25 205.22C32.25 207.84 31.38 209.94 29.64 211.51C27.9 213.09 25.3 213.87 21.84 213.87H18.12L18.11 213.89ZM21.54 210.25C23.46 210.25 24.97 209.83 26.08 209C27.18 208.16 27.73 206.91 27.73 205.24C27.73 203.57 27.21 202.34 26.16 201.56C25.11 200.78 23.62 200.39 21.67 200.39C21.03 200.39 20.4 200.42 19.77 200.47C19.14 200.53 18.58 200.6 18.08 200.68V210.25H21.55H21.54Z" fill="white"/>
<path d="M35.83 200.14C35.83 199.67 36.01 199.22 36.37 198.8C36.73 198.38 37.24 198.01 37.9 197.69C38.55 197.37 39.32 197.12 40.2 196.94C41.08 196.76 42.0301 196.67 43.0601 196.67C45.9301 196.67 48.15 197.35 49.71 198.72C51.27 200.09 52.05 201.87 52.05 204.07C52.05 205.6 51.63 207.09 50.8 208.54C49.96 209.99 48.56 211.59 46.58 213.35L40.14 219.12H51.89C52.03 219.29 52.15 219.52 52.25 219.83C52.35 220.14 52.4 220.47 52.4 220.83C52.4 221.42 52.25 221.86 51.96 222.17C51.67 222.48 51.2801 222.63 50.8101 222.63H36.14C35.36 222.1 34.97 221.33 34.97 220.33C34.97 219.77 35.08 219.27 35.3 218.83C35.52 218.38 35.83 217.99 36.22 217.66L43.24 211.06C44.05 210.31 44.73 209.63 45.29 209.01C45.85 208.4 46.29 207.83 46.63 207.3C46.97 206.77 47.2 206.26 47.34 205.77C47.48 205.28 47.55 204.77 47.55 204.24C47.55 203.07 47.1399 202.12 46.3199 201.4C45.4999 200.68 44.29 200.31 42.7 200.31C41.47 200.31 40.39 200.51 39.46 200.9C38.53 201.29 37.75 201.72 37.14 202.19C36.78 202 36.47 201.72 36.22 201.38C35.97 201.04 35.84 200.62 35.84 200.15L35.83 200.14Z" fill="white"/>
<path d="M58.9 222C58.45 221.55 58.23 220.97 58.23 220.24V199.63C58.23 198.91 58.45 198.33 58.9 197.9C59.35 197.47 59.93 197.25 60.66 197.25H74.5C74.64 197.42 74.76 197.65 74.86 197.96C74.96 198.27 75.01 198.6 75.01 198.96C75.01 199.57 74.8599 200.05 74.5699 200.38C74.2799 200.71 73.88 200.88 73.38 200.88H62.6801V207.82H73.26C73.4 207.99 73.52 208.22 73.62 208.53C73.72 208.84 73.77 209.17 73.77 209.53C73.77 210.17 73.62 210.65 73.33 210.95C73.04 211.26 72.64 211.41 72.14 211.41H62.6899V219.02H74.73C74.84 219.19 74.9501 219.42 75.0601 219.73C75.1701 220.04 75.23 220.37 75.23 220.73C75.23 221.37 75.08 221.85 74.79 222.17C74.5 222.49 74.1 222.65 73.6 222.65H60.6801C59.9601 222.65 59.37 222.43 58.92 221.98L58.9 222Z" fill="white"/>
<path d="M111.76 206.85C111.08 206.28 110.15 205.99 108.98 205.99C108.2 205.99 107.45 206.14 106.74 206.43C106.03 206.72 105.38 207.12 104.8 207.62C104.86 207.84 104.9 208.08 104.93 208.33C104.96 208.58 104.97 208.83 104.97 209.08V222.54C104.77 222.62 104.5 222.7 104.13 222.77C103.77 222.84 103.39 222.87 103 222.87C102.19 222.87 101.59 222.72 101.2 222.41C100.81 222.1 100.61 221.59 100.61 220.86V209.53C100.61 208.3 100.26 207.41 99.5699 206.83C98.8699 206.26 97.94 205.97 96.77 205.97C95.99 205.97 95.25 206.09 94.55 206.35C93.85 206.6 93.27 206.88 92.79 207.19V222.53C92.6 222.61 92.32 222.69 91.98 222.76C91.63 222.83 91.25 222.86 90.83 222.86C90.02 222.86 89.42 222.71 89.03 222.4C88.64 222.09 88.4399 221.58 88.4399 220.85V207.06C88.4399 206.42 88.5699 205.9 88.8199 205.51C89.0699 205.12 89.4899 204.73 90.0699 204.34C90.8799 203.81 91.89 203.37 93.12 203C94.35 202.64 95.59 202.46 96.84 202.46C98.09 202.46 99.33 202.64 100.37 203C101.41 203.36 102.27 203.89 102.94 204.59C103.72 203.98 104.65 203.47 105.72 203.06C106.79 202.66 108.04 202.45 109.46 202.45C110.55 202.45 111.56 202.58 112.51 202.85C113.46 203.11 114.27 203.53 114.95 204.1C115.63 204.67 116.17 205.39 116.56 206.25C116.95 207.11 117.15 208.15 117.15 209.34V222.51C116.93 222.59 116.64 222.67 116.29 222.74C115.94 222.81 115.56 222.84 115.14 222.84C114.33 222.84 113.73 222.69 113.34 222.38C112.95 222.07 112.76 221.56 112.76 220.83V209.5C112.76 208.27 112.42 207.38 111.74 206.8L111.76 206.85Z" fill="white"/>
<path d="M126.33 215.06C126.72 216.65 127.48 217.83 128.61 218.59C129.74 219.36 131.18 219.74 132.94 219.74C134.11 219.74 135.18 219.56 136.16 219.2C137.13 218.84 137.92 218.45 138.5 218.03C139.28 218.48 139.67 219.1 139.67 219.91C139.67 220.38 139.49 220.82 139.13 221.23C138.77 221.63 138.27 221.98 137.65 222.27C137.02 222.56 136.28 222.79 135.44 222.96C134.59 223.13 133.68 223.21 132.7 223.21C131.08 223.21 129.61 222.99 128.29 222.54C126.97 222.09 125.83 221.43 124.88 220.53C123.93 219.64 123.2 218.54 122.68 217.23C122.16 215.92 121.91 214.4 121.91 212.67C121.91 210.94 122.16 209.53 122.66 208.26C123.16 206.99 123.84 205.93 124.71 205.08C125.57 204.23 126.59 203.58 127.76 203.14C128.93 202.69 130.18 202.47 131.52 202.47C132.86 202.47 134.08 202.69 135.18 203.12C136.28 203.55 137.23 204.15 138.02 204.92C138.81 205.69 139.43 206.6 139.86 207.66C140.29 208.72 140.51 209.88 140.51 211.13C140.51 211.83 140.34 212.34 140.01 212.66C139.68 212.98 139.19 213.2 138.55 213.31L126.34 215.06H126.33ZM131.51 205.86C129.98 205.86 128.7 206.38 127.68 207.41C126.66 208.44 126.13 209.92 126.07 211.84L136.35 210.38C136.24 209.13 135.78 208.06 134.97 207.18C134.16 206.3 133.01 205.86 131.5 205.86H131.51Z" fill="white"/>
<path d="M157.03 206.95C156.26 206.31 155.23 205.99 153.92 205.99C152.94 205.99 152.07 206.11 151.31 206.37C150.55 206.63 149.88 206.9 149.32 207.21V222.55C149.12 222.63 148.85 222.71 148.51 222.78C148.16 222.85 147.78 222.88 147.36 222.88C146.55 222.88 145.95 222.73 145.56 222.42C145.17 222.11 144.98 221.6 144.98 220.87V207.08C144.98 206.44 145.1 205.92 145.36 205.53C145.61 205.14 146.03 204.75 146.61 204.36C147.39 203.89 148.41 203.45 149.66 203.06C150.91 202.67 152.33 202.48 153.92 202.48C156.62 202.48 158.74 203.09 160.27 204.3C161.8 205.51 162.57 207.34 162.57 209.8V222.55C162.37 222.63 162.1 222.71 161.73 222.78C161.37 222.85 160.98 222.88 160.56 222.88C159.75 222.88 159.15 222.73 158.76 222.42C158.37 222.11 158.18 221.6 158.18 220.87V209.96C158.18 208.59 157.8 207.59 157.03 206.95Z" fill="white"/>
<path d="M173.61 219.03C174.19 219.45 175.02 219.66 176.08 219.66C176.55 219.66 177.06 219.59 177.58 219.45C178.1 219.31 178.57 219.14 178.96 218.95C179.15 219.17 179.33 219.42 179.48 219.7C179.63 219.98 179.71 220.31 179.71 220.7C179.71 221.42 179.34 222.02 178.6 222.5C177.86 222.97 176.74 223.21 175.23 223.21C173.14 223.21 171.48 222.74 170.23 221.81C168.99 220.88 168.37 219.34 168.37 217.19V197.67C168.57 197.61 168.84 197.54 169.21 197.46C169.57 197.38 169.96 197.33 170.38 197.33C171.19 197.33 171.78 197.48 172.16 197.79C172.54 198.1 172.72 198.61 172.72 199.34V203.48H179.2C179.31 203.65 179.41 203.88 179.51 204.19C179.61 204.5 179.66 204.82 179.66 205.15C179.66 206.35 179.14 206.95 178.11 206.95H172.72V216.9C172.72 217.9 173.01 218.61 173.6 219.03H173.61Z" fill="white"/>
<path d="M191.62 202.48C194.21 202.48 196.27 203.04 197.81 204.17C199.34 205.3 200.11 207.08 200.11 209.5V219.24C200.11 219.88 199.96 220.38 199.67 220.72C199.38 221.07 198.98 221.4 198.48 221.7C197.75 222.12 196.82 222.48 195.68 222.79C194.54 223.1 193.21 223.25 191.71 223.25C189.01 223.25 186.9 222.72 185.38 221.66C183.86 220.6 183.1 219.04 183.1 216.98C183.1 215.14 183.69 213.73 184.88 212.76C186.06 211.79 187.77 211.19 190 210.96L195.81 210.38V209.46C195.81 208.23 195.41 207.34 194.62 206.79C193.83 206.24 192.72 205.95 191.3 205.95C190.18 205.95 189.11 206.1 188.08 206.41C187.05 206.72 186.13 207.07 185.32 207.45C185.04 207.23 184.8 206.96 184.61 206.63C184.41 206.31 184.32 205.96 184.32 205.56C184.32 205.09 184.44 204.7 184.68 204.39C184.92 204.08 185.29 203.82 185.79 203.6C186.57 203.21 187.46 202.92 188.46 202.74C189.46 202.56 190.52 202.47 191.64 202.47L191.62 202.48ZM191.7 219.83C192.68 219.83 193.53 219.73 194.25 219.54C194.97 219.35 195.49 219.14 195.8 218.91V213.6L191.24 214.06C189.96 214.2 189 214.48 188.36 214.92C187.72 215.35 187.4 216.01 187.4 216.91C187.4 217.81 187.75 218.55 188.44 219.06C189.14 219.58 190.22 219.83 191.7 219.83Z" fill="white"/>
<path d="M208.38 222.88C207.57 222.88 206.97 222.73 206.58 222.42C206.19 222.11 206 221.6 206 220.87V195.5C206.19 195.44 206.47 195.37 206.84 195.29C207.2 195.21 207.59 195.16 208.01 195.16C208.82 195.16 209.42 195.31 209.81 195.62C210.2 195.93 210.4 196.44 210.4 197.17V222.54C210.18 222.62 209.89 222.7 209.54 222.77C209.19 222.84 208.81 222.87 208.39 222.87L208.38 222.88Z" fill="white"/>
<path d="M236.83 207.05C236.01 206.34 234.93 205.98 233.59 205.98C232.7 205.98 231.88 206.13 231.14 206.42C230.4 206.71 229.75 207.07 229.2 207.49V222.54C229 222.62 228.73 222.7 228.38 222.77C228.03 222.84 227.65 222.87 227.23 222.87C226.42 222.87 225.82 222.72 225.43 222.41C225.04 222.1 224.85 221.59 224.85 220.86V195.49C225.04 195.43 225.32 195.36 225.69 195.28C226.05 195.2 226.44 195.15 226.86 195.15C227.67 195.15 228.26 195.3 228.64 195.61C229.02 195.92 229.2 196.43 229.2 197.16V203.76C229.84 203.43 230.59 203.13 231.44 202.86C232.29 202.6 233.24 202.46 234.3 202.46C236.72 202.46 238.68 203.1 240.17 204.38C241.66 205.66 242.41 207.61 242.41 210.23V222.52C242.21 222.6 241.94 222.68 241.57 222.75C241.21 222.82 240.83 222.85 240.44 222.85C239.6 222.85 239 222.7 238.62 222.39C238.24 222.08 238.06 221.57 238.06 220.84V210.39C238.06 208.86 237.65 207.74 236.83 207.02V207.05Z" fill="white"/>
<path d="M251.57 215.06C251.96 216.65 252.72 217.83 253.85 218.59C254.98 219.36 256.42 219.74 258.18 219.74C259.35 219.74 260.42 219.56 261.4 219.2C262.37 218.84 263.16 218.45 263.74 218.03C264.52 218.48 264.91 219.1 264.91 219.91C264.91 220.38 264.73 220.82 264.37 221.23C264.01 221.63 263.51 221.98 262.89 222.27C262.26 222.56 261.52 222.79 260.68 222.96C259.83 223.13 258.92 223.21 257.94 223.21C256.32 223.21 254.85 222.99 253.53 222.54C252.21 222.09 251.07 221.43 250.12 220.53C249.17 219.64 248.44 218.54 247.92 217.23C247.4 215.92 247.15 214.4 247.15 212.67C247.15 210.94 247.4 209.53 247.9 208.26C248.4 206.99 249.08 205.93 249.95 205.08C250.81 204.23 251.83 203.58 253 203.14C254.17 202.69 255.42 202.47 256.76 202.47C258.1 202.47 259.32 202.69 260.42 203.12C261.52 203.55 262.47 204.15 263.26 204.92C264.05 205.69 264.67 206.6 265.1 207.66C265.53 208.72 265.75 209.88 265.75 211.13C265.75 211.83 265.58 212.34 265.25 212.66C264.92 212.98 264.43 213.2 263.79 213.31L251.58 215.06H251.57ZM256.75 205.86C255.22 205.86 253.94 206.38 252.92 207.41C251.9 208.44 251.37 209.92 251.31 211.84L261.59 210.38C261.48 209.13 261.02 208.06 260.21 207.18C259.4 206.3 258.25 205.86 256.74 205.86H256.75Z" fill="white"/>
<path d="M277.48 202.48C280.07 202.48 282.13 203.04 283.67 204.17C285.2 205.3 285.97 207.08 285.97 209.5V219.24C285.97 219.88 285.82 220.38 285.53 220.72C285.24 221.07 284.84 221.4 284.34 221.7C283.61 222.12 282.68 222.48 281.54 222.79C280.4 223.1 279.07 223.25 277.57 223.25C274.87 223.25 272.76 222.72 271.24 221.66C269.72 220.6 268.96 219.04 268.96 216.98C268.96 215.14 269.55 213.73 270.74 212.76C271.92 211.79 273.63 211.19 275.86 210.96L281.67 210.38V209.46C281.67 208.23 281.27 207.34 280.48 206.79C279.69 206.24 278.58 205.95 277.16 205.95C276.04 205.95 274.97 206.1 273.94 206.41C272.91 206.72 271.99 207.07 271.18 207.45C270.9 207.23 270.66 206.96 270.47 206.63C270.27 206.31 270.18 205.96 270.18 205.56C270.18 205.09 270.3 204.7 270.54 204.39C270.78 204.08 271.15 203.82 271.65 203.6C272.43 203.21 273.32 202.92 274.32 202.74C275.32 202.56 276.38 202.47 277.5 202.47L277.48 202.48ZM277.56 219.83C278.54 219.83 279.39 219.73 280.11 219.54C280.83 219.35 281.35 219.14 281.66 218.91V213.6L277.1 214.06C275.82 214.2 274.86 214.48 274.22 214.92C273.58 215.35 273.26 216.01 273.26 216.91C273.26 217.81 273.61 218.55 274.3 219.06C275 219.58 276.08 219.83 277.56 219.83Z" fill="white"/>
<path d="M294.24 222.88C293.43 222.88 292.83 222.73 292.44 222.42C292.05 222.11 291.86 221.6 291.86 220.87V195.5C292.05 195.44 292.33 195.37 292.7 195.29C293.06 195.21 293.45 195.16 293.87 195.16C294.68 195.16 295.28 195.31 295.67 195.62C296.06 195.93 296.26 196.44 296.26 197.17V222.54C296.04 222.62 295.75 222.7 295.4 222.77C295.05 222.84 294.67 222.87 294.25 222.87L294.24 222.88Z" fill="white"/>
<path d="M307.54 219.03C308.12 219.45 308.95 219.66 310.01 219.66C310.48 219.66 310.99 219.59 311.51 219.45C312.03 219.31 312.5 219.14 312.89 218.95C313.08 219.17 313.26 219.42 313.41 219.7C313.56 219.98 313.64 220.31 313.64 220.7C313.64 221.42 313.27 222.02 312.53 222.5C311.79 222.97 310.67 223.21 309.16 223.21C307.07 223.21 305.41 222.74 304.16 221.81C302.92 220.88 302.3 219.34 302.3 217.19V197.67C302.5 197.61 302.77 197.54 303.14 197.46C303.5 197.38 303.89 197.33 304.31 197.33C305.12 197.33 305.71 197.48 306.09 197.79C306.47 198.1 306.65 198.61 306.65 199.34V203.48H313.13C313.24 203.65 313.34 203.88 313.44 204.19C313.54 204.5 313.59 204.82 313.59 205.15C313.59 206.35 313.07 206.95 312.04 206.95H306.65V216.9C306.65 217.9 306.94 218.61 307.53 219.03H307.54Z" fill="white"/>
<path d="M330.17 207.05C329.35 206.34 328.27 205.98 326.93 205.98C326.04 205.98 325.22 206.13 324.48 206.42C323.74 206.71 323.09 207.07 322.54 207.49V222.54C322.34 222.62 322.07 222.7 321.72 222.77C321.37 222.84 320.99 222.87 320.57 222.87C319.76 222.87 319.16 222.72 318.77 222.41C318.38 222.1 318.19 221.59 318.19 220.86V195.49C318.38 195.43 318.66 195.36 319.03 195.28C319.39 195.2 319.78 195.15 320.2 195.15C321.01 195.15 321.6 195.3 321.98 195.61C322.36 195.92 322.54 196.43 322.54 197.16V203.76C323.18 203.43 323.93 203.13 324.78 202.86C325.63 202.6 326.58 202.46 327.64 202.46C330.06 202.46 332.02 203.1 333.51 204.38C335 205.66 335.75 207.61 335.75 210.23V222.52C335.55 222.6 335.28 222.68 334.91 222.75C334.55 222.82 334.17 222.85 333.78 222.85C332.94 222.85 332.34 222.7 331.96 222.39C331.58 222.08 331.4 221.57 331.4 220.84V210.39C331.4 208.86 330.99 207.74 330.17 207.02V207.05Z" fill="white"/>
<path d="M357.15 202.48C359.74 202.48 361.8 203.04 363.34 204.17C364.87 205.3 365.64 207.08 365.64 209.5V219.24C365.64 219.88 365.49 220.38 365.2 220.72C364.91 221.07 364.51 221.4 364.01 221.7C363.28 222.12 362.35 222.48 361.21 222.79C360.07 223.1 358.74 223.25 357.24 223.25C354.54 223.25 352.43 222.72 350.91 221.66C349.39 220.6 348.63 219.04 348.63 216.98C348.63 215.14 349.22 213.73 350.41 212.76C351.59 211.79 353.3 211.19 355.53 210.96L361.34 210.38V209.46C361.34 208.23 360.94 207.34 360.15 206.79C359.36 206.24 358.25 205.95 356.83 205.95C355.71 205.95 354.64 206.1 353.61 206.41C352.58 206.72 351.66 207.07 350.85 207.45C350.57 207.23 350.33 206.96 350.14 206.63C349.94 206.31 349.85 205.96 349.85 205.56C349.85 205.09 349.97 204.7 350.21 204.39C350.45 204.08 350.82 203.82 351.32 203.6C352.1 203.21 352.99 202.92 353.99 202.74C354.99 202.56 356.05 202.47 357.17 202.47L357.15 202.48ZM357.23 219.83C358.21 219.83 359.06 219.73 359.78 219.54C360.5 219.35 361.02 219.14 361.33 218.91V213.6L356.77 214.06C355.49 214.2 354.53 214.48 353.89 214.92C353.25 215.35 352.93 216.01 352.93 216.91C352.93 217.81 353.28 218.55 353.97 219.06C354.67 219.58 355.75 219.83 357.23 219.83Z" fill="white"/>
<path d="M380.1 223.21C379.21 223.21 378.37 223.12 377.59 222.94C376.81 222.76 376.14 222.53 375.58 222.25V230.11C375.38 230.19 375.11 230.27 374.77 230.34C374.42 230.41 374.04 230.44 373.62 230.44C372.81 230.44 372.21 230.29 371.82 229.98C371.43 229.67 371.24 229.14 371.24 228.39V206.78C371.24 206.17 371.35 205.67 371.57 205.3C371.79 204.92 372.21 204.55 372.82 204.19C373.6 203.74 374.56 203.35 375.68 203C376.81 202.65 378.08 202.48 379.51 202.48C380.94 202.48 382.31 202.68 383.56 203.09C384.81 203.5 385.9 204.11 386.82 204.95C387.74 205.79 388.46 206.85 388.99 208.15C389.52 209.45 389.78 210.99 389.78 212.77C389.78 214.55 389.54 216.05 389.05 217.35C388.56 218.65 387.89 219.73 387.04 220.61C386.19 221.49 385.17 222.14 383.99 222.57C382.81 223 381.5 223.22 380.08 223.22L380.1 223.21ZM379.43 219.66C381.24 219.66 382.68 219.11 383.74 218.01C384.8 216.91 385.33 215.16 385.33 212.76C385.33 211.53 385.18 210.49 384.87 209.63C384.56 208.77 384.15 208.06 383.64 207.52C383.12 206.98 382.51 206.59 381.8 206.35C381.09 206.11 380.33 205.99 379.52 205.99C378.63 205.99 377.87 206.09 377.24 206.3C376.61 206.51 376.06 206.75 375.59 207.03V218.53C376.06 218.86 376.62 219.14 377.26 219.35C377.9 219.56 378.63 219.66 379.43 219.66Z" fill="white"/>
<path d="M403.39 223.21C402.5 223.21 401.66 223.12 400.88 222.94C400.1 222.76 399.43 222.53 398.87 222.25V230.11C398.67 230.19 398.4 230.27 398.06 230.34C397.71 230.41 397.33 230.44 396.91 230.44C396.1 230.44 395.5 230.29 395.11 229.98C394.72 229.67 394.53 229.14 394.53 228.39V206.78C394.53 206.17 394.64 205.67 394.86 205.3C395.08 204.92 395.5 204.55 396.11 204.19C396.89 203.74 397.85 203.35 398.97 203C400.1 202.65 401.37 202.48 402.8 202.48C404.23 202.48 405.6 202.68 406.85 203.09C408.1 203.5 409.19 204.11 410.11 204.95C411.03 205.79 411.75 206.85 412.28 208.15C412.81 209.45 413.07 210.99 413.07 212.77C413.07 214.55 412.83 216.05 412.34 217.35C411.85 218.65 411.18 219.73 410.33 220.61C409.48 221.49 408.46 222.14 407.28 222.57C406.1 223 404.79 223.22 403.37 223.22L403.39 223.21ZM402.72 219.66C404.53 219.66 405.97 219.11 407.03 218.01C408.09 216.91 408.62 215.16 408.62 212.76C408.62 211.53 408.47 210.49 408.16 209.63C407.85 208.77 407.44 208.06 406.93 207.52C406.41 206.98 405.8 206.59 405.09 206.35C404.38 206.11 403.62 205.99 402.81 205.99C401.92 205.99 401.16 206.09 400.53 206.3C399.9 206.51 399.35 206.75 398.88 207.03V218.53C399.35 218.86 399.91 219.14 400.55 219.35C401.19 219.56 401.92 219.66 402.72 219.66Z" fill="white"/>
<path d="M420.48 222.88C419.67 222.88 419.07 222.73 418.68 222.42C418.29 222.11 418.1 221.6 418.1 220.87V195.5C418.29 195.44 418.57 195.37 418.94 195.29C419.3 195.21 419.69 195.16 420.11 195.16C420.92 195.16 421.52 195.31 421.91 195.62C422.3 195.93 422.5 196.44 422.5 197.17V222.54C422.28 222.62 421.99 222.7 421.64 222.77C421.29 222.84 420.91 222.87 420.49 222.87L420.48 222.88Z" fill="white"/>
<path d="M428.26 197.04C428.26 196.32 428.51 195.71 429.01 195.22C429.51 194.73 430.15 194.49 430.93 194.49C431.71 194.49 432.34 194.74 432.81 195.22C433.28 195.71 433.52 196.31 433.52 197.04C433.52 197.77 433.28 198.37 432.81 198.86C432.34 199.35 431.71 199.59 430.93 199.59C430.15 199.59 429.51 199.35 429.01 198.86C428.51 198.37 428.26 197.77 428.26 197.04ZM433.11 222.54C432.91 222.62 432.64 222.7 432.3 222.77C431.95 222.84 431.55 222.87 431.11 222.87C430.3 222.87 429.7 222.72 429.31 222.41C428.92 222.1 428.73 221.59 428.73 220.86V203.18C428.95 203.12 429.24 203.05 429.59 202.97C429.94 202.89 430.34 202.84 430.78 202.84C431.59 202.84 432.18 202.99 432.56 203.3C432.94 203.61 433.12 204.14 433.12 204.89V222.53L433.11 222.54Z" fill="white"/>
<path d="M448.7 206.03C447.81 206.03 446.99 206.18 446.23 206.47C445.48 206.76 444.83 207.2 444.29 207.79C443.75 208.38 443.31 209.09 442.99 209.94C442.67 210.79 442.51 211.77 442.51 212.89C442.51 215.09 443.08 216.77 444.22 217.93C445.36 219.09 446.85 219.67 448.69 219.67C449.75 219.67 450.65 219.53 451.41 219.25C452.16 218.97 452.82 218.64 453.37 218.25C453.73 218.47 454.02 218.74 454.25 219.04C454.47 219.35 454.58 219.72 454.58 220.17C454.58 221.03 454.02 221.76 452.89 222.34C451.76 222.93 450.28 223.22 448.44 223.22C446.91 223.22 445.51 223.01 444.24 222.59C442.97 222.17 441.88 221.53 440.96 220.67C440.04 219.81 439.32 218.73 438.81 217.43C438.3 216.13 438.04 214.62 438.04 212.89C438.04 211.16 438.31 209.64 438.86 208.33C439.4 207.02 440.14 205.93 441.08 205.07C442.01 204.21 443.11 203.56 444.36 203.13C445.61 202.7 446.94 202.48 448.33 202.48C449.25 202.48 450.08 202.56 450.82 202.73C451.56 202.9 452.19 203.13 452.72 203.42C453.25 203.71 453.66 204.05 453.95 204.42C454.24 204.8 454.39 205.19 454.39 205.61C454.39 206 454.29 206.36 454.08 206.68C453.87 207 453.61 207.24 453.31 207.41C452.73 207.05 452.08 206.73 451.37 206.45C450.66 206.17 449.77 206.03 448.72 206.03H448.7Z" fill="white"/>
<path d="M466.59 202.48C469.18 202.48 471.24 203.04 472.78 204.17C474.31 205.3 475.08 207.08 475.08 209.5V219.24C475.08 219.88 474.93 220.38 474.64 220.72C474.35 221.07 473.95 221.4 473.45 221.7C472.72 222.12 471.79 222.48 470.65 222.79C469.51 223.1 468.18 223.25 466.68 223.25C463.98 223.25 461.87 222.72 460.35 221.66C458.83 220.6 458.07 219.04 458.07 216.98C458.07 215.14 458.66 213.73 459.85 212.76C461.03 211.79 462.74 211.19 464.97 210.96L470.78 210.38V209.46C470.78 208.23 470.38 207.34 469.59 206.79C468.8 206.24 467.69 205.95 466.27 205.95C465.15 205.95 464.08 206.1 463.05 206.41C462.02 206.72 461.1 207.07 460.29 207.45C460.01 207.23 459.77 206.96 459.58 206.63C459.38 206.31 459.29 205.96 459.29 205.56C459.29 205.09 459.41 204.7 459.65 204.39C459.89 204.08 460.26 203.82 460.76 203.6C461.54 203.21 462.43 202.92 463.43 202.74C464.43 202.56 465.49 202.47 466.61 202.47L466.59 202.48ZM466.67 219.83C467.65 219.83 468.5 219.73 469.22 219.54C469.94 219.35 470.46 219.14 470.77 218.91V213.6L466.21 214.06C464.93 214.2 463.97 214.48 463.33 214.92C462.69 215.35 462.37 216.01 462.37 216.91C462.37 217.81 462.72 218.55 463.41 219.06C464.11 219.58 465.19 219.83 466.67 219.83Z" fill="white"/>
<path d="M485.94 219.03C486.52 219.45 487.35 219.66 488.41 219.66C488.88 219.66 489.39 219.59 489.91 219.45C490.43 219.31 490.9 219.14 491.29 218.95C491.48 219.17 491.66 219.42 491.81 219.7C491.96 219.98 492.04 220.31 492.04 220.7C492.04 221.42 491.67 222.02 490.93 222.5C490.19 222.97 489.07 223.21 487.56 223.21C485.47 223.21 483.81 222.74 482.56 221.81C481.32 220.88 480.7 219.34 480.7 217.19V197.67C480.9 197.61 481.17 197.54 481.54 197.46C481.9 197.38 482.29 197.33 482.71 197.33C483.52 197.33 484.11 197.48 484.49 197.79C484.87 198.1 485.05 198.61 485.05 199.34V203.48H491.53C491.64 203.65 491.74 203.88 491.84 204.19C491.94 204.5 491.99 204.82 491.99 205.15C491.99 206.35 491.47 206.95 490.44 206.95H485.05V216.9C485.05 217.9 485.34 218.61 485.93 219.03H485.94Z" fill="white"/>
<path d="M496.22 197.04C496.22 196.32 496.47 195.71 496.97 195.22C497.47 194.73 498.11 194.49 498.89 194.49C499.67 194.49 500.3 194.74 500.77 195.22C501.24 195.71 501.48 196.31 501.48 197.04C501.48 197.77 501.24 198.37 500.77 198.86C500.3 199.35 499.67 199.59 498.89 199.59C498.11 199.59 497.47 199.35 496.97 198.86C496.47 198.37 496.22 197.77 496.22 197.04ZM501.07 222.54C500.87 222.62 500.6 222.7 500.26 222.77C499.91 222.84 499.51 222.87 499.07 222.87C498.26 222.87 497.66 222.72 497.27 222.41C496.88 222.1 496.69 221.59 496.69 220.86V203.18C496.91 203.12 497.2 203.05 497.55 202.97C497.9 202.89 498.3 202.84 498.74 202.84C499.55 202.84 500.14 202.99 500.52 203.3C500.9 203.61 501.08 204.14 501.08 204.89V222.53L501.07 222.54Z" fill="white"/>
<path d="M525.82 212.84C525.82 214.43 525.58 215.86 525.11 217.15C524.64 218.43 523.97 219.52 523.12 220.41C522.27 221.3 521.23 221.99 520.01 222.48C518.78 222.97 517.42 223.21 515.91 223.21C514.4 223.21 513.04 222.97 511.81 222.48C510.58 221.99 509.55 221.3 508.7 220.41C507.85 219.52 507.19 218.43 506.71 217.15C506.24 215.87 506 214.43 506 212.84C506 211.25 506.24 209.82 506.71 208.53C507.18 207.25 507.85 206.16 508.72 205.27C509.58 204.38 510.63 203.69 511.85 203.2C513.08 202.71 514.43 202.47 515.9 202.47C517.37 202.47 518.73 202.71 519.95 203.2C521.18 203.69 522.22 204.38 523.09 205.29C523.95 206.2 524.62 207.28 525.1 208.55C525.57 209.82 525.81 211.25 525.81 212.84H525.82ZM515.91 205.98C514.24 205.98 512.91 206.58 511.94 207.78C510.96 208.98 510.48 210.66 510.48 212.84C510.48 215.02 510.95 216.69 511.9 217.88C512.85 219.06 514.18 219.66 515.91 219.66C517.64 219.66 518.98 219.07 519.92 217.88C520.86 216.69 521.34 215.02 521.34 212.84C521.34 210.66 520.86 209.01 519.9 207.8C518.94 206.59 517.61 205.98 515.91 205.98Z" fill="white"/>
<path d="M542.6 206.95C541.83 206.31 540.8 205.99 539.49 205.99C538.51 205.99 537.64 206.11 536.88 206.37C536.12 206.63 535.45 206.9 534.89 207.21V222.55C534.69 222.63 534.42 222.71 534.08 222.78C533.73 222.85 533.35 222.88 532.93 222.88C532.12 222.88 531.52 222.73 531.13 222.42C530.74 222.11 530.55 221.6 530.55 220.87V207.08C530.55 206.44 530.67 205.92 530.93 205.53C531.18 205.14 531.6 204.75 532.18 204.36C532.96 203.89 533.98 203.45 535.23 203.06C536.48 202.67 537.9 202.48 539.49 202.48C542.19 202.48 544.31 203.09 545.84 204.3C547.37 205.51 548.14 207.34 548.14 209.8V222.55C547.94 222.63 547.67 222.71 547.3 222.78C546.94 222.85 546.55 222.88 546.13 222.88C545.32 222.88 544.72 222.73 544.33 222.42C543.94 222.11 543.75 221.6 543.75 220.87V209.96C543.75 208.59 543.37 207.59 542.6 206.95Z" fill="white"/>
<path d="M564.95 222.88C564.14 222.88 563.54 222.73 563.15 222.42C562.76 222.11 562.57 221.6 562.57 220.87V195.5C562.76 195.44 563.04 195.37 563.41 195.29C563.77 195.21 564.16 195.16 564.58 195.16C565.39 195.16 565.99 195.31 566.38 195.62C566.77 195.93 566.97 196.44 566.97 197.17V222.54C566.75 222.62 566.46 222.7 566.11 222.77C565.76 222.84 565.38 222.87 564.96 222.87L564.95 222.88Z" fill="white"/>
<path d="M580.25 202.48C582.84 202.48 584.9 203.04 586.44 204.17C587.97 205.3 588.74 207.08 588.74 209.5V219.24C588.74 219.88 588.59 220.38 588.3 220.72C588.01 221.07 587.61 221.4 587.11 221.7C586.38 222.12 585.45 222.48 584.31 222.79C583.17 223.1 581.84 223.25 580.34 223.25C577.64 223.25 575.53 222.72 574.01 221.66C572.49 220.6 571.73 219.04 571.73 216.98C571.73 215.14 572.32 213.73 573.51 212.76C574.69 211.79 576.4 211.19 578.63 210.96L584.44 210.38V209.46C584.44 208.23 584.04 207.34 583.25 206.79C582.46 206.24 581.35 205.95 579.93 205.95C578.81 205.95 577.74 206.1 576.71 206.41C575.68 206.72 574.76 207.07 573.95 207.45C573.67 207.23 573.43 206.96 573.24 206.63C573.04 206.31 572.95 205.96 572.95 205.56C572.95 205.09 573.07 204.7 573.31 204.39C573.55 204.08 573.92 203.82 574.42 203.6C575.2 203.21 576.09 202.92 577.09 202.74C578.09 202.56 579.15 202.47 580.27 202.47L580.25 202.48ZM580.33 219.83C581.31 219.83 582.16 219.73 582.88 219.54C583.6 219.35 584.12 219.14 584.43 218.91V213.6L579.87 214.06C578.59 214.2 577.63 214.48 576.99 214.92C576.35 215.35 576.03 216.01 576.03 216.91C576.03 217.81 576.38 218.55 577.07 219.06C577.77 219.58 578.85 219.83 580.33 219.83Z" fill="white"/>
<path d="M594.33 203.1C594.52 203.04 594.8 202.98 595.17 202.91C595.53 202.84 595.92 202.81 596.34 202.81C597.15 202.81 597.74 202.96 598.12 203.27C598.5 203.58 598.68 204.11 598.68 204.86V215.19C598.68 216.81 599.1 217.96 599.96 218.64C600.81 219.32 601.99 219.66 603.49 219.66C604.46 219.66 605.29 219.56 605.96 219.37C606.63 219.18 607.16 218.97 607.55 218.74V203.11C607.77 203.05 608.06 202.99 608.41 202.92C608.76 202.85 609.14 202.82 609.56 202.82C610.37 202.82 610.97 202.97 611.36 203.28C611.75 203.59 611.94 204.12 611.94 204.87V218.96C611.94 219.57 611.84 220.08 611.65 220.46C611.45 220.85 611.06 221.23 610.48 221.59C609.76 222.01 608.8 222.38 607.62 222.72C606.44 223.05 605.05 223.22 603.46 223.22C600.59 223.22 598.35 222.59 596.75 221.32C595.15 220.05 594.35 218.04 594.35 215.28V203.12L594.33 203.1Z" fill="white"/>
<path d="M629.76 206.95C628.99 206.31 627.96 205.99 626.65 205.99C625.67 205.99 624.8 206.11 624.04 206.37C623.28 206.63 622.61 206.9 622.05 207.21V222.55C621.85 222.63 621.58 222.71 621.24 222.78C620.89 222.85 620.51 222.88 620.09 222.88C619.28 222.88 618.68 222.73 618.29 222.42C617.9 222.11 617.71 221.6 617.71 220.87V207.08C617.71 206.44 617.83 205.92 618.09 205.53C618.34 205.14 618.76 204.75 619.34 204.36C620.12 203.89 621.14 203.45 622.39 203.06C623.64 202.67 625.06 202.48 626.65 202.48C629.35 202.48 631.47 203.09 633 204.3C634.53 205.51 635.3 207.34 635.3 209.8V222.55C635.1 222.63 634.83 222.71 634.46 222.78C634.1 222.85 633.71 222.88 633.29 222.88C632.48 222.88 631.88 222.73 631.49 222.42C631.1 222.11 630.91 221.6 630.91 220.87V209.96C630.91 208.59 630.53 207.59 629.76 206.95Z" fill="white"/>
<path d="M650.68 206.03C649.79 206.03 648.97 206.18 648.21 206.47C647.46 206.76 646.81 207.2 646.27 207.79C645.73 208.38 645.29 209.09 644.97 209.94C644.65 210.79 644.49 211.77 644.49 212.89C644.49 215.09 645.06 216.77 646.2 217.93C647.34 219.09 648.83 219.67 650.67 219.67C651.73 219.67 652.63 219.53 653.39 219.25C654.14 218.97 654.8 218.64 655.35 218.25C655.71 218.47 656 218.74 656.23 219.04C656.45 219.35 656.56 219.72 656.56 220.17C656.56 221.03 656 221.76 654.87 222.34C653.74 222.93 652.26 223.22 650.42 223.22C648.89 223.22 647.49 223.01 646.22 222.59C644.95 222.17 643.86 221.53 642.94 220.67C642.02 219.81 641.3 218.73 640.79 217.43C640.28 216.13 640.02 214.62 640.02 212.89C640.02 211.16 640.29 209.64 640.84 208.33C641.38 207.02 642.12 205.93 643.06 205.07C643.99 204.21 645.09 203.56 646.34 203.13C647.59 202.7 648.92 202.48 650.31 202.48C651.23 202.48 652.06 202.56 652.8 202.73C653.54 202.9 654.17 203.13 654.7 203.42C655.23 203.71 655.64 204.05 655.93 204.42C656.22 204.8 656.37 205.19 656.37 205.61C656.37 206 656.27 206.36 656.06 206.68C655.85 207 655.59 207.24 655.29 207.41C654.71 207.05 654.06 206.73 653.35 206.45C652.64 206.17 651.75 206.03 650.7 206.03H650.68Z" fill="white"/>
<path d="M673.23 207.05C672.41 206.34 671.33 205.98 669.99 205.98C669.1 205.98 668.28 206.13 667.54 206.42C666.8 206.71 666.15 207.07 665.6 207.49V222.54C665.4 222.62 665.13 222.7 664.78 222.77C664.43 222.84 664.05 222.87 663.63 222.87C662.82 222.87 662.22 222.72 661.83 222.41C661.44 222.1 661.25 221.59 661.25 220.86V195.49C661.44 195.43 661.72 195.36 662.09 195.28C662.45 195.2 662.84 195.15 663.26 195.15C664.07 195.15 664.66 195.3 665.04 195.61C665.42 195.92 665.6 196.43 665.6 197.16V203.76C666.24 203.43 666.99 203.13 667.84 202.86C668.69 202.6 669.64 202.46 670.7 202.46C673.12 202.46 675.08 203.1 676.57 204.38C678.06 205.66 678.81 207.61 678.81 210.23V222.52C678.61 222.6 678.34 222.68 677.97 222.75C677.61 222.82 677.23 222.85 676.84 222.85C676 222.85 675.4 222.7 675.02 222.39C674.64 222.08 674.46 221.57 674.46 220.84V210.39C674.46 208.86 674.05 207.74 673.23 207.02V207.05Z" fill="white"/>
</g>
<defs>
<filter id="filter0_d_3_2" x="5.58003" y="0.529993" width="63.75" height="47.7" filterUnits="userSpaceOnUse" color-interpolation-filters="sRGB">
<feFlood flood-opacity="0" result="BackgroundImageFix"/>
<feColorMatrix in="SourceAlpha" type="matrix" values="0 0 0 0 0 0 0 0 0 0 0 0 0 0 0 0 0 0 127 0" result="hardAlpha"/>
<feOffset dx="-2.4" dy="2.4"/>
<feGaussianBlur stdDeviation="2.4"/>
<feColorMatrix type="matrix" values="0 0 0 0 0 0 0 0 0 0 0 0 0 0 0 0 0 0 0.6 0"/>
<feBlend mode="normal" in2="BackgroundImageFix" result="effect1_dropShadow_3_2"/>
<feBlend mode="normal" in="SourceGraphic" in2="effect1_dropShadow_3_2" result="shape"/>
</filter>
<filter id="filter1_d_3_2" x="0.0833249" y="63.004" width="380.788" height="56.9996" filterUnits="userSpaceOnUse" color-interpolation-filters="sRGB">
<feFlood flood-opacity="0" result="BackgroundImageFix"/>
<feColorMatrix in="SourceAlpha" type="matrix" values="0 0 0 0 0 0 0 0 0 0 0 0 0 0 0 0 0 0 127 0" result="hardAlpha"/>
<feOffset dx="-2.4" dy="2.4"/>
<feGaussianBlur stdDeviation="2.4"/>
<feColorMatrix type="matrix" values="0 0 0 0 0 0 0 0 0 0 0 0 0 0 0 0 0 0 0.6 0"/>
<feBlend mode="normal" in2="BackgroundImageFix" result="effect1_dropShadow_3_2"/>
<feBlend mode="normal" in="SourceGraphic" in2="effect1_dropShadow_3_2" result="shape"/>
</filter>
<filter id="filter2_d_3_2" x="6.39998" y="192.09" width="674.81" height="45.55" filterUnits="userSpaceOnUse" color-interpolation-filters="sRGB">
<feFlood flood-opacity="0" result="BackgroundImageFix"/>
<feColorMatrix in="SourceAlpha" type="matrix" values="0 0 0 0 0 0 0 0 0 0 0 0 0 0 0 0 0 0 127 0" result="hardAlpha"/>
<feOffset dx="-2.4" dy="2.4"/>
<feGaussianBlur stdDeviation="2.4"/>
<feColorMatrix type="matrix" values="0 0 0 0 0 0 0 0 0 0 0 0 0 0 0 0 0 0 0.6 0"/>
<feBlend mode="normal" in2="BackgroundImageFix" result="effect1_dropShadow_3_2"/>
<feBlend mode="normal" in="SourceGraphic" in2="effect1_dropShadow_3_2" result="shape"/>
</filter>
</defs>
</svg>
