<svg width="606" height="230" viewBox="0 0 606 230" fill="none" xmlns="http://www.w3.org/2000/svg">
<g filter="url(#filter0_d_3_4)">
<path d="M33.5 25.67C33.17 25.93 32.75 26.14 32.23 26.3C31.71 26.46 31.11 26.54 30.42 26.54C29.57 26.54 28.87 26.43 28.3 26.22C27.73 26.01 27.33 25.63 27.1 25.07C25.77 21.75 24.64 18.92 23.73 16.58C22.82 14.24 22.09 12.24 21.53 10.58H21.29C21.19 12.76 21.1 14.76 21.02 16.58C20.94 18.4 20.87 20.18 20.8 21.92C20.73 23.66 20.66 25.43 20.58 27.21C20.5 29 20.39 30.94 20.26 33.02C19.93 33.12 19.53 33.22 19.04 33.31C18.55 33.41 18.03 33.46 17.48 33.46C15.3 33.46 14.21 32.65 14.21 31.02C14.21 30.5 14.23 29.7 14.28 28.6C14.33 27.51 14.39 26.24 14.48 24.79C14.56 23.34 14.66 21.76 14.77 20.03C14.88 18.31 15 16.57 15.11 14.81C15.22 13.05 15.35 11.32 15.48 9.60997C15.61 7.89997 15.72 6.31998 15.82 4.84998C16.08 4.51998 16.56 4.18998 17.26 3.84998C17.96 3.50998 18.86 3.33997 19.97 3.33997C21.21 3.33997 22.21 3.53997 22.97 3.94997C23.73 4.35997 24.31 5.02997 24.7 5.97997C25.12 6.98997 25.57 8.09997 26.04 9.29997C26.51 10.5 26.99 11.74 27.48 13.01C27.97 14.28 28.45 15.52 28.92 16.74C29.39 17.96 29.84 19.11 30.26 20.18H30.46C31.57 17.12 32.66 14.16 33.75 11.3C34.84 8.43997 35.79 6.00997 36.6 4.02997C36.99 3.83997 37.49 3.66996 38.11 3.53996C38.73 3.40996 39.36 3.33997 40.01 3.33997C41.21 3.33997 42.17 3.51997 42.89 3.87997C43.61 4.23997 44.04 4.77997 44.21 5.48997C44.34 6.10997 44.49 7.08997 44.65 8.43997C44.81 9.78997 44.97 11.33 45.14 13.05C45.3 14.77 45.46 16.61 45.63 18.56C45.79 20.51 45.94 22.39 46.07 24.2C46.2 26.01 46.31 27.66 46.41 29.15C46.51 30.65 46.57 31.82 46.61 32.66C46.19 32.92 45.74 33.12 45.27 33.25C44.8 33.38 44.22 33.45 43.54 33.45C42.69 33.45 41.95 33.28 41.32 32.94C40.69 32.6 40.34 31.96 40.27 31.01C40.14 28.96 40.03 26.95 39.93 24.98C39.83 23.01 39.75 21.15 39.69 19.39C39.62 17.63 39.56 16.01 39.49 14.53C39.42 13.05 39.38 11.77 39.34 10.7H39.1C38.58 12.23 37.86 14.17 36.95 16.53C36.04 18.89 34.88 21.92 33.49 25.63L33.5 25.67Z" fill="white"/>
<path d="M70.1 26.16H59.17C58.81 27.36 58.43 28.62 58.02 29.92C57.61 31.22 57.28 32.3 57.02 33.14C56.69 33.27 56.34 33.38 55.97 33.48C55.6 33.58 55.13 33.63 54.58 33.63C53.47 33.63 52.61 33.41 51.99 32.97C51.37 32.53 51.06 31.9 51.06 31.09C51.06 30.7 51.12 30.32 51.23 29.94C51.34 29.57 51.48 29.14 51.64 28.65C51.9 27.74 52.25 26.64 52.69 25.36C53.13 24.08 53.6 22.68 54.11 21.16C54.61 19.65 55.16 18.09 55.74 16.48C56.33 14.87 56.89 13.31 57.42 11.8C57.96 10.29 58.48 8.87002 58.98 7.55002C59.48 6.23002 59.91 5.10002 60.27 4.16002C60.69 3.93002 61.32 3.70001 62.15 3.48001C62.98 3.25001 63.82 3.14001 64.66 3.14001C65.8 3.14001 66.84 3.31001 67.78 3.65001C68.72 3.99001 69.32 4.54001 69.59 5.28001C70.24 7.07001 70.96 9.13001 71.74 11.45C72.52 13.78 73.31 16.18 74.11 18.65C74.91 21.12 75.68 23.55 76.43 25.92C77.18 28.3 77.85 30.43 78.43 32.31C78.1 32.67 77.66 32.97 77.09 33.21C76.52 33.45 75.85 33.58 75.07 33.58C73.93 33.58 73.13 33.38 72.65 32.97C72.18 32.56 71.81 31.92 71.55 31.04L70.09 26.16H70.1ZM64.63 8.69002C64.34 9.50002 64.02 10.41 63.68 11.42C63.34 12.43 62.98 13.48 62.61 14.57C62.24 15.66 61.85 16.77 61.46 17.89C61.07 19.01 60.7 20.11 60.34 21.18H68.83L64.88 8.69002H64.64H64.63Z" fill="white"/>
<path d="M89.66 33.09C89.37 33.15 88.95 33.24 88.42 33.33C87.88 33.43 87.31 33.4799 86.69 33.4799C85.45 33.4799 84.58 33.25 84.08 32.8C83.58 32.34 83.32 31.5799 83.32 30.5099V6.00995C83.32 5.38995 83.48 4.91995 83.81 4.58995C84.13 4.25995 84.59 3.99995 85.18 3.80995C86.22 3.44995 87.45 3.19996 88.86 3.04996C90.27 2.89996 91.73 2.82996 93.23 2.82996C97.52 2.82996 100.74 3.71996 102.89 5.48996C105.04 7.25996 106.11 9.70996 106.11 12.83C106.11 14.88 105.57 16.66 104.5 18.17C103.43 19.68 101.95 20.85 100.06 21.66C101.49 23.51 102.87 25.28 104.18 26.95C105.5 28.63 106.48 29.94 107.13 30.88C106.87 31.73 106.41 32.38 105.76 32.86C105.11 33.33 104.39 33.57 103.61 33.57C102.6 33.57 101.83 33.34 101.29 32.89C100.75 32.43 100.22 31.8199 99.7 31.0399L94.19 22.7899H89.65V33.09H89.66ZM93.56 17.82C95.41 17.82 96.9 17.41 98.02 16.6C99.14 15.79 99.7 14.55 99.7 12.89C99.7 9.59995 97.5 7.95996 93.11 7.95996C92.46 7.95996 91.83 7.98995 91.23 8.05995C90.63 8.12995 90.07 8.18995 89.55 8.24995V17.81H93.55L93.56 17.82Z" fill="white"/>
<path d="M134.65 7.31999C134.65 7.96999 134.47 8.52998 134.11 8.99998C133.75 9.46998 133.35 9.83999 132.89 10.1C132.04 9.54999 131.1 9.03998 130.06 8.58998C129.02 8.12998 127.73 7.90999 126.21 7.90999C123.44 7.90999 121.24 8.79998 119.6 10.59C117.96 12.38 117.14 14.97 117.14 18.35C117.14 21.73 117.99 24.39 119.68 26.11C121.37 27.83 123.65 28.7 126.51 28.7C128.01 28.7 129.3 28.5 130.39 28.09C131.48 27.68 132.45 27.2 133.29 26.65C133.75 26.94 134.12 27.34 134.41 27.85C134.7 28.35 134.85 28.93 134.85 29.58C134.85 30.13 134.7 30.64 134.41 31.09C134.12 31.55 133.63 31.95 132.95 32.31C132.3 32.7 131.38 33.07 130.19 33.41C129 33.75 127.53 33.92 125.77 33.92C123.62 33.92 121.63 33.6 119.79 32.97C117.95 32.34 116.35 31.38 114.98 30.09C113.61 28.81 112.54 27.19 111.76 25.24C110.98 23.29 110.59 20.99 110.59 18.36C110.59 15.73 110.98 13.59 111.76 11.65C112.54 9.71998 113.61 8.08999 114.96 6.76999C116.31 5.44999 117.89 4.44999 119.69 3.76999C121.5 3.08999 123.41 2.73999 125.42 2.73999C126.82 2.73999 128.09 2.85999 129.23 3.10999C130.37 3.34999 131.34 3.68999 132.16 4.10999C132.97 4.52999 133.59 5.01999 134.01 5.56999C134.43 6.11999 134.64 6.70999 134.64 7.32999L134.65 7.31999Z" fill="white"/>
<path d="M145.56 33.33C145.02 33.43 144.45 33.48 143.83 33.48C142.59 33.48 141.72 33.25 141.22 32.8C140.72 32.34 140.46 31.58 140.46 30.51V3.53C140.72 3.46 141.13 3.37999 141.7 3.28999C142.27 3.18999 142.83 3.14 143.38 3.14C144.55 3.14 145.41 3.35 145.97 3.77C146.52 4.19 146.8 4.97 146.8 6.11V15.72H159V3.52C159.26 3.45 159.67 3.37 160.24 3.28C160.81 3.18 161.37 3.13 161.92 3.13C163.09 3.13 163.95 3.34999 164.51 3.78999C165.06 4.22999 165.34 5.02 165.34 6.16V33.09C165.05 33.15 164.63 33.24 164.1 33.33C163.56 33.43 162.99 33.48 162.37 33.48C161.13 33.48 160.26 33.25 159.76 32.8C159.26 32.34 159 31.58 159 30.51V20.8H146.8V33.1C146.51 33.16 146.09 33.25 145.56 33.34V33.33Z" fill="white"/>
<path d="M181.69 7.16997C181.69 6.51997 181.9 5.92997 182.32 5.38997C182.74 4.84997 183.33 4.38997 184.08 3.99997C184.83 3.60997 185.73 3.30998 186.79 3.09998C187.85 2.88998 188.99 2.77997 190.23 2.77997C191.99 2.77997 193.54 2.99997 194.89 3.43997C196.24 3.87997 197.38 4.48997 198.31 5.26997C199.24 6.04997 199.94 6.97997 200.41 8.04997C200.88 9.11997 201.12 10.31 201.12 11.61C201.12 13.37 200.64 15.07 199.68 16.73C198.72 18.39 197.13 20.16 194.92 22.05L187.8 28.25H200.88C201.04 28.51 201.19 28.85 201.32 29.28C201.45 29.7 201.52 30.16 201.52 30.65C201.52 31.5 201.32 32.12 200.93 32.53C200.54 32.94 200 33.14 199.32 33.14H182.24C181.72 32.78 181.31 32.33 181.02 31.77C180.73 31.22 180.58 30.57 180.58 29.82C180.58 29.01 180.75 28.31 181.09 27.72C181.43 27.13 181.83 26.63 182.29 26.21L190.05 19.13C191.87 17.5 193.12 16.15 193.81 15.06C194.5 13.97 194.83 12.9 194.83 11.86C194.83 10.66 194.39 9.67996 193.51 8.92996C192.63 8.17996 191.35 7.80997 189.66 7.80997C188.29 7.80997 187.07 8.02997 186 8.46997C184.93 8.90997 184.03 9.38997 183.32 9.90997C182.86 9.64997 182.48 9.28997 182.17 8.83997C181.86 8.37997 181.71 7.82996 181.71 7.17996L181.69 7.16997Z" fill="white"/>
<path d="M218.19 33.87C216.37 33.87 214.7 33.54 213.19 32.89C211.68 32.24 210.38 31.27 209.29 29.99C208.2 28.71 207.35 27.09 206.75 25.14C206.15 23.19 205.85 20.91 205.85 18.31C205.85 15.71 206.17 13.38 206.83 11.43C207.48 9.47998 208.36 7.85999 209.46 6.57999C210.57 5.28999 211.87 4.33998 213.36 3.72998C214.86 3.10998 216.47 2.79999 218.19 2.79999C219.91 2.79999 221.52 3.11998 223.02 3.74998C224.52 4.37998 225.83 5.33999 226.95 6.59999C228.07 7.86999 228.96 9.47998 229.61 11.43C230.26 13.38 230.59 15.68 230.59 18.31C230.59 20.94 230.29 23.18 229.69 25.12C229.09 27.06 228.23 28.67 227.13 29.97C226.02 31.27 224.71 32.25 223.2 32.9C221.69 33.55 220.02 33.88 218.2 33.88L218.19 33.87ZM224.34 18.3C224.34 14.72 223.76 12.08 222.61 10.37C221.46 8.65998 219.98 7.80998 218.19 7.80998C216.4 7.80998 214.94 8.66998 213.8 10.4C212.66 12.12 212.09 14.76 212.09 18.3C212.09 21.84 212.62 24.41 213.68 26.18C214.74 27.95 216.24 28.84 218.19 28.84C220.14 28.84 221.65 27.95 222.73 26.18C223.8 24.41 224.34 21.78 224.34 18.3Z" fill="white"/>
<path d="M235.22 7.16997C235.22 6.51997 235.43 5.92997 235.85 5.38997C236.27 4.84997 236.86 4.38997 237.61 3.99997C238.36 3.60997 239.26 3.30998 240.32 3.09998C241.38 2.88998 242.52 2.77997 243.76 2.77997C245.52 2.77997 247.07 2.99997 248.42 3.43997C249.77 3.87997 250.91 4.48997 251.84 5.26997C252.77 6.04997 253.47 6.97997 253.94 8.04997C254.41 9.11997 254.65 10.31 254.65 11.61C254.65 13.37 254.17 15.07 253.21 16.73C252.25 18.39 250.66 20.16 248.45 22.05L241.33 28.25H254.41C254.57 28.51 254.72 28.85 254.85 29.28C254.98 29.7 255.05 30.16 255.05 30.65C255.05 31.5 254.85 32.12 254.46 32.53C254.07 32.94 253.53 33.14 252.85 33.14H235.77C235.25 32.78 234.84 32.33 234.55 31.77C234.26 31.22 234.11 30.57 234.11 29.82C234.11 29.01 234.28 28.31 234.62 27.72C234.96 27.13 235.36 26.63 235.82 26.21L243.58 19.13C245.4 17.5 246.65 16.15 247.34 15.06C248.03 13.97 248.36 12.9 248.36 11.86C248.36 10.66 247.92 9.67996 247.04 8.92996C246.16 8.17996 244.88 7.80997 243.19 7.80997C241.82 7.80997 240.6 8.02997 239.53 8.46997C238.46 8.90997 237.56 9.38997 236.85 9.90997C236.39 9.64997 236.01 9.28997 235.7 8.83997C235.39 8.37997 235.24 7.82996 235.24 7.17996L235.22 7.16997Z" fill="white"/>
<path d="M268.45 2.77997C271.9 2.77997 274.58 3.50997 276.5 4.97997C278.42 6.43997 279.38 8.48997 279.38 11.13C279.38 12.01 279.24 12.81 278.97 13.52C278.69 14.24 278.34 14.86 277.92 15.4C277.5 15.94 277.02 16.39 276.5 16.77C275.98 17.15 275.46 17.43 274.94 17.62C275.59 17.85 276.23 18.16 276.87 18.55C277.5 18.94 278.07 19.44 278.55 20.04C279.04 20.64 279.44 21.34 279.75 22.14C280.06 22.94 280.21 23.86 280.21 24.9C280.21 26.33 279.92 27.6 279.36 28.71C278.79 29.82 277.99 30.75 276.97 31.52C275.95 32.28 274.72 32.86 273.29 33.25C271.86 33.64 270.3 33.84 268.61 33.84C267.08 33.84 265.71 33.72 264.51 33.5C263.31 33.27 262.28 32.96 261.44 32.55C260.59 32.14 259.95 31.66 259.51 31.11C259.07 30.56 258.85 29.97 258.85 29.35C258.85 28.67 259.02 28.08 259.36 27.59C259.7 27.1 260.13 26.73 260.65 26.47C261.4 27.02 262.34 27.55 263.48 28.06C264.62 28.56 266.11 28.82 267.97 28.82C269.83 28.82 271.38 28.45 272.43 27.7C273.49 26.95 274.02 25.88 274.02 24.48C274.02 23.18 273.56 22.16 272.63 21.43C271.7 20.7 270.26 20.33 268.31 20.33H263.97C263.81 20.07 263.66 19.73 263.53 19.31C263.4 18.89 263.33 18.42 263.33 17.89C263.33 17.34 263.39 16.85 263.53 16.43C263.66 16.01 263.81 15.67 263.97 15.4H268.17C269.93 15.4 271.2 15.06 272 14.38C272.8 13.7 273.2 12.79 273.2 11.65C273.2 10.45 272.73 9.49998 271.78 8.81998C270.84 8.13998 269.49 7.79997 267.73 7.79997C266.27 7.79997 265 7.99997 263.92 8.40997C262.85 8.81997 261.94 9.25997 261.19 9.74997C260.77 9.45997 260.39 9.07997 260.07 8.62997C259.74 8.16997 259.58 7.63997 259.58 7.01997C259.58 6.39997 259.8 5.82997 260.24 5.30997C260.68 4.78997 261.29 4.33997 262.07 3.96997C262.85 3.59997 263.79 3.30996 264.88 3.11996C265.97 2.91996 267.16 2.82997 268.47 2.82997L268.45 2.77997Z" fill="white"/>
</g>
<g filter="url(#filter1_d_3_4)">
<path d="M57.76 107.48C57.62 108.47 57.26 109.32 56.68 110.02C56.09 110.72 55.42 111.2 54.65 111.47C53.88 111.74 53.09 111.75 52.28 111.5C51.47 111.25 50.79 110.65 50.25 109.71C49.8 108.94 49.54 108.14 49.47 107.31C49.4 106.48 49.32 105.61 49.23 104.71C49.14 103.72 49.04 102.85 48.93 102.11C48.82 101.37 48.69 100.5 48.56 99.51C48.15 96.8 47.7 94.13 47.21 91.5C46.71 88.86 46.15 86.21 45.52 83.55C44.62 85.8 43.76 88.04 42.95 90.25C42.14 92.46 41.33 94.69 40.52 96.95C39.89 98.62 39.27 100.3 38.66 101.99C38.05 103.68 37.34 105.32 36.53 106.89C36.26 107.43 35.81 107.87 35.18 108.21C34.55 108.55 33.87 108.74 33.15 108.78C32.43 108.83 31.75 108.72 31.12 108.48C30.49 108.23 30.01 107.81 29.7 107.23C27.76 103.49 25.85 99.77 23.95 96.07C22.06 92.37 20.16 88.65 18.27 84.91C18.04 87.21 17.84 89.52 17.66 91.84C17.48 94.16 17.28 96.47 17.05 98.77C17 99.49 16.96 100.37 16.91 101.41C16.86 102.45 16.79 103.5 16.67 104.56C16.56 105.62 16.42 106.63 16.26 107.6C16.1 108.57 15.84 109.32 15.48 109.87C14.94 110.77 14.23 111.36 13.35 111.63C12.47 111.9 11.61 111.92 10.78 111.7C9.95 111.47 9.24999 111.01 8.67999 110.31C8.11999 109.61 7.86 108.72 7.9 107.64C7.99 105.79 8.15 103.97 8.37 102.16C8.6 100.36 8.8 98.53 8.98 96.68C9.34 92.67 9.71001 88.68 10.1 84.71C10.48 80.74 10.85 76.73 11.22 72.67C11.31 71.5 11.55 70.42 11.93 69.42C12.31 68.43 13.14 67.73 14.4 67.32C14.9 67.14 15.41 67.07 15.96 67.12C16.5 67.17 17 67.32 17.45 67.59C18.44 68.22 19.22 69.09 19.78 70.19C20.34 71.3 20.87 72.34 21.37 73.34C22.23 74.96 23.06 76.6 23.87 78.24C24.68 79.89 25.49 81.52 26.3 83.14C27.29 85.21 28.3 87.26 29.31 89.26C30.32 91.27 31.37 93.28 32.46 95.31C32.73 94.63 32.99 93.96 33.24 93.28C33.49 92.6 33.75 91.93 34.02 91.25C34.52 90.08 34.98 88.89 35.41 87.7C35.84 86.51 36.28 85.32 36.73 84.15C37.36 82.62 37.96 81.11 38.52 79.62C39.08 78.13 39.64 76.62 40.18 75.09C40.63 73.96 41.06 72.75 41.47 71.44C41.88 70.13 42.53 69.03 43.43 68.13C44.06 67.45 44.75 67.05 45.49 66.91C46.23 66.77 46.93 66.83 47.59 67.08C48.24 67.33 48.83 67.75 49.35 68.33C49.87 68.92 50.24 69.59 50.47 70.36C50.74 71.4 51.06 72.57 51.42 73.88C51.78 75.19 52.1 76.36 52.37 77.4C52.87 79.29 53.32 81.15 53.72 82.98C54.12 84.81 54.51 86.67 54.87 88.56C55.5 91.67 56.05 94.75 56.53 97.79C57 100.83 57.42 103.91 57.78 107.02V107.49L57.76 107.48Z" fill="white"/>
<path d="M80.14 107.01C80 108.14 79.59 109.06 78.89 109.78C78.19 110.5 77.4 110.95 76.52 111.13C75.64 111.31 74.8 111.2 73.98 110.79C73.17 110.38 72.58 109.59 72.22 108.42C71.99 107.65 71.85 106.82 71.78 105.92C71.71 105.02 71.69 104.13 71.71 103.25C71.73 102.37 71.77 101.53 71.81 100.71C71.85 99.8999 71.88 99.2199 71.88 98.6799C71.88 97.3699 71.87 96.09 71.85 94.82C71.83 93.5599 71.82 92.2699 71.82 90.9699C69.61 88.8499 67.59 86.6099 65.77 84.2399C63.95 81.8699 62.31 79.3399 60.87 76.6299C60.42 75.8199 59.99 74.93 59.58 73.96C59.17 72.99 58.95 72.0299 58.9 71.0799C58.67 70.2199 58.76 69.4499 59.17 68.7499C59.58 68.0499 60.13 67.5099 60.83 67.1299C61.53 66.7499 62.29 66.5699 63.13 66.5899C63.96 66.6099 64.72 66.8899 65.4 67.4399C65.9 67.8499 66.3 68.3199 66.62 68.8599C66.93 69.3999 67.21 69.9799 67.43 70.5799C67.66 71.1899 67.87 71.8099 68.07 72.4399C68.27 73.0699 68.53 73.6599 68.85 74.1999C69.8 75.9099 70.85 77.4999 72 78.9699C73.15 80.4399 74.38 81.8899 75.69 83.3299C76.86 81.7499 78.13 80.2799 79.48 78.8999C80.83 77.5199 82.07 76.0499 83.2 74.4699C83.43 74.1099 83.76 73.5599 84.21 72.8099C84.66 72.0699 85.13 71.2899 85.63 70.4799C86.13 69.6699 86.64 68.91 87.19 68.21C87.73 67.51 88.2 67.05 88.61 66.82C89.33 66.37 90.06 66.17 90.81 66.21C91.55 66.26 92.23 66.4799 92.84 66.8899C93.45 67.2999 93.93 67.8499 94.29 68.5499C94.65 69.2499 94.79 70 94.7 70.82C94.61 71.68 94.22 72.7099 93.52 73.9299C92.82 75.1499 92.01 76.3899 91.09 77.6499C90.17 78.9099 89.23 80.1099 88.28 81.2299C87.33 82.3599 86.59 83.2599 86.05 83.9399C85.6 84.4799 85.16 85.0099 84.73 85.5299C84.3 86.0499 83.86 86.5599 83.41 87.0499C82.82 87.7299 82.26 88.3999 81.72 89.0799C81.18 89.7599 80.64 90.4299 80.1 91.1099V98.82C80.1 101.39 80.12 103.96 80.17 106.53V107L80.14 107.01Z" fill="white"/>
<path d="M98.67 104.5C98.35 103.64 98.25 102.79 98.37 101.93C98.48 101.07 98.78 100.34 99.25 99.73C99.72 99.12 100.34 98.69 101.11 98.45C101.88 98.2 102.73 98.28 103.68 98.69C104.54 99.05 105.27 99.58 105.88 100.28C106.49 100.98 107.22 101.53 108.08 101.94C109.25 102.53 110.45 102.95 111.66 103.23C112.52 103.46 113.37 103.6 114.23 103.67C115.09 103.74 115.97 103.77 116.87 103.77C117.55 103.59 118.13 103.41 118.63 103.23C119.13 103.05 119.67 102.67 120.25 102.08C120.93 101.49 121.37 100.79 121.57 99.98C121.77 99.17 121.77 98.37 121.57 97.58C121.37 96.79 120.98 96.07 120.42 95.42C119.86 94.77 119.17 94.33 118.36 94.1C116.78 93.56 115.2 93.14 113.63 92.85C112.05 92.56 110.52 92.21 109.03 91.8C107.54 91.39 106.13 90.82 104.8 90.08C103.47 89.34 102.24 88.27 101.11 86.87C100.48 86.1 100.07 85.43 99.89 84.84C99.71 84.26 99.51 83.51 99.28 82.61C98.87 80.45 99.04 78.62 99.79 77.13C100.54 75.64 101.47 74.29 102.6 73.07C104.04 71.49 105.68 70.29 107.5 69.45C109.33 68.62 111.24 68.07 113.25 67.83C115.26 67.58 117.28 67.63 119.34 67.96C121.39 68.3 123.34 68.87 125.19 69.68C126.27 70.13 126.96 70.83 127.25 71.78C127.54 72.73 127.55 73.65 127.28 74.55C127.01 75.45 126.49 76.2 125.72 76.78C124.95 77.37 124.05 77.57 123.01 77.39C121.93 77.17 120.91 76.93 119.97 76.68C119.02 76.43 118.08 76.22 117.13 76.04C116.41 75.91 115.63 75.88 114.8 75.97C113.97 76.06 113.18 76.21 112.43 76.41C111.69 76.61 111 76.84 110.37 77.09C109.74 77.34 109.26 77.6 108.95 77.87C108.59 78.19 108.24 78.59 107.9 79.09C107.56 79.59 107.37 80.15 107.33 80.78C107.24 81.55 107.53 82.18 108.21 82.67C108.89 83.17 109.61 83.53 110.37 83.75C111.86 84.07 113.39 84.37 114.97 84.66C116.55 84.95 118.1 85.36 119.64 85.88C121.17 86.4 122.6 87.06 123.93 87.88C125.26 88.69 126.4 89.77 127.35 91.13C128.39 92.3 129.13 93.63 129.58 95.12C130.03 96.61 130.2 98.1 130.09 99.58C129.98 101.07 129.63 102.5 129.04 103.87C128.45 105.25 127.64 106.45 126.61 107.49C125.89 108.21 125.13 108.83 124.34 109.35C123.55 109.87 122.71 110.38 121.8 110.87C120 111.82 118.06 112.29 115.98 112.29C113.9 112.29 111.83 111.99 109.76 111.38C107.69 110.77 105.72 109.91 103.88 108.81C102.03 107.71 100.45 106.5 99.15 105.19L98.68 104.51L98.67 104.5Z" fill="white"/>
<path d="M164.48 67.64C165.34 68 166.05 68.58 166.61 69.36C167.17 70.15 167.51 70.96 167.62 71.8C167.73 72.63 167.57 73.39 167.15 74.07C166.72 74.75 165.97 75.2 164.88 75.42C162.81 75.78 160.86 75.94 159.03 75.89C157.2 75.84 155.61 75.82 154.26 75.82C154.26 81.23 154.28 86.55 154.33 91.78C154.37 97.01 154.35 102.53 154.26 108.35C154.26 109.61 153.83 110.52 152.97 111.09C152.11 111.65 151.18 111.89 150.16 111.8C149.15 111.71 148.21 111.3 147.35 110.58C146.49 109.86 146.07 108.87 146.07 107.6C146.02 102.28 146 96.98 146 91.71V75.82C145.59 75.82 144.91 75.84 143.94 75.89C142.97 75.93 141.91 75.95 140.76 75.92C139.61 75.9 138.43 75.81 137.21 75.65C135.99 75.49 134.93 75.19 134.03 74.74C133.31 74.38 132.84 73.85 132.61 73.15C132.38 72.45 132.37 71.74 132.58 71.02C132.78 70.3 133.16 69.62 133.7 68.99C134.24 68.36 134.92 67.93 135.73 67.71C139.52 67.48 143.18 67.41 146.72 67.47C150.26 67.54 153.86 67.57 157.51 67.57C158.59 67.57 159.67 67.56 160.76 67.54C161.84 67.52 162.95 67.51 164.07 67.51L164.48 67.64Z" fill="white"/>
<path d="M196 100.85C196.81 100.9 197.52 101.11 198.13 101.49C198.74 101.87 199.23 102.34 199.62 102.88C200 103.42 200.23 104.04 200.3 104.74C200.37 105.44 200.22 106.15 199.86 106.87C199.72 107.19 199.44 107.56 199.01 107.99C198.58 108.42 198.19 108.68 197.83 108.77C194.94 109.63 191.98 110.16 188.94 110.36C185.9 110.56 182.89 110.51 179.91 110.19C179.05 110.1 178.12 110.01 177.1 109.92C176.09 109.83 175.19 109.54 174.43 109.04C173.03 108.14 172.33 106.85 172.33 105.19V76.38C171.83 76.02 171.43 75.57 171.11 75.03C170.79 74.49 170.6 73.91 170.54 73.31C170.47 72.7 170.55 72.12 170.78 71.55C171.01 70.99 171.39 70.5 171.93 70.1C172.83 69.38 173.87 68.89 175.04 68.65C176.21 68.4 177.36 68.19 178.49 68.01C180.83 67.65 183.18 67.47 185.52 67.47C187.86 67.47 190.25 67.45 192.69 67.4C193.41 67.4 194.25 67.34 195.19 67.23C196.14 67.12 196.97 67.2 197.69 67.47C198.55 67.79 199.22 68.28 199.72 68.96C200.22 69.64 200.51 70.36 200.6 71.12C200.69 71.89 200.54 72.63 200.16 73.35C199.78 74.07 199.11 74.6399 198.16 75.0399C197.03 75.4899 195.83 75.6899 194.54 75.65C193.25 75.61 192.03 75.58 190.85 75.58C189.14 75.58 187.42 75.5999 185.71 75.65C184 75.6899 182.28 75.83 180.57 76.06V85.46C182.19 85.55 183.82 85.55 185.44 85.46C187.06 85.37 188.69 85.26 190.31 85.12C191.03 85.08 191.75 85.01 192.47 84.92C193.19 84.83 193.93 84.83 194.7 84.92C195.69 85.05 196.46 85.46 197 86.14C197.54 86.82 197.87 87.57 197.98 88.41C198.09 89.24 197.95 90.07 197.54 90.88C197.13 91.69 196.48 92.28 195.58 92.64C194.81 92.96 193.78 93.19 192.47 93.35C191.16 93.51 189.79 93.62 188.34 93.69C186.9 93.76 185.48 93.7899 184.08 93.7899C182.68 93.7899 181.51 93.77 180.56 93.72V102.04C183.04 102.36 185.54 102.4 188.07 102.17C190.59 101.95 193.07 101.52 195.51 100.88H195.98L196 100.85Z" fill="white"/>
<path d="M214.93 107.55C214.79 108.68 214.32 109.6 213.51 110.32C212.7 111.04 211.82 111.5 210.87 111.71C209.92 111.91 209.05 111.81 208.27 111.41C207.48 111 207.06 110.19 207.02 108.98C206.79 103.8 206.68 98.42 206.68 92.85V76.25C205.96 75.98 205.42 75.57 205.06 75.03C204.7 74.49 204.49 73.89 204.42 73.24C204.35 72.59 204.43 71.92 204.66 71.24C204.89 70.56 205.22 69.98 205.67 69.48C206.17 68.94 206.84 68.44 207.7 67.99C208.56 67.54 209.49 67.12 210.51 66.74C211.52 66.36 212.53 66.03 213.52 65.76C214.51 65.49 215.35 65.29 216.02 65.15C218.86 64.56 221.72 64.57 224.61 65.18C227.49 65.79 230.03 66.88 232.22 68.46C234.41 70.04 236.04 72.09 237.12 74.62C238.2 77.15 238.31 80.03 237.46 83.28C237.19 84.18 236.85 85.08 236.45 85.99C236.04 86.89 235.57 87.73 235.03 88.49C234.26 89.66 233.36 90.7 232.32 91.6C231.28 92.5 230.16 93.34 228.94 94.1C229.8 95 230.61 95.95 231.38 96.94C232.15 97.93 233 98.83 233.95 99.65C234.31 99.97 234.84 100.46 235.54 101.14C236.24 101.82 236.92 102.54 237.57 103.3C238.22 104.07 238.8 104.82 239.29 105.57C239.79 106.31 240.01 106.93 239.97 107.43C239.92 108.29 239.69 109.06 239.26 109.76C238.83 110.46 238.31 111 237.7 111.38C237.09 111.76 236.43 111.95 235.7 111.95C234.97 111.95 234.26 111.7 233.54 111.21C232.73 110.58 231.96 109.83 231.24 108.98C230.52 108.12 229.82 107.33 229.14 106.61C227.65 104.99 226.2 103.35 224.78 101.71C223.36 100.06 221.91 98.45 220.42 96.87C219.52 97.05 218.6 97.17 217.68 97.24C216.76 97.31 215.84 97.39 214.94 97.48V107.56L214.93 107.55ZM227.04 74.82C225.24 73.74 223.26 73.13 221.12 72.99C218.98 72.85 216.92 73.15 214.93 73.87V89.16C216.96 89.02 218.95 88.77 220.92 88.38C222.88 88 224.7 87.15 226.36 85.84C227.26 85.12 227.99 84.27 228.56 83.3C229.12 82.33 229.46 81.34 229.57 80.32C229.68 79.31 229.55 78.31 229.16 77.34C228.78 76.37 228.07 75.53 227.03 74.8L227.04 74.82Z" fill="white"/>
<path d="M264.1 107.01C263.96 108.14 263.55 109.06 262.85 109.78C262.15 110.5 261.36 110.95 260.48 111.13C259.6 111.31 258.76 111.2 257.94 110.79C257.13 110.38 256.54 109.59 256.18 108.42C255.95 107.65 255.81 106.82 255.74 105.92C255.67 105.02 255.65 104.13 255.67 103.25C255.69 102.37 255.73 101.53 255.77 100.71C255.81 99.8999 255.84 99.2199 255.84 98.6799C255.84 97.3699 255.83 96.09 255.81 94.82C255.79 93.5599 255.78 92.2699 255.78 90.9699C253.57 88.8499 251.55 86.6099 249.73 84.2399C247.91 81.8699 246.27 79.3399 244.83 76.6299C244.38 75.8199 243.95 74.93 243.54 73.96C243.13 72.99 242.91 72.0299 242.86 71.0799C242.63 70.2199 242.72 69.4499 243.13 68.7499C243.54 68.0499 244.09 67.5099 244.79 67.1299C245.49 66.7499 246.25 66.5699 247.09 66.5899C247.92 66.6099 248.68 66.8899 249.36 67.4399C249.86 67.8499 250.26 68.3199 250.58 68.8599C250.89 69.3999 251.17 69.9799 251.39 70.5799C251.62 71.1899 251.83 71.8099 252.03 72.4399C252.23 73.0699 252.49 73.6599 252.81 74.1999C253.76 75.9099 254.81 77.4999 255.96 78.9699C257.11 80.4399 258.34 81.8899 259.65 83.3299C260.82 81.7499 262.09 80.2799 263.44 78.8999C264.79 77.5199 266.03 76.0499 267.16 74.4699C267.39 74.1099 267.72 73.5599 268.17 72.8099C268.62 72.0699 269.09 71.2899 269.59 70.4799C270.09 69.6699 270.6 68.91 271.15 68.21C271.69 67.51 272.16 67.05 272.57 66.82C273.29 66.37 274.02 66.17 274.77 66.21C275.51 66.26 276.19 66.4799 276.8 66.8899C277.41 67.2999 277.89 67.8499 278.25 68.5499C278.61 69.2499 278.75 70 278.66 70.82C278.57 71.68 278.18 72.7099 277.48 73.9299C276.78 75.1499 275.97 76.3899 275.05 77.6499C274.13 78.9099 273.19 80.1099 272.24 81.2299C271.29 82.3599 270.55 83.2599 270.01 83.9399C269.56 84.4799 269.12 85.0099 268.69 85.5299C268.26 86.0499 267.82 86.5599 267.37 87.0499C266.78 87.7299 266.22 88.3999 265.68 89.0799C265.14 89.7599 264.6 90.4299 264.06 91.1099V98.82C264.06 101.39 264.08 103.96 264.13 106.53V107L264.1 107.01Z" fill="white"/>
<path d="M333.42 97.33C334.14 96.61 334.96 96.19 335.89 96.08C336.81 95.97 337.66 96.09 338.43 96.45C339.2 96.81 339.79 97.39 340.22 98.17C340.65 98.96 340.75 99.89 340.52 100.98C340.25 102.06 339.73 103.07 338.96 103.99C338.19 104.91 337.43 105.76 336.66 106.53C334.9 108.38 332.95 109.74 330.81 110.62C328.67 111.5 326.5 111.91 324.32 111.87C322.13 111.82 319.99 111.31 317.89 110.31C315.79 109.32 313.91 107.83 312.24 105.85C311.25 104.68 310.41 103.44 309.74 102.13C309.06 100.82 308.55 99.45 308.18 98C307.64 95.88 307.39 93.67 307.44 91.37C307.48 89.07 307.85 86.84 308.52 84.67C309.19 82.5 310.15 80.47 311.39 78.55C312.63 76.63 314.15 75 315.96 73.65C317.27 72.66 318.59 71.8 319.92 71.08C321.25 70.36 322.66 69.68 324.15 69.05C325.01 68.69 325.88 68.34 326.79 68C327.69 67.66 328.62 67.4 329.56 67.22C330.51 67.04 331.45 66.97 332.4 67.02C333.35 67.07 334.27 67.27 335.17 67.63C335.8 67.9 336.43 68.27 337.06 68.75C337.69 69.22 338.28 69.76 338.82 70.37C339.36 70.98 339.83 71.62 340.24 72.3C340.65 72.98 340.94 73.63 341.12 74.26C341.26 74.85 341.29 75.44 341.22 76.05C341.15 76.66 340.97 77.21 340.68 77.71C340.39 78.21 339.99 78.62 339.5 78.96C339 79.3 338.44 79.51 337.81 79.6C336.77 79.73 335.97 79.62 335.41 79.26C334.85 78.9 334.4 78.45 334.06 77.91C333.72 77.37 333.39 76.84 333.08 76.32C332.76 75.8 332.31 75.43 331.73 75.2C331.37 75.2 331.1 75.22 330.92 75.27C329.39 75.68 327.84 76.23 326.29 76.93C324.73 77.63 323.29 78.47 321.96 79.47C320.63 80.46 319.47 81.61 318.48 82.92C317.49 84.23 316.77 85.69 316.32 87.32C315.78 89.26 315.58 91.22 315.71 93.2C315.85 95.18 316.39 97.06 317.33 98.81C317.87 99.85 318.59 100.75 319.49 101.52C320.39 102.29 321.38 102.86 322.47 103.24C323.55 103.62 324.66 103.76 325.78 103.65C326.91 103.54 327.99 103.14 329.03 102.47C329.93 101.84 330.74 101.06 331.47 100.14C332.19 99.22 332.85 98.28 333.43 97.33H333.42Z" fill="white"/>
<path d="M381.58 107.28C381.44 108.27 381.11 109.12 380.57 109.82C380.03 110.52 379.41 111 378.71 111.27C378.01 111.54 377.27 111.57 376.48 111.37C375.69 111.17 374.96 110.64 374.28 109.78C373.69 109.06 373.37 108.26 373.3 107.38C373.23 106.5 373.11 105.63 372.93 104.78C372.48 102.3 371.82 99.75 370.97 97.14C368.17 97.19 365.4 97.21 362.65 97.21C359.9 97.21 357.15 97.23 354.4 97.28C353.99 98.45 353.64 99.65 353.35 100.86C353.06 102.08 352.77 103.27 352.5 104.44C352.27 105.34 352.07 106.28 351.89 107.25C351.71 108.22 351.3 109.07 350.67 109.79C349.9 110.69 349.08 111.2 348.2 111.31C347.32 111.42 346.53 111.28 345.83 110.87C345.13 110.46 344.57 109.84 344.14 109.01C343.71 108.18 343.57 107.22 343.7 106.13C343.84 104.73 344.11 103.36 344.51 102.01C344.92 100.66 345.3 99.3 345.66 97.95C347.69 90.2 350.3 82.69 353.51 75.43C353.78 74.8 354.06 74.19 354.36 73.6C354.66 73.01 354.94 72.43 355.21 71.84C355.52 71.21 355.84 70.53 356.16 69.81C356.47 69.09 356.85 68.42 357.28 67.81C357.71 67.2 358.22 66.68 358.8 66.25C359.39 65.82 360.11 65.61 360.96 65.61C362.09 65.61 363.03 65.97 363.8 66.69C366.87 69.76 369.39 73.22 371.37 77.07C373.35 80.92 375.13 84.86 376.71 88.87C377.66 88.83 378.58 88.83 379.48 88.87C380.38 88.91 381.19 89.32 381.91 90.09C382.54 90.72 382.91 91.4 383.03 92.12C383.14 92.84 383.07 93.54 382.83 94.22C382.58 94.9 382.18 95.48 381.61 95.98C381.05 96.48 380.36 96.81 379.55 96.99C380 98.57 380.4 100.18 380.73 101.82C381.07 103.47 381.35 105.12 381.58 106.79V107.26V107.28ZM367.78 88.88C366.92 86.85 366.01 84.83 365.04 82.83C364.07 80.83 362.98 78.92 361.76 77.12C360.86 79.1 360.01 81.08 359.22 83.04C358.43 85 357.7 87 357.02 89.03C359.14 88.99 361 88.96 362.6 88.96C364.2 88.96 365.92 88.94 367.77 88.89L367.78 88.88Z" fill="white"/>
<path d="M413.3 68.86C413.84 67.96 414.54 67.35 415.4 67.03C416.26 66.72 417.1 66.65 417.94 66.83C418.77 67.01 419.5 67.44 420.1 68.12C420.71 68.8 420.99 69.68 420.95 70.76C420.9 71.8 420.61 72.76 420.07 73.64C419.53 74.52 419.01 75.39 418.51 76.24C417.29 78.58 416.13 80.95 415.03 83.34C413.93 85.73 412.85 88.14 411.82 90.58C410.78 92.97 409.81 95.35 408.91 97.72C408.01 100.09 407.11 102.49 406.2 104.92C405.88 105.64 405.57 106.49 405.25 107.46C404.93 108.43 404.53 109.27 404.03 110C403.53 110.72 402.94 111.22 402.24 111.49C401.54 111.76 400.84 111.83 400.14 111.69C399.44 111.56 398.79 111.25 398.18 110.78C397.57 110.31 397.13 109.69 396.86 108.92C396.36 107.66 395.89 106.42 395.44 105.2C394.99 103.98 394.52 102.76 394.02 101.55C393.52 100.29 393.05 99.05 392.6 97.83C392.15 96.61 391.68 95.39 391.18 94.18C390.23 91.7 389.29 89.23 388.34 86.77C387.39 84.31 386.47 81.84 385.57 79.36C384.98 77.83 384.45 76.47 383.98 75.3C383.51 74.13 383.09 72.78 382.73 71.24C382.41 70.2 382.56 69.3 383.17 68.53C383.78 67.76 384.55 67.23 385.47 66.94C386.39 66.65 387.34 66.65 388.31 66.94C389.28 67.23 389.99 67.9 390.44 68.94C392.33 73.45 394.1 78 395.75 82.6C397.4 87.2 399.07 91.82 400.79 96.47C401.06 95.79 401.27 95.26 401.43 94.88C401.59 94.5 401.71 94.18 401.8 93.93C401.89 93.68 401.96 93.49 402 93.36C402.04 93.22 402.11 93.09 402.2 92.95C402.65 91.15 403.29 89.4 404.13 87.71C404.96 86.02 405.74 84.32 406.46 82.6C408.4 78 410.59 73.56 413.02 69.28L413.29 68.87L413.3 68.86Z" fill="white"/>
<path d="M450.29 100.85C451.1 100.9 451.81 101.11 452.42 101.49C453.03 101.87 453.52 102.34 453.91 102.88C454.29 103.42 454.52 104.04 454.59 104.74C454.66 105.44 454.51 106.15 454.15 106.87C454.01 107.19 453.73 107.56 453.3 107.99C452.87 108.42 452.48 108.68 452.12 108.77C449.23 109.63 446.27 110.16 443.23 110.36C440.19 110.56 437.18 110.51 434.2 110.19C433.34 110.1 432.41 110.01 431.39 109.92C430.38 109.83 429.48 109.54 428.72 109.04C427.32 108.14 426.62 106.85 426.62 105.19V76.38C426.12 76.02 425.72 75.57 425.4 75.03C425.08 74.49 424.89 73.91 424.83 73.31C424.76 72.7 424.84 72.12 425.07 71.55C425.3 70.99 425.68 70.5 426.22 70.1C427.12 69.38 428.16 68.89 429.33 68.65C430.5 68.4 431.65 68.19 432.78 68.01C435.12 67.65 437.47 67.47 439.81 67.47C442.15 67.47 444.54 67.45 446.98 67.4C447.7 67.4 448.54 67.34 449.48 67.23C450.43 67.12 451.26 67.2 451.98 67.47C452.84 67.79 453.51 68.28 454.01 68.96C454.51 69.64 454.8 70.36 454.89 71.12C454.98 71.89 454.83 72.63 454.45 73.35C454.07 74.07 453.4 74.6399 452.45 75.0399C451.32 75.4899 450.12 75.6899 448.83 75.65C447.54 75.61 446.32 75.58 445.14 75.58C443.43 75.58 441.71 75.5999 440 75.65C438.29 75.6899 436.57 75.83 434.86 76.06V85.46C436.48 85.55 438.11 85.55 439.73 85.46C441.35 85.37 442.98 85.26 444.6 85.12C445.32 85.08 446.04 85.01 446.76 84.92C447.48 84.83 448.22 84.83 448.99 84.92C449.98 85.05 450.75 85.46 451.29 86.14C451.83 86.82 452.16 87.57 452.27 88.41C452.38 89.24 452.24 90.07 451.83 90.88C451.42 91.69 450.77 92.28 449.87 92.64C449.1 92.96 448.07 93.19 446.76 93.35C445.45 93.51 444.08 93.62 442.63 93.69C441.19 93.76 439.77 93.7899 438.37 93.7899C436.97 93.7899 435.8 93.77 434.85 93.72V102.04C437.33 102.36 439.83 102.4 442.36 102.17C444.88 101.95 447.36 101.52 449.8 100.88H450.27L450.29 100.85Z" fill="white"/>
</g>
<g filter="url(#filter2_d_3_4)">
<path d="M31.09 188.69C31.48 188.62 31.88 188.59 32.3 188.59C33.11 188.59 33.71 188.74 34.12 189.05C34.52 189.36 34.73 189.9 34.73 190.68V214.17C34.51 214.25 34.21 214.33 33.83 214.4C33.45 214.47 33.06 214.5 32.64 214.5C31.78 214.5 31.16 214.34 30.78 214.02C30.4 213.7 30.22 213.16 30.22 212.41V203.25H18.56V214.16C18.34 214.24 18.04 214.32 17.68 214.39C17.32 214.46 16.91 214.49 16.47 214.49C15.61 214.49 14.99 214.33 14.61 214.01C14.23 213.69 14.05 213.15 14.05 212.4V188.86C14.27 188.81 14.57 188.74 14.95 188.67C15.33 188.6 15.72 188.57 16.14 188.57C16.95 188.57 17.5501 188.72 17.9601 189.03C18.3601 189.34 18.5701 189.88 18.5701 190.66V199.61H30.23V188.87C30.42 188.82 30.72 188.75 31.11 188.68L31.09 188.69Z" fill="white"/>
<path d="M59.8 204.47C59.8 206.06 59.56 207.49 59.09 208.78C58.62 210.06 57.9501 211.15 57.1001 212.04C56.2501 212.93 55.2101 213.62 53.9901 214.11C52.7601 214.6 51.4 214.84 49.89 214.84C48.38 214.84 47.02 214.6 45.79 214.11C44.56 213.62 43.53 212.93 42.68 212.04C41.83 211.15 41.17 210.06 40.69 208.78C40.22 207.5 39.98 206.06 39.98 204.47C39.98 202.88 40.22 201.45 40.69 200.16C41.16 198.88 41.83 197.79 42.7 196.9C43.56 196.01 44.61 195.32 45.84 194.83C47.07 194.34 48.42 194.1 49.89 194.1C51.36 194.1 52.72 194.34 53.94 194.83C55.17 195.32 56.21 196.01 57.08 196.92C57.94 197.83 58.61 198.91 59.09 200.18C59.56 201.45 59.8 202.88 59.8 204.47ZM49.89 197.61C48.22 197.61 46.89 198.21 45.92 199.41C44.94 200.61 44.4601 202.29 44.4601 204.47C44.4601 206.65 44.9301 208.32 45.8801 209.51C46.8301 210.69 48.16 211.29 49.89 211.29C51.62 211.29 52.96 210.7 53.9 209.51C54.85 208.33 55.3201 206.65 55.3201 204.47C55.3201 202.29 54.8401 200.64 53.8801 199.43C52.9201 198.22 51.59 197.61 49.89 197.61Z" fill="white"/>
<path d="M67.2001 214.5C66.3901 214.5 65.7901 214.35 65.4001 214.04C65.0101 213.73 64.8101 213.22 64.8101 212.49V187.12C65.0001 187.06 65.2801 186.99 65.6501 186.91C66.0101 186.83 66.4001 186.78 66.8201 186.78C67.6301 186.78 68.2301 186.93 68.6201 187.24C69.0101 187.55 69.2001 188.06 69.2001 188.79V214.16C68.9801 214.24 68.6901 214.32 68.3401 214.39C67.9901 214.46 67.6101 214.49 67.1901 214.49L67.2001 214.5Z" fill="white"/>
<path d="M84.0101 194.1C84.8501 194.1 85.6301 194.19 86.3701 194.37C87.1101 194.55 87.7601 194.78 88.3101 195.06V187.12C88.5001 187.06 88.7801 186.99 89.1501 186.91C89.5101 186.83 89.9001 186.78 90.3201 186.78C91.1301 186.78 91.7301 186.93 92.1201 187.24C92.5101 187.55 92.7101 188.06 92.7101 188.79V210.69C92.7101 211.27 92.5801 211.76 92.3301 212.13C92.0801 212.51 91.6901 212.86 91.1601 213.2C90.5201 213.62 89.6501 213.99 88.5501 214.33C87.4501 214.66 86.1901 214.83 84.7701 214.83C83.1801 214.83 81.7301 214.63 80.4201 214.22C79.1101 213.82 78.0001 213.19 77.0801 212.34C76.1601 211.49 75.4501 210.42 74.9501 209.12C74.4501 207.82 74.2001 206.3 74.2001 204.54C74.2001 202.78 74.4601 201.16 74.9701 199.84C75.4901 198.52 76.1901 197.43 77.0801 196.58C77.9701 195.73 79.0101 195.1 80.1901 194.7C81.3701 194.3 82.6501 194.09 84.0101 194.09V194.1ZM88.3601 198.74C87.8901 198.43 87.3301 198.17 86.6901 197.95C86.0501 197.73 85.3401 197.62 84.5601 197.62C83.7201 197.62 82.9501 197.74 82.2401 198C81.5301 198.25 80.9101 198.66 80.3801 199.23C79.8501 199.8 79.4301 200.53 79.1301 201.4C78.8201 202.28 78.6701 203.34 78.6701 204.6C78.6701 206.94 79.2201 208.64 80.3201 209.7C81.4201 210.76 82.8901 211.29 84.7301 211.29C85.5701 211.29 86.2701 211.2 86.8401 211.02C87.4101 210.84 87.9201 210.62 88.3701 210.37V198.75L88.3601 198.74Z" fill="white"/>
<path d="M114.19 194.1C116.78 194.1 118.84 194.66 120.38 195.79C121.91 196.92 122.68 198.7 122.68 201.12V210.86C122.68 211.5 122.53 212 122.24 212.34C121.95 212.69 121.55 213.02 121.05 213.32C120.32 213.74 119.39 214.1 118.25 214.41C117.11 214.72 115.78 214.87 114.28 214.87C111.58 214.87 109.47 214.34 107.95 213.28C106.43 212.22 105.67 210.66 105.67 208.6C105.67 206.76 106.26 205.35 107.45 204.38C108.63 203.41 110.34 202.81 112.57 202.58L118.38 202V201.08C118.38 199.85 117.98 198.96 117.19 198.41C116.4 197.85 115.29 197.57 113.87 197.57C112.76 197.57 111.68 197.72 110.65 198.03C109.62 198.34 108.7 198.69 107.89 199.07C107.61 198.85 107.37 198.58 107.18 198.25C106.98 197.93 106.89 197.58 106.89 197.18C106.89 196.71 107.01 196.32 107.25 196.01C107.49 195.7 107.86 195.44 108.36 195.22C109.14 194.83 110.03 194.54 111.04 194.36C112.04 194.18 113.1 194.09 114.22 194.09L114.19 194.1ZM114.27 211.45C115.25 211.45 116.1 211.35 116.82 211.16C117.54 210.97 118.06 210.76 118.37 210.53V205.22L113.81 205.68C112.53 205.82 111.57 206.1 110.93 206.54C110.29 206.97 109.97 207.63 109.97 208.53C109.97 209.43 110.32 210.17 111.01 210.68C111.71 211.2 112.79 211.45 114.27 211.45Z" fill="white"/>
<path d="M140.33 198.58C139.56 197.94 138.53 197.62 137.22 197.62C136.24 197.62 135.37 197.74 134.61 198C133.84 198.25 133.18 198.53 132.62 198.84V214.18C132.43 214.26 132.15 214.34 131.81 214.41C131.46 214.48 131.08 214.51 130.66 214.51C129.85 214.51 129.25 214.36 128.86 214.05C128.47 213.74 128.27 213.23 128.27 212.5V198.71C128.27 198.07 128.4 197.55 128.65 197.16C128.9 196.77 129.32 196.38 129.9 195.99C130.68 195.52 131.7 195.08 132.95 194.69C134.2 194.3 135.63 194.11 137.21 194.11C139.91 194.11 142.03 194.72 143.56 195.93C145.09 197.14 145.86 198.97 145.86 201.43V214.18C145.66 214.26 145.39 214.34 145.02 214.41C144.66 214.48 144.27 214.51 143.85 214.51C143.04 214.51 142.44 214.36 142.05 214.05C141.66 213.74 141.47 213.23 141.47 212.5V201.59C141.47 200.22 141.09 199.22 140.32 198.58H140.33Z" fill="white"/>
<path d="M160.42 194.1C161.26 194.1 162.04 194.19 162.78 194.37C163.52 194.55 164.17 194.78 164.72 195.06V187.12C164.91 187.06 165.19 186.99 165.56 186.91C165.92 186.83 166.31 186.78 166.73 186.78C167.54 186.78 168.14 186.93 168.53 187.24C168.92 187.55 169.12 188.06 169.12 188.79V210.69C169.12 211.27 168.99 211.76 168.74 212.13C168.49 212.51 168.1 212.86 167.57 213.2C166.93 213.62 166.06 213.99 164.96 214.33C163.86 214.66 162.6 214.83 161.18 214.83C159.59 214.83 158.14 214.63 156.83 214.22C155.52 213.82 154.41 213.19 153.49 212.34C152.57 211.49 151.86 210.42 151.36 209.12C150.86 207.82 150.61 206.3 150.61 204.54C150.61 202.78 150.87 201.16 151.38 199.84C151.9 198.52 152.6 197.43 153.49 196.58C154.38 195.73 155.42 195.1 156.6 194.7C157.78 194.3 159.06 194.09 160.42 194.09V194.1ZM164.77 198.74C164.3 198.43 163.74 198.17 163.1 197.95C162.46 197.73 161.75 197.62 160.97 197.62C160.13 197.62 159.36 197.74 158.65 198C157.94 198.25 157.32 198.66 156.79 199.23C156.26 199.8 155.84 200.53 155.54 201.4C155.23 202.28 155.08 203.34 155.08 204.6C155.08 206.94 155.63 208.64 156.73 209.7C157.83 210.76 159.3 211.29 161.14 211.29C161.98 211.29 162.68 211.2 163.25 211.02C163.82 210.84 164.33 210.62 164.78 210.37V198.75L164.77 198.74Z" fill="white"/>
<path d="M186 214.5C185.19 214.5 184.59 214.35 184.2 214.04C183.81 213.73 183.61 213.22 183.61 212.49V187.12C183.8 187.06 184.08 186.99 184.45 186.91C184.81 186.83 185.2 186.78 185.62 186.78C186.43 186.78 187.03 186.93 187.42 187.24C187.81 187.55 188 188.06 188 188.79V214.16C187.78 214.24 187.49 214.32 187.14 214.39C186.79 214.46 186.41 214.49 185.99 214.49L186 214.5Z" fill="white"/>
<path d="M212.8 204.47C212.8 206.06 212.56 207.49 212.09 208.78C211.62 210.06 210.95 211.15 210.1 212.04C209.25 212.93 208.21 213.62 206.99 214.11C205.76 214.6 204.4 214.84 202.89 214.84C201.38 214.84 200.02 214.6 198.79 214.11C197.56 213.62 196.53 212.93 195.68 212.04C194.83 211.15 194.17 210.06 193.69 208.78C193.22 207.5 192.98 206.06 192.98 204.47C192.98 202.88 193.22 201.45 193.69 200.16C194.16 198.88 194.83 197.79 195.7 196.9C196.56 196.01 197.61 195.32 198.84 194.83C200.07 194.34 201.42 194.1 202.89 194.1C204.36 194.1 205.72 194.34 206.94 194.83C208.17 195.32 209.21 196.01 210.08 196.92C210.94 197.83 211.61 198.91 212.09 200.18C212.56 201.45 212.8 202.88 212.8 204.47ZM202.89 197.61C201.22 197.61 199.89 198.21 198.92 199.41C197.94 200.61 197.46 202.29 197.46 204.47C197.46 206.65 197.93 208.32 198.88 209.51C199.83 210.69 201.16 211.29 202.89 211.29C204.62 211.29 205.96 210.7 206.9 209.51C207.85 208.33 208.32 206.65 208.32 204.47C208.32 202.29 207.84 200.64 206.88 199.43C205.92 198.22 204.59 197.61 202.89 197.61Z" fill="white"/>
<path d="M222.79 210.66C223.37 211.08 224.2 211.29 225.26 211.29C225.73 211.29 226.24 211.22 226.76 211.08C227.29 210.94 227.75 210.77 228.14 210.58C228.33 210.8 228.51 211.05 228.66 211.33C228.81 211.61 228.89 211.94 228.89 212.33C228.89 213.05 228.52 213.65 227.78 214.13C227.04 214.6 225.92 214.84 224.42 214.84C222.33 214.84 220.66 214.37 219.42 213.44C218.18 212.51 217.56 210.97 217.56 208.82V189.3C217.75 189.24 218.03 189.17 218.4 189.09C218.76 189.01 219.15 188.96 219.57 188.96C220.38 188.96 220.97 189.11 221.35 189.42C221.73 189.73 221.91 190.24 221.91 190.97V195.11H228.39C228.5 195.28 228.61 195.51 228.7 195.82C228.8 196.13 228.85 196.45 228.85 196.78C228.85 197.98 228.33 198.58 227.3 198.58H221.91V208.53C221.91 209.53 222.2 210.24 222.79 210.66Z" fill="white"/>
<path d="M238.34 210.66C238.92 211.08 239.75 211.29 240.81 211.29C241.28 211.29 241.79 211.22 242.31 211.08C242.84 210.94 243.3 210.77 243.69 210.58C243.88 210.8 244.06 211.05 244.21 211.33C244.36 211.61 244.44 211.94 244.44 212.33C244.44 213.05 244.07 213.65 243.33 214.13C242.59 214.6 241.47 214.84 239.97 214.84C237.88 214.84 236.21 214.37 234.97 213.44C233.73 212.51 233.11 210.97 233.11 208.82V189.3C233.3 189.24 233.58 189.17 233.95 189.09C234.31 189.01 234.7 188.96 235.12 188.96C235.93 188.96 236.52 189.11 236.9 189.42C237.28 189.73 237.46 190.24 237.46 190.97V195.11H243.94C244.05 195.28 244.16 195.51 244.25 195.82C244.35 196.13 244.4 196.45 244.4 196.78C244.4 197.98 243.88 198.58 242.85 198.58H237.46V208.53C237.46 209.53 237.75 210.24 238.34 210.66Z" fill="white"/>
<path d="M251.8 206.69C252.19 208.28 252.95 209.46 254.08 210.22C255.21 210.99 256.65 211.37 258.41 211.37C259.58 211.37 260.65 211.19 261.63 210.83C262.61 210.47 263.39 210.08 263.97 209.66C264.75 210.11 265.14 210.73 265.14 211.54C265.14 212.01 264.96 212.45 264.6 212.86C264.24 213.26 263.74 213.61 263.12 213.9C262.49 214.19 261.75 214.42 260.9 214.59C260.05 214.76 259.14 214.84 258.16 214.84C256.54 214.84 255.07 214.62 253.75 214.17C252.43 213.72 251.29 213.06 250.34 212.16C249.39 211.27 248.66 210.17 248.15 208.86C247.63 207.55 247.38 206.03 247.38 204.3C247.38 202.57 247.63 201.16 248.13 199.89C248.63 198.62 249.31 197.56 250.18 196.71C251.04 195.86 252.06 195.21 253.23 194.77C254.4 194.32 255.65 194.1 256.99 194.1C258.33 194.1 259.55 194.32 260.65 194.75C261.75 195.18 262.7 195.78 263.49 196.55C264.28 197.32 264.9 198.23 265.33 199.29C265.76 200.35 265.98 201.51 265.98 202.76C265.98 203.46 265.81 203.97 265.48 204.29C265.15 204.61 264.66 204.83 264.02 204.94L251.81 206.69H251.8ZM256.98 197.49C255.45 197.49 254.17 198.01 253.16 199.04C252.14 200.07 251.61 201.55 251.55 203.47L261.83 202.01C261.72 200.76 261.26 199.69 260.45 198.81C259.64 197.93 258.49 197.49 256.98 197.49Z" fill="white"/>
<path d="M274.79 214.17C274.6 214.25 274.32 214.33 273.98 214.4C273.63 214.47 273.25 214.5 272.83 214.5C272.02 214.5 271.42 214.35 271.03 214.04C270.64 213.73 270.44 213.22 270.44 212.49V198.78C270.44 198.08 270.58 197.52 270.86 197.09C271.14 196.66 271.58 196.25 272.2 195.86C273.01 195.36 274.04 194.94 275.29 194.61C276.54 194.28 277.92 194.11 279.43 194.11C281.88 194.11 283.11 194.81 283.11 196.2C283.11 196.53 283.05 196.85 282.94 197.14C282.83 197.43 282.7 197.69 282.56 197.91C282.28 197.85 281.93 197.8 281.52 197.74C281.1 197.68 280.66 197.66 280.18 197.66C279.07 197.66 278.05 197.78 277.13 198.02C276.21 198.26 275.43 198.56 274.79 198.92V214.18V214.17Z" fill="white"/>
<path d="M291.13 209.7C290.43 208.33 289.58 206.4 288.58 203.89C287.58 201.38 286.6 198.54 285.65 195.36C285.9 195.05 286.24 194.8 286.65 194.59C287.06 194.38 287.51 194.28 287.99 194.28C288.6 194.28 289.1 194.43 289.49 194.72C289.88 195.01 290.2 195.52 290.45 196.25C291.2 198.51 291.98 200.73 292.79 202.92C293.6 205.11 294.49 207.37 295.47 209.71H295.64C296.06 208.82 296.48 207.77 296.91 206.58C297.34 205.38 297.77 204.11 298.18 202.78C298.6 201.44 298.99 200.08 299.35 198.7C299.71 197.32 300.03 196 300.31 194.75C300.59 194.61 300.87 194.5 301.17 194.42C301.46 194.34 301.8 194.29 302.19 194.29C302.8 194.29 303.32 194.44 303.74 194.73C304.16 195.02 304.37 195.48 304.37 196.09C304.37 196.81 304.18 197.92 303.81 199.41C303.43 200.9 302.94 202.54 302.33 204.34C301.72 206.14 301.02 207.96 300.24 209.8C299.46 211.64 298.68 213.27 297.9 214.69C296.51 217.14 295.25 219.01 294.12 220.29C292.99 221.57 291.93 222.21 290.92 222.21C290.14 222.21 289.52 221.99 289.06 221.56C288.6 221.13 288.31 220.59 288.2 219.95C288.65 219.56 289.13 219.09 289.66 218.53C290.19 217.97 290.72 217.37 291.25 216.73C291.78 216.09 292.28 215.43 292.75 214.74C293.22 214.06 293.63 213.4 293.96 212.75C293.49 212.61 293.03 212.34 292.58 211.93C292.13 211.53 291.65 210.78 291.12 209.69L291.13 209.7Z" fill="white"/>
<path d="M325.78 214.84C324.89 214.84 324.05 214.75 323.27 214.57C322.49 214.39 321.82 214.16 321.26 213.88V221.74C321.07 221.82 320.79 221.9 320.45 221.97C320.1 222.04 319.72 222.07 319.3 222.07C318.49 222.07 317.89 221.92 317.5 221.61C317.11 221.3 316.91 220.77 316.91 220.02V198.41C316.91 197.8 317.02 197.3 317.24 196.93C317.46 196.55 317.88 196.18 318.49 195.82C319.27 195.37 320.22 194.98 321.35 194.63C322.48 194.28 323.75 194.11 325.18 194.11C326.61 194.11 327.98 194.31 329.23 194.72C330.48 195.13 331.57 195.74 332.49 196.58C333.41 197.42 334.13 198.48 334.66 199.78C335.19 201.08 335.45 202.62 335.45 204.4C335.45 206.18 335.21 207.68 334.72 208.98C334.23 210.28 333.56 211.36 332.71 212.24C331.86 213.12 330.84 213.77 329.66 214.2C328.47 214.63 327.17 214.85 325.75 214.85L325.78 214.84ZM325.11 211.29C326.92 211.29 328.36 210.74 329.42 209.64C330.48 208.54 331.01 206.79 331.01 204.39C331.01 203.16 330.86 202.12 330.55 201.26C330.24 200.4 329.83 199.69 329.32 199.15C328.8 198.61 328.19 198.22 327.48 197.98C326.77 197.74 326.01 197.62 325.2 197.62C324.31 197.62 323.55 197.72 322.92 197.93C322.29 198.14 321.74 198.38 321.27 198.66V210.16C321.74 210.49 322.3 210.77 322.94 210.98C323.58 211.19 324.31 211.29 325.11 211.29Z" fill="white"/>
<path d="M342.88 214.5C342.07 214.5 341.47 214.35 341.08 214.04C340.69 213.73 340.49 213.22 340.49 212.49V187.12C340.68 187.06 340.96 186.99 341.33 186.91C341.69 186.83 342.08 186.78 342.5 186.78C343.31 186.78 343.91 186.93 344.3 187.24C344.69 187.55 344.88 188.06 344.88 188.79V214.16C344.66 214.24 344.37 214.32 344.02 214.39C343.67 214.46 343.29 214.49 342.87 214.49L342.88 214.5Z" fill="white"/>
<path d="M358.18 194.1C360.77 194.1 362.83 194.66 364.37 195.79C365.9 196.92 366.67 198.7 366.67 201.12V210.86C366.67 211.5 366.52 212 366.23 212.34C365.94 212.69 365.54 213.02 365.04 213.32C364.31 213.74 363.38 214.1 362.24 214.41C361.1 214.72 359.77 214.87 358.27 214.87C355.57 214.87 353.46 214.34 351.94 213.28C350.42 212.22 349.66 210.66 349.66 208.6C349.66 206.76 350.25 205.35 351.44 204.38C352.62 203.41 354.33 202.81 356.56 202.58L362.37 202V201.08C362.37 199.85 361.97 198.96 361.18 198.41C360.39 197.85 359.28 197.57 357.86 197.57C356.75 197.57 355.67 197.72 354.64 198.03C353.61 198.34 352.69 198.69 351.88 199.07C351.6 198.85 351.36 198.58 351.17 198.25C350.97 197.93 350.88 197.58 350.88 197.18C350.88 196.71 351 196.32 351.24 196.01C351.48 195.7 351.85 195.44 352.35 195.22C353.13 194.83 354.02 194.54 355.03 194.36C356.03 194.18 357.09 194.09 358.21 194.09L358.18 194.1ZM358.26 211.45C359.24 211.45 360.09 211.35 360.81 211.16C361.53 210.97 362.05 210.76 362.36 210.53V205.22L357.8 205.68C356.52 205.82 355.56 206.1 354.92 206.54C354.28 206.97 353.96 207.63 353.96 208.53C353.96 209.43 354.31 210.17 355 210.68C355.7 211.2 356.78 211.45 358.26 211.45Z" fill="white"/>
<path d="M377.53 210.66C378.11 211.08 378.94 211.29 380 211.29C380.47 211.29 380.98 211.22 381.5 211.08C382.03 210.94 382.49 210.77 382.88 210.58C383.07 210.8 383.25 211.05 383.4 211.33C383.55 211.61 383.63 211.94 383.63 212.33C383.63 213.05 383.26 213.65 382.52 214.13C381.78 214.6 380.66 214.84 379.16 214.84C377.07 214.84 375.4 214.37 374.16 213.44C372.92 212.51 372.3 210.97 372.3 208.82V189.3C372.49 189.24 372.77 189.17 373.14 189.09C373.5 189.01 373.89 188.96 374.31 188.96C375.12 188.96 375.71 189.11 376.09 189.42C376.47 189.73 376.65 190.24 376.65 190.97V195.11H383.13C383.24 195.28 383.35 195.51 383.44 195.82C383.54 196.13 383.59 196.45 383.59 196.78C383.59 197.98 383.07 198.58 382.04 198.58H376.65V208.53C376.65 209.53 376.94 210.24 377.53 210.66Z" fill="white"/>
<path d="M392.41 195.9H400.31C400.42 196.07 400.53 196.3 400.62 196.59C400.72 196.88 400.77 197.22 400.77 197.61C400.77 198.78 400.24 199.36 399.18 199.36H392.53V214.16C392.33 214.24 392.06 214.32 391.71 214.39C391.36 214.46 390.98 214.49 390.56 214.49C389.75 214.49 389.15 214.34 388.76 214.03C388.37 213.72 388.17 213.21 388.17 212.48V193.42C388.17 192.14 388.36 191.04 388.73 190.12C389.11 189.2 389.64 188.45 390.34 187.86C391.04 187.28 391.88 186.84 392.87 186.56C393.86 186.28 394.95 186.14 396.15 186.14C397.88 186.14 399.2 186.36 400.12 186.81C401.04 187.26 401.5 187.88 401.5 188.69C401.5 189.08 401.42 189.42 401.27 189.71C401.12 190 400.93 190.26 400.71 190.48C400.18 190.26 399.57 190.06 398.87 189.9C398.17 189.73 397.46 189.65 396.74 189.65C395.18 189.65 394.06 189.96 393.4 190.57C392.73 191.18 392.4 192.19 392.4 193.58V195.88L392.41 195.9Z" fill="white"/>
<path d="M422.76 204.47C422.76 206.06 422.52 207.49 422.05 208.78C421.58 210.06 420.91 211.15 420.06 212.04C419.21 212.93 418.17 213.62 416.95 214.11C415.72 214.6 414.36 214.84 412.85 214.84C411.34 214.84 409.98 214.6 408.75 214.11C407.52 213.62 406.49 212.93 405.64 212.04C404.79 211.15 404.13 210.06 403.65 208.78C403.18 207.5 402.94 206.06 402.94 204.47C402.94 202.88 403.18 201.45 403.65 200.16C404.12 198.88 404.79 197.79 405.66 196.9C406.52 196.01 407.57 195.32 408.8 194.83C410.03 194.34 411.38 194.1 412.85 194.1C414.32 194.1 415.68 194.34 416.9 194.83C418.13 195.32 419.17 196.01 420.04 196.92C420.9 197.83 421.57 198.91 422.05 200.18C422.52 201.45 422.76 202.88 422.76 204.47ZM412.85 197.61C411.18 197.61 409.85 198.21 408.88 199.41C407.9 200.61 407.42 202.29 407.42 204.47C407.42 206.65 407.89 208.32 408.84 209.51C409.79 210.69 411.12 211.29 412.85 211.29C414.58 211.29 415.92 210.7 416.86 209.51C417.81 208.33 418.28 206.65 418.28 204.47C418.28 202.29 417.8 200.64 416.84 199.43C415.88 198.22 414.55 197.61 412.85 197.61Z" fill="white"/>
<path d="M431.83 214.17C431.64 214.25 431.36 214.33 431.02 214.4C430.67 214.47 430.29 214.5 429.87 214.5C429.06 214.5 428.46 214.35 428.07 214.04C427.68 213.73 427.48 213.22 427.48 212.49V198.78C427.48 198.08 427.62 197.52 427.9 197.09C428.18 196.66 428.62 196.25 429.24 195.86C430.05 195.36 431.08 194.94 432.33 194.61C433.58 194.28 434.96 194.11 436.47 194.11C438.92 194.11 440.15 194.81 440.15 196.2C440.15 196.53 440.09 196.85 439.98 197.14C439.87 197.43 439.74 197.69 439.6 197.91C439.32 197.85 438.97 197.8 438.56 197.74C438.14 197.68 437.7 197.66 437.22 197.66C436.11 197.66 435.09 197.78 434.17 198.02C433.25 198.26 432.47 198.56 431.83 198.92V214.18V214.17Z" fill="white"/>
<path d="M466.84 198.47C466.16 197.9 465.23 197.61 464.06 197.61C463.28 197.61 462.53 197.76 461.82 198.05C461.11 198.34 460.46 198.74 459.88 199.24C459.94 199.46 459.98 199.7 460.01 199.95C460.04 200.2 460.05 200.45 460.05 200.7V214.16C459.85 214.24 459.58 214.32 459.21 214.39C458.85 214.46 458.47 214.49 458.08 214.49C457.27 214.49 456.67 214.34 456.28 214.03C455.89 213.72 455.69 213.21 455.69 212.48V201.15C455.69 199.92 455.34 199.03 454.65 198.45C453.95 197.88 453.02 197.59 451.85 197.59C451.07 197.59 450.33 197.71 449.63 197.97C448.93 198.22 448.35 198.5 447.87 198.81V214.15C447.68 214.23 447.4 214.31 447.06 214.38C446.71 214.45 446.33 214.48 445.91 214.48C445.1 214.48 444.5 214.33 444.11 214.02C443.72 213.71 443.52 213.2 443.52 212.47V198.68C443.52 198.04 443.65 197.52 443.9 197.13C444.15 196.74 444.57 196.35 445.15 195.96C445.96 195.43 446.97 194.99 448.2 194.62C449.43 194.26 450.67 194.08 451.92 194.08C453.17 194.08 454.41 194.26 455.45 194.62C456.49 194.98 457.35 195.51 458.02 196.21C458.8 195.6 459.73 195.09 460.8 194.68C461.87 194.28 463.12 194.07 464.54 194.07C465.63 194.07 466.64 194.2 467.59 194.47C468.54 194.73 469.35 195.15 470.04 195.72C470.72 196.29 471.26 197.01 471.65 197.87C472.04 198.73 472.24 199.77 472.24 200.96V214.13C472.02 214.21 471.73 214.29 471.38 214.36C471.03 214.43 470.65 214.46 470.23 214.46C469.42 214.46 468.82 214.31 468.43 214C468.04 213.69 467.85 213.18 467.85 212.45V201.12C467.85 199.89 467.51 199 466.83 198.42L466.84 198.47Z" fill="white"/>
<path d="M489.06 214.5C488.25 214.5 487.65 214.35 487.26 214.04C486.87 213.73 486.67 213.22 486.67 212.49V187.12C486.86 187.06 487.14 186.99 487.51 186.91C487.87 186.83 488.26 186.78 488.68 186.78C489.49 186.78 490.09 186.93 490.48 187.24C490.87 187.55 491.06 188.06 491.06 188.79V214.16C490.84 214.24 490.55 214.32 490.2 214.39C489.85 214.46 489.47 214.49 489.05 214.49L489.06 214.5Z" fill="white"/>
<path d="M504.36 194.1C506.95 194.1 509.01 194.66 510.55 195.79C512.08 196.92 512.85 198.7 512.85 201.12V210.86C512.85 211.5 512.7 212 512.41 212.34C512.12 212.69 511.72 213.02 511.22 213.32C510.49 213.74 509.56 214.1 508.42 214.41C507.28 214.72 505.95 214.87 504.45 214.87C501.75 214.87 499.64 214.34 498.12 213.28C496.6 212.22 495.84 210.66 495.84 208.6C495.84 206.76 496.43 205.35 497.62 204.38C498.8 203.41 500.51 202.81 502.74 202.58L508.55 202V201.08C508.55 199.85 508.15 198.96 507.36 198.41C506.57 197.85 505.46 197.57 504.04 197.57C502.93 197.57 501.85 197.72 500.82 198.03C499.79 198.34 498.87 198.69 498.06 199.07C497.78 198.85 497.54 198.58 497.35 198.25C497.15 197.93 497.06 197.58 497.06 197.18C497.06 196.71 497.18 196.32 497.42 196.01C497.66 195.7 498.03 195.44 498.53 195.22C499.31 194.83 500.2 194.54 501.21 194.36C502.21 194.18 503.27 194.09 504.39 194.09L504.36 194.1ZM504.44 211.45C505.42 211.45 506.27 211.35 506.99 211.16C507.71 210.97 508.23 210.76 508.54 210.53V205.22L503.98 205.68C502.7 205.82 501.74 206.1 501.1 206.54C500.46 206.97 500.14 207.63 500.14 208.53C500.14 209.43 500.49 210.17 501.18 210.68C501.88 211.2 502.96 211.45 504.44 211.45Z" fill="white"/>
<path d="M518.44 194.73C518.63 194.67 518.91 194.61 519.28 194.54C519.64 194.47 520.03 194.44 520.45 194.44C521.26 194.44 521.85 194.59 522.23 194.9C522.61 195.21 522.79 195.74 522.79 196.49V206.82C522.79 208.44 523.21 209.59 524.07 210.27C524.92 210.95 526.1 211.29 527.6 211.29C528.58 211.29 529.4 211.19 530.07 211C530.74 210.81 531.27 210.6 531.66 210.37V194.74C531.88 194.68 532.17 194.62 532.52 194.55C532.87 194.48 533.25 194.45 533.67 194.45C534.48 194.45 535.08 194.6 535.47 194.91C535.86 195.22 536.06 195.75 536.06 196.5V210.59C536.06 211.2 535.96 211.71 535.77 212.09C535.58 212.47 535.19 212.86 534.6 213.22C533.88 213.64 532.92 214.01 531.74 214.35C530.56 214.68 529.17 214.85 527.58 214.85C524.71 214.85 522.47 214.22 520.87 212.95C519.27 211.68 518.47 209.67 518.47 206.91V194.75L518.44 194.73Z" fill="white"/>
<path d="M553.87 198.58C553.1 197.94 552.07 197.62 550.76 197.62C549.78 197.62 548.91 197.74 548.15 198C547.38 198.25 546.72 198.53 546.16 198.84V214.18C545.97 214.26 545.69 214.34 545.35 214.41C545 214.48 544.62 214.51 544.2 214.51C543.39 214.51 542.79 214.36 542.4 214.05C542.01 213.74 541.81 213.23 541.81 212.5V198.71C541.81 198.07 541.94 197.55 542.19 197.16C542.44 196.77 542.86 196.38 543.44 195.99C544.22 195.52 545.24 195.08 546.49 194.69C547.74 194.3 549.17 194.11 550.75 194.11C553.45 194.11 555.57 194.72 557.1 195.93C558.63 197.14 559.4 198.97 559.4 201.43V214.18C559.2 214.26 558.93 214.34 558.56 214.41C558.2 214.48 557.81 214.51 557.39 214.51C556.58 214.51 555.98 214.36 555.59 214.05C555.2 213.74 555.01 213.23 555.01 212.5V201.59C555.01 200.22 554.63 199.22 553.86 198.58H553.87Z" fill="white"/>
<path d="M574.79 197.66C573.9 197.66 573.08 197.81 572.32 198.1C571.56 198.39 570.92 198.83 570.38 199.42C569.84 200.01 569.4 200.72 569.08 201.57C568.76 202.42 568.6 203.4 568.6 204.52C568.6 206.72 569.17 208.4 570.31 209.56C571.45 210.72 572.94 211.3 574.78 211.3C575.84 211.3 576.74 211.16 577.5 210.88C578.26 210.6 578.91 210.27 579.46 209.88C579.82 210.1 580.11 210.37 580.34 210.67C580.56 210.98 580.67 211.35 580.67 211.8C580.67 212.66 580.11 213.39 578.98 213.97C577.85 214.56 576.37 214.85 574.53 214.85C573 214.85 571.6 214.64 570.33 214.22C569.06 213.8 567.97 213.16 567.05 212.3C566.13 211.44 565.41 210.36 564.9 209.06C564.38 207.76 564.13 206.25 564.13 204.52C564.13 202.79 564.4 201.27 564.94 199.96C565.48 198.65 566.22 197.56 567.16 196.7C568.09 195.84 569.19 195.19 570.44 194.76C571.69 194.33 573.02 194.11 574.41 194.11C575.33 194.11 576.16 194.19 576.9 194.36C577.64 194.53 578.27 194.76 578.8 195.05C579.33 195.34 579.74 195.68 580.03 196.05C580.32 196.43 580.47 196.82 580.47 197.24C580.47 197.63 580.37 197.99 580.16 198.31C579.95 198.63 579.69 198.87 579.39 199.04C578.81 198.68 578.16 198.36 577.45 198.08C576.74 197.8 575.85 197.66 574.8 197.66H574.79Z" fill="white"/>
<path d="M597.34 198.68C596.52 197.97 595.44 197.61 594.1 197.61C593.21 197.61 592.39 197.76 591.65 198.05C590.91 198.34 590.26 198.7 589.71 199.12V214.17C589.51 214.25 589.24 214.33 588.89 214.4C588.54 214.47 588.16 214.5 587.74 214.5C586.93 214.5 586.33 214.35 585.94 214.04C585.55 213.73 585.35 213.22 585.35 212.49V187.12C585.54 187.06 585.82 186.99 586.19 186.91C586.55 186.83 586.94 186.78 587.36 186.78C588.17 186.78 588.76 186.93 589.14 187.24C589.52 187.55 589.7 188.06 589.7 188.79V195.39C590.34 195.06 591.09 194.76 591.94 194.49C592.79 194.23 593.74 194.09 594.8 194.09C597.22 194.09 599.18 194.73 600.67 196.01C602.16 197.29 602.91 199.24 602.91 201.86V214.15C602.71 214.23 602.44 214.31 602.07 214.38C601.71 214.45 601.33 214.48 600.94 214.48C600.1 214.48 599.5 214.33 599.12 214.02C598.74 213.71 598.56 213.2 598.56 212.47V202.02C598.56 200.49 598.15 199.37 597.33 198.65L597.34 198.68Z" fill="white"/>
</g>
<defs>
<filter id="filter0_d_3_4" x="7.01002" y="0.33999" width="275.6" height="40.78" filterUnits="userSpaceOnUse" color-interpolation-filters="sRGB">
<feFlood flood-opacity="0" result="BackgroundImageFix"/>
<feColorMatrix in="SourceAlpha" type="matrix" values="0 0 0 0 0 0 0 0 0 0 0 0 0 0 0 0 0 0 127 0" result="hardAlpha"/>
<feOffset dx="-2.4" dy="2.4"/>
<feGaussianBlur stdDeviation="2.4"/>
<feColorMatrix type="matrix" values="0 0 0 0 0 0 0 0 0 0 0 0 0 0 0 0 0 0 0.6 0"/>
<feBlend mode="normal" in2="BackgroundImageFix" result="effect1_dropShadow_3_4"/>
<feBlend mode="normal" in="SourceGraphic" in2="effect1_dropShadow_3_4" result="shape"/>
</filter>
<filter id="filter1_d_3_4" x="0.695996" y="62.3148" width="456.619" height="57.1751" filterUnits="userSpaceOnUse" color-interpolation-filters="sRGB">
<feFlood flood-opacity="0" result="BackgroundImageFix"/>
<feColorMatrix in="SourceAlpha" type="matrix" values="0 0 0 0 0 0 0 0 0 0 0 0 0 0 0 0 0 0 127 0" result="hardAlpha"/>
<feOffset dx="-2.4" dy="2.4"/>
<feGaussianBlur stdDeviation="2.4"/>
<feColorMatrix type="matrix" values="0 0 0 0 0 0 0 0 0 0 0 0 0 0 0 0 0 0 0.6 0"/>
<feBlend mode="normal" in2="BackgroundImageFix" result="effect1_dropShadow_3_4"/>
<feBlend mode="normal" in="SourceGraphic" in2="effect1_dropShadow_3_4" result="shape"/>
</filter>
<filter id="filter2_d_3_4" x="6.85005" y="183.74" width="598.46" height="45.67" filterUnits="userSpaceOnUse" color-interpolation-filters="sRGB">
<feFlood flood-opacity="0" result="BackgroundImageFix"/>
<feColorMatrix in="SourceAlpha" type="matrix" values="0 0 0 0 0 0 0 0 0 0 0 0 0 0 0 0 0 0 127 0" result="hardAlpha"/>
<feOffset dx="-2.4" dy="2.4"/>
<feGaussianBlur stdDeviation="2.4"/>
<feColorMatrix type="matrix" values="0 0 0 0 0 0 0 0 0 0 0 0 0 0 0 0 0 0 0.6 0"/>
<feBlend mode="normal" in2="BackgroundImageFix" result="effect1_dropShadow_3_4"/>
<feBlend mode="normal" in="SourceGraphic" in2="effect1_dropShadow_3_4" result="shape"/>
</filter>
</defs>
</svg>
