<svg width="528" height="141" viewBox="0 0 528 141" fill="none" xmlns="http://www.w3.org/2000/svg">
<g filter="url(#filter0_d_4_6)">
<path d="M8.63001 118.48C8.22001 117.8 7.99 117.07 7.92 116.28C7.85 115.49 7.98 114.77 8.29 114.11C8.6 113.46 9.08001 112.94 9.71001 112.55C10.34 112.17 11.15 112.04 12.15 112.18C12.69 112.22 13.17 112.38 13.6 112.65C14.03 112.92 14.45 113.24 14.85 113.6C15.26 113.96 15.65 114.32 16.03 114.68C16.41 115.04 16.81 115.36 17.21 115.63C17.44 115.76 17.71 115.91 18.02 116.07C18.33 116.23 18.61 116.35 18.83 116.44C18.83 114.86 18.84 113.16 18.86 111.33C18.88 109.5 18.89 107.8 18.89 106.22C16.95 105.32 15.06 104.3 13.21 103.18C11.36 102.05 9.87 100.54 8.75 98.65C7.71 96.89 7.34001 95.15 7.63001 93.41C7.92001 91.67 8.63 90.07 9.76 88.61C10.89 87.15 12.28 85.9 13.95 84.89C15.62 83.88 17.29 83.2299 18.95 82.9599V81.17C18.95 80.52 18.98 79.87 19.05 79.24C19.12 78.61 19.25 78 19.46 77.41C19.66 76.82 19.97 76.3099 20.37 75.8499C20.82 75.3099 21.34 74.96 21.93 74.8C22.52 74.64 23.08 74.63 23.62 74.77C24.16 74.9 24.67 75.17 25.14 75.55C25.61 75.93 25.99 76.4399 26.26 77.0699C26.67 78.0599 26.87 79.0799 26.87 80.1099V83.2199C28.13 83.5399 29.44 83.92 30.79 84.37C32.14 84.82 33.31 85.5 34.31 86.4C34.94 86.94 35.43 87.56 35.76 88.26C36.1 88.96 36.24 89.63 36.2 90.26C36.15 90.89 35.9 91.4699 35.42 91.9799C34.95 92.4999 34.21 92.85 33.22 93.03C32.63 93.12 32.07 93.12 31.53 93.03C30.99 92.94 30.46 92.7899 29.94 92.5899C29.42 92.3899 28.9 92.1699 28.38 91.9499C27.86 91.7199 27.33 91.5199 26.79 91.3399V96.14C26.79 97.85 26.77 99.4499 26.72 100.94C28.7 101.71 30.56 102.52 32.3 103.37C34.03 104.23 35.6 105.47 37 107.09C37.77 107.99 38.31 109.08 38.62 110.34C38.93 111.6 39.04 112.89 38.92 114.19C38.81 115.5 38.49 116.75 37.97 117.94C37.45 119.14 36.74 120.12 35.84 120.88C34.49 122.05 33.04 122.98 31.51 123.65C29.98 124.33 28.35 124.87 26.64 125.27C26.64 125.9 26.65 126.65 26.67 127.5C26.69 128.36 26.64 129.12 26.5 129.8C26.36 130.52 26.03 131.14 25.49 131.66C24.95 132.18 24.33 132.54 23.63 132.74C22.93 132.94 22.22 132.95 21.5 132.77C20.78 132.59 20.17 132.16 19.67 131.48C18.99 130.58 18.67 129.52 18.69 128.3C18.71 127.08 18.72 125.96 18.72 124.92C16.69 124.42 14.82 123.61 13.11 122.49C11.4 121.36 9.89001 120.01 8.58001 118.43L8.63001 118.48ZM15.12 93.39C15.16 93.8 15.23 94.1599 15.32 94.4699C15.41 94.7899 15.59 95.1 15.86 95.42C16.13 95.74 16.5 96.0899 16.98 96.4699C17.45 96.8499 18.1 97.3199 18.91 97.8599V91.16C17.74 91.16 16.87 91.41 16.31 91.9C15.75 92.4 15.35 92.89 15.13 93.39H15.12ZM27.97 116.99C29.28 116.4 30.13 115.8 30.54 115.16C30.95 114.53 31.04 113.9 30.81 113.27C30.58 112.64 30.11 112.03 29.39 111.44C28.67 110.85 27.79 110.29 26.75 109.75C26.75 110.92 26.74 112.21 26.72 113.61C26.7 115.01 26.69 116.29 26.69 117.47C26.92 117.38 27.13 117.3 27.33 117.23C27.53 117.16 27.75 117.08 27.97 116.99Z" fill="white"/>
<path d="M74.23 83.11C75.09 83.47 75.8 84.05 76.36 84.83C76.92 85.62 77.26 86.43 77.37 87.27C77.48 88.1 77.32 88.8601 76.9 89.5401C76.47 90.2201 75.72 90.67 74.63 90.89C72.56 91.25 70.61 91.41 68.78 91.36C66.95 91.31 65.36 91.2901 64.01 91.2901C64.01 96.7001 64.03 102.02 64.08 107.25C64.12 112.48 64.1 118 64.01 123.82C64.01 125.08 63.58 125.99 62.72 126.56C61.86 127.12 60.93 127.36 59.91 127.27C58.9 127.18 57.96 126.77 57.1 126.05C56.24 125.33 55.82 124.34 55.82 123.07C55.77 117.75 55.75 112.45 55.75 107.18V91.2901C55.34 91.2901 54.66 91.31 53.69 91.36C52.72 91.4 51.66 91.42 50.51 91.39C49.36 91.37 48.18 91.28 46.96 91.12C45.74 90.96 44.68 90.66 43.78 90.21C43.06 89.85 42.59 89.32 42.36 88.62C42.13 87.92 42.12 87.21 42.33 86.49C42.53 85.77 42.91 85.09 43.45 84.46C43.99 83.83 44.67 83.4001 45.48 83.1801C49.27 82.9501 52.93 82.88 56.47 82.94C60.01 83.01 63.61 83.0401 67.26 83.0401C68.34 83.0401 69.42 83.03 70.51 83.01C71.59 82.99 72.7 82.98 73.82 82.98L74.23 83.11Z" fill="white"/>
<path d="M98.85 117.6C100.02 117.65 100.99 118 101.76 118.65C102.53 119.3 103.02 120.06 103.25 120.92C103.48 121.78 103.41 122.62 103.05 123.46C102.69 124.29 101.94 124.94 100.82 125.39C100.01 125.7 99.05 125.91 97.95 126C96.85 126.09 95.74 126.12 94.64 126.1C93.54 126.08 92.51 126.03 91.56 125.96C90.61 125.89 89.89 125.86 89.4 125.86H85.41C84.46 125.86 83.65 125.6 82.98 125.08C82.31 124.56 81.82 123.94 81.53 123.22C81.24 122.5 81.17 121.73 81.33 120.92C81.49 120.11 81.91 119.36 82.58 118.69C83.21 118.06 84.04 117.7 85.08 117.61C86.12 117.52 87.15 117.52 88.19 117.61V90.83C87.15 90.83 86.18 90.8201 85.28 90.8001C84.38 90.7801 83.48 90.45 82.57 89.82C81.89 89.32 81.44 88.75 81.22 88.1C80.99 87.45 80.96 86.79 81.12 86.14C81.28 85.49 81.58 84.87 82.03 84.28C82.48 83.69 83.04 83.27 83.72 82.99C84.35 82.72 85 82.58 85.68 82.58C87.98 82.58 90.29 82.5701 92.61 82.5501C94.93 82.5301 97.27 82.54 99.61 82.58C99.84 82.58 100.05 82.65 100.25 82.78C100.45 82.92 100.67 83.03 100.89 83.12C101.93 83.71 102.62 84.54 102.99 85.62C103.35 86.7 103.22 87.7601 102.58 88.8001C102.26 89.3401 101.87 89.7601 101.4 90.0501C100.93 90.3401 100.41 90.55 99.84 90.66C99.28 90.77 98.7 90.83 98.12 90.83H96.43V117.75C96.79 117.75 97.12 117.74 97.41 117.72C97.7 117.7 98.03 117.66 98.39 117.62H98.86L98.85 117.6Z" fill="white"/>
<path d="M157.56 122.94C157.42 123.93 157.06 124.78 156.48 125.48C155.89 126.18 155.22 126.66 154.45 126.93C153.68 127.2 152.89 127.21 152.08 126.96C151.27 126.71 150.59 126.11 150.05 125.17C149.6 124.4 149.34 123.6 149.27 122.77C149.2 121.94 149.12 121.07 149.03 120.17C148.94 119.18 148.84 118.31 148.73 117.57C148.62 116.83 148.49 115.96 148.36 114.97C147.95 112.26 147.5 109.59 147.01 106.96C146.51 104.32 145.95 101.67 145.32 99.01C144.42 101.26 143.56 103.5 142.75 105.71C141.94 107.92 141.13 110.15 140.32 112.41C139.69 114.08 139.07 115.76 138.46 117.45C137.85 119.14 137.14 120.78 136.33 122.35C136.06 122.89 135.61 123.33 134.98 123.67C134.35 124.01 133.67 124.2 132.95 124.24C132.23 124.29 131.55 124.18 130.92 123.94C130.29 123.69 129.81 123.27 129.5 122.69C127.56 118.95 125.65 115.23 123.75 111.53C121.86 107.83 119.96 104.11 118.07 100.37C117.84 102.67 117.64 104.98 117.46 107.3C117.28 109.62 117.08 111.93 116.85 114.23C116.8 114.95 116.76 115.83 116.71 116.87C116.66 117.91 116.59 118.96 116.47 120.02C116.36 121.08 116.22 122.09 116.06 123.06C115.9 124.03 115.64 124.78 115.28 125.33C114.74 126.23 114.03 126.82 113.15 127.09C112.27 127.36 111.41 127.38 110.58 127.16C109.75 126.93 109.05 126.47 108.48 125.77C107.92 125.07 107.66 124.18 107.7 123.1C107.79 121.25 107.95 119.43 108.17 117.62C108.4 115.82 108.6 113.99 108.78 112.14C109.14 108.13 109.51 104.14 109.9 100.17C110.28 96.2 110.65 92.19 111.02 88.13C111.11 86.96 111.35 85.88 111.73 84.88C112.11 83.89 112.94 83.19 114.2 82.78C114.7 82.6 115.21 82.5299 115.76 82.5799C116.3 82.6299 116.8 82.78 117.25 83.05C118.24 83.68 119.02 84.55 119.58 85.65C120.14 86.76 120.67 87.8 121.17 88.8C122.03 90.42 122.86 92.0599 123.67 93.6999C124.48 95.3499 125.29 96.9799 126.1 98.5999C127.09 100.67 128.1 102.72 129.11 104.72C130.12 106.73 131.17 108.74 132.26 110.77C132.53 110.09 132.79 109.42 133.04 108.74C133.29 108.06 133.55 107.39 133.82 106.71C134.32 105.54 134.78 104.35 135.21 103.16C135.64 101.97 136.08 100.78 136.53 99.6099C137.16 98.0799 137.76 96.5699 138.32 95.0799C138.88 93.5899 139.44 92.08 139.98 90.55C140.43 89.42 140.86 88.21 141.27 86.9C141.68 85.59 142.33 84.4899 143.23 83.5899C143.86 82.9099 144.55 82.5099 145.29 82.3699C146.03 82.2299 146.73 82.29 147.39 82.54C148.04 82.79 148.63 83.21 149.15 83.79C149.67 84.38 150.04 85.0499 150.27 85.8199C150.54 86.8599 150.86 88.0299 151.22 89.3399C151.58 90.6499 151.9 91.8199 152.17 92.8599C152.67 94.7499 153.12 96.6099 153.52 98.4399C153.92 100.27 154.31 102.13 154.67 104.02C155.3 107.13 155.85 110.21 156.33 113.25C156.8 116.29 157.22 119.37 157.58 122.48V122.95L157.56 122.94Z" fill="white"/>
<path d="M186.23 116.32C187.04 116.37 187.75 116.58 188.36 116.96C188.97 117.34 189.46 117.81 189.85 118.35C190.23 118.89 190.46 119.51 190.53 120.21C190.6 120.91 190.45 121.62 190.09 122.34C189.95 122.66 189.67 123.03 189.24 123.46C188.81 123.89 188.42 124.15 188.06 124.24C185.17 125.1 182.21 125.63 179.17 125.83C176.13 126.03 173.12 125.98 170.14 125.66C169.28 125.57 168.35 125.48 167.33 125.39C166.32 125.3 165.42 125.01 164.66 124.51C163.26 123.61 162.56 122.32 162.56 120.66V91.85C162.06 91.49 161.66 91.04 161.34 90.5C161.02 89.96 160.83 89.3801 160.77 88.7801C160.7 88.1701 160.78 87.5901 161.01 87.0201C161.24 86.4601 161.62 85.97 162.16 85.57C163.06 84.85 164.1 84.36 165.27 84.12C166.44 83.87 167.59 83.66 168.72 83.48C171.06 83.12 173.41 82.94 175.75 82.94C178.09 82.94 180.48 82.92 182.92 82.87C183.64 82.87 184.48 82.81 185.42 82.7C186.37 82.59 187.2 82.67 187.92 82.94C188.78 83.26 189.45 83.7501 189.95 84.4301C190.45 85.1101 190.74 85.83 190.83 86.59C190.92 87.36 190.77 88.1 190.39 88.82C190.01 89.54 189.34 90.11 188.39 90.51C187.26 90.96 186.06 91.16 184.77 91.12C183.48 91.08 182.26 91.0501 181.08 91.0501C179.37 91.0501 177.65 91.07 175.94 91.12C174.23 91.16 172.51 91.3001 170.8 91.5301V100.93C172.42 101.02 174.05 101.02 175.67 100.93C177.29 100.84 178.92 100.73 180.54 100.59C181.26 100.55 181.98 100.48 182.7 100.39C183.42 100.3 184.16 100.3 184.93 100.39C185.92 100.52 186.69 100.93 187.23 101.61C187.77 102.29 188.1 103.04 188.21 103.88C188.32 104.71 188.18 105.54 187.77 106.35C187.36 107.16 186.71 107.75 185.81 108.11C185.04 108.43 184.01 108.66 182.7 108.82C181.39 108.98 180.02 109.09 178.57 109.16C177.13 109.23 175.71 109.26 174.31 109.26C172.91 109.26 171.74 109.24 170.79 109.19V117.51C173.27 117.83 175.77 117.87 178.3 117.64C180.82 117.42 183.3 116.99 185.74 116.35H186.21L186.23 116.32Z" fill="white"/>
<path d="M197.26 119.97C196.94 119.11 196.84 118.26 196.96 117.4C197.07 116.54 197.37 115.81 197.84 115.2C198.31 114.59 198.93 114.16 199.7 113.92C200.47 113.67 201.32 113.75 202.27 114.16C203.13 114.52 203.86 115.05 204.47 115.75C205.08 116.45 205.81 117 206.67 117.41C207.84 118 209.04 118.42 210.25 118.7C211.11 118.93 211.96 119.07 212.82 119.14C213.68 119.21 214.56 119.24 215.46 119.24C216.14 119.06 216.72 118.88 217.22 118.7C217.72 118.52 218.26 118.14 218.84 117.55C219.52 116.96 219.96 116.26 220.16 115.45C220.36 114.64 220.36 113.84 220.16 113.05C219.96 112.26 219.57 111.54 219.01 110.89C218.45 110.24 217.76 109.8 216.95 109.57C215.37 109.03 213.79 108.61 212.22 108.32C210.64 108.03 209.11 107.68 207.62 107.27C206.13 106.86 204.72 106.29 203.39 105.55C202.06 104.81 200.83 103.74 199.7 102.34C199.07 101.57 198.66 100.9 198.48 100.31C198.3 99.7301 198.1 98.98 197.87 98.08C197.46 95.92 197.63 94.09 198.38 92.6C199.13 91.11 200.06 89.76 201.19 88.5401C202.63 86.9601 204.27 85.7601 206.09 84.9201C207.92 84.0901 209.83 83.5401 211.84 83.3001C213.85 83.0501 215.87 83.1001 217.93 83.4301C219.98 83.7701 221.93 84.34 223.78 85.15C224.86 85.6 225.55 86.3 225.84 87.25C226.13 88.2 226.14 89.12 225.87 90.02C225.6 90.92 225.08 91.67 224.31 92.25C223.54 92.84 222.64 93.04 221.6 92.86C220.52 92.64 219.5 92.4 218.56 92.15C217.61 91.9 216.67 91.69 215.72 91.51C215 91.38 214.22 91.35 213.39 91.44C212.56 91.53 211.77 91.68 211.02 91.88C210.28 92.08 209.59 92.3101 208.96 92.5601C208.33 92.8101 207.85 93.07 207.54 93.34C207.18 93.66 206.83 94.0601 206.49 94.5601C206.15 95.0601 205.96 95.62 205.92 96.25C205.83 97.02 206.12 97.65 206.8 98.14C207.48 98.64 208.2 99 208.96 99.22C210.45 99.54 211.98 99.84 213.56 100.13C215.14 100.42 216.69 100.83 218.23 101.35C219.76 101.87 221.19 102.53 222.52 103.35C223.85 104.16 224.99 105.24 225.94 106.6C226.98 107.77 227.72 109.1 228.17 110.59C228.62 112.08 228.79 113.57 228.68 115.05C228.57 116.54 228.22 117.97 227.63 119.34C227.04 120.72 226.23 121.92 225.2 122.96C224.48 123.68 223.72 124.3 222.93 124.82C222.14 125.34 221.3 125.85 220.39 126.34C218.59 127.29 216.65 127.76 214.57 127.76C212.49 127.76 210.42 127.46 208.35 126.85C206.28 126.24 204.31 125.38 202.47 124.28C200.62 123.18 199.04 121.97 197.74 120.66L197.27 119.98L197.26 119.97Z" fill="white"/>
<path d="M272.94 107.46C272.17 109.99 271.19 112.45 270 114.87C268.8 117.28 267.35 119.44 265.64 121.33C263.93 123.22 261.93 124.76 259.65 125.93C257.37 127.1 254.77 127.69 251.84 127.69C249.95 127.6 248.45 127.43 247.34 127.18C246.23 126.93 245.16 126.56 244.13 126.06C242.28 125.52 240.69 124.65 239.36 123.46C238.03 122.27 236.91 120.88 236.01 119.3C235.11 117.72 234.42 116.04 233.95 114.26C233.48 112.48 233.17 110.75 233.04 109.09C232.81 106.16 233.06 103.18 233.78 100.16C234.5 97.1401 235.65 94.3601 237.23 91.8101C238.81 89.2601 240.79 87.0801 243.18 85.2501C245.57 83.4201 248.3 82.2201 251.36 81.6301C252.94 81.3601 254.54 81.27 256.16 81.36C257.78 81.45 259.36 81.7701 260.89 82.3101C262.15 82.7601 263.32 83.2801 264.41 83.8701C265.49 84.4601 266.53 85.2 267.52 86.1C268.83 87.27 269.93 88.6301 270.83 90.1601C271.73 91.6901 272.39 93.29 272.79 94.96C273.29 97.08 273.51 99.1801 273.47 101.25C273.42 103.32 273.24 105.4 272.93 107.47L272.94 107.46ZM255.42 118.89C256.77 118.3 257.96 117.53 258.97 116.56C259.98 115.59 260.87 114.52 261.64 113.35C262.41 112.18 263.05 110.93 263.57 109.6C264.09 108.27 264.55 106.93 264.96 105.58C265.23 103.87 265.38 102.11 265.4 100.3C265.42 98.5001 265.05 96.7801 264.28 95.1601C263.65 93.8101 262.69 92.6501 261.41 91.6801C260.13 90.7101 258.72 90.0301 257.18 89.6501C255.65 89.2701 254.1 89.1901 252.55 89.4101C250.99 89.6401 249.61 90.24 248.39 91.24C246.68 92.68 245.29 94.3 244.23 96.08C243.17 97.86 242.37 99.8301 241.83 102C241.38 103.71 241.13 105.52 241.09 107.41C241.04 109.3 241.34 111.11 241.97 112.82C242.47 114.08 243.2 115.23 244.17 116.27C245.14 117.31 246.23 118.12 247.45 118.7C248.67 119.29 249.96 119.61 251.34 119.68C252.72 119.75 254.08 119.49 255.43 118.9L255.42 118.89Z" fill="white"/>
<path d="M305.54 85.95C305.81 85.05 306.25 84.3 306.86 83.72C307.47 83.13 308.13 82.75 308.86 82.57C309.58 82.39 310.31 82.44 311.06 82.71C311.8 82.98 312.45 83.52 312.99 84.33C313.17 84.56 313.34 84.8301 313.5 85.1401C313.66 85.4601 313.74 85.7501 313.74 86.0201C313.74 86.5201 313.72 87.3501 313.67 88.5201C313.62 89.6901 313.59 90.89 313.57 92.1C313.55 93.32 313.51 94.4 313.47 95.35C313.42 96.3 313.4 96.79 313.4 96.84C313.31 99.28 313.15 101.7 312.93 104.11C312.7 106.52 312.39 108.95 311.98 111.38C311.62 113.27 311.19 115.02 310.7 116.62C310.2 118.22 309.53 119.64 308.67 120.88C307.81 122.12 306.73 123.19 305.42 124.09C304.11 124.99 302.49 125.71 300.55 126.25C299.78 126.47 298.98 126.63 298.15 126.72C297.32 126.81 296.51 126.85 295.75 126.85C293.5 126.85 291.2 126.42 288.85 125.56C286.19 124.52 284.18 122.81 282.83 120.42C281.48 118.03 280.53 115.36 279.99 112.41C279.45 109.46 279.19 106.47 279.21 103.45C279.23 100.43 279.24 97.77 279.24 95.47C279.24 94.52 279.25 93.57 279.27 92.6C279.29 91.63 279.33 90.67 279.37 89.72C279.37 89.04 279.39 88.33 279.44 87.59C279.48 86.85 279.62 86.14 279.85 85.46C280.08 84.78 280.42 84.2 280.9 83.7C281.37 83.2 282.04 82.87 282.9 82.69C283.4 82.6 283.92 82.65 284.49 82.82C285.05 83 285.56 83.26 286.01 83.6C286.46 83.94 286.84 84.34 287.16 84.82C287.47 85.29 287.63 85.8 287.63 86.34V89.21C287.63 89.55 287.62 89.9001 287.6 90.2601C287.58 90.6201 287.57 91.0901 287.57 91.6801C287.48 94.6601 287.43 97.62 287.43 100.57C287.43 103.52 287.61 106.47 287.97 109.4C288.11 110.62 288.31 111.88 288.58 113.19C288.85 114.5 289.39 115.63 290.2 116.57C290.92 117.43 291.86 118.02 293.01 118.36C294.16 118.7 295.33 118.8 296.53 118.66C297.72 118.53 298.85 118.19 299.91 117.65C300.97 117.11 301.79 116.39 302.38 115.49C302.97 114.59 303.42 113.53 303.73 112.31C304.04 111.09 304.28 109.83 304.44 108.52C304.6 107.21 304.71 105.92 304.78 104.63C304.85 103.34 304.9 102.16 304.95 101.08C305.04 99.82 305.11 98.74 305.15 97.83C305.19 96.93 305.24 95.85 305.29 94.58C305.33 93.63 305.36 92.69 305.36 91.74C305.36 90.79 305.38 89.8501 305.43 88.9001L305.57 85.9201L305.54 85.95Z" fill="white"/>
<path d="M345.17 118.14C346.21 118.64 347 119.27 347.54 120.03C348.08 120.8 348.34 121.57 348.32 122.36C348.3 123.15 348 123.89 347.44 124.59C346.88 125.29 346.01 125.82 344.84 126.18C344.39 126.31 343.76 126.39 342.95 126.42C342.14 126.44 341.01 126.45 339.57 126.45H334.09C331.88 126.45 329.15 126.47 325.91 126.52C325.1 126.56 324.26 126.59 323.41 126.59C322.56 126.59 321.81 126.3 321.18 125.71C320.64 125.26 320.24 124.57 320 123.65C319.75 122.73 319.59 121.76 319.53 120.74C319.46 119.73 319.44 118.71 319.46 117.7C319.48 116.69 319.49 115.84 319.49 115.16C319.49 113.81 319.5 112.25 319.52 110.49C319.54 108.73 319.56 106.94 319.59 105.11C319.61 103.28 319.62 101.49 319.62 99.73V95.0601C319.62 92.6701 319.64 90.74 319.69 89.28C319.73 87.82 319.84 86.67 319.99 85.83C320.15 85 320.41 84.39 320.77 84C321.13 83.62 321.63 83.29 322.26 83.02C322.8 82.8 323.4 82.72 324.05 82.78C324.7 82.85 325.31 83.0299 325.88 83.3199C326.44 83.6099 326.92 84.02 327.3 84.54C327.68 85.06 327.88 85.63 327.88 86.26C327.97 91.67 327.97 97.04 327.88 102.36C327.79 107.68 327.74 113 327.74 118.32C330.58 118.32 333.41 118.29 336.23 118.22C339.05 118.15 341.9 118.07 344.79 117.98L345.2 118.11L345.17 118.14Z" fill="white"/>
<path d="M403.06 112.8C403.78 112.08 404.6 111.66 405.53 111.55C406.45 111.44 407.3 111.56 408.07 111.92C408.84 112.28 409.43 112.86 409.86 113.64C410.29 114.43 410.39 115.36 410.16 116.45C409.89 117.53 409.37 118.54 408.6 119.46C407.83 120.38 407.07 121.23 406.3 122C404.54 123.85 402.59 125.21 400.45 126.09C398.31 126.97 396.14 127.38 393.96 127.34C391.77 127.29 389.63 126.78 387.53 125.78C385.43 124.79 383.55 123.3 381.88 121.32C380.89 120.15 380.05 118.91 379.38 117.6C378.7 116.29 378.19 114.92 377.82 113.47C377.28 111.35 377.03 109.14 377.08 106.84C377.12 104.54 377.49 102.31 378.16 100.14C378.83 97.97 379.79 95.94 381.03 94.02C382.27 92.1 383.79 90.47 385.6 89.12C386.91 88.13 388.23 87.27 389.56 86.55C390.89 85.83 392.3 85.15 393.79 84.52C394.65 84.16 395.52 83.8099 396.43 83.4699C397.33 83.1299 398.26 82.8699 399.2 82.6899C400.15 82.5099 401.09 82.44 402.04 82.49C402.99 82.54 403.91 82.74 404.81 83.1C405.44 83.37 406.07 83.7399 406.7 84.2199C407.33 84.6899 407.92 85.2299 408.46 85.8399C409 86.4499 409.47 87.09 409.88 87.77C410.29 88.45 410.58 89.1 410.76 89.73C410.9 90.32 410.93 90.91 410.86 91.52C410.79 92.13 410.61 92.68 410.32 93.18C410.03 93.68 409.63 94.09 409.14 94.43C408.64 94.77 408.08 94.9799 407.45 95.0699C406.41 95.1999 405.61 95.09 405.05 94.73C404.49 94.37 404.04 93.92 403.7 93.38C403.36 92.84 403.03 92.31 402.72 91.79C402.4 91.27 401.95 90.9 401.37 90.67C401.01 90.67 400.74 90.69 400.56 90.74C399.03 91.15 397.48 91.7 395.93 92.4C394.37 93.1 392.93 93.9399 391.6 94.9399C390.27 95.9299 389.11 97.08 388.12 98.39C387.13 99.7 386.41 101.16 385.96 102.79C385.42 104.73 385.22 106.69 385.35 108.67C385.49 110.65 386.03 112.53 386.97 114.28C387.51 115.32 388.23 116.22 389.13 116.99C390.03 117.76 391.02 118.33 392.11 118.71C393.19 119.09 394.3 119.23 395.42 119.12C396.55 119.01 397.63 118.61 398.67 117.94C399.57 117.31 400.38 116.53 401.11 115.61C401.83 114.69 402.49 113.75 403.07 112.8H403.06Z" fill="white"/>
<path d="M454.46 107.46C453.69 109.99 452.71 112.45 451.52 114.87C450.32 117.28 448.87 119.44 447.16 121.33C445.45 123.22 443.45 124.76 441.17 125.93C438.89 127.1 436.29 127.69 433.36 127.69C431.47 127.6 429.97 127.43 428.86 127.18C427.75 126.93 426.68 126.56 425.65 126.06C423.8 125.52 422.21 124.65 420.88 123.46C419.55 122.27 418.43 120.88 417.53 119.3C416.63 117.72 415.94 116.04 415.47 114.26C415 112.48 414.69 110.75 414.56 109.09C414.33 106.16 414.58 103.18 415.3 100.16C416.02 97.1401 417.17 94.3601 418.75 91.8101C420.33 89.2601 422.31 87.0801 424.7 85.2501C427.09 83.4201 429.82 82.2201 432.88 81.6301C434.46 81.3601 436.06 81.27 437.68 81.36C439.3 81.45 440.88 81.7701 442.41 82.3101C443.67 82.7601 444.84 83.2801 445.93 83.8701C447.01 84.4601 448.05 85.2 449.04 86.1C450.35 87.27 451.45 88.6301 452.35 90.1601C453.25 91.6901 453.91 93.29 454.31 94.96C454.81 97.08 455.03 99.1801 454.99 101.25C454.94 103.32 454.76 105.4 454.45 107.47L454.46 107.46ZM436.94 118.89C438.29 118.3 439.48 117.53 440.49 116.56C441.5 115.59 442.39 114.52 443.16 113.35C443.93 112.18 444.57 110.93 445.09 109.6C445.61 108.27 446.07 106.93 446.48 105.58C446.75 103.87 446.9 102.11 446.92 100.3C446.94 98.5001 446.57 96.7801 445.8 95.1601C445.17 93.8101 444.21 92.6501 442.93 91.6801C441.65 90.7101 440.24 90.0301 438.7 89.6501C437.17 89.2701 435.62 89.1901 434.07 89.4101C432.51 89.6401 431.13 90.24 429.91 91.24C428.2 92.68 426.81 94.3 425.75 96.08C424.69 97.86 423.89 99.8301 423.35 102C422.9 103.71 422.65 105.52 422.61 107.41C422.56 109.3 422.86 111.11 423.49 112.82C423.99 114.08 424.72 115.23 425.69 116.27C426.66 117.31 427.75 118.12 428.97 118.7C430.19 119.29 431.48 119.61 432.86 119.68C434.24 119.75 435.6 119.49 436.95 118.9L436.94 118.89Z" fill="white"/>
<path d="M478.81 117.6C479.98 117.65 480.95 118 481.72 118.65C482.49 119.3 482.98 120.06 483.21 120.92C483.44 121.78 483.37 122.62 483.01 123.46C482.65 124.29 481.9 124.94 480.78 125.39C479.97 125.7 479.01 125.91 477.91 126C476.81 126.09 475.7 126.12 474.6 126.1C473.5 126.08 472.47 126.03 471.52 125.96C470.57 125.89 469.85 125.86 469.36 125.86H465.37C464.42 125.86 463.61 125.6 462.94 125.08C462.27 124.56 461.78 123.94 461.49 123.22C461.2 122.5 461.13 121.73 461.29 120.92C461.45 120.11 461.87 119.36 462.54 118.69C463.17 118.06 464 117.7 465.04 117.61C466.08 117.52 467.11 117.52 468.15 117.61V90.83C467.11 90.83 466.14 90.8201 465.24 90.8001C464.34 90.7801 463.44 90.45 462.53 89.82C461.85 89.32 461.4 88.75 461.18 88.1C460.95 87.45 460.92 86.79 461.08 86.14C461.24 85.49 461.54 84.87 461.99 84.28C462.44 83.69 463 83.27 463.68 82.99C464.31 82.72 464.96 82.58 465.64 82.58C467.94 82.58 470.25 82.5701 472.57 82.5501C474.89 82.5301 477.23 82.54 479.57 82.58C479.8 82.58 480.01 82.65 480.21 82.78C480.41 82.92 480.63 83.03 480.85 83.12C481.89 83.71 482.58 84.54 482.95 85.62C483.31 86.7 483.18 87.7601 482.54 88.8001C482.22 89.3401 481.83 89.7601 481.36 90.0501C480.89 90.3401 480.37 90.55 479.8 90.66C479.24 90.77 478.66 90.83 478.08 90.83H476.39V117.75C476.75 117.75 477.08 117.74 477.37 117.72C477.66 117.7 477.99 117.66 478.35 117.62H478.82L478.81 117.6Z" fill="white"/>
<path d="M516.82 84.6C517.09 83.7 517.53 82.95 518.14 82.37C518.75 81.78 519.41 81.4 520.14 81.22C520.86 81.04 521.59 81.09 522.34 81.36C523.08 81.63 523.73 82.17 524.27 82.98C524.45 83.21 524.62 83.4801 524.78 83.7901C524.94 84.1101 525.02 84.4001 525.02 84.6701C525.11 91.1201 525.08 97.55 524.92 103.98C524.76 110.4 524.5 116.84 524.14 123.29C524.14 124.33 523.81 125.14 523.16 125.72C522.51 126.3 521.76 126.68 520.93 126.84C520.1 127 519.25 126.91 518.39 126.57C517.53 126.23 516.9 125.66 516.5 124.85C516.45 124.8 516.43 124.76 516.43 124.71V124.85C513.5 120.03 510.41 115.39 507.16 110.95C503.91 106.51 500.53 102.1 497.01 97.73V118.22C497.01 119.62 496.99 120.76 496.94 121.64C496.89 122.52 496.84 123.21 496.77 123.7C496.7 124.2 496.6 124.62 496.47 124.99C496.06 126.07 495.44 126.79 494.61 127.15C493.78 127.51 492.93 127.6 492.07 127.42C491.21 127.24 490.47 126.79 489.84 126.07C489.21 125.35 488.89 124.45 488.89 123.36V104.49C488.89 102.6 488.88 100.83 488.86 99.1801C488.84 97.5301 488.83 96.1501 488.83 95.0201C488.83 93.4901 488.81 91.97 488.76 90.46C488.71 88.95 488.71 87.4301 488.76 85.8901C488.76 85.1201 488.95 84.4701 489.33 83.9301C489.71 83.3901 490.2 82.9701 490.78 82.6801C491.37 82.3901 492 82.2201 492.67 82.1701C493.34 82.1201 494 82.21 494.63 82.44C495.17 82.62 495.72 82.9901 496.29 83.5601C496.85 84.1201 497.41 84.7301 497.95 85.3901C498.49 86.0401 499 86.7 499.47 87.35C499.94 88 500.34 88.53 500.65 88.94C501.82 90.38 503.17 92.0401 504.71 93.9101C506.24 95.7801 507.66 97.55 508.97 99.22C510.28 100.93 511.55 102.65 512.79 104.36C514.03 106.07 515.24 107.79 516.41 109.5C516.55 105.4 516.64 101.32 516.68 97.2601C516.72 93.2001 516.75 89.1201 516.75 85.0201L516.82 84.61V84.6Z" fill="white"/>
</g>
<g filter="url(#filter1_d_4_6)">
<path d="M37.65 18.46C37.65 22.04 36.94 25.01 35.53 27.37C34.11 29.73 32.22 31.48 29.85 32.62C31.7 33.56 33.35 34.3 34.8 34.84C36.25 35.38 37.69 35.89 39.12 36.38C39.15 36.58 39.17 36.75 39.17 36.89V37.3C39.17 38.57 38.84 39.51 38.17 40.13C37.5 40.75 36.6 41.0601 35.46 41.0601C34.16 41.0601 32.69 40.64 31.07 39.79C29.44 38.94 27.69 37.76 25.8 36.23L23.12 34.08H22.83C20.72 34.08 18.75 33.75 16.93 33.08C15.11 32.41 13.54 31.42 12.22 30.1C10.9 28.78 9.87 27.15 9.12 25.2C8.37 23.25 8 21 8 18.47C8 15.94 8.37999 13.71 9.14999 11.79C9.90999 9.87004 10.96 8.24994 12.3 6.93994C13.63 5.61994 15.2 4.62996 17.01 3.95996C18.82 3.28996 20.76 2.95996 22.84 2.95996C24.92 2.95996 26.87 3.28996 28.67 3.95996C30.47 4.62996 32.04 5.61994 33.38 6.93994C34.71 8.25994 35.76 9.88004 36.53 11.79C37.29 13.71 37.68 15.94 37.68 18.47L37.65 18.46ZM31.16 18.46C31.16 15.08 30.4 12.51 28.89 10.75C27.38 8.99 25.35 8.12 22.81 8.12C20.27 8.12 18.3 9 16.78 10.75C15.26 12.5 14.51 15.08 14.51 18.46C14.51 21.84 15.26 24.5 16.75 26.24C18.25 27.98 20.26 28.85 22.8 28.85C25.34 28.85 27.36 27.98 28.88 26.24C30.4 24.5 31.15 21.91 31.15 18.46H31.16Z" fill="white"/>
<path d="M50.39 2.98999C53.84 2.98999 56.52 3.71994 58.44 5.18994C60.36 6.64994 61.32 8.69997 61.32 11.34C61.32 12.22 61.18 13.02 60.91 13.73C60.63 14.45 60.28 15.07 59.86 15.61C59.44 16.15 58.96 16.6 58.44 16.98C57.92 17.36 57.4 17.64 56.88 17.83C57.53 18.06 58.17 18.37 58.81 18.76C59.44 19.15 60.01 19.65 60.49 20.25C60.98 20.85 61.38 21.55 61.69 22.35C62 23.15 62.15 24.07 62.15 25.11C62.15 26.54 61.86 27.81 61.3 28.92C60.73 30.03 59.93 30.96 58.91 31.73C57.89 32.49 56.66 33.07 55.23 33.46C53.8 33.85 52.24 34.05 50.55 34.05C49.02 34.05 47.65 33.93 46.45 33.71C45.25 33.48 44.22 33.17 43.38 32.76C42.53 32.35 41.89 31.8699 41.45 31.3199C41.01 30.7699 40.79 30.1801 40.79 29.5601C40.79 28.8801 40.96 28.29 41.3 27.8C41.64 27.31 42.07 26.9401 42.59 26.6801C43.34 27.2301 44.28 27.76 45.42 28.27C46.56 28.77 48.05 29.03 49.91 29.03C51.77 29.03 53.32 28.66 54.37 27.91C55.43 27.16 55.96 26.0899 55.96 24.6899C55.96 23.3899 55.5 22.37 54.57 21.64C53.64 20.91 52.2 20.54 50.25 20.54H45.91C45.75 20.28 45.6 19.94 45.47 19.52C45.34 19.1 45.27 18.63 45.27 18.1C45.27 17.55 45.33 17.06 45.47 16.64C45.6 16.22 45.75 15.88 45.91 15.61H50.11C51.87 15.61 53.14 15.27 53.94 14.59C54.74 13.91 55.14 13 55.14 11.86C55.14 10.66 54.67 9.71003 53.72 9.03003C52.78 8.35003 51.43 8.01001 49.67 8.01001C48.21 8.01001 46.94 8.21 45.86 8.62C44.79 9.02999 43.88 9.46996 43.13 9.95996C42.71 9.66996 42.33 9.28997 42.01 8.83997C41.68 8.37997 41.52 7.84998 41.52 7.22998C41.52 6.60998 41.74 6.04002 42.18 5.52002C42.62 5.00002 43.23 4.55005 44.01 4.18005C44.79 3.81005 45.73 3.51996 46.82 3.32996C47.91 3.12996 49.1 3.04004 50.41 3.04004L50.39 2.98999Z" fill="white"/>
</g>
<defs>
<filter id="filter0_d_4_6" x="0.334546" y="72.272" width="527.136" height="67.8259" filterUnits="userSpaceOnUse" color-interpolation-filters="sRGB">
<feFlood flood-opacity="0" result="BackgroundImageFix"/>
<feColorMatrix in="SourceAlpha" type="matrix" values="0 0 0 0 0 0 0 0 0 0 0 0 0 0 0 0 0 0 127 0" result="hardAlpha"/>
<feOffset dx="-2.4" dy="2.4"/>
<feGaussianBlur stdDeviation="2.4"/>
<feColorMatrix type="matrix" values="0 0 0 0 0 0 0 0 0 0 0 0 0 0 0 0 0 0 0.6 0"/>
<feBlend mode="normal" in2="BackgroundImageFix" result="effect1_dropShadow_4_6"/>
<feBlend mode="normal" in="SourceGraphic" in2="effect1_dropShadow_4_6" result="shape"/>
</filter>
<filter id="filter1_d_4_6" x="0.8" y="0.559961" width="63.75" height="47.7001" filterUnits="userSpaceOnUse" color-interpolation-filters="sRGB">
<feFlood flood-opacity="0" result="BackgroundImageFix"/>
<feColorMatrix in="SourceAlpha" type="matrix" values="0 0 0 0 0 0 0 0 0 0 0 0 0 0 0 0 0 0 127 0" result="hardAlpha"/>
<feOffset dx="-2.4" dy="2.4"/>
<feGaussianBlur stdDeviation="2.4"/>
<feColorMatrix type="matrix" values="0 0 0 0 0 0 0 0 0 0 0 0 0 0 0 0 0 0 0.6 0"/>
<feBlend mode="normal" in2="BackgroundImageFix" result="effect1_dropShadow_4_6"/>
<feBlend mode="normal" in="SourceGraphic" in2="effect1_dropShadow_4_6" result="shape"/>
</filter>
</defs>
</svg>
