<svg width="684" height="258" viewBox="0 0 684 258" fill="none" xmlns="http://www.w3.org/2000/svg">
<g filter="url(#filter0_d_3_5)">
<path d="M30.92 26.16H19.99C19.63 27.36 19.25 28.62 18.84 29.92C18.43 31.22 18.1 32.3 17.84 33.14C17.51 33.27 17.16 33.3799 16.79 33.4799C16.42 33.58 15.95 33.63 15.4 33.63C14.29 33.63 13.43 33.41 12.81 32.97C12.19 32.53 11.88 31.9 11.88 31.09C11.88 30.7 11.94 30.32 12.05 29.94C12.16 29.57 12.3 29.1399 12.46 28.6499C12.72 27.7399 13.07 26.64 13.51 25.36C13.95 24.08 14.4201 22.68 14.9301 21.16C15.4301 19.65 15.9801 18.0899 16.5601 16.4799C17.1501 14.87 17.71 13.31 18.24 11.8C18.78 10.29 19.3 8.86996 19.8 7.54996C20.3 6.22996 20.73 5.09996 21.09 4.15996C21.51 3.92996 22.14 3.69995 22.97 3.47995C23.8 3.24995 24.64 3.13995 25.48 3.13995C26.62 3.13995 27.66 3.30995 28.6 3.64995C29.54 3.98995 30.14 4.53995 30.41 5.27995C31.06 7.06995 31.7801 9.12995 32.5601 11.45C33.3401 13.78 34.1301 16.1799 34.9301 18.6499C35.7301 21.1199 36.5 23.55 37.25 25.92C38 28.3 38.67 30.43 39.25 32.31C38.92 32.67 38.48 32.97 37.91 33.21C37.34 33.45 36.67 33.58 35.89 33.58C34.75 33.58 33.95 33.38 33.47 32.97C33 32.56 32.63 31.9199 32.37 31.0399L30.91 26.16H30.92ZM25.45 8.68996C25.16 9.49996 24.84 10.41 24.5 11.42C24.16 12.43 23.8001 13.48 23.4301 14.57C23.0601 15.66 22.67 16.77 22.28 17.89C21.89 19.01 21.52 20.1099 21.16 21.1799H29.65L25.7 8.68996H25.46H25.45Z" fill="white"/>
<path d="M50.48 23.28V33.09C50.19 33.15 49.77 33.24 49.24 33.33C48.7 33.43 48.13 33.4799 47.51 33.4799C46.27 33.4799 45.4 33.25 44.9 32.8C44.4 32.34 44.14 31.5799 44.14 30.5099V6.00995C44.14 5.38995 44.3 4.91995 44.63 4.58995C44.95 4.25995 45.41 3.99995 46 3.80995C46.52 3.64995 47.1 3.49995 47.73 3.36995C48.36 3.23995 49.02 3.12996 49.71 3.04996C50.39 2.96996 51.08 2.90996 51.76 2.87996C52.44 2.84996 53.09 2.82996 53.71 2.82996C58 2.82996 61.23 3.74995 63.4 5.58995C65.56 7.42995 66.64 9.90995 66.64 13.03C66.64 16.15 65.58 18.64 63.47 20.5C61.35 22.35 58.3 23.28 54.3 23.28H50.49H50.48ZM53.9 18.2C55.85 18.2 57.39 17.7799 58.51 16.9299C59.63 16.0899 60.1899 14.78 60.1899 13.03C60.1899 11.28 59.66 10.07 58.6 9.21996C57.54 8.36996 56.01 7.94995 53.99 7.94995C52.59 7.94995 51.4001 8.04996 50.4301 8.23996V18.19H53.89L53.9 18.2Z" fill="white"/>
<path d="M78.49 33.09C78.2 33.15 77.78 33.24 77.25 33.33C76.71 33.43 76.14 33.4799 75.52 33.4799C74.28 33.4799 73.41 33.25 72.91 32.8C72.41 32.34 72.15 31.5799 72.15 30.5099V6.00995C72.15 5.38995 72.31 4.91995 72.64 4.58995C72.96 4.25995 73.42 3.99995 74.01 3.80995C75.05 3.44995 76.2799 3.19996 77.6899 3.04996C79.0999 2.89996 80.5601 2.82996 82.0601 2.82996C86.3501 2.82996 89.57 3.71996 91.72 5.48996C93.87 7.25996 94.9399 9.70996 94.9399 12.83C94.9399 14.88 94.4 16.66 93.33 18.17C92.26 19.68 90.78 20.85 88.89 21.66C90.32 23.51 91.7 25.28 93.01 26.95C94.33 28.63 95.31 29.94 95.96 30.88C95.7 31.73 95.24 32.38 94.59 32.86C93.94 33.33 93.2199 33.57 92.4399 33.57C91.4299 33.57 90.66 33.34 90.12 32.89C89.58 32.43 89.05 31.8199 88.53 31.0399L83.02 22.7899H78.48V33.09H78.49ZM82.39 17.82C84.24 17.82 85.73 17.41 86.85 16.6C87.97 15.79 88.53 14.55 88.53 12.89C88.53 9.59995 86.3299 7.95996 81.9399 7.95996C81.2899 7.95996 80.6601 7.98995 80.0601 8.05995C79.4601 8.12995 78.9 8.18995 78.38 8.24995V17.81H82.38L82.39 17.82Z" fill="white"/>
<path d="M104.79 33.4799C103.55 33.4799 102.68 33.25 102.16 32.8C101.64 32.34 101.38 31.5799 101.38 30.5099V3.52995C101.67 3.45995 102.09 3.37995 102.65 3.28995C103.2 3.18995 103.76 3.13995 104.31 3.13995C105.48 3.13995 106.34 3.34996 106.9 3.76996C107.45 4.18996 107.73 4.96995 107.73 6.10995V33.09C107.44 33.15 107.02 33.24 106.49 33.33C105.95 33.43 105.39 33.4799 104.81 33.4799H104.79Z" fill="white"/>
<path d="M116.14 32.3C115.54 31.68 115.24 30.85 115.24 29.81V3.50999C115.5 3.43999 115.91 3.36 116.48 3.27C117.05 3.17 117.61 3.12 118.16 3.12C119.33 3.12 120.19 3.33 120.75 3.75C121.31 4.17 121.58 4.95 121.58 6.09V28H134.12C134.28 28.26 134.45 28.61 134.61 29.05C134.77 29.49 134.85 29.97 134.85 30.49C134.85 31.37 134.65 32.04 134.24 32.51C133.83 32.98 133.27 33.22 132.56 33.22H118.6C117.56 33.22 116.74 32.91 116.14 32.29V32.3Z" fill="white"/>
<path d="M148.85 7.16997C148.85 6.51997 149.06 5.92997 149.48 5.38997C149.9 4.84997 150.49 4.38997 151.24 3.99997C151.99 3.60997 152.89 3.30998 153.95 3.09998C155.01 2.88998 156.15 2.77997 157.39 2.77997C159.15 2.77997 160.7 2.99997 162.05 3.43997C163.4 3.87997 164.54 4.48997 165.47 5.26997C166.4 6.04997 167.1 6.97997 167.57 8.04997C168.04 9.11997 168.28 10.31 168.28 11.61C168.28 13.37 167.8 15.07 166.84 16.73C165.88 18.39 164.3 20.16 162.08 22.05L154.96 28.25H168.04C168.2 28.51 168.35 28.85 168.48 29.28C168.61 29.71 168.68 30.16 168.68 30.65C168.68 31.5 168.48 32.12 168.09 32.53C167.7 32.94 167.16 33.14 166.48 33.14H149.4C148.88 32.78 148.47 32.33 148.18 31.77C147.89 31.22 147.74 30.57 147.74 29.82C147.74 29.01 147.91 28.31 148.25 27.72C148.59 27.13 148.99 26.63 149.45 26.21L157.21 19.13C159.03 17.5 160.28 16.15 160.97 15.06C161.65 13.97 162 12.9 162 11.86C162 10.66 161.56 9.67996 160.68 8.92996C159.8 8.17996 158.52 7.80997 156.82 7.80997C155.45 7.80997 154.23 8.02997 153.16 8.46997C152.09 8.90997 151.19 9.38997 150.48 9.90997C150.02 9.64997 149.64 9.28997 149.33 8.83997C149.02 8.37997 148.87 7.82996 148.87 7.17996L148.85 7.16997Z" fill="white"/>
<path d="M185.35 33.87C183.53 33.87 181.86 33.54 180.35 32.89C178.84 32.24 177.54 31.27 176.45 29.99C175.36 28.71 174.51 27.09 173.91 25.14C173.31 23.19 173.01 20.91 173.01 18.31C173.01 15.71 173.34 13.38 173.99 11.43C174.64 9.47998 175.52 7.85999 176.62 6.57999C177.73 5.28999 179.03 4.33998 180.52 3.72998C182.01 3.11998 183.63 2.79999 185.35 2.79999C187.07 2.79999 188.68 3.11998 190.18 3.74998C191.68 4.37998 192.99 5.33999 194.11 6.59999C195.23 7.86999 196.12 9.47998 196.77 11.43C197.42 13.38 197.75 15.68 197.75 18.31C197.75 20.94 197.45 23.18 196.85 25.12C196.25 27.06 195.39 28.67 194.29 29.97C193.18 31.27 191.87 32.25 190.36 32.9C188.85 33.55 187.18 33.88 185.36 33.88L185.35 33.87ZM191.5 18.3C191.5 14.72 190.92 12.08 189.77 10.37C188.61 8.65998 187.14 7.80998 185.35 7.80998C183.56 7.80998 182.1 8.66998 180.96 10.4C179.82 12.12 179.25 14.76 179.25 18.3C179.25 21.84 179.78 24.41 180.84 26.18C181.9 27.95 183.4 28.84 185.35 28.84C187.3 28.84 188.81 27.95 189.89 26.18C190.96 24.41 191.5 21.78 191.5 18.3Z" fill="white"/>
<path d="M202.38 7.16997C202.38 6.51997 202.59 5.92997 203.01 5.38997C203.43 4.84997 204.02 4.38997 204.77 3.99997C205.52 3.60997 206.42 3.30998 207.48 3.09998C208.54 2.88998 209.68 2.77997 210.92 2.77997C212.68 2.77997 214.23 2.99997 215.58 3.43997C216.93 3.87997 218.07 4.48997 219 5.26997C219.93 6.04997 220.63 6.97997 221.1 8.04997C221.57 9.11997 221.81 10.31 221.81 11.61C221.81 13.37 221.33 15.07 220.37 16.73C219.41 18.39 217.83 20.16 215.61 22.05L208.49 28.25H221.57C221.73 28.51 221.88 28.85 222.01 29.28C222.14 29.71 222.21 30.16 222.21 30.65C222.21 31.5 222.01 32.12 221.62 32.53C221.23 32.94 220.69 33.14 220.01 33.14H202.93C202.41 32.78 202 32.33 201.71 31.77C201.42 31.22 201.27 30.57 201.27 29.82C201.27 29.01 201.44 28.31 201.78 27.72C202.12 27.13 202.52 26.63 202.98 26.21L210.74 19.13C212.56 17.5 213.81 16.15 214.5 15.06C215.18 13.97 215.53 12.9 215.53 11.86C215.53 10.66 215.09 9.67996 214.21 8.92996C213.33 8.17996 212.05 7.80997 210.35 7.80997C208.98 7.80997 207.76 8.02997 206.69 8.46997C205.62 8.90997 204.72 9.38997 204.01 9.90997C203.55 9.64997 203.17 9.28997 202.86 8.83997C202.55 8.37997 202.4 7.82996 202.4 7.17996L202.38 7.16997Z" fill="white"/>
<path d="M235.61 2.77997C239.06 2.77997 241.74 3.50997 243.66 4.97997C245.58 6.43997 246.54 8.48997 246.54 11.13C246.54 12.01 246.4 12.81 246.12 13.52C245.84 14.23 245.49 14.86 245.07 15.4C244.65 15.94 244.17 16.39 243.65 16.77C243.13 17.15 242.61 17.43 242.09 17.62C242.74 17.85 243.38 18.16 244.02 18.55C244.65 18.94 245.22 19.44 245.7 20.04C246.19 20.64 246.59 21.34 246.9 22.14C247.21 22.94 247.36 23.86 247.36 24.9C247.36 26.33 247.07 27.6 246.51 28.71C245.94 29.82 245.14 30.75 244.12 31.52C243.1 32.28 241.87 32.86 240.44 33.25C239.01 33.64 237.45 33.84 235.76 33.84C234.23 33.84 232.86 33.72 231.66 33.5C230.46 33.27 229.43 32.96 228.59 32.55C227.74 32.14 227.1 31.66 226.66 31.11C226.22 30.56 226 29.97 226 29.35C226 28.67 226.17 28.08 226.51 27.59C226.85 27.1 227.28 26.73 227.8 26.47C228.55 27.02 229.49 27.55 230.63 28.06C231.77 28.56 233.26 28.82 235.12 28.82C236.98 28.82 238.53 28.45 239.58 27.7C240.64 26.95 241.16 25.88 241.16 24.48C241.16 23.18 240.7 22.16 239.77 21.43C238.84 20.7 237.4 20.33 235.45 20.33H231.11C230.95 20.07 230.8 19.73 230.67 19.31C230.54 18.89 230.47 18.42 230.47 17.89C230.47 17.34 230.53 16.85 230.67 16.43C230.8 16.01 230.95 15.67 231.11 15.4H235.31C237.07 15.4 238.34 15.06 239.14 14.38C239.94 13.7 240.34 12.79 240.34 11.65C240.34 10.45 239.87 9.49998 238.92 8.81998C237.98 8.13998 236.63 7.79997 234.87 7.79997C233.41 7.79997 232.14 7.99997 231.06 8.40997C229.99 8.81997 229.08 9.25997 228.33 9.74997C227.91 9.45997 227.53 9.07997 227.21 8.62997C226.88 8.16997 226.72 7.63997 226.72 7.01997C226.72 6.39997 226.94 5.82997 227.38 5.30997C227.82 4.78997 228.43 4.33997 229.21 3.96997C229.99 3.59997 230.92 3.30996 232.02 3.11996C233.11 2.91996 234.31 2.82997 235.61 2.82997V2.77997Z" fill="white"/>
</g>
<g filter="url(#filter1_d_3_5)">
<path d="M9.62998 71.16C9.76998 70.66 9.98997 70.18 10.31 69.71C10.62 69.24 11 68.82 11.43 68.46C11.86 68.1 12.3299 67.84 12.8499 67.68C13.3699 67.52 13.8999 67.53 14.4399 67.71C16.1099 67.03 17.81 66.47 19.55 66.02C21.29 65.57 23.02 65.31 24.76 65.24C26.49 65.17 28.21 65.33 29.9 65.71C31.59 66.09 33.22 66.8 34.8 67.84C36.06 68.65 37.18 69.67 38.15 70.88C39.12 72.1 39.92 73.38 40.55 74.73C41.63 77.17 42.13 79.59 42.04 82C41.95 84.41 41.3899 86.66 40.3499 88.73C39.3099 90.8 37.86 92.63 35.99 94.21C34.12 95.79 31.92 96.94 29.4 97.66C27.51 98.2 25.58 98.46 23.62 98.44C21.66 98.42 19.7299 98.29 17.8399 98.07V104.63C17.8399 105.13 17.86 105.64 17.91 106.18C17.95 106.72 17.9699 107.26 17.9399 107.8C17.9199 108.34 17.85 108.87 17.74 109.39C17.63 109.91 17.4099 110.39 17.0999 110.84C16.5599 111.74 15.86 112.29 15 112.5C14.14 112.7 13.32 112.66 12.53 112.36C11.74 112.07 11.06 111.57 10.5 110.87C9.93997 110.17 9.65 109.33 9.65 108.33V96.16C8.79 95.71 8.15998 95.15 7.75998 94.47C7.34998 93.79 7.16994 93.11 7.21994 92.41C7.25994 91.71 7.49 91.05 7.9 90.41C8.31 89.78 8.87 89.26 9.59 88.85V71.54L9.65995 71.13L9.62998 71.16ZM29.31 74.14C27.42 73.37 25.49 73.15 23.53 73.46C21.57 73.78 19.6599 74.36 17.8199 75.22V89.96C19.9399 90.32 22.1 90.41 24.31 90.23C26.52 90.05 28.55 89.37 30.4 88.2C31.71 87.34 32.61 86.26 33.11 84.95C33.61 83.64 33.79 82.31 33.65 80.96C33.51 79.61 33.06 78.31 32.3 77.07C31.53 75.83 30.5399 74.85 29.3199 74.13L29.31 74.14Z" fill="white"/>
<path d="M53.33 110.25C52.74 110.97 52.07 111.47 51.3 111.74C50.53 112.01 49.7401 112.01 48.9301 111.74C48.1201 111.47 47.44 110.86 46.9 109.91C46.67 109.55 46.49 109.17 46.36 108.76C46.22 108.35 46.16 107.95 46.16 107.54V91.58C45.57 91.22 45.13 90.75 44.84 90.16C44.55 89.57 44.4 88.95 44.4 88.3C44.4 87.65 44.56 87.03 44.87 86.44C45.18 85.85 45.61 85.36 46.16 84.95C46.11 84.09 46.1 83.37 46.13 82.79C46.15 82.2 46.16 81.64 46.16 81.1V79.44C46.16 78.88 46.11 78.21 46.02 77.44C45.97 76.81 45.83 76.19 45.58 75.58C45.33 74.97 45.1199 74.36 44.9399 73.75C44.7599 73.14 44.69 72.52 44.74 71.89C44.78 71.26 45.05 70.65 45.55 70.06C46.23 69.25 47.05 68.76 48.02 68.61C48.99 68.45 49.97 68.33 50.96 68.24C53.03 68.1 55.1 68.04 57.15 68.04C59.2 68.04 61.26 68 63.34 67.9C63.93 67.9 64.56 67.84 65.23 67.73C65.91 67.62 66.58 67.53 67.26 67.46C67.94 67.39 68.61 67.39 69.29 67.46C69.97 67.53 70.58 67.72 71.12 68.04C71.8 68.45 72.29 68.96 72.61 69.6C72.92 70.23 73.07 70.89 73.05 71.56C73.03 72.24 72.84 72.89 72.48 73.52C72.12 74.15 71.6 74.65 70.92 75.01C69.75 75.64 68.4601 75.97 67.0601 75.99C65.6601 76.01 64.3299 76.05 63.0699 76.09C61.5799 76.14 60.09 76.15 58.61 76.12C57.12 76.1 55.63 76.13 54.15 76.22C54.24 77.08 54.31 78.09 54.35 79.26C54.39 80.43 54.42 82.15 54.42 84.4C55.86 84.4 57.3299 84.38 58.8199 84.33C60.3099 84.28 61.77 84.15 63.22 83.92C63.99 83.83 64.8 83.66 65.66 83.41C66.52 83.16 67.33 83.08 68.09 83.17C68.99 83.26 69.78 83.6 70.46 84.18C71.14 84.77 71.6 85.43 71.85 86.18C72.1 86.92 72.0899 87.69 71.8199 88.48C71.5499 89.27 70.94 89.93 69.99 90.48C68.86 91.11 67.66 91.57 66.37 91.87C65.08 92.16 63.77 92.37 62.41 92.48C61.06 92.59 59.7 92.64 58.35 92.62C57 92.6 55.6901 92.59 54.4301 92.59V107.67C54.2901 108.66 53.93 109.52 53.35 110.24L53.33 110.25Z" fill="white"/>
<path d="M78.42 71.16C78.56 70.66 78.7799 70.18 79.0999 69.71C79.4099 69.24 79.7899 68.82 80.2199 68.46C80.6499 68.1 81.12 67.84 81.64 67.68C82.16 67.52 82.69 67.53 83.23 67.71C84.9 67.03 86.5999 66.47 88.3399 66.02C90.0799 65.57 91.81 65.31 93.55 65.24C95.28 65.17 96.9999 65.33 98.6899 65.71C100.38 66.09 102.01 66.8 103.59 67.84C104.85 68.65 105.97 69.67 106.94 70.88C107.91 72.1 108.71 73.38 109.34 74.73C110.42 77.17 110.92 79.59 110.83 82C110.74 84.41 110.18 86.66 109.14 88.73C108.1 90.8 106.65 92.63 104.78 94.21C102.91 95.79 100.71 96.94 98.1899 97.66C96.2999 98.2 94.37 98.46 92.41 98.44C90.45 98.42 88.52 98.29 86.63 98.07V104.63C86.63 105.13 86.6499 105.64 86.6999 106.18C86.7399 106.72 86.76 107.26 86.73 107.8C86.71 108.34 86.64 108.87 86.53 109.39C86.42 109.91 86.2 110.39 85.89 110.84C85.35 111.74 84.65 112.29 83.79 112.5C82.93 112.7 82.1099 112.66 81.3199 112.36C80.5299 112.07 79.85 111.57 79.29 110.87C78.73 110.17 78.4399 109.33 78.4399 108.33V96.16C77.5799 95.71 76.95 95.15 76.55 94.47C76.14 93.79 75.96 93.11 76.01 92.41C76.05 91.71 76.2799 91.05 76.6899 90.41C77.0999 89.78 77.66 89.26 78.38 88.85V71.54L78.4499 71.13L78.42 71.16ZM98.0999 74.14C96.2099 73.37 94.2799 73.15 92.3199 73.46C90.3599 73.78 88.45 74.36 86.61 75.22V89.96C88.73 90.32 90.8899 90.41 93.0999 90.23C95.3099 90.05 97.3399 89.37 99.1899 88.2C100.5 87.34 101.4 86.26 101.9 84.95C102.4 83.64 102.58 82.31 102.44 80.96C102.3 79.61 101.85 78.31 101.09 77.07C100.32 75.83 99.33 74.85 98.11 74.13L98.0999 74.14Z" fill="white"/>
<path d="M173.78 85.16C174.68 85.43 175.45 85.87 176.08 86.48C176.71 87.09 177.13 87.77 177.33 88.51C177.53 89.25 177.49 90 177.19 90.74C176.9 91.48 176.28 92.15 175.33 92.74C175.24 92.88 175.22 93.43 175.26 94.4C175.3 95.37 175.34 96.49 175.36 97.75C175.38 99.01 175.35 100.29 175.26 101.57C175.17 102.86 174.97 103.86 174.65 104.58C174.33 105.17 173.95 105.69 173.5 106.14C173.05 106.59 172.58 107.02 172.08 107.43C170.41 108.83 168.63 109.9 166.74 110.64C164.85 111.38 162.91 111.82 160.92 111.96C158.94 112.1 156.94 111.89 154.93 111.35C152.92 110.81 151 109.95 149.15 108.78C146.8 107.29 144.83 105.38 143.23 103.03C141.63 100.69 140.47 98.16 139.75 95.46C139.3 93.75 139.04 91.95 138.97 90.08C138.9 88.21 139.05 86.36 139.41 84.53C139.77 82.7 140.36 80.96 141.17 79.29C141.98 77.62 143 76.11 144.21 74.76C145.65 73.18 147.31 71.88 149.18 70.84C151.05 69.8 152.98 68.9 154.96 68.13C156.49 67.5 158.07 67.03 159.69 66.71C161.31 66.39 162.96 66.28 164.63 66.37C165.89 66.46 167.26 66.67 168.72 67.01C170.18 67.35 171.44 67.95 172.47 68.8C172.97 69.21 173.38 69.7 173.72 70.29C174.06 70.88 174.26 71.47 174.33 72.08C174.4 72.69 174.32 73.28 174.09 73.84C173.86 74.4 173.46 74.91 172.87 75.36C172.28 75.81 171.66 76.07 171.01 76.14C170.36 76.21 169.69 76.16 169.01 76.01C168.33 75.86 167.66 75.64 166.98 75.37C166.3 75.1 165.67 74.87 165.09 74.69C164.59 74.51 164.06 74.43 163.5 74.45C162.94 74.47 162.38 74.53 161.84 74.62C160.26 75.07 158.67 75.62 157.07 76.28C155.47 76.94 153.99 77.73 152.64 78.68C151.29 79.63 150.13 80.75 149.16 82.06C148.19 83.37 147.57 84.95 147.3 86.79C146.94 89.09 147.05 91.38 147.64 93.65C148.22 95.93 149.31 97.92 150.89 99.64C151.93 100.77 153.13 101.68 154.51 102.38C155.88 103.08 157.32 103.5 158.8 103.63C160.29 103.76 161.75 103.61 163.2 103.16C164.64 102.71 165.93 101.92 167.06 100.79V93.49C166.16 93.54 165.22 93.61 164.25 93.73C163.28 93.85 162.31 93.91 161.34 93.93C160.37 93.95 159.42 93.89 158.5 93.73C157.58 93.57 156.71 93.27 155.9 92.82C155.13 92.37 154.6 91.77 154.31 91.03C154.02 90.29 153.94 89.54 154.07 88.8C154.21 88.06 154.52 87.37 155.02 86.74C155.52 86.11 156.19 85.68 157.05 85.45C157.46 85.36 157.96 85.3 158.57 85.28C159.18 85.26 159.79 85.25 160.4 85.25C161.01 85.25 161.56 85.26 162.06 85.28C162.56 85.3 162.94 85.31 163.21 85.31C164.97 85.31 166.71 85.29 168.45 85.24C170.19 85.2 171.96 85.17 173.76 85.17L173.78 85.16Z" fill="white"/>
<path d="M206.92 100.85C207.73 100.9 208.44 101.11 209.05 101.49C209.66 101.87 210.15 102.34 210.54 102.88C210.92 103.42 211.15 104.04 211.22 104.74C211.29 105.44 211.14 106.15 210.78 106.87C210.64 107.19 210.36 107.56 209.93 107.99C209.5 108.42 209.11 108.68 208.75 108.77C205.86 109.63 202.9 110.16 199.86 110.36C196.82 110.56 193.81 110.51 190.83 110.19C189.97 110.1 189.04 110.01 188.02 109.92C187.01 109.83 186.11 109.54 185.35 109.04C183.95 108.14 183.25 106.85 183.25 105.19V76.38C182.75 76.02 182.35 75.57 182.03 75.03C181.71 74.49 181.52 73.91 181.45 73.31C181.38 72.7 181.46 72.12 181.69 71.55C181.91 70.99 182.3 70.5 182.84 70.1C183.74 69.38 184.78 68.89 185.95 68.65C187.12 68.4 188.27 68.19 189.4 68.01C191.74 67.65 194.09 67.47 196.43 67.47C198.77 67.47 201.16 67.45 203.6 67.4C204.32 67.4 205.16 67.34 206.1 67.23C207.05 67.12 207.88 67.2 208.6 67.47C209.46 67.79 210.13 68.28 210.63 68.96C211.13 69.64 211.42 70.36 211.51 71.12C211.6 71.89 211.45 72.63 211.07 73.35C210.69 74.07 210.02 74.64 209.07 75.04C207.94 75.49 206.74 75.69 205.45 75.65C204.16 75.61 202.94 75.58 201.76 75.58C200.05 75.58 198.33 75.6 196.62 75.65C194.91 75.7 193.19 75.83 191.48 76.06V85.46C193.1 85.55 194.73 85.55 196.35 85.46C197.97 85.37 199.6 85.26 201.22 85.12C201.94 85.08 202.66 85.01 203.38 84.92C204.1 84.83 204.84 84.83 205.61 84.92C206.6 85.05 207.37 85.46 207.91 86.14C208.45 86.82 208.78 87.57 208.89 88.41C209 89.24 208.86 90.07 208.45 90.88C208.04 91.69 207.39 92.28 206.49 92.64C205.72 92.96 204.69 93.19 203.38 93.35C202.07 93.51 200.7 93.62 199.25 93.69C197.81 93.76 196.39 93.79 194.99 93.79C193.59 93.79 192.42 93.77 191.47 93.72V102.04C193.95 102.36 196.45 102.4 198.98 102.17C201.51 101.95 203.98 101.52 206.42 100.88H206.89L206.92 100.85Z" fill="white"/>
<path d="M244.39 69.13C244.66 68.23 245.1 67.48 245.71 66.9C246.32 66.32 246.98 65.93 247.71 65.75C248.43 65.57 249.16 65.62 249.91 65.89C250.66 66.16 251.3 66.7 251.84 67.51C252.02 67.74 252.19 68.01 252.35 68.32C252.51 68.64 252.59 68.93 252.59 69.2C252.68 75.65 252.65 82.08 252.49 88.51C252.33 94.94 252.07 101.37 251.71 107.82C251.71 108.86 251.38 109.67 250.73 110.25C250.08 110.83 249.33 111.21 248.5 111.37C247.67 111.53 246.82 111.44 245.96 111.1C245.1 110.76 244.47 110.19 244.07 109.38C244.03 109.33 244 109.29 244 109.24V109.38C241.07 104.56 237.98 99.92 234.73 95.48C231.48 91.04 228.1 86.63 224.58 82.26V102.75C224.58 104.15 224.56 105.29 224.51 106.17C224.46 107.05 224.41 107.74 224.34 108.23C224.27 108.73 224.17 109.15 224.04 109.52C223.63 110.6 223.01 111.32 222.18 111.68C221.35 112.04 220.5 112.13 219.64 111.95C218.78 111.77 218.04 111.32 217.41 110.6C216.78 109.88 216.46 108.98 216.46 107.89V89.02C216.46 87.13 216.45 85.36 216.43 83.71C216.41 82.06 216.4 80.68 216.4 79.55C216.4 78.02 216.38 76.5 216.33 74.99C216.28 73.48 216.28 71.96 216.33 70.42C216.33 69.65 216.52 69 216.91 68.46C217.29 67.92 217.78 67.5 218.36 67.21C218.94 66.92 219.58 66.75 220.25 66.7C220.93 66.66 221.58 66.74 222.21 66.97C222.75 67.15 223.3 67.52 223.87 68.09C224.43 68.65 224.99 69.26 225.53 69.92C226.07 70.57 226.58 71.23 227.05 71.88C227.52 72.53 227.92 73.06 228.23 73.47C229.4 74.91 230.75 76.57 232.29 78.44C233.83 80.31 235.24 82.08 236.55 83.75C237.86 85.46 239.13 87.18 240.37 88.89C241.61 90.6 242.82 92.32 243.99 94.03C244.12 89.93 244.21 85.85 244.26 81.79C244.3 77.73 244.33 73.65 244.33 69.55L244.4 69.14L244.39 69.13Z" fill="white"/>
<path d="M283.28 100.85C284.09 100.9 284.8 101.11 285.41 101.49C286.02 101.87 286.51 102.34 286.9 102.88C287.28 103.42 287.51 104.04 287.58 104.74C287.65 105.44 287.5 106.15 287.14 106.87C287 107.19 286.72 107.56 286.29 107.99C285.86 108.42 285.47 108.68 285.11 108.77C282.22 109.63 279.26 110.16 276.22 110.36C273.18 110.56 270.17 110.51 267.19 110.19C266.33 110.1 265.4 110.01 264.38 109.92C263.37 109.83 262.47 109.54 261.71 109.04C260.31 108.14 259.61 106.85 259.61 105.19V76.38C259.11 76.02 258.71 75.57 258.39 75.03C258.07 74.49 257.88 73.91 257.81 73.31C257.74 72.7 257.82 72.12 258.05 71.55C258.27 70.99 258.66 70.5 259.2 70.1C260.1 69.38 261.14 68.89 262.31 68.65C263.48 68.4 264.63 68.19 265.76 68.01C268.1 67.65 270.45 67.47 272.79 67.47C275.13 67.47 277.52 67.45 279.96 67.4C280.68 67.4 281.52 67.34 282.46 67.23C283.41 67.12 284.24 67.2 284.96 67.47C285.82 67.79 286.49 68.28 286.99 68.96C287.49 69.64 287.78 70.36 287.87 71.12C287.96 71.89 287.81 72.63 287.43 73.35C287.05 74.07 286.38 74.64 285.43 75.04C284.3 75.49 283.1 75.69 281.81 75.65C280.52 75.61 279.3 75.58 278.12 75.58C276.41 75.58 274.69 75.6 272.98 75.65C271.27 75.7 269.55 75.83 267.84 76.06V85.46C269.46 85.55 271.09 85.55 272.71 85.46C274.33 85.37 275.96 85.26 277.58 85.12C278.3 85.08 279.02 85.01 279.74 84.92C280.46 84.83 281.2 84.83 281.97 84.92C282.96 85.05 283.73 85.46 284.27 86.14C284.81 86.82 285.14 87.57 285.25 88.41C285.36 89.24 285.22 90.07 284.81 90.88C284.4 91.69 283.75 92.28 282.85 92.64C282.08 92.96 281.05 93.19 279.74 93.35C278.43 93.51 277.06 93.62 275.61 93.69C274.17 93.76 272.75 93.79 271.35 93.79C269.95 93.79 268.78 93.77 267.83 93.72V102.04C270.31 102.36 272.81 102.4 275.34 102.17C277.87 101.95 280.34 101.52 282.78 100.88H283.25L283.28 100.85Z" fill="white"/>
<path d="M294.3 104.5C293.98 103.64 293.88 102.79 294 101.93C294.11 101.07 294.41 100.34 294.88 99.73C295.35 99.12 295.97 98.69 296.74 98.45C297.51 98.21 298.36 98.28 299.31 98.69C300.17 99.05 300.9 99.58 301.51 100.28C302.12 100.98 302.85 101.53 303.71 101.94C304.88 102.53 306.08 102.95 307.29 103.23C308.15 103.46 309 103.6 309.86 103.67C310.72 103.74 311.6 103.77 312.5 103.77C313.18 103.59 313.76 103.41 314.26 103.23C314.76 103.05 315.3 102.67 315.88 102.08C316.56 101.49 317 100.79 317.2 99.98C317.4 99.17 317.4 98.37 317.2 97.58C317 96.79 316.61 96.07 316.05 95.42C315.49 94.77 314.8 94.33 313.99 94.1C312.41 93.56 310.83 93.14 309.26 92.85C307.68 92.56 306.15 92.21 304.66 91.8C303.17 91.39 301.76 90.82 300.43 90.08C299.1 89.34 297.87 88.27 296.74 86.87C296.11 86.1 295.7 85.43 295.52 84.84C295.34 84.26 295.14 83.51 294.91 82.61C294.5 80.45 294.67 78.62 295.42 77.13C296.16 75.64 297.1 74.29 298.23 73.07C299.67 71.49 301.31 70.29 303.13 69.45C304.96 68.62 306.87 68.07 308.88 67.83C310.89 67.58 312.91 67.63 314.97 67.96C317.02 68.3 318.97 68.87 320.82 69.68C321.9 70.13 322.59 70.83 322.88 71.78C323.17 72.73 323.18 73.65 322.91 74.55C322.64 75.45 322.12 76.2 321.35 76.78C320.58 77.37 319.68 77.57 318.64 77.39C317.56 77.17 316.54 76.93 315.6 76.68C314.65 76.43 313.71 76.22 312.76 76.04C312.04 75.91 311.26 75.88 310.43 75.97C309.6 76.06 308.81 76.21 308.06 76.41C307.31 76.61 306.63 76.84 306 77.09C305.37 77.34 304.9 77.6 304.58 77.87C304.22 78.19 303.87 78.59 303.53 79.09C303.19 79.59 303 80.15 302.95 80.78C302.86 81.55 303.15 82.18 303.83 82.67C304.51 83.17 305.23 83.53 305.99 83.75C307.48 84.07 309.01 84.37 310.59 84.66C312.17 84.95 313.72 85.36 315.26 85.88C316.79 86.4 318.22 87.06 319.55 87.88C320.88 88.7 322.02 89.77 322.97 91.13C324.01 92.3 324.75 93.63 325.2 95.12C325.65 96.61 325.82 98.1 325.71 99.58C325.6 101.07 325.25 102.5 324.66 103.87C324.07 105.25 323.26 106.45 322.23 107.49C321.51 108.21 320.75 108.83 319.96 109.35C319.17 109.87 318.33 110.38 317.42 110.87C315.62 111.82 313.68 112.29 311.6 112.29C309.52 112.29 307.45 111.99 305.38 111.38C303.31 110.77 301.34 109.91 299.5 108.81C297.65 107.71 296.07 106.5 294.77 105.19L294.3 104.51V104.5Z" fill="white"/>
<path d="M348.54 102.14C349.71 102.19 350.68 102.54 351.45 103.19C352.22 103.84 352.71 104.6 352.94 105.46C353.16 106.32 353.1 107.16 352.74 108C352.38 108.83 351.63 109.48 350.51 109.93C349.7 110.24 348.74 110.45 347.63 110.54C346.52 110.63 345.42 110.66 344.32 110.64C343.21 110.62 342.19 110.57 341.24 110.5C340.29 110.43 339.57 110.4 339.07 110.4H335.08C334.13 110.4 333.32 110.14 332.65 109.62C331.98 109.1 331.49 108.48 331.2 107.76C330.91 107.04 330.84 106.27 331 105.46C331.16 104.65 331.58 103.9 332.25 103.23C332.88 102.6 333.71 102.24 334.75 102.15C335.79 102.06 336.82 102.06 337.86 102.15V75.37C336.82 75.37 335.85 75.36 334.95 75.34C334.05 75.32 333.15 74.99 332.24 74.36C331.56 73.86 331.11 73.29 330.89 72.64C330.66 71.99 330.63 71.33 330.79 70.68C330.95 70.03 331.25 69.41 331.7 68.82C332.15 68.23 332.71 67.81 333.39 67.53C334.02 67.26 334.68 67.12 335.35 67.12C337.65 67.12 339.96 67.11 342.28 67.09C344.6 67.07 346.94 67.08 349.28 67.12C349.51 67.12 349.72 67.19 349.92 67.32C350.12 67.46 350.34 67.57 350.56 67.66C351.6 68.25 352.3 69.08 352.66 70.16C353.02 71.24 352.88 72.3 352.25 73.34C351.93 73.88 351.54 74.3 351.07 74.59C350.6 74.88 350.08 75.09 349.51 75.2C348.95 75.31 348.37 75.37 347.79 75.37H346.1V102.29C346.46 102.29 346.79 102.28 347.08 102.26C347.37 102.24 347.7 102.2 348.06 102.16H348.53L348.54 102.14Z" fill="white"/>
<path d="M360.1 104.5C359.78 103.64 359.68 102.79 359.8 101.93C359.91 101.07 360.21 100.34 360.68 99.73C361.15 99.12 361.77 98.69 362.54 98.45C363.31 98.21 364.16 98.28 365.11 98.69C365.97 99.05 366.7 99.58 367.31 100.28C367.92 100.98 368.65 101.53 369.51 101.94C370.68 102.53 371.88 102.95 373.09 103.23C373.95 103.46 374.8 103.6 375.66 103.67C376.52 103.74 377.4 103.77 378.3 103.77C378.98 103.59 379.56 103.41 380.06 103.23C380.56 103.05 381.1 102.67 381.68 102.08C382.36 101.49 382.8 100.79 383 99.98C383.2 99.17 383.2 98.37 383 97.58C382.8 96.79 382.41 96.07 381.85 95.42C381.29 94.77 380.6 94.33 379.79 94.1C378.21 93.56 376.63 93.14 375.06 92.85C373.48 92.56 371.95 92.21 370.46 91.8C368.97 91.39 367.56 90.82 366.23 90.08C364.9 89.34 363.67 88.27 362.54 86.87C361.91 86.1 361.5 85.43 361.32 84.84C361.14 84.26 360.94 83.51 360.71 82.61C360.3 80.45 360.47 78.62 361.22 77.13C361.96 75.64 362.9 74.29 364.03 73.07C365.47 71.49 367.11 70.29 368.93 69.45C370.76 68.62 372.67 68.07 374.68 67.83C376.69 67.58 378.71 67.63 380.77 67.96C382.82 68.3 384.77 68.87 386.62 69.68C387.7 70.13 388.39 70.83 388.68 71.78C388.97 72.73 388.98 73.65 388.71 74.55C388.44 75.45 387.92 76.2 387.15 76.78C386.38 77.37 385.48 77.57 384.44 77.39C383.36 77.17 382.34 76.93 381.4 76.68C380.45 76.43 379.51 76.22 378.56 76.04C377.84 75.91 377.06 75.88 376.23 75.97C375.4 76.06 374.61 76.21 373.86 76.41C373.11 76.61 372.43 76.84 371.8 77.09C371.17 77.34 370.7 77.6 370.38 77.87C370.02 78.19 369.67 78.59 369.33 79.09C368.99 79.59 368.8 80.15 368.75 80.78C368.66 81.55 368.95 82.18 369.63 82.67C370.31 83.17 371.03 83.53 371.79 83.75C373.28 84.07 374.81 84.37 376.39 84.66C377.97 84.95 379.52 85.36 381.06 85.88C382.59 86.4 384.02 87.06 385.35 87.88C386.68 88.7 387.82 89.77 388.77 91.13C389.81 92.3 390.55 93.63 391 95.12C391.45 96.61 391.62 98.1 391.51 99.58C391.4 101.07 391.05 102.5 390.46 103.87C389.87 105.25 389.06 106.45 388.03 107.49C387.31 108.21 386.55 108.83 385.76 109.35C384.97 109.87 384.13 110.38 383.22 110.87C381.42 111.82 379.48 112.29 377.4 112.29C375.32 112.29 373.25 111.99 371.18 111.38C369.11 110.77 367.14 109.91 365.3 108.81C363.45 107.71 361.87 106.5 360.57 105.19L360.1 104.51V104.5Z" fill="white"/>
<path d="M453.64 107.28C453.5 108.27 453.17 109.12 452.63 109.82C452.09 110.52 451.47 111 450.77 111.27C450.07 111.54 449.33 111.57 448.54 111.37C447.75 111.17 447.02 110.64 446.34 109.78C445.75 109.06 445.43 108.26 445.36 107.38C445.29 106.5 445.17 105.63 444.99 104.78C444.54 102.3 443.88 99.75 443.03 97.14C440.23 97.19 437.46 97.21 434.71 97.21C431.96 97.21 429.21 97.23 426.46 97.28C426.05 98.45 425.7 99.65 425.41 100.86C425.12 102.08 424.84 103.27 424.57 104.44C424.34 105.34 424.14 106.28 423.96 107.25C423.78 108.22 423.37 109.07 422.74 109.79C421.97 110.69 421.15 111.2 420.27 111.31C419.39 111.42 418.6 111.28 417.9 110.87C417.2 110.46 416.64 109.84 416.21 109.01C415.78 108.18 415.63 107.22 415.77 106.13C415.91 104.73 416.18 103.36 416.58 102.01C416.99 100.66 417.37 99.3 417.73 97.95C419.76 90.2 422.37 82.69 425.58 75.43C425.85 74.8 426.13 74.19 426.42 73.6C426.71 73.01 427 72.43 427.27 71.84C427.58 71.21 427.9 70.53 428.22 69.81C428.53 69.09 428.91 68.42 429.34 67.81C429.77 67.2 430.28 66.68 430.86 66.25C431.44 65.82 432.17 65.61 433.02 65.61C434.15 65.61 435.09 65.97 435.86 66.69C438.93 69.76 441.45 73.22 443.44 77.07C445.42 80.92 447.2 84.86 448.78 88.87C449.73 88.83 450.65 88.83 451.55 88.87C452.45 88.91 453.26 89.32 453.98 90.09C454.61 90.72 454.98 91.4 455.1 92.12C455.21 92.84 455.14 93.54 454.9 94.22C454.65 94.9 454.25 95.48 453.68 95.98C453.12 96.48 452.43 96.81 451.62 96.99C452.07 98.57 452.47 100.18 452.8 101.82C453.14 103.47 453.42 105.12 453.65 106.79V107.26L453.64 107.28ZM439.84 88.88C438.98 86.85 438.07 84.83 437.1 82.83C436.13 80.83 435.04 78.92 433.82 77.12C432.92 79.1 432.07 81.08 431.28 83.04C430.49 85 429.76 87 429.08 89.03C431.2 88.99 433.06 88.96 434.66 88.96C436.26 88.96 437.99 88.94 439.83 88.89L439.84 88.88Z" fill="white"/>
<path d="M483.8 70.48C484.07 69.58 484.51 68.83 485.12 68.25C485.73 67.67 486.39 67.28 487.12 67.1C487.84 66.92 488.57 66.97 489.32 67.24C490.07 67.51 490.71 68.05 491.25 68.86C491.43 69.09 491.6 69.36 491.76 69.67C491.92 69.99 492 70.28 492 70.55C492 71.05 491.98 71.88 491.93 73.05C491.89 74.22 491.85 75.42 491.83 76.63C491.81 77.85 491.77 78.93 491.73 79.88C491.69 80.83 491.66 81.32 491.66 81.37C491.57 83.81 491.41 86.23 491.19 88.64C490.96 91.05 490.65 93.48 490.24 95.91C489.88 97.8 489.45 99.55 488.95 101.15C488.45 102.75 487.78 104.17 486.92 105.41C486.06 106.65 484.98 107.72 483.67 108.62C482.36 109.52 480.74 110.24 478.8 110.78C478.03 111 477.23 111.16 476.4 111.25C475.57 111.34 474.77 111.38 474 111.38C471.75 111.38 469.45 110.95 467.1 110.09C464.44 109.05 462.43 107.34 461.08 104.95C459.73 102.56 458.78 99.89 458.24 96.94C457.7 93.99 457.44 91 457.46 87.98C457.48 84.96 457.49 82.3 457.49 80C457.49 79.05 457.49 78.1 457.52 77.13C457.54 76.16 457.58 75.2 457.62 74.25C457.62 73.57 457.64 72.86 457.69 72.12C457.74 71.38 457.87 70.67 458.1 69.99C458.32 69.31 458.68 68.73 459.15 68.23C459.62 67.73 460.29 67.4 461.15 67.22C461.65 67.13 462.17 67.18 462.74 67.35C463.3 67.53 463.81 67.79 464.26 68.13C464.71 68.47 465.09 68.87 465.41 69.35C465.72 69.82 465.88 70.33 465.88 70.87V73.74C465.88 74.08 465.87 74.43 465.85 74.79C465.83 75.15 465.82 75.62 465.82 76.21C465.73 79.19 465.69 82.15 465.69 85.1C465.69 88.05 465.87 91 466.23 93.93C466.36 95.15 466.57 96.41 466.84 97.72C467.11 99.03 467.65 100.16 468.46 101.1C469.18 101.96 470.12 102.55 471.27 102.89C472.42 103.23 473.59 103.33 474.79 103.19C475.98 103.06 477.11 102.72 478.17 102.18C479.23 101.64 480.05 100.92 480.64 100.02C481.23 99.12 481.68 98.06 481.99 96.84C482.3 95.62 482.54 94.36 482.7 93.05C482.86 91.74 482.97 90.45 483.04 89.16C483.11 87.87 483.16 86.69 483.21 85.61C483.3 84.35 483.37 83.27 483.41 82.36C483.45 81.46 483.5 80.38 483.54 79.11C483.58 78.16 483.61 77.22 483.61 76.27C483.61 75.32 483.63 74.38 483.68 73.43L483.81 70.45L483.8 70.48Z" fill="white"/>
<path d="M522.9 97.33C523.62 96.61 524.44 96.19 525.37 96.08C526.29 95.97 527.14 96.09 527.91 96.45C528.68 96.81 529.27 97.39 529.7 98.17C530.13 98.96 530.23 99.89 530 100.98C529.73 102.06 529.21 103.07 528.44 103.99C527.67 104.91 526.91 105.76 526.14 106.53C524.38 108.38 522.43 109.74 520.29 110.62C518.15 111.5 515.98 111.91 513.8 111.87C511.61 111.82 509.47 111.31 507.38 110.31C505.28 109.32 503.4 107.83 501.73 105.85C500.74 104.68 499.9 103.44 499.23 102.13C498.55 100.82 498.03 99.45 497.67 98C497.13 95.88 496.88 93.67 496.93 91.37C496.97 89.07 497.34 86.84 498.01 84.67C498.69 82.51 499.64 80.47 500.88 78.55C502.12 76.63 503.64 75 505.45 73.65C506.76 72.66 508.08 71.8 509.41 71.08C510.74 70.36 512.15 69.68 513.64 69.05C514.5 68.69 515.38 68.34 516.28 68C517.18 67.66 518.11 67.4 519.05 67.22C520 67.04 520.94 66.97 521.89 67.02C522.84 67.07 523.76 67.27 524.66 67.63C525.29 67.9 525.92 68.27 526.55 68.75C527.18 69.22 527.77 69.76 528.31 70.37C528.85 70.98 529.32 71.62 529.73 72.3C530.14 72.98 530.43 73.63 530.61 74.26C530.75 74.85 530.78 75.44 530.71 76.05C530.64 76.66 530.46 77.21 530.17 77.71C529.88 78.21 529.48 78.62 528.99 78.96C528.49 79.3 527.93 79.51 527.3 79.6C526.26 79.73 525.46 79.62 524.9 79.26C524.34 78.9 523.89 78.45 523.55 77.91C523.21 77.37 522.88 76.84 522.57 76.32C522.25 75.8 521.8 75.43 521.22 75.2C520.86 75.2 520.59 75.22 520.41 75.27C518.88 75.68 517.33 76.23 515.78 76.93C514.22 77.63 512.78 78.47 511.45 79.47C510.12 80.46 508.96 81.61 507.97 82.92C506.98 84.23 506.26 85.69 505.81 87.32C505.27 89.26 505.07 91.22 505.2 93.2C505.33 95.18 505.88 97.06 506.82 98.81C507.36 99.85 508.08 100.75 508.98 101.52C509.88 102.29 510.87 102.86 511.96 103.24C513.04 103.62 514.15 103.76 515.27 103.65C516.4 103.54 517.48 103.14 518.52 102.47C519.42 101.84 520.23 101.06 520.95 100.14C521.67 99.22 522.33 98.28 522.91 97.33H522.9Z" fill="white"/>
<path d="M564.42 67.64C565.28 68 565.99 68.58 566.55 69.36C567.11 70.15 567.45 70.96 567.56 71.8C567.67 72.63 567.52 73.39 567.09 74.07C566.66 74.75 565.91 75.2 564.82 75.42C562.74 75.78 560.8 75.94 558.97 75.89C557.14 75.84 555.55 75.82 554.2 75.82C554.2 81.23 554.22 86.55 554.27 91.78C554.31 97.01 554.29 102.53 554.2 108.35C554.2 109.61 553.77 110.52 552.91 111.09C552.05 111.65 551.12 111.89 550.1 111.8C549.09 111.71 548.15 111.3 547.29 110.58C546.43 109.86 546 108.87 546 107.6C545.96 102.28 545.93 96.98 545.93 91.71V75.82C545.52 75.82 544.84 75.84 543.87 75.89C542.9 75.93 541.84 75.95 540.69 75.92C539.54 75.9 538.36 75.81 537.14 75.65C535.92 75.49 534.86 75.19 533.96 74.74C533.24 74.38 532.76 73.85 532.54 73.15C532.32 72.45 532.3 71.74 532.51 71.02C532.71 70.3 533.08 69.62 533.63 68.99C534.17 68.36 534.85 67.93 535.66 67.71C539.45 67.48 543.11 67.41 546.65 67.47C550.19 67.54 553.79 67.57 557.44 67.57C558.52 67.57 559.6 67.56 560.69 67.54C561.77 67.52 562.88 67.51 564 67.51L564.41 67.64H564.42Z" fill="white"/>
<path d="M589.04 102.14C590.21 102.19 591.18 102.54 591.95 103.19C592.72 103.84 593.21 104.6 593.44 105.46C593.66 106.32 593.6 107.16 593.24 108C592.88 108.83 592.13 109.48 591.01 109.93C590.2 110.24 589.24 110.45 588.13 110.54C587.02 110.63 585.92 110.66 584.82 110.64C583.71 110.62 582.69 110.57 581.74 110.5C580.79 110.43 580.07 110.4 579.57 110.4H575.58C574.63 110.4 573.82 110.14 573.15 109.62C572.48 109.1 571.99 108.48 571.7 107.76C571.41 107.04 571.34 106.27 571.5 105.46C571.66 104.65 572.08 103.9 572.75 103.23C573.38 102.6 574.21 102.24 575.25 102.15C576.29 102.06 577.32 102.06 578.36 102.15V75.37C577.32 75.37 576.35 75.36 575.45 75.34C574.55 75.32 573.65 74.99 572.74 74.36C572.06 73.86 571.61 73.29 571.39 72.64C571.16 71.99 571.13 71.33 571.29 70.68C571.45 70.03 571.75 69.41 572.2 68.82C572.65 68.23 573.21 67.81 573.89 67.53C574.52 67.26 575.18 67.12 575.85 67.12C578.15 67.12 580.46 67.11 582.78 67.09C585.1 67.07 587.44 67.08 589.78 67.12C590.01 67.12 590.22 67.19 590.42 67.32C590.62 67.46 590.84 67.57 591.06 67.66C592.1 68.25 592.8 69.08 593.16 70.16C593.52 71.24 593.38 72.3 592.75 73.34C592.43 73.88 592.04 74.3 591.57 74.59C591.1 74.88 590.58 75.09 590.01 75.2C589.45 75.31 588.87 75.37 588.29 75.37H586.6V102.29C586.96 102.29 587.29 102.28 587.58 102.26C587.87 102.24 588.2 102.2 588.56 102.16H589.03L589.04 102.14Z" fill="white"/>
<path d="M638.95 91.99C638.18 94.52 637.2 96.98 636.01 99.4C634.81 101.81 633.36 103.97 631.65 105.86C629.94 107.75 627.94 109.29 625.66 110.46C623.38 111.63 620.78 112.22 617.85 112.22C615.96 112.13 614.46 111.96 613.35 111.71C612.24 111.46 611.17 111.09 610.14 110.59C608.29 110.05 606.7 109.18 605.37 107.99C604.04 106.8 602.92 105.41 602.02 103.83C601.12 102.25 600.43 100.57 599.96 98.79C599.49 97.01 599.18 95.28 599.05 93.62C598.82 90.69 599.07 87.71 599.79 84.69C600.51 81.67 601.66 78.89 603.24 76.34C604.82 73.79 606.8 71.61 609.19 69.78C611.58 67.95 614.31 66.75 617.37 66.16C618.95 65.89 620.55 65.8 622.17 65.89C623.79 65.98 625.37 66.3 626.9 66.84C628.16 67.29 629.33 67.81 630.42 68.4C631.5 68.99 632.54 69.73 633.53 70.63C634.84 71.8 635.94 73.16 636.84 74.69C637.74 76.22 638.39 77.82 638.8 79.49C639.3 81.61 639.52 83.71 639.48 85.78C639.44 87.85 639.25 89.93 638.94 92L638.95 91.99ZM621.43 103.42C622.78 102.83 623.97 102.06 624.98 101.09C625.99 100.12 626.88 99.05 627.65 97.88C628.42 96.71 629.06 95.46 629.58 94.13C630.1 92.8 630.56 91.46 630.97 90.11C631.24 88.4 631.39 86.64 631.41 84.83C631.43 83.03 631.06 81.31 630.29 79.69C629.66 78.34 628.7 77.18 627.41 76.21C626.12 75.24 624.72 74.56 623.18 74.18C621.65 73.8 620.1 73.72 618.55 73.94C616.99 74.17 615.61 74.77 614.39 75.77C612.68 77.21 611.29 78.83 610.23 80.61C609.17 82.39 608.37 84.36 607.83 86.53C607.38 88.24 607.13 90.05 607.09 91.94C607.04 93.83 607.34 95.64 607.97 97.35C608.47 98.61 609.2 99.76 610.17 100.8C611.14 101.84 612.23 102.65 613.45 103.23C614.67 103.82 615.96 104.14 617.34 104.21C618.72 104.28 620.08 104.02 621.43 103.43V103.42Z" fill="white"/>
<path d="M672.84 69.13C673.11 68.23 673.55 67.48 674.16 66.9C674.77 66.32 675.43 65.93 676.16 65.75C676.88 65.57 677.61 65.62 678.36 65.89C679.11 66.16 679.75 66.7 680.29 67.51C680.47 67.74 680.64 68.01 680.8 68.32C680.96 68.64 681.04 68.93 681.04 69.2C681.13 75.65 681.1 82.08 680.94 88.51C680.78 94.94 680.52 101.37 680.16 107.82C680.16 108.86 679.83 109.67 679.18 110.25C678.53 110.83 677.78 111.21 676.95 111.37C676.12 111.53 675.27 111.44 674.41 111.1C673.55 110.76 672.92 110.19 672.52 109.38C672.48 109.33 672.45 109.29 672.45 109.24V109.38C669.52 104.56 666.43 99.92 663.18 95.48C659.93 91.04 656.55 86.63 653.03 82.26V102.75C653.03 104.15 653.01 105.29 652.96 106.17C652.91 107.05 652.86 107.74 652.79 108.23C652.72 108.73 652.62 109.15 652.49 109.52C652.08 110.6 651.46 111.32 650.63 111.68C649.8 112.04 648.95 112.13 648.09 111.95C647.23 111.77 646.49 111.32 645.86 110.6C645.23 109.88 644.91 108.98 644.91 107.89V89.02C644.91 87.13 644.9 85.36 644.88 83.71C644.86 82.06 644.85 80.68 644.85 79.55C644.85 78.02 644.83 76.5 644.78 74.99C644.73 73.48 644.73 71.96 644.78 70.42C644.78 69.65 644.97 69 645.36 68.46C645.74 67.92 646.23 67.5 646.81 67.21C647.39 66.92 648.03 66.75 648.7 66.7C649.38 66.66 650.03 66.74 650.66 66.97C651.2 67.15 651.75 67.52 652.32 68.09C652.88 68.65 653.44 69.26 653.98 69.92C654.52 70.57 655.03 71.23 655.5 71.88C655.97 72.53 656.37 73.06 656.68 73.47C657.85 74.91 659.2 76.57 660.74 78.44C662.28 80.31 663.69 82.08 665 83.75C666.31 85.46 667.58 87.18 668.82 88.89C670.06 90.6 671.27 92.32 672.44 94.03C672.57 89.93 672.66 85.85 672.71 81.79C672.75 77.73 672.78 73.65 672.78 69.55L672.85 69.14L672.84 69.13Z" fill="white"/>
</g>
<g filter="url(#filter2_d_3_5)">
<path d="M32.53 177.65C32.53 178.12 32.4 178.54 32.13 178.9C31.86 179.26 31.5499 179.53 31.1899 179.69C30.4599 179.22 29.64 178.77 28.7 178.35C27.77 177.93 26.59 177.72 25.17 177.72C23.94 177.72 22.82 177.93 21.8 178.35C20.78 178.77 19.9 179.38 19.17 180.19C18.43 181 17.8499 182 17.4399 183.2C17.0199 184.4 16.8101 185.78 16.8101 187.34C16.8101 190.49 17.59 192.87 19.15 194.49C20.71 196.11 22.77 196.91 25.34 196.91C26.71 196.91 27.89 196.72 28.89 196.33C29.89 195.94 30.76 195.49 31.48 194.99C31.79 195.19 32.07 195.46 32.34 195.83C32.6 196.19 32.74 196.61 32.74 197.08C32.74 197.47 32.6401 197.83 32.4301 198.17C32.2201 198.5 31.88 198.81 31.41 199.09C30.8 199.48 29.96 199.83 28.9 200.13C27.84 200.44 26.5 200.59 24.89 200.59C23.11 200.59 21.45 200.32 19.92 199.78C18.39 199.24 17.05 198.41 15.91 197.31C14.77 196.21 13.87 194.83 13.21 193.17C12.55 191.51 12.23 189.57 12.23 187.34C12.23 185.11 12.56 183.24 13.23 181.57C13.9 179.9 14.8001 178.5 15.9301 177.39C17.0601 176.28 18.38 175.43 19.88 174.86C21.38 174.29 22.9899 174 24.6899 174C25.8899 174 26.9701 174.1 27.9301 174.31C28.8901 174.52 29.71 174.79 30.4 175.13C31.08 175.46 31.61 175.86 31.99 176.3C32.37 176.75 32.55 177.19 32.55 177.64L32.53 177.65Z" fill="white"/>
<path d="M55.27 190.24C55.27 191.83 55.0301 193.26 54.5601 194.55C54.0901 195.83 53.4199 196.92 52.5699 197.81C51.7199 198.7 50.68 199.39 49.46 199.88C48.23 200.37 46.87 200.61 45.36 200.61C43.85 200.61 42.49 200.37 41.26 199.88C40.03 199.39 39 198.7 38.15 197.81C37.3 196.92 36.64 195.83 36.16 194.55C35.69 193.27 35.45 191.83 35.45 190.24C35.45 188.65 35.69 187.22 36.16 185.93C36.63 184.65 37.3 183.56 38.17 182.67C39.03 181.78 40.0801 181.09 41.3101 180.6C42.5401 180.11 43.89 179.87 45.36 179.87C46.83 179.87 48.19 180.11 49.41 180.6C50.64 181.09 51.68 181.78 52.55 182.69C53.41 183.6 54.0801 184.68 54.5601 185.95C55.0301 187.22 55.27 188.65 55.27 190.24ZM45.36 183.38C43.69 183.38 42.36 183.98 41.39 185.18C40.41 186.38 39.9301 188.06 39.9301 190.24C39.9301 192.42 40.4 194.09 41.35 195.28C42.3 196.46 43.63 197.06 45.36 197.06C47.09 197.06 48.43 196.47 49.37 195.28C50.32 194.1 50.79 192.42 50.79 190.24C50.79 188.06 50.31 186.41 49.35 185.2C48.39 183.99 47.06 183.38 45.36 183.38Z" fill="white"/>
<path d="M62.67 200.27C61.86 200.27 61.26 200.12 60.87 199.81C60.48 199.5 60.28 198.99 60.28 198.26V172.89C60.47 172.83 60.75 172.76 61.12 172.68C61.48 172.6 61.87 172.55 62.29 172.55C63.1 172.55 63.7 172.7 64.09 173.01C64.48 173.32 64.67 173.83 64.67 174.56V199.93C64.45 200.01 64.1601 200.09 63.8101 200.16C63.4601 200.23 63.08 200.26 62.66 200.26L62.67 200.27Z" fill="white"/>
<path d="M73.45 200.27C72.64 200.27 72.04 200.12 71.65 199.81C71.26 199.5 71.0601 198.99 71.0601 198.26V172.89C71.2501 172.83 71.53 172.76 71.9 172.68C72.26 172.6 72.6499 172.55 73.0699 172.55C73.8799 172.55 74.48 172.7 74.87 173.01C75.26 173.32 75.45 173.83 75.45 174.56V199.93C75.23 200.01 74.94 200.09 74.59 200.16C74.24 200.23 73.8599 200.26 73.4399 200.26L73.45 200.27Z" fill="white"/>
<path d="M84.86 192.45C85.25 194.04 86.01 195.22 87.14 195.98C88.27 196.75 89.71 197.13 91.47 197.13C92.64 197.13 93.7099 196.95 94.6899 196.59C95.6699 196.23 96.45 195.84 97.03 195.42C97.81 195.87 98.2 196.49 98.2 197.3C98.2 197.77 98.02 198.21 97.66 198.62C97.3 199.02 96.8001 199.37 96.1801 199.66C95.5501 199.95 94.81 200.18 93.96 200.35C93.11 200.52 92.2 200.6 91.22 200.6C89.6 200.6 88.1301 200.38 86.8101 199.93C85.4901 199.48 84.35 198.82 83.4 197.92C82.45 197.03 81.72 195.93 81.21 194.62C80.69 193.31 80.4399 191.79 80.4399 190.06C80.4399 188.33 80.6899 186.92 81.1899 185.65C81.6899 184.38 82.37 183.32 83.24 182.47C84.1 181.62 85.12 180.97 86.29 180.53C87.46 180.08 88.71 179.86 90.05 179.86C91.39 179.86 92.61 180.08 93.71 180.51C94.81 180.94 95.76 181.54 96.55 182.31C97.34 183.08 97.96 183.99 98.39 185.05C98.82 186.11 99.04 187.27 99.04 188.52C99.04 189.22 98.87 189.73 98.54 190.05C98.21 190.37 97.72 190.59 97.08 190.7L84.87 192.45H84.86ZM90.04 183.25C88.51 183.25 87.23 183.77 86.22 184.8C85.2 185.83 84.67 187.31 84.61 189.23L94.89 187.77C94.78 186.52 94.32 185.45 93.51 184.57C92.7 183.69 91.55 183.25 90.04 183.25Z" fill="white"/>
<path d="M113.12 183.42C112.23 183.42 111.41 183.57 110.65 183.86C109.89 184.15 109.25 184.59 108.71 185.18C108.17 185.77 107.73 186.48 107.41 187.33C107.09 188.18 106.93 189.16 106.93 190.28C106.93 192.48 107.5 194.16 108.64 195.32C109.78 196.48 111.27 197.06 113.11 197.06C114.17 197.06 115.07 196.92 115.83 196.64C116.59 196.36 117.24 196.03 117.79 195.64C118.15 195.86 118.44 196.13 118.67 196.43C118.89 196.74 119 197.11 119 197.56C119 198.42 118.44 199.15 117.31 199.73C116.18 200.32 114.7 200.61 112.86 200.61C111.33 200.61 109.93 200.4 108.66 199.98C107.39 199.56 106.3 198.92 105.38 198.06C104.46 197.2 103.74 196.12 103.23 194.82C102.71 193.52 102.46 192.01 102.46 190.28C102.46 188.55 102.73 187.03 103.27 185.72C103.81 184.41 104.55 183.32 105.49 182.46C106.42 181.6 107.52 180.95 108.77 180.52C110.02 180.09 111.35 179.87 112.74 179.87C113.66 179.87 114.49 179.95 115.23 180.12C115.97 180.29 116.6 180.52 117.13 180.81C117.66 181.1 118.07 181.44 118.36 181.81C118.65 182.19 118.8 182.58 118.8 183C118.8 183.39 118.69 183.75 118.49 184.07C118.29 184.39 118.02 184.63 117.72 184.8C117.14 184.44 116.49 184.12 115.78 183.84C115.07 183.56 114.18 183.42 113.13 183.42H113.12Z" fill="white"/>
<path d="M128.88 196.42C129.46 196.84 130.29 197.05 131.35 197.05C131.82 197.05 132.33 196.98 132.85 196.84C133.37 196.7 133.84 196.53 134.23 196.34C134.42 196.56 134.6 196.81 134.75 197.09C134.9 197.37 134.98 197.7 134.98 198.09C134.98 198.81 134.61 199.41 133.87 199.89C133.13 200.36 132.01 200.6 130.5 200.6C128.41 200.6 126.75 200.13 125.5 199.2C124.26 198.27 123.64 196.73 123.64 194.58V175.06C123.84 175 124.11 174.93 124.48 174.85C124.84 174.77 125.23 174.72 125.65 174.72C126.46 174.72 127.05 174.87 127.43 175.18C127.81 175.49 127.99 176 127.99 176.73V180.87H134.47C134.58 181.04 134.68 181.27 134.78 181.58C134.88 181.89 134.93 182.21 134.93 182.54C134.93 183.74 134.41 184.34 133.38 184.34H127.99V194.29C127.99 195.29 128.28 196 128.87 196.42H128.88Z" fill="white"/>
<path d="M139.16 174.43C139.16 173.71 139.41 173.1 139.91 172.61C140.41 172.12 141.05 171.88 141.83 171.88C142.61 171.88 143.24 172.13 143.71 172.61C144.18 173.1 144.42 173.7 144.42 174.43C144.42 175.16 144.18 175.76 143.71 176.25C143.24 176.74 142.61 176.98 141.83 176.98C141.05 176.98 140.41 176.74 139.91 176.25C139.41 175.76 139.16 175.16 139.16 174.43ZM144.01 199.93C143.81 200.01 143.54 200.09 143.2 200.16C142.85 200.23 142.45 200.26 142.01 200.26C141.2 200.26 140.6 200.11 140.21 199.8C139.82 199.49 139.63 198.98 139.63 198.25V180.57C139.85 180.51 140.14 180.44 140.49 180.36C140.84 180.28 141.24 180.23 141.68 180.23C142.49 180.23 143.08 180.38 143.46 180.69C143.84 181 144.02 181.53 144.02 182.28V199.92L144.01 199.93Z" fill="white"/>
<path d="M168.76 190.24C168.76 191.83 168.52 193.26 168.05 194.55C167.58 195.83 166.91 196.92 166.06 197.81C165.21 198.7 164.17 199.39 162.95 199.88C161.72 200.37 160.36 200.61 158.85 200.61C157.34 200.61 155.98 200.37 154.75 199.88C153.52 199.39 152.49 198.7 151.64 197.81C150.79 196.92 150.13 195.83 149.65 194.55C149.18 193.27 148.94 191.83 148.94 190.24C148.94 188.65 149.18 187.22 149.65 185.93C150.12 184.65 150.79 183.56 151.66 182.67C152.52 181.78 153.57 181.09 154.79 180.6C156.02 180.11 157.37 179.87 158.84 179.87C160.31 179.87 161.67 180.11 162.89 180.6C164.12 181.09 165.16 181.78 166.03 182.69C166.89 183.6 167.56 184.68 168.04 185.95C168.51 187.22 168.75 188.65 168.75 190.24H168.76ZM158.85 183.38C157.18 183.38 155.85 183.98 154.88 185.18C153.9 186.38 153.42 188.06 153.42 190.24C153.42 192.42 153.89 194.09 154.84 195.28C155.79 196.46 157.12 197.06 158.85 197.06C160.58 197.06 161.92 196.47 162.86 195.28C163.8 194.09 164.28 192.42 164.28 190.24C164.28 188.06 163.8 186.41 162.84 185.2C161.88 183.99 160.55 183.38 158.85 183.38Z" fill="white"/>
<path d="M185.54 184.34C184.77 183.7 183.74 183.38 182.43 183.38C181.45 183.38 180.58 183.5 179.82 183.76C179.06 184.02 178.39 184.29 177.83 184.6V199.94C177.63 200.02 177.36 200.1 177.02 200.17C176.67 200.24 176.29 200.27 175.87 200.27C175.06 200.27 174.46 200.12 174.07 199.81C173.68 199.5 173.49 198.99 173.49 198.26V184.47C173.49 183.83 173.61 183.31 173.87 182.92C174.12 182.53 174.54 182.14 175.12 181.75C175.9 181.28 176.92 180.84 178.17 180.45C179.42 180.06 180.84 179.87 182.43 179.87C185.13 179.87 187.25 180.48 188.78 181.69C190.31 182.9 191.08 184.73 191.08 187.19V199.94C190.88 200.02 190.61 200.1 190.24 200.17C189.88 200.24 189.49 200.27 189.07 200.27C188.26 200.27 187.66 200.12 187.27 199.81C186.88 199.5 186.69 198.99 186.69 198.26V187.35C186.69 185.98 186.31 184.98 185.54 184.34Z" fill="white"/>
<path d="M219.8 194.62C219.8 196.49 219.1 197.95 217.71 199.01C216.32 200.07 214.3 200.6 211.65 200.6C210.56 200.6 209.56 200.52 208.64 200.35C207.72 200.18 206.93 199.95 206.28 199.64C205.62 199.33 205.12 198.97 204.75 198.55C204.39 198.13 204.21 197.67 204.21 197.17C204.21 196.75 204.31 196.36 204.52 196C204.73 195.64 205.02 195.35 205.38 195.12C206.16 195.62 207.05 196.08 208.05 196.5C209.05 196.92 210.22 197.13 211.56 197.13C212.81 197.13 213.78 196.92 214.44 196.48C215.11 196.05 215.44 195.43 215.44 194.62C215.44 193.92 215.21 193.37 214.75 192.95C214.29 192.53 213.61 192.21 212.72 191.99L209.88 191.24C207.98 190.74 206.59 190.06 205.7 189.19C204.81 188.33 204.36 187.14 204.36 185.64C204.36 184.83 204.53 184.07 204.86 183.36C205.19 182.65 205.69 182.04 206.34 181.52C206.99 181 207.81 180.6 208.79 180.31C209.76 180.02 210.88 179.87 212.13 179.87C213.13 179.87 214.05 179.95 214.87 180.1C215.69 180.25 216.4 180.46 217 180.73C217.6 180.99 218.07 181.32 218.4 181.71C218.73 182.1 218.9 182.52 218.9 182.96C218.9 183.4 218.8 183.79 218.61 184.11C218.41 184.43 218.16 184.69 217.86 184.88C217.36 184.57 216.61 184.24 215.62 183.88C214.63 183.52 213.57 183.34 212.42 183.34C211.27 183.34 210.33 183.54 209.66 183.95C208.99 184.36 208.66 184.92 208.66 185.64C208.66 186.2 208.85 186.66 209.22 187.02C209.59 187.38 210.24 187.68 211.16 187.9L213.58 188.53C215.7 189.09 217.26 189.84 218.26 190.79C219.26 191.74 219.76 193.02 219.76 194.64L219.8 194.62Z" fill="white"/>
<path d="M227.49 195.46C226.79 194.09 225.94 192.16 224.94 189.65C223.94 187.14 222.96 184.3 222.01 181.12C222.26 180.81 222.59 180.56 223.01 180.35C223.43 180.14 223.87 180.04 224.35 180.04C224.96 180.04 225.46 180.19 225.85 180.48C226.24 180.77 226.56 181.28 226.81 182.01C227.56 184.27 228.34 186.49 229.15 188.68C229.96 190.87 230.85 193.13 231.83 195.47H232C232.42 194.58 232.84 193.53 233.28 192.34C233.71 191.14 234.14 189.87 234.55 188.54C234.97 187.2 235.36 185.84 235.72 184.46C236.08 183.08 236.4 181.76 236.68 180.51C236.96 180.37 237.24 180.26 237.54 180.18C237.83 180.1 238.17 180.05 238.56 180.05C239.17 180.05 239.69 180.2 240.11 180.49C240.53 180.78 240.74 181.24 240.74 181.85C240.74 182.57 240.55 183.68 240.18 185.17C239.8 186.66 239.31 188.3 238.7 190.1C238.09 191.9 237.39 193.72 236.61 195.56C235.83 197.4 235.05 199.03 234.27 200.45C232.88 202.9 231.61 204.77 230.49 206.05C229.36 207.33 228.29 207.97 227.29 207.97C226.51 207.97 225.89 207.75 225.43 207.32C224.97 206.89 224.68 206.35 224.57 205.71C225.02 205.32 225.5 204.85 226.03 204.29C226.56 203.73 227.09 203.13 227.62 202.49C228.15 201.85 228.65 201.19 229.12 200.5C229.59 199.82 230 199.16 230.33 198.51C229.86 198.37 229.4 198.1 228.95 197.69C228.5 197.29 228.02 196.54 227.49 195.45V195.46Z" fill="white"/>
<path d="M267.93 184.24C267.25 183.67 266.32 183.38 265.15 183.38C264.37 183.38 263.62 183.53 262.91 183.82C262.2 184.11 261.55 184.51 260.97 185.01C261.03 185.23 261.07 185.47 261.1 185.72C261.13 185.97 261.14 186.22 261.14 186.47V199.93C260.94 200.01 260.67 200.09 260.3 200.16C259.94 200.23 259.56 200.26 259.17 200.26C258.36 200.26 257.76 200.11 257.37 199.8C256.98 199.49 256.79 198.98 256.79 198.25V186.92C256.79 185.69 256.44 184.8 255.75 184.22C255.05 183.65 254.12 183.36 252.95 183.36C252.17 183.36 251.43 183.48 250.73 183.74C250.03 183.99 249.45 184.27 248.97 184.58V199.92C248.77 200 248.5 200.08 248.16 200.15C247.81 200.22 247.43 200.25 247.01 200.25C246.2 200.25 245.6 200.1 245.21 199.79C244.82 199.48 244.63 198.97 244.63 198.24V184.45C244.63 183.81 244.75 183.29 245.01 182.9C245.26 182.51 245.68 182.12 246.26 181.73C247.07 181.2 248.09 180.76 249.31 180.39C250.54 180.03 251.78 179.85 253.03 179.85C254.28 179.85 255.52 180.03 256.56 180.39C257.6 180.75 258.46 181.28 259.13 181.98C259.91 181.37 260.84 180.86 261.91 180.45C262.98 180.04 264.23 179.84 265.65 179.84C266.74 179.84 267.75 179.97 268.7 180.24C269.65 180.51 270.46 180.92 271.15 181.49C271.84 182.06 272.37 182.78 272.76 183.64C273.15 184.5 273.34 185.54 273.34 186.73V199.9C273.12 199.98 272.83 200.06 272.48 200.13C272.13 200.2 271.75 200.23 271.33 200.23C270.52 200.23 269.92 200.08 269.53 199.77C269.14 199.46 268.95 198.95 268.95 198.22V186.89C268.95 185.66 268.61 184.77 267.93 184.19V184.24Z" fill="white"/>
<path d="M288.43 179.87C289.74 179.87 290.97 180.09 292.11 180.52C293.25 180.95 294.24 181.59 295.08 182.44C295.92 183.29 296.57 184.36 297.04 185.66C297.51 186.96 297.75 188.47 297.75 190.2C297.75 191.93 297.51 193.49 297.02 194.8C296.53 196.11 295.84 197.19 294.95 198.04C294.06 198.89 292.99 199.53 291.75 199.96C290.51 200.39 289.14 200.61 287.63 200.61C286.12 200.61 284.79 200.43 283.64 200.07C282.48 199.71 281.54 199.29 280.82 198.82C280.23 198.43 279.82 198.04 279.57 197.65C279.32 197.26 279.19 196.76 279.19 196.15V172.91C279.38 172.85 279.66 172.78 280.03 172.7C280.39 172.62 280.78 172.57 281.2 172.57C282.01 172.57 282.6 172.72 282.98 173.03C283.36 173.34 283.54 173.85 283.54 174.58V181.18C284.15 180.85 284.86 180.55 285.67 180.28C286.48 180.02 287.4 179.88 288.43 179.88V179.87ZM287.72 183.38C286.83 183.38 286.03 183.53 285.34 183.82C284.64 184.11 284.04 184.45 283.54 184.84V195.96C283.93 196.24 284.47 196.49 285.17 196.71C285.87 196.93 286.67 197.04 287.59 197.04C289.29 197.04 290.67 196.48 291.73 195.37C292.79 194.26 293.32 192.53 293.32 190.19C293.32 187.85 292.8 186.09 291.75 185.01C290.7 183.93 289.36 183.38 287.72 183.38Z" fill="white"/>
<path d="M321.29 190.24C321.29 191.83 321.05 193.26 320.58 194.55C320.11 195.83 319.44 196.92 318.59 197.81C317.74 198.7 316.7 199.39 315.48 199.88C314.25 200.37 312.89 200.61 311.38 200.61C309.87 200.61 308.51 200.37 307.28 199.88C306.05 199.39 305.02 198.7 304.17 197.81C303.32 196.92 302.66 195.83 302.18 194.55C301.71 193.27 301.47 191.83 301.47 190.24C301.47 188.65 301.71 187.22 302.18 185.93C302.65 184.65 303.32 183.56 304.19 182.67C305.05 181.78 306.1 181.09 307.32 180.6C308.55 180.11 309.9 179.87 311.37 179.87C312.84 179.87 314.2 180.11 315.42 180.6C316.65 181.09 317.69 181.78 318.56 182.69C319.42 183.6 320.09 184.68 320.57 185.95C321.04 187.22 321.28 188.65 321.28 190.24H321.29ZM311.38 183.38C309.71 183.38 308.38 183.98 307.41 185.18C306.43 186.38 305.95 188.06 305.95 190.24C305.95 192.42 306.42 194.09 307.37 195.28C308.32 196.46 309.65 197.06 311.38 197.06C313.11 197.06 314.45 196.47 315.39 195.28C316.33 194.09 316.81 192.42 316.81 190.24C316.81 188.06 316.33 186.41 315.37 185.2C314.41 183.99 313.08 183.38 311.38 183.38Z" fill="white"/>
<path d="M328.69 200.27C327.88 200.27 327.28 200.12 326.89 199.81C326.5 199.5 326.31 198.99 326.31 198.26V172.89C326.5 172.83 326.78 172.76 327.15 172.68C327.51 172.6 327.9 172.55 328.32 172.55C329.13 172.55 329.73 172.7 330.12 173.01C330.51 173.32 330.71 173.83 330.71 174.56V199.93C330.49 200.01 330.2 200.09 329.85 200.16C329.5 200.23 329.12 200.26 328.7 200.26L328.69 200.27Z" fill="white"/>
<path d="M336.46 174.43C336.46 173.71 336.71 173.1 337.21 172.61C337.71 172.12 338.35 171.88 339.13 171.88C339.91 171.88 340.54 172.13 341.01 172.61C341.48 173.1 341.72 173.7 341.72 174.43C341.72 175.16 341.48 175.76 341.01 176.25C340.54 176.74 339.91 176.98 339.13 176.98C338.35 176.98 337.71 176.74 337.21 176.25C336.71 175.76 336.46 175.16 336.46 174.43ZM341.31 199.93C341.11 200.01 340.84 200.09 340.5 200.16C340.15 200.23 339.75 200.26 339.31 200.26C338.5 200.26 337.9 200.11 337.51 199.8C337.12 199.49 336.93 198.98 336.93 198.25V180.57C337.15 180.51 337.44 180.44 337.79 180.36C338.14 180.28 338.54 180.23 338.98 180.23C339.79 180.23 340.38 180.38 340.76 180.69C341.14 181 341.32 181.53 341.32 182.28V199.92L341.31 199.93Z" fill="white"/>
<path d="M347.04 200.02C346.45 199.52 346.16 198.88 346.16 198.1C346.16 197.71 346.25 197.33 346.43 196.95C346.61 196.57 346.83 196.23 347.08 195.93L356.78 183.97H346.87C346.76 183.78 346.65 183.52 346.54 183.22C346.43 182.91 346.37 182.58 346.37 182.22C346.37 181.61 346.52 181.16 346.81 180.88C347.1 180.6 347.49 180.46 347.96 180.46H361.25C361.86 180.93 362.17 181.59 362.17 182.42C362.17 182.81 362.09 183.18 361.92 183.53C361.75 183.88 361.53 184.22 361.25 184.55L351.59 196.55H362.08C362.19 196.72 362.3 196.95 362.39 197.26C362.48 197.57 362.54 197.9 362.54 198.26C362.54 198.87 362.39 199.32 362.1 199.6C361.81 199.88 361.42 200.02 360.95 200.02H347.03H347.04Z" fill="white"/>
<path d="M366.73 174.43C366.73 173.71 366.98 173.1 367.48 172.61C367.98 172.12 368.62 171.88 369.4 171.88C370.18 171.88 370.81 172.13 371.28 172.61C371.75 173.1 371.99 173.7 371.99 174.43C371.99 175.16 371.75 175.76 371.28 176.25C370.81 176.74 370.18 176.98 369.4 176.98C368.62 176.98 367.98 176.74 367.48 176.25C366.98 175.76 366.73 175.16 366.73 174.43ZM371.58 199.93C371.38 200.01 371.11 200.09 370.77 200.16C370.42 200.23 370.02 200.26 369.58 200.26C368.77 200.26 368.17 200.11 367.78 199.8C367.39 199.49 367.2 198.98 367.2 198.25V180.57C367.42 180.51 367.71 180.44 368.06 180.36C368.41 180.28 368.81 180.23 369.25 180.23C370.06 180.23 370.65 180.38 371.03 180.69C371.41 181 371.59 181.53 371.59 182.28V199.92L371.58 199.93Z" fill="white"/>
<path d="M389.62 184.34C388.85 183.7 387.82 183.38 386.51 183.38C385.53 183.38 384.66 183.5 383.9 183.76C383.14 184.02 382.47 184.29 381.91 184.6V199.94C381.71 200.02 381.44 200.1 381.1 200.17C380.75 200.24 380.37 200.27 379.95 200.27C379.14 200.27 378.54 200.12 378.15 199.81C377.76 199.5 377.57 198.99 377.57 198.26V184.47C377.57 183.83 377.69 183.31 377.95 182.92C378.2 182.53 378.62 182.14 379.2 181.75C379.98 181.28 381 180.84 382.25 180.45C383.5 180.06 384.92 179.87 386.51 179.87C389.21 179.87 391.33 180.48 392.86 181.69C394.39 182.9 395.16 184.73 395.16 187.19V199.94C394.96 200.02 394.69 200.1 394.32 200.17C393.96 200.24 393.57 200.27 393.15 200.27C392.34 200.27 391.74 200.12 391.35 199.81C390.96 199.5 390.77 198.99 390.77 198.26V187.35C390.77 185.98 390.39 184.98 389.62 184.34Z" fill="white"/>
<path d="M413.71 198.18C413.18 198.51 412.53 198.79 411.77 199.02C411.01 199.25 410.09 199.35 409.03 199.35C407.8 199.35 406.64 199.18 405.54 198.83C404.44 198.48 403.47 197.92 402.64 197.16C401.8 196.39 401.14 195.4 400.65 194.17C400.16 192.94 399.92 191.44 399.92 189.66C399.92 188.04 400.16 186.63 400.65 185.42C401.14 184.21 401.82 183.19 402.7 182.37C403.58 181.55 404.62 180.93 405.83 180.51C407.04 180.09 408.39 179.88 409.86 179.88C411.23 179.88 412.49 180.05 413.64 180.4C414.8 180.75 415.74 181.16 416.46 181.63C416.93 181.94 417.3 182.29 417.57 182.67C417.83 183.06 417.97 183.53 417.97 184.09V200.56C417.97 201.95 417.73 203.15 417.24 204.16C416.75 205.16 416.08 205.98 415.23 206.61C414.38 207.24 413.37 207.7 412.2 207.99C411.03 208.28 409.78 208.43 408.44 208.43C407.02 208.43 405.79 208.29 404.76 208.01C403.73 207.73 402.98 207.45 402.5 207.17C401.64 206.64 401.2 205.94 401.2 205.08C401.2 204.61 401.3 204.21 401.49 203.89C401.68 203.57 401.94 203.31 402.24 203.12C402.88 203.57 403.73 203.97 404.79 204.33C405.85 204.69 406.98 204.87 408.18 204.87C409.93 204.87 411.29 204.52 412.26 203.8C413.22 203.09 413.7 201.94 413.7 200.35V198.18H413.71ZM409.66 195.92C410.61 195.92 411.4 195.78 412.04 195.5C412.68 195.22 413.22 194.89 413.67 194.5V184.38C413.25 184.13 412.74 183.9 412.12 183.69C411.5 183.48 410.78 183.38 409.95 183.38C408.25 183.38 406.88 183.9 405.85 184.93C404.82 185.96 404.3 187.52 404.3 189.61C404.3 190.75 404.44 191.73 404.72 192.54C405 193.35 405.37 194 405.85 194.5C406.32 195 406.89 195.36 407.54 195.59C408.19 195.81 408.9 195.92 409.65 195.92H409.66Z" fill="white"/>
<path d="M437.33 196.42C437.91 196.84 438.74 197.05 439.8 197.05C440.27 197.05 440.78 196.98 441.3 196.84C441.82 196.7 442.29 196.53 442.68 196.34C442.87 196.56 443.05 196.81 443.2 197.09C443.35 197.37 443.43 197.7 443.43 198.09C443.43 198.81 443.06 199.41 442.32 199.89C441.58 200.36 440.46 200.6 438.95 200.6C436.86 200.6 435.2 200.13 433.95 199.2C432.71 198.27 432.09 196.73 432.09 194.58V175.06C432.29 175 432.56 174.93 432.93 174.85C433.29 174.77 433.68 174.72 434.1 174.72C434.91 174.72 435.5 174.87 435.88 175.18C436.26 175.49 436.44 176 436.44 176.73V180.87H442.92C443.03 181.04 443.13 181.27 443.23 181.58C443.33 181.89 443.38 182.21 443.38 182.54C443.38 183.74 442.86 184.34 441.83 184.34H436.44V194.29C436.44 195.29 436.73 196 437.32 196.42H437.33Z" fill="white"/>
<path d="M459.97 184.45C459.15 183.74 458.07 183.38 456.73 183.38C455.84 183.38 455.02 183.53 454.28 183.82C453.54 184.11 452.89 184.47 452.34 184.89V199.94C452.14 200.02 451.87 200.1 451.52 200.17C451.17 200.24 450.79 200.27 450.37 200.27C449.56 200.27 448.96 200.12 448.57 199.81C448.18 199.5 447.99 198.99 447.99 198.26V172.89C448.18 172.83 448.46 172.76 448.83 172.68C449.19 172.6 449.58 172.55 450 172.55C450.81 172.55 451.4 172.7 451.78 173.01C452.16 173.32 452.34 173.83 452.34 174.56V181.16C452.98 180.83 453.73 180.53 454.58 180.26C455.43 180 456.38 179.86 457.44 179.86C459.86 179.86 461.82 180.5 463.31 181.78C464.8 183.06 465.55 185.01 465.55 187.63V199.92C465.35 200 465.08 200.08 464.71 200.15C464.35 200.22 463.97 200.25 463.58 200.25C462.74 200.25 462.14 200.1 461.76 199.79C461.38 199.48 461.2 198.97 461.2 198.24V187.79C461.2 186.26 460.79 185.14 459.97 184.42V184.45Z" fill="white"/>
<path d="M474.7 192.45C475.09 194.04 475.85 195.22 476.98 195.98C478.11 196.75 479.55 197.13 481.31 197.13C482.48 197.13 483.55 196.95 484.53 196.59C485.5 196.23 486.29 195.84 486.87 195.42C487.65 195.87 488.04 196.49 488.04 197.3C488.04 197.77 487.86 198.21 487.5 198.62C487.14 199.02 486.64 199.37 486.02 199.66C485.39 199.95 484.65 200.18 483.81 200.35C482.96 200.52 482.05 200.6 481.07 200.6C479.45 200.6 477.98 200.38 476.66 199.93C475.34 199.48 474.2 198.82 473.25 197.92C472.3 197.03 471.57 195.93 471.05 194.62C470.53 193.31 470.28 191.79 470.28 190.06C470.28 188.33 470.53 186.92 471.03 185.65C471.53 184.38 472.21 183.32 473.08 182.47C473.94 181.62 474.96 180.97 476.13 180.53C477.3 180.08 478.55 179.86 479.89 179.86C481.23 179.86 482.45 180.08 483.55 180.51C484.65 180.94 485.6 181.54 486.39 182.31C487.18 183.08 487.8 183.99 488.23 185.05C488.66 186.11 488.88 187.27 488.88 188.52C488.88 189.22 488.71 189.73 488.38 190.05C488.05 190.37 487.56 190.59 486.92 190.7L474.71 192.45H474.7ZM479.88 183.25C478.35 183.25 477.07 183.77 476.05 184.8C475.03 185.83 474.5 187.31 474.44 189.23L484.72 187.77C484.61 186.52 484.15 185.45 483.34 184.57C482.53 183.69 481.38 183.25 479.87 183.25H479.88Z" fill="white"/>
<path d="M17.39 250.09C17.2 250.17 16.92 250.25 16.58 250.32C16.23 250.39 15.8501 250.42 15.4301 250.42C14.6201 250.42 14.02 250.27 13.63 249.96C13.24 249.65 13.04 249.14 13.04 248.41V234.7C13.04 234 13.18 233.44 13.46 233.01C13.74 232.58 14.18 232.17 14.8 231.78C15.61 231.28 16.64 230.86 17.89 230.53C19.14 230.2 20.52 230.03 22.03 230.03C24.48 230.03 25.71 230.73 25.71 232.12C25.71 232.45 25.65 232.77 25.54 233.06C25.43 233.35 25.3 233.61 25.16 233.83C24.88 233.77 24.53 233.72 24.12 233.66C23.7 233.6 23.26 233.58 22.78 233.58C21.67 233.58 20.65 233.7 19.73 233.94C18.81 234.18 18.03 234.48 17.39 234.84V250.1V250.09Z" fill="white"/>
<path d="M32.23 242.61C32.62 244.2 33.38 245.38 34.51 246.14C35.64 246.91 37.08 247.29 38.84 247.29C40.01 247.29 41.0801 247.11 42.0601 246.75C43.0401 246.39 43.82 246 44.4 245.58C45.18 246.03 45.5699 246.65 45.5699 247.46C45.5699 247.93 45.39 248.37 45.03 248.78C44.67 249.18 44.17 249.53 43.55 249.82C42.92 250.11 42.18 250.34 41.33 250.51C40.48 250.68 39.57 250.76 38.59 250.76C36.97 250.76 35.5001 250.54 34.1801 250.09C32.8601 249.64 31.72 248.98 30.77 248.08C29.82 247.19 29.09 246.09 28.58 244.78C28.06 243.47 27.8101 241.95 27.8101 240.22C27.8101 238.49 28.0601 237.08 28.5601 235.81C29.0601 234.54 29.74 233.48 30.61 232.63C31.47 231.78 32.49 231.13 33.66 230.69C34.83 230.24 36.08 230.02 37.42 230.02C38.76 230.02 39.98 230.24 41.08 230.67C42.18 231.1 43.13 231.7 43.92 232.47C44.71 233.24 45.33 234.15 45.76 235.21C46.19 236.27 46.41 237.43 46.41 238.68C46.41 239.38 46.24 239.89 45.91 240.21C45.58 240.53 45.09 240.75 44.45 240.86L32.24 242.61H32.23ZM37.41 233.41C35.88 233.41 34.6 233.93 33.59 234.96C32.57 235.99 32.04 237.47 31.98 239.39L42.26 237.93C42.15 236.68 41.69 235.61 40.88 234.73C40.07 233.85 38.92 233.41 37.41 233.41Z" fill="white"/>
<path d="M65.63 244.79C65.63 246.66 64.93 248.12 63.54 249.18C62.15 250.24 60.13 250.77 57.48 250.77C56.39 250.77 55.39 250.69 54.47 250.52C53.55 250.35 52.76 250.12 52.11 249.81C51.45 249.5 50.95 249.14 50.58 248.72C50.22 248.3 50.04 247.84 50.04 247.34C50.04 246.92 50.14 246.53 50.35 246.17C50.56 245.81 50.84 245.52 51.21 245.29C51.99 245.79 52.88 246.25 53.89 246.67C54.89 247.09 56.06 247.3 57.4 247.3C58.65 247.3 59.62 247.09 60.28 246.65C60.95 246.22 61.28 245.6 61.28 244.79C61.28 244.09 61.05 243.54 60.59 243.12C60.13 242.7 59.4501 242.38 58.5601 242.16L55.72 241.41C53.82 240.91 52.43 240.23 51.54 239.36C50.65 238.5 50.2 237.31 50.2 235.81C50.2 235 50.37 234.24 50.7 233.53C51.03 232.82 51.5301 232.21 52.1801 231.69C52.8301 231.17 53.65 230.77 54.63 230.48C55.61 230.19 56.72 230.04 57.97 230.04C58.97 230.04 59.89 230.12 60.71 230.27C61.53 230.42 62.24 230.63 62.84 230.9C63.44 231.16 63.91 231.49 64.24 231.88C64.57 232.27 64.74 232.69 64.74 233.13C64.74 233.57 64.64 233.96 64.45 234.28C64.25 234.6 64 234.86 63.7 235.05C63.2 234.74 62.45 234.41 61.46 234.05C60.47 233.69 59.4 233.51 58.26 233.51C57.12 233.51 56.17 233.71 55.5 234.12C54.83 234.52 54.5 235.09 54.5 235.81C54.5 236.37 54.6901 236.83 55.0601 237.19C55.4401 237.55 56.08 237.85 57 238.07L59.42 238.7C61.54 239.26 63.1 240.01 64.1 240.96C65.1 241.91 65.6 243.19 65.6 244.81L65.63 244.79Z" fill="white"/>
<path d="M75.5 246.58C76.08 247 76.91 247.21 77.97 247.21C78.44 247.21 78.95 247.14 79.47 247C80 246.86 80.46 246.69 80.85 246.5C81.04 246.72 81.22 246.97 81.37 247.25C81.52 247.53 81.6 247.86 81.6 248.25C81.6 248.97 81.23 249.57 80.49 250.05C79.75 250.52 78.63 250.76 77.13 250.76C75.04 250.76 73.37 250.29 72.13 249.36C70.89 248.43 70.27 246.89 70.27 244.74V225.22C70.46 225.16 70.74 225.09 71.11 225.01C71.47 224.93 71.86 224.88 72.28 224.88C73.09 224.88 73.6801 225.03 74.0601 225.34C74.4401 225.65 74.62 226.16 74.62 226.89V231.03H81.1C81.21 231.2 81.32 231.43 81.41 231.74C81.51 232.05 81.5601 232.37 81.5601 232.7C81.5601 233.9 81.04 234.5 80.01 234.5H74.62V244.45C74.62 245.45 74.91 246.16 75.5 246.58Z" fill="white"/>
<path d="M88.58 250.43C87.77 250.43 87.17 250.28 86.78 249.97C86.39 249.66 86.1899 249.15 86.1899 248.42V223.05C86.3799 222.99 86.66 222.92 87.03 222.84C87.39 222.76 87.78 222.71 88.2 222.71C89.01 222.71 89.61 222.86 90 223.17C90.39 223.48 90.58 223.99 90.58 224.72V250.09C90.36 250.17 90.07 250.25 89.72 250.32C89.37 250.39 88.9899 250.42 88.5699 250.42L88.58 250.43Z" fill="white"/>
<path d="M99.99 242.61C100.38 244.2 101.14 245.38 102.27 246.14C103.4 246.91 104.84 247.29 106.6 247.29C107.77 247.29 108.84 247.11 109.82 246.75C110.8 246.39 111.58 246 112.16 245.58C112.94 246.03 113.33 246.65 113.33 247.46C113.33 247.93 113.15 248.37 112.79 248.78C112.43 249.18 111.93 249.53 111.31 249.82C110.68 250.11 109.94 250.34 109.09 250.51C108.24 250.68 107.33 250.76 106.35 250.76C104.73 250.76 103.26 250.54 101.94 250.09C100.62 249.64 99.48 248.98 98.53 248.08C97.58 247.19 96.85 246.09 96.34 244.78C95.82 243.47 95.5699 241.95 95.5699 240.22C95.5699 238.49 95.8199 237.08 96.3199 235.81C96.8199 234.54 97.5 233.48 98.37 232.63C99.23 231.78 100.25 231.13 101.42 230.69C102.59 230.24 103.84 230.02 105.18 230.02C106.52 230.02 107.74 230.24 108.84 230.67C109.94 231.1 110.89 231.7 111.68 232.47C112.47 233.24 113.09 234.15 113.52 235.21C113.95 236.27 114.17 237.43 114.17 238.68C114.17 239.38 114 239.89 113.67 240.21C113.34 240.53 112.85 240.75 112.21 240.86L100 242.61H99.99ZM105.17 233.41C103.64 233.41 102.36 233.93 101.35 234.96C100.33 235.99 99.8 237.47 99.74 239.39L110.02 237.93C109.91 236.68 109.45 235.61 108.64 234.73C107.83 233.85 106.68 233.41 105.17 233.41Z" fill="white"/>
<path d="M133.39 244.79C133.39 246.66 132.69 248.12 131.3 249.18C129.91 250.24 127.89 250.77 125.24 250.77C124.15 250.77 123.15 250.69 122.23 250.52C121.31 250.35 120.52 250.12 119.87 249.81C119.21 249.5 118.71 249.14 118.34 248.72C117.98 248.3 117.8 247.84 117.8 247.34C117.8 246.92 117.9 246.53 118.11 246.17C118.32 245.81 118.61 245.52 118.97 245.29C119.75 245.79 120.64 246.25 121.64 246.67C122.64 247.09 123.81 247.3 125.15 247.3C126.4 247.3 127.37 247.09 128.03 246.65C128.7 246.22 129.03 245.6 129.03 244.79C129.03 244.09 128.8 243.54 128.34 243.12C127.88 242.7 127.2 242.38 126.31 242.16L123.47 241.41C121.57 240.91 120.18 240.23 119.29 239.36C118.4 238.5 117.95 237.31 117.95 235.81C117.95 235 118.12 234.24 118.45 233.53C118.78 232.82 119.28 232.21 119.93 231.69C120.58 231.17 121.4 230.77 122.38 230.48C123.35 230.19 124.47 230.04 125.72 230.04C126.72 230.04 127.64 230.12 128.46 230.27C129.28 230.42 129.99 230.63 130.59 230.9C131.19 231.16 131.66 231.49 131.99 231.88C132.32 232.27 132.49 232.69 132.49 233.13C132.49 233.57 132.39 233.96 132.2 234.28C132 234.6 131.75 234.86 131.45 235.05C130.95 234.74 130.2 234.41 129.21 234.05C128.22 233.69 127.16 233.51 126.01 233.51C124.86 233.51 123.92 233.71 123.25 234.12C122.58 234.53 122.25 235.09 122.25 235.81C122.25 236.37 122.44 236.83 122.81 237.19C123.18 237.55 123.83 237.85 124.75 238.07L127.17 238.7C129.29 239.26 130.85 240.01 131.85 240.96C132.85 241.91 133.35 243.19 133.35 244.81L133.39 244.79Z" fill="white"/>
<path d="M152.58 244.79C152.58 246.66 151.88 248.12 150.49 249.18C149.1 250.24 147.08 250.77 144.43 250.77C143.34 250.77 142.34 250.69 141.42 250.52C140.5 250.35 139.71 250.12 139.06 249.81C138.4 249.5 137.9 249.14 137.53 248.72C137.17 248.3 136.99 247.84 136.99 247.34C136.99 246.92 137.09 246.53 137.3 246.17C137.51 245.81 137.8 245.52 138.16 245.29C138.94 245.79 139.83 246.25 140.83 246.67C141.83 247.09 143 247.3 144.34 247.3C145.59 247.3 146.56 247.09 147.22 246.65C147.89 246.22 148.22 245.6 148.22 244.79C148.22 244.09 147.99 243.54 147.53 243.12C147.07 242.7 146.39 242.38 145.5 242.16L142.66 241.41C140.76 240.91 139.37 240.23 138.48 239.36C137.59 238.5 137.14 237.31 137.14 235.81C137.14 235 137.31 234.24 137.64 233.53C137.97 232.82 138.47 232.21 139.12 231.69C139.77 231.17 140.59 230.77 141.57 230.48C142.54 230.19 143.66 230.04 144.91 230.04C145.91 230.04 146.83 230.12 147.65 230.27C148.47 230.42 149.18 230.63 149.78 230.9C150.38 231.16 150.85 231.49 151.18 231.88C151.51 232.27 151.68 232.69 151.68 233.13C151.68 233.57 151.58 233.96 151.39 234.28C151.19 234.6 150.94 234.86 150.64 235.05C150.14 234.74 149.39 234.41 148.4 234.05C147.41 233.69 146.35 233.51 145.2 233.51C144.05 233.51 143.11 233.71 142.44 234.12C141.77 234.53 141.44 235.09 141.44 235.81C141.44 236.37 141.63 236.83 142 237.19C142.37 237.55 143.02 237.85 143.94 238.07L146.36 238.7C148.48 239.26 150.04 240.01 151.04 240.96C152.04 241.91 152.54 243.19 152.54 244.81L152.58 244.79Z" fill="white"/>
<path d="M169.24 234.5C168.47 233.86 167.44 233.54 166.13 233.54C165.15 233.54 164.28 233.66 163.52 233.92C162.76 234.18 162.09 234.45 161.53 234.76V250.1C161.33 250.18 161.06 250.26 160.72 250.33C160.37 250.4 159.99 250.43 159.57 250.43C158.76 250.43 158.16 250.28 157.77 249.97C157.38 249.66 157.19 249.15 157.19 248.42V234.63C157.19 233.99 157.31 233.47 157.57 233.08C157.82 232.69 158.24 232.3 158.82 231.91C159.6 231.44 160.62 231 161.87 230.61C163.12 230.22 164.54 230.03 166.13 230.03C168.83 230.03 170.95 230.64 172.48 231.85C174.01 233.06 174.78 234.89 174.78 237.35V250.1C174.58 250.18 174.31 250.26 173.94 250.33C173.58 250.4 173.19 250.43 172.77 250.43C171.96 250.43 171.36 250.28 170.97 249.97C170.58 249.66 170.39 249.15 170.39 248.42V237.51C170.39 236.14 170.01 235.14 169.24 234.5Z" fill="white"/>
<path d="M183.93 242.61C184.32 244.2 185.08 245.38 186.21 246.14C187.34 246.91 188.78 247.29 190.54 247.29C191.71 247.29 192.78 247.11 193.76 246.75C194.73 246.39 195.52 246 196.1 245.58C196.88 246.03 197.27 246.65 197.27 247.46C197.27 247.93 197.09 248.37 196.73 248.78C196.37 249.18 195.87 249.53 195.25 249.82C194.62 250.11 193.88 250.34 193.04 250.51C192.19 250.68 191.28 250.76 190.3 250.76C188.68 250.76 187.21 250.54 185.89 250.09C184.57 249.64 183.43 248.98 182.48 248.08C181.53 247.19 180.8 246.09 180.28 244.78C179.76 243.47 179.51 241.95 179.51 240.22C179.51 238.49 179.76 237.08 180.26 235.81C180.76 234.54 181.44 233.48 182.31 232.63C183.17 231.78 184.19 231.13 185.36 230.69C186.53 230.24 187.78 230.02 189.12 230.02C190.46 230.02 191.68 230.24 192.78 230.67C193.88 231.1 194.83 231.7 195.62 232.47C196.41 233.24 197.03 234.15 197.46 235.21C197.89 236.27 198.11 237.43 198.11 238.68C198.11 239.38 197.94 239.89 197.61 240.21C197.28 240.53 196.79 240.75 196.15 240.86L183.94 242.61H183.93ZM189.11 233.41C187.58 233.41 186.3 233.93 185.28 234.96C184.26 235.99 183.73 237.47 183.67 239.39L193.95 237.93C193.84 236.68 193.38 235.61 192.57 234.73C191.76 233.85 190.61 233.41 189.1 233.41H189.11Z" fill="white"/>
<path d="M217.33 244.79C217.33 246.66 216.63 248.12 215.24 249.18C213.85 250.24 211.83 250.77 209.18 250.77C208.09 250.77 207.09 250.69 206.17 250.52C205.25 250.35 204.46 250.12 203.81 249.81C203.15 249.5 202.65 249.14 202.28 248.72C201.92 248.3 201.74 247.84 201.74 247.34C201.74 246.92 201.84 246.53 202.05 246.17C202.26 245.81 202.55 245.52 202.91 245.29C203.69 245.79 204.58 246.25 205.58 246.67C206.58 247.09 207.75 247.3 209.09 247.3C210.34 247.3 211.31 247.09 211.97 246.65C212.64 246.22 212.97 245.6 212.97 244.79C212.97 244.09 212.74 243.54 212.28 243.12C211.82 242.7 211.14 242.38 210.25 242.16L207.41 241.41C205.51 240.91 204.12 240.23 203.23 239.36C202.34 238.5 201.89 237.31 201.89 235.81C201.89 235 202.06 234.24 202.39 233.53C202.72 232.82 203.22 232.21 203.87 231.69C204.52 231.17 205.34 230.77 206.32 230.48C207.29 230.19 208.41 230.04 209.66 230.04C210.66 230.04 211.58 230.12 212.4 230.27C213.22 230.42 213.93 230.63 214.53 230.9C215.13 231.16 215.6 231.49 215.93 231.88C216.26 232.27 216.43 232.69 216.43 233.13C216.43 233.57 216.33 233.96 216.14 234.28C215.94 234.6 215.69 234.86 215.39 235.05C214.89 234.74 214.14 234.41 213.15 234.05C212.16 233.69 211.1 233.51 209.95 233.51C208.8 233.51 207.86 233.71 207.19 234.12C206.52 234.53 206.19 235.09 206.19 235.81C206.19 236.37 206.38 236.83 206.75 237.19C207.12 237.55 207.77 237.85 208.69 238.07L211.11 238.7C213.23 239.26 214.79 240.01 215.79 240.96C216.79 241.91 217.29 243.19 217.29 244.81L217.33 244.79Z" fill="white"/>
<path d="M236.52 244.79C236.52 246.66 235.82 248.12 234.43 249.18C233.04 250.24 231.02 250.77 228.37 250.77C227.28 250.77 226.28 250.69 225.36 250.52C224.44 250.35 223.65 250.12 223 249.81C222.34 249.5 221.84 249.14 221.47 248.72C221.11 248.3 220.93 247.84 220.93 247.34C220.93 246.92 221.03 246.53 221.24 246.17C221.45 245.81 221.74 245.52 222.1 245.29C222.88 245.79 223.77 246.25 224.77 246.67C225.77 247.09 226.94 247.3 228.28 247.3C229.53 247.3 230.5 247.09 231.16 246.65C231.83 246.22 232.16 245.6 232.16 244.79C232.16 244.09 231.93 243.54 231.47 243.12C231.01 242.7 230.33 242.38 229.44 242.16L226.6 241.41C224.7 240.91 223.31 240.23 222.42 239.36C221.53 238.5 221.08 237.31 221.08 235.81C221.08 235 221.25 234.24 221.58 233.53C221.91 232.82 222.41 232.21 223.06 231.69C223.71 231.17 224.53 230.77 225.51 230.48C226.48 230.19 227.6 230.04 228.85 230.04C229.85 230.04 230.77 230.12 231.59 230.27C232.41 230.42 233.12 230.63 233.72 230.9C234.32 231.16 234.79 231.49 235.12 231.88C235.45 232.27 235.62 232.69 235.62 233.13C235.62 233.57 235.52 233.96 235.33 234.28C235.13 234.6 234.88 234.86 234.58 235.05C234.08 234.74 233.33 234.41 232.34 234.05C231.35 233.69 230.29 233.51 229.14 233.51C227.99 233.51 227.05 233.71 226.38 234.12C225.71 234.53 225.38 235.09 225.38 235.81C225.38 236.37 225.57 236.83 225.94 237.19C226.31 237.55 226.96 237.85 227.88 238.07L230.3 238.7C232.42 239.26 233.98 240.01 234.98 240.96C235.98 241.91 236.48 243.19 236.48 244.81L236.52 244.79Z" fill="white"/>
<path d="M268.24 240.4C268.24 241.99 268 243.42 267.53 244.71C267.06 245.99 266.39 247.08 265.54 247.97C264.69 248.86 263.65 249.55 262.43 250.04C261.2 250.53 259.84 250.77 258.33 250.77C256.82 250.77 255.46 250.53 254.23 250.04C253 249.55 251.97 248.86 251.12 247.97C250.27 247.08 249.61 245.99 249.13 244.71C248.66 243.43 248.42 241.99 248.42 240.4C248.42 238.81 248.66 237.38 249.13 236.09C249.6 234.81 250.27 233.72 251.14 232.83C252 231.94 253.05 231.25 254.27 230.76C255.5 230.27 256.85 230.03 258.32 230.03C259.79 230.03 261.15 230.27 262.37 230.76C263.6 231.25 264.64 231.94 265.51 232.85C266.37 233.76 267.04 234.84 267.52 236.11C267.99 237.38 268.23 238.81 268.23 240.4H268.24ZM258.33 233.54C256.66 233.54 255.33 234.14 254.36 235.34C253.38 236.54 252.9 238.22 252.9 240.4C252.9 242.58 253.37 244.25 254.32 245.44C255.27 246.62 256.6 247.22 258.33 247.22C260.06 247.22 261.4 246.63 262.34 245.44C263.28 244.25 263.76 242.58 263.76 240.4C263.76 238.22 263.28 236.57 262.32 235.36C261.36 234.15 260.03 233.54 258.33 233.54Z" fill="white"/>
<path d="M277.27 231.83H285.17C285.28 232 285.38 232.23 285.48 232.52C285.58 232.81 285.63 233.15 285.63 233.54C285.63 234.71 285.1 235.29 284.04 235.29H277.39V250.09C277.19 250.17 276.92 250.25 276.57 250.32C276.22 250.39 275.84 250.42 275.42 250.42C274.61 250.42 274.01 250.27 273.62 249.96C273.23 249.65 273.04 249.14 273.04 248.41V229.35C273.04 228.07 273.23 226.97 273.6 226.05C273.98 225.13 274.51 224.38 275.21 223.79C275.91 223.21 276.75 222.77 277.74 222.49C278.73 222.21 279.82 222.07 281.02 222.07C282.75 222.07 284.07 222.29 284.99 222.74C285.91 223.19 286.37 223.81 286.37 224.62C286.37 225.01 286.29 225.35 286.14 225.64C285.99 225.93 285.8 226.19 285.58 226.41C285.05 226.19 284.44 225.99 283.74 225.83C283.04 225.66 282.33 225.58 281.61 225.58C280.05 225.58 278.94 225.89 278.27 226.5C277.6 227.11 277.27 228.12 277.27 229.51V231.81V231.83Z" fill="white"/>
<path d="M303.65 246.58C304.23 247 305.06 247.21 306.12 247.21C306.59 247.21 307.1 247.14 307.62 247C308.14 246.86 308.61 246.69 309 246.5C309.19 246.72 309.37 246.97 309.52 247.25C309.67 247.53 309.75 247.86 309.75 248.25C309.75 248.97 309.38 249.57 308.64 250.05C307.9 250.52 306.78 250.76 305.27 250.76C303.18 250.76 301.52 250.29 300.27 249.36C299.03 248.43 298.41 246.89 298.41 244.74V225.22C298.61 225.16 298.88 225.09 299.25 225.01C299.61 224.93 300 224.88 300.42 224.88C301.23 224.88 301.82 225.03 302.2 225.34C302.58 225.65 302.76 226.16 302.76 226.89V231.03H309.24C309.35 231.2 309.45 231.43 309.55 231.74C309.65 232.05 309.7 232.37 309.7 232.7C309.7 233.9 309.18 234.5 308.15 234.5H302.76V244.45C302.76 245.45 303.05 246.16 303.64 246.58H303.65Z" fill="white"/>
<path d="M326.28 234.61C325.46 233.9 324.38 233.54 323.04 233.54C322.15 233.54 321.33 233.69 320.59 233.98C319.85 234.27 319.2 234.63 318.65 235.05V250.1C318.45 250.18 318.18 250.26 317.83 250.33C317.48 250.4 317.1 250.43 316.68 250.43C315.87 250.43 315.27 250.28 314.88 249.97C314.49 249.66 314.3 249.15 314.3 248.42V223.05C314.49 222.99 314.77 222.92 315.14 222.84C315.5 222.76 315.89 222.71 316.31 222.71C317.12 222.71 317.71 222.86 318.09 223.17C318.47 223.48 318.65 223.99 318.65 224.72V231.32C319.29 230.99 320.04 230.69 320.89 230.42C321.74 230.16 322.69 230.02 323.75 230.02C326.17 230.02 328.13 230.66 329.62 231.94C331.11 233.22 331.86 235.17 331.86 237.79V250.08C331.66 250.16 331.39 250.24 331.02 250.31C330.66 250.38 330.28 250.41 329.89 250.41C329.05 250.41 328.45 250.26 328.07 249.95C327.69 249.64 327.51 249.13 327.51 248.4V237.95C327.51 236.42 327.1 235.3 326.28 234.58V234.61Z" fill="white"/>
<path d="M341.02 242.61C341.41 244.2 342.17 245.38 343.3 246.14C344.43 246.91 345.87 247.29 347.63 247.29C348.8 247.29 349.87 247.11 350.85 246.75C351.82 246.39 352.61 246 353.19 245.58C353.97 246.03 354.36 246.65 354.36 247.46C354.36 247.93 354.18 248.37 353.82 248.78C353.46 249.18 352.96 249.53 352.34 249.82C351.71 250.11 350.97 250.34 350.13 250.51C349.28 250.68 348.37 250.76 347.39 250.76C345.77 250.76 344.3 250.54 342.98 250.09C341.66 249.64 340.52 248.98 339.57 248.08C338.62 247.19 337.89 246.09 337.37 244.78C336.85 243.47 336.6 241.95 336.6 240.22C336.6 238.49 336.85 237.08 337.35 235.81C337.85 234.54 338.53 233.48 339.4 232.63C340.26 231.78 341.28 231.13 342.45 230.69C343.62 230.24 344.87 230.02 346.21 230.02C347.55 230.02 348.77 230.24 349.87 230.67C350.97 231.1 351.92 231.7 352.71 232.47C353.5 233.24 354.12 234.15 354.55 235.21C354.98 236.27 355.2 237.43 355.2 238.68C355.2 239.38 355.03 239.89 354.7 240.21C354.37 240.53 353.88 240.75 353.24 240.86L341.03 242.61H341.02ZM346.2 233.41C344.67 233.41 343.39 233.93 342.37 234.96C341.35 235.99 340.82 237.47 340.76 239.39L351.04 237.93C350.93 236.68 350.47 235.61 349.66 234.73C348.85 233.85 347.7 233.41 346.19 233.41H346.2Z" fill="white"/>
<path d="M391.33 234.4C390.65 233.83 389.72 233.54 388.55 233.54C387.77 233.54 387.02 233.69 386.31 233.98C385.6 234.27 384.95 234.67 384.37 235.17C384.43 235.39 384.47 235.63 384.5 235.88C384.53 236.13 384.54 236.38 384.54 236.63V250.09C384.34 250.17 384.07 250.25 383.7 250.32C383.34 250.39 382.96 250.42 382.57 250.42C381.76 250.42 381.16 250.27 380.77 249.96C380.38 249.65 380.19 249.14 380.19 248.41V237.08C380.19 235.85 379.84 234.96 379.15 234.38C378.45 233.81 377.52 233.52 376.35 233.52C375.57 233.52 374.83 233.64 374.13 233.9C373.43 234.15 372.85 234.43 372.37 234.74V250.08C372.17 250.16 371.9 250.24 371.56 250.31C371.21 250.38 370.83 250.41 370.41 250.41C369.6 250.41 369 250.26 368.61 249.95C368.22 249.64 368.03 249.13 368.03 248.4V234.61C368.03 233.97 368.15 233.45 368.41 233.06C368.66 232.67 369.08 232.28 369.66 231.89C370.47 231.36 371.49 230.92 372.71 230.55C373.94 230.19 375.18 230.01 376.43 230.01C377.68 230.01 378.92 230.19 379.96 230.55C381 230.91 381.86 231.44 382.53 232.14C383.31 231.53 384.24 231.02 385.31 230.61C386.38 230.2 387.63 230 389.05 230C390.14 230 391.15 230.13 392.1 230.4C393.05 230.67 393.86 231.08 394.55 231.65C395.24 232.22 395.77 232.94 396.16 233.8C396.55 234.66 396.74 235.7 396.74 236.89V250.06C396.52 250.14 396.23 250.22 395.88 250.29C395.53 250.36 395.15 250.39 394.73 250.39C393.92 250.39 393.32 250.24 392.93 249.93C392.54 249.62 392.35 249.11 392.35 248.38V237.05C392.35 235.82 392.01 234.93 391.33 234.35V234.4Z" fill="white"/>
<path d="M421.28 240.4C421.28 241.99 421.04 243.42 420.57 244.71C420.1 245.99 419.43 247.08 418.58 247.97C417.73 248.86 416.69 249.55 415.47 250.04C414.24 250.53 412.88 250.77 411.37 250.77C409.86 250.77 408.5 250.53 407.27 250.04C406.04 249.55 405.01 248.86 404.16 247.97C403.31 247.08 402.65 245.99 402.17 244.71C401.7 243.43 401.46 241.99 401.46 240.4C401.46 238.81 401.7 237.38 402.17 236.09C402.64 234.81 403.31 233.72 404.18 232.83C405.04 231.94 406.09 231.25 407.31 230.76C408.54 230.27 409.89 230.03 411.36 230.03C412.83 230.03 414.19 230.27 415.41 230.76C416.64 231.25 417.68 231.94 418.55 232.85C419.41 233.76 420.08 234.84 420.56 236.11C421.03 237.38 421.27 238.81 421.27 240.4H421.28ZM411.37 233.54C409.7 233.54 408.37 234.14 407.4 235.34C406.42 236.54 405.94 238.22 405.94 240.4C405.94 242.58 406.41 244.25 407.36 245.44C408.31 246.62 409.64 247.22 411.37 247.22C413.1 247.22 414.44 246.63 415.38 245.44C416.32 244.25 416.8 242.58 416.8 240.4C416.8 238.22 416.32 236.57 415.36 235.36C414.4 234.15 413.07 233.54 411.37 233.54Z" fill="white"/>
<path d="M438.06 234.5C437.29 233.86 436.26 233.54 434.95 233.54C433.97 233.54 433.1 233.66 432.34 233.92C431.58 234.18 430.91 234.45 430.35 234.76V250.1C430.15 250.18 429.88 250.26 429.54 250.33C429.19 250.4 428.81 250.43 428.39 250.43C427.58 250.43 426.98 250.28 426.59 249.97C426.2 249.66 426.01 249.15 426.01 248.42V234.63C426.01 233.99 426.13 233.47 426.39 233.08C426.64 232.69 427.06 232.3 427.64 231.91C428.42 231.44 429.44 231 430.69 230.61C431.94 230.22 433.36 230.03 434.95 230.03C437.65 230.03 439.77 230.64 441.3 231.85C442.83 233.06 443.6 234.89 443.6 237.35V250.1C443.4 250.18 443.13 250.26 442.76 250.33C442.4 250.4 442.01 250.43 441.59 250.43C440.78 250.43 440.18 250.28 439.79 249.97C439.4 249.66 439.21 249.15 439.21 248.42V237.51C439.21 236.14 438.83 235.14 438.06 234.5Z" fill="white"/>
<path d="M458.15 230.03C458.99 230.03 459.77 230.12 460.51 230.3C461.25 230.48 461.9 230.71 462.45 230.99V223.05C462.65 222.99 462.92 222.92 463.29 222.84C463.65 222.76 464.04 222.71 464.46 222.71C465.27 222.71 465.87 222.86 466.26 223.17C466.65 223.48 466.84 223.99 466.84 224.72V246.62C466.84 247.2 466.72 247.69 466.46 248.06C466.21 248.44 465.82 248.79 465.29 249.13C464.65 249.55 463.78 249.92 462.68 250.26C461.58 250.59 460.32 250.76 458.9 250.76C457.31 250.76 455.86 250.56 454.55 250.15C453.24 249.75 452.13 249.12 451.21 248.27C450.29 247.42 449.58 246.35 449.08 245.05C448.58 243.75 448.33 242.23 448.33 240.47C448.33 238.71 448.59 237.09 449.1 235.77C449.61 234.45 450.32 233.36 451.21 232.51C452.1 231.66 453.14 231.03 454.32 230.63C455.5 230.23 456.78 230.02 458.15 230.02V230.03ZM462.5 234.67C462.03 234.36 461.47 234.1 460.83 233.88C460.19 233.66 459.48 233.55 458.7 233.55C457.86 233.55 457.09 233.67 456.38 233.93C455.67 234.18 455.05 234.59 454.52 235.16C453.99 235.73 453.57 236.46 453.27 237.33C452.96 238.21 452.81 239.27 452.81 240.53C452.81 242.87 453.36 244.57 454.46 245.63C455.56 246.69 457.03 247.22 458.87 247.22C459.71 247.22 460.41 247.13 460.98 246.95C461.55 246.77 462.06 246.55 462.51 246.3V234.68L462.5 234.67Z" fill="white"/>
</g>
<defs>
<filter id="filter0_d_3_5" x="4.68" y="0.379968" width="245.08" height="40.7" filterUnits="userSpaceOnUse" color-interpolation-filters="sRGB">
<feFlood flood-opacity="0" result="BackgroundImageFix"/>
<feColorMatrix in="SourceAlpha" type="matrix" values="0 0 0 0 0 0 0 0 0 0 0 0 0 0 0 0 0 0 127 0" result="hardAlpha"/>
<feOffset dx="-2.4" dy="2.4"/>
<feGaussianBlur stdDeviation="2.4"/>
<feColorMatrix type="matrix" values="0 0 0 0 0 0 0 0 0 0 0 0 0 0 0 0 0 0 0.6 0"/>
<feBlend mode="normal" in2="BackgroundImageFix" result="effect1_dropShadow_3_5"/>
<feBlend mode="normal" in="SourceGraphic" in2="effect1_dropShadow_3_5" result="shape"/>
</filter>
<filter id="filter1_d_3_5" x="0.0117917" y="62.824" width="683.478" height="56.9996" filterUnits="userSpaceOnUse" color-interpolation-filters="sRGB">
<feFlood flood-opacity="0" result="BackgroundImageFix"/>
<feColorMatrix in="SourceAlpha" type="matrix" values="0 0 0 0 0 0 0 0 0 0 0 0 0 0 0 0 0 0 127 0" result="hardAlpha"/>
<feOffset dx="-2.4" dy="2.4"/>
<feGaussianBlur stdDeviation="2.4"/>
<feColorMatrix type="matrix" values="0 0 0 0 0 0 0 0 0 0 0 0 0 0 0 0 0 0 0.6 0"/>
<feBlend mode="normal" in2="BackgroundImageFix" result="effect1_dropShadow_3_5"/>
<feBlend mode="normal" in="SourceGraphic" in2="effect1_dropShadow_3_5" result="shape"/>
</filter>
<filter id="filter2_d_3_5" x="5.02998" y="169.48" width="486.25" height="88.49" filterUnits="userSpaceOnUse" color-interpolation-filters="sRGB">
<feFlood flood-opacity="0" result="BackgroundImageFix"/>
<feColorMatrix in="SourceAlpha" type="matrix" values="0 0 0 0 0 0 0 0 0 0 0 0 0 0 0 0 0 0 127 0" result="hardAlpha"/>
<feOffset dx="-2.4" dy="2.4"/>
<feGaussianBlur stdDeviation="2.4"/>
<feColorMatrix type="matrix" values="0 0 0 0 0 0 0 0 0 0 0 0 0 0 0 0 0 0 0.6 0"/>
<feBlend mode="normal" in2="BackgroundImageFix" result="effect1_dropShadow_3_5"/>
<feBlend mode="normal" in="SourceGraphic" in2="effect1_dropShadow_3_5" result="shape"/>
</filter>
</defs>
</svg>
