<svg width="630" height="267" viewBox="0 0 630 267" fill="none" xmlns="http://www.w3.org/2000/svg">
<g filter="url(#filter0_d_3_3)">
<path d="M43.87 18.43C43.87 22.01 43.16 24.98 41.75 27.34C40.33 29.7 38.44 31.45 36.07 32.59C37.92 33.53 39.57 34.27 41.02 34.81C42.47 35.35 43.91 35.86 45.34 36.35C45.37 36.55 45.39 36.72 45.39 36.86V37.27C45.39 38.54 45.06 39.48 44.39 40.1C43.72 40.72 42.82 41.03 41.68 41.03C40.38 41.03 38.91 40.61 37.29 39.76C35.66 38.91 33.91 37.73 32.02 36.2L29.34 34.05H29.05C26.94 34.05 24.97 33.72 23.15 33.05C21.33 32.38 19.76 31.39 18.44 30.07C17.12 28.75 16.09 27.12 15.34 25.17C14.59 23.22 14.22 20.97 14.22 18.44C14.22 15.91 14.6 13.68 15.37 11.76C16.13 9.84001 17.18 8.21997 18.52 6.90997C19.85 5.58997 21.42 4.59999 23.23 3.92999C25.04 3.25999 26.98 2.92999 29.06 2.92999C31.14 2.92999 33.09 3.25999 34.89 3.92999C36.69 4.59999 38.26 5.58997 39.6 6.90997C40.93 8.22997 41.98 9.85001 42.75 11.76C43.51 13.68 43.9 15.91 43.9 18.44L43.87 18.43ZM37.38 18.43C37.38 15.05 36.62 12.48 35.11 10.72C33.6 8.95997 31.57 8.09003 29.03 8.09003C26.49 8.09003 24.52 8.96997 23 10.72C21.48 12.47 20.73 15.05 20.73 18.43C20.73 21.81 21.48 24.47 22.97 26.21C24.47 27.95 26.48 28.82 29.02 28.82C31.56 28.82 33.58 27.95 35.1 26.21C36.62 24.47 37.37 21.88 37.37 18.43H37.38Z" fill="white"/>
<path d="M48.26 7.35999C48.26 6.70999 48.47 6.12002 48.89 5.58002C49.31 5.04002 49.9 4.58 50.65 4.19C51.4 3.8 52.3 3.49998 53.36 3.28998C54.42 3.07998 55.56 2.96997 56.8 2.96997C58.56 2.96997 60.11 3.19 61.46 3.63C62.81 4.07 63.95 4.68002 64.88 5.46002C65.81 6.24002 66.51 7.16999 66.98 8.23999C67.45 9.30999 67.69 10.5 67.69 11.8C67.69 13.56 67.21 15.26 66.25 16.92C65.29 18.58 63.7 20.35 61.49 22.24L54.37 28.44H67.45C67.61 28.7 67.76 29.04 67.89 29.47C68.02 29.89 68.09 30.35 68.09 30.84C68.09 31.69 67.89 32.31 67.5 32.72C67.11 33.13 66.57 33.33 65.89 33.33H48.81C48.29 32.97 47.88 32.52 47.59 31.96C47.3 31.41 47.15 30.76 47.15 30.01C47.15 29.2 47.32 28.5 47.66 27.91C48 27.32 48.4 26.82 48.86 26.4L56.62 19.32C58.44 17.69 59.69 16.34 60.38 15.25C61.07 14.16 61.4 13.09 61.4 12.05C61.4 10.85 60.96 9.87 60.08 9.12C59.2 8.37 57.92 8 56.23 8C54.86 8 53.64 8.21997 52.57 8.65997C51.5 9.09997 50.6 9.57998 49.89 10.1C49.43 9.83998 49.05 9.48003 48.74 9.03003C48.43 8.57003 48.28 8.02 48.28 7.37L48.26 7.35999Z" fill="white"/>
</g>
<g filter="url(#filter1_d_3_3)">
<path d="M58.96 70.19C59.32 68.84 59.97 67.89 60.92 67.35C61.87 66.81 62.84 66.63 63.83 66.81C64.82 66.99 65.66 67.5 66.33 68.33C67.01 69.16 67.25 70.26 67.07 71.61C66.8 73.32 66.45 75.04 66.02 76.75C65.59 78.46 65.13 80.16 64.63 81.82C63.95 83.99 63.2 86.1 62.36 88.18C61.53 90.25 60.75 92.37 60.03 94.54C59.31 96.57 58.58 98.59 57.83 100.59C57.09 102.6 56.31 104.61 55.5 106.64C55.23 107.32 54.95 108.03 54.65 108.77C54.36 109.51 53.98 110.16 53.53 110.7C52.85 111.6 51.93 112.14 50.76 112.32C49.59 112.5 48.55 112.21 47.65 111.44C46.93 110.81 46.41 110.03 46.09 109.11C45.77 108.19 45.44 107.3 45.08 106.44C44.67 105.36 44.21 104.16 43.69 102.86C43.17 101.55 42.73 100.38 42.37 99.34C41.6 97.31 40.87 95.27 40.17 93.22C39.47 91.17 38.74 89.13 37.97 87.1C37.34 88.99 36.67 90.83 35.97 92.61C35.27 94.39 34.61 96.21 33.97 98.05C33.47 99.27 33 100.48 32.55 101.7C32.1 102.92 31.63 104.11 31.13 105.28C30.81 106.09 30.56 106.71 30.35 107.14C30.15 107.57 29.82 108.23 29.37 109.14C29.05 109.86 28.58 110.5 27.95 111.07C27.32 111.63 26.65 112.02 25.95 112.22C25.25 112.42 24.54 112.41 23.82 112.19C23.1 111.96 22.47 111.42 21.93 110.57C21.16 109.4 20.63 108.02 20.34 106.45C20.05 104.87 19.7 103.43 19.29 102.12C19.02 101.31 18.76 100.5 18.51 99.69C18.26 98.88 18 98.09 17.73 97.32C17.46 96.51 17.18 95.7 16.88 94.89C16.59 94.08 16.31 93.29 16.03 92.52C15.13 89.91 14.19 87.3201 13.22 84.7801C12.25 82.2301 11.27 79.67 10.28 77.1C10.1 76.56 9.85002 76.01 9.54002 75.44C9.22002 74.88 8.93003 74.29 8.66003 73.68C8.39003 73.07 8.18003 72.46 8.02003 71.85C7.86003 71.24 7.81004 70.64 7.85004 70.06C7.94004 69.29 8.22003 68.64 8.70003 68.1C9.17003 67.56 9.73003 67.17 10.36 66.92C10.99 66.67 11.67 66.58 12.39 66.65C13.11 66.72 13.77 67 14.35 67.5C15.57 68.54 16.48 69.91 17.09 71.63C17.7 73.34 18.27 74.92 18.81 76.36C19.44 77.94 20.03 79.53 20.57 81.13C21.11 82.73 21.7 84.32 22.33 85.9C22.96 87.6101 23.57 89.3 24.16 90.97C24.75 92.64 25.31 94.33 25.85 96.04C26.03 95.63 26.19 95.22 26.32 94.79C26.46 94.36 26.61 93.92 26.79 93.47C27.69 91.22 28.54 88.98 29.33 86.77C30.12 84.56 30.85 82.31 31.53 80.01C31.76 79.38 31.95 78.74 32.11 78.08C32.27 77.43 32.44 76.78 32.62 76.15C32.93 75.07 33.14 74.22 33.23 73.61C33.32 73 33.59 72.34 34.04 71.61C34.45 70.98 34.99 70.52 35.66 70.22C36.34 69.93 37.03 69.79 37.76 69.81C38.48 69.83 39.15 70.02 39.76 70.39C40.37 70.75 40.83 71.29 41.15 72.01C41.29 72.28 41.46 72.7 41.69 73.26C41.92 73.82 42.14 74.4301 42.37 75.0901C42.6 75.7401 42.82 76.35 43.05 76.92C43.28 77.48 43.43 77.9 43.52 78.17C44.06 79.61 44.58 81.03 45.08 82.43C45.58 83.83 46.07 85.25 46.57 86.69C47.2 88.54 47.84 90.35 48.5 92.13C49.15 93.91 49.82 95.68 50.5 97.44C50.91 96.27 51.29 95.07 51.65 93.86C52.01 92.64 52.42 91.4501 52.87 90.2801C54.09 87.0301 55.25 83.79 56.35 80.54C57.45 77.29 58.3 73.98 58.89 70.6L58.96 70.19Z" fill="white"/>
<path d="M97.24 101.03C98.05 101.08 98.76 101.29 99.37 101.67C99.98 102.05 100.47 102.52 100.86 103.06C101.24 103.6 101.47 104.22 101.54 104.92C101.61 105.62 101.46 106.33 101.1 107.05C100.96 107.37 100.68 107.74 100.25 108.17C99.82 108.6 99.43 108.86 99.07 108.95C96.18 109.81 93.22 110.34 90.18 110.54C87.14 110.74 84.13 110.69 81.15 110.37C80.29 110.28 79.36 110.19 78.34 110.1C77.33 110.01 76.43 109.72 75.67 109.22C74.27 108.32 73.57 107.03 73.57 105.37V76.56C73.07 76.2 72.67 75.75 72.35 75.21C72.03 74.67 71.84 74.09 71.78 73.49C71.71 72.88 71.79 72.3 72.02 71.73C72.25 71.17 72.63 70.6801 73.17 70.2801C74.07 69.5601 75.11 69.07 76.28 68.83C77.45 68.58 78.6 68.37 79.73 68.19C82.07 67.83 84.42 67.65 86.76 67.65C89.1 67.65 91.49 67.63 93.93 67.58C94.65 67.58 95.49 67.52 96.43 67.41C97.38 67.3 98.21 67.38 98.93 67.65C99.79 67.97 100.46 68.46 100.96 69.14C101.46 69.82 101.75 70.54 101.84 71.3C101.93 72.07 101.78 72.8101 101.4 73.5301C101.02 74.2501 100.35 74.82 99.4 75.22C98.27 75.67 97.07 75.87 95.78 75.83C94.49 75.79 93.27 75.76 92.09 75.76C90.38 75.76 88.66 75.78 86.95 75.83C85.24 75.87 83.52 76.01 81.81 76.24V85.64C83.43 85.73 85.06 85.73 86.68 85.64C88.3 85.55 89.93 85.44 91.55 85.3C92.27 85.26 92.99 85.19 93.71 85.1C94.43 85.01 95.17 85.01 95.94 85.1C96.93 85.23 97.7 85.64 98.24 86.32C98.78 87 99.11 87.75 99.22 88.59C99.33 89.42 99.19 90.25 98.78 91.06C98.37 91.87 97.72 92.46 96.82 92.82C96.05 93.14 95.02 93.3701 93.71 93.5301C92.4 93.6901 91.03 93.8 89.58 93.87C88.14 93.94 86.72 93.97 85.32 93.97C83.92 93.97 82.75 93.95 81.8 93.9V102.22C84.28 102.54 86.78 102.58 89.31 102.35C91.83 102.13 94.31 101.7 96.75 101.06H97.22L97.24 101.03Z" fill="white"/>
<path d="M113.33 111.04C111.39 110.81 110.21 110.17 109.78 109.11C109.35 108.05 109.34 106.89 109.75 105.63V78.17C109.03 78.17 108.39 77.98 107.82 77.59C107.26 77.21 106.81 76.72 106.47 76.14C106.13 75.55 105.96 74.91 105.96 74.21C105.96 73.51 106.16 72.87 106.57 72.28C107.47 70.93 108.63 69.87 110.05 69.1C111.47 68.33 112.95 67.7 114.48 67.21C116.87 66.44 119.27 66.02 121.68 65.92C124.09 65.83 126.47 66.33 128.82 67.41C130.94 68.4 132.61 69.69 133.82 71.26C135.04 72.84 135.8 74.52 136.12 76.3C136.43 78.08 136.28 79.91 135.65 81.78C135.02 83.65 133.89 85.4 132.27 87.02C134.39 88.37 135.9 89.99 136.8 91.86C137.7 93.73 138.07 95.66 137.92 97.64C137.76 99.63 137.13 101.54 136.03 103.39C134.92 105.24 133.43 106.84 131.53 108.19C130.4 109 129.08 109.62 127.57 110.05C126.06 110.48 124.5 110.78 122.9 110.96C121.3 111.14 119.71 111.23 118.13 111.23C116.55 111.23 115.11 111.18 113.8 111.09L113.33 111.02V111.04ZM118 83.45H120.44C121.25 83.45 122.05 83.37 122.84 83.21C123.63 83.05 124.4 82.79 125.14 82.43C125.88 82.07 126.55 81.55 127.14 80.87C128 79.92 128.3 78.92 128.05 77.86C127.8 76.8 127.16 75.96 126.12 75.32C124.95 74.55 123.62 74.16 122.13 74.14C120.64 74.12 119.27 74.29 118 74.65V83.44V83.45ZM127.74 93.87C126.93 93.33 126.14 92.92 125.37 92.65C124.6 92.38 123.83 92.2 123.04 92.11C122.25 92.02 121.45 92 120.64 92.04C119.83 92.09 118.95 92.13 118 92.18V103C118.99 103 120.05 102.97 121.18 102.9C122.31 102.83 123.39 102.65 124.43 102.36C125.47 102.07 126.44 101.65 127.34 101.11C128.24 100.57 128.96 99.83 129.5 98.88C129.64 97.8 129.61 96.86 129.43 96.07C129.25 95.28 128.69 94.55 127.74 93.87Z" fill="white"/>
<path d="M146.74 106.1C146.24 105.33 145.95 104.53 145.86 103.7C145.77 102.87 145.88 102.1 146.2 101.4C146.51 100.7 147.02 100.15 147.72 99.74C148.42 99.33 149.26 99.18 150.26 99.27C151.34 99.36 152.27 99.73 153.03 100.39C153.8 101.04 154.57 101.65 155.36 102.22C156.15 102.78 156.99 103.17 157.9 103.37C158.8 103.57 159.91 103.27 161.21 102.46C161.52 102.23 161.8 102 162.02 101.75C162.25 101.5 162.47 101.24 162.7 100.97C162.97 100.61 163.17 100.3 163.31 100.06C163.45 99.81 163.58 99.48 163.72 99.08C163.99 98.31 164.17 97.59 164.26 96.92C164.35 96.24 164.35 95.52 164.26 94.75C163.58 93.49 162.74 92.65 161.72 92.25C160.71 91.84 159.65 91.5799 158.54 91.4699C157.43 91.3599 156.34 91.23 155.26 91.1C154.18 90.96 153.25 90.56 152.49 89.88C151.81 89.29 151.4 88.62 151.24 87.85C151.08 87.08 151.13 86.35 151.38 85.65C151.63 84.95 152.06 84.33 152.67 83.79C153.28 83.25 154.01 82.91 154.87 82.78C155.55 82.65 156.28 82.5199 157.07 82.41C157.86 82.3 158.61 82.12 159.34 81.87C160.06 81.62 160.74 81.29 161.37 80.89C162 80.48 162.52 79.94 162.93 79.27C162.97 78.77 162.99 78.29 162.96 77.82C162.94 77.35 162.81 76.88 162.59 76.43C162.14 76.02 161.5 75.74 160.66 75.58C159.83 75.42 158.95 75.36 158.02 75.38C157.1 75.4 156.23 75.5 155.42 75.68C154.61 75.86 153.95 76.06 153.46 76.29C152.38 77.37 151.27 77.88 150.15 77.81C149.02 77.74 148.08 77.35 147.31 76.63C146.54 75.91 146.07 75.01 145.89 73.92C145.71 72.84 146.03 71.87 146.84 71.01C147.47 70.29 148.18 69.72 148.97 69.29C149.76 68.86 150.63 68.51 151.57 68.24C153.87 67.61 156.27 67.28 158.77 67.26C161.27 67.24 163.61 67.79 165.77 68.92C167.53 69.82 168.85 71.02 169.73 72.5C170.61 73.99 171.11 75.57 171.22 77.23C171.33 78.9 171.07 80.56 170.44 82.2C169.81 83.85 168.84 85.3 167.53 86.56C169.15 87.69 170.38 88.98 171.22 90.45C172.05 91.92 172.57 93.43 172.78 94.98C172.98 96.54 172.89 98.11 172.51 99.71C172.13 101.31 171.48 102.81 170.58 104.21C169.68 105.61 168.56 106.88 167.23 108.03C165.9 109.18 164.4 110.09 162.73 110.77C161.29 111.36 159.87 111.63 158.47 111.58C157.07 111.54 155.71 111.29 154.38 110.84C153.05 110.39 151.76 109.77 150.53 108.98C149.29 108.19 148.13 107.32 147.05 106.38L146.78 106.11L146.74 106.1Z" fill="white"/>
<path d="M191.79 105.7C191.79 106.83 191.53 107.79 191.01 108.57C190.49 109.36 189.85 109.96 189.08 110.36C188.31 110.77 187.47 110.98 186.54 111C185.62 111.02 184.75 110.86 183.94 110.53C183.13 110.19 182.44 109.66 181.88 108.94C181.32 108.22 180.99 107.29 180.9 106.17C180.81 105 181.02 104.02 181.54 103.23C182.06 102.44 182.72 101.84 183.54 101.44C184.35 101.03 185.23 100.82 186.18 100.8C187.13 100.78 188.02 100.93 188.85 101.27C189.68 101.61 190.38 102.15 190.95 102.89C191.51 103.63 191.8 104.57 191.8 105.7H191.79Z" fill="white"/>
<path d="M231.55 93.05C230.96 96.34 229.84 99.49 228.17 102.48C226.5 105.48 224.18 107.9 221.2 109.75C219.71 110.47 218.13 110.94 216.47 111.17C214.8 111.39 213.16 111.37 211.53 111.1C209.91 110.83 208.37 110.28 206.93 109.44C205.49 108.61 204.25 107.49 203.21 106.09C200.96 103.02 199.5 99.85 198.85 96.55C198.2 93.26 198.16 89.79 198.75 86.13C199.16 83.56 199.87 81.01 200.88 78.49C201.89 75.97 203.33 73.76 205.17 71.86C206.66 70.33 208.3 69.17 210.11 68.38C211.91 67.59 213.75 67.17 215.62 67.13C217.49 67.09 219.34 67.42 221.17 68.14C223 68.86 224.68 69.94 226.21 71.39C227.74 72.83 228.95 74.42 229.83 76.16C230.71 77.9 231.33 79.69 231.69 81.54C232.05 83.39 232.21 85.29 232.16 87.26C232.11 89.22 231.91 91.15 231.55 93.04V93.05ZM223.77 91.7C224.04 90.35 224.15 88.75 224.11 86.9C224.06 85.05 223.76 83.27 223.2 81.56C222.64 79.85 221.78 78.4 220.63 77.23C219.48 76.06 217.91 75.47 215.93 75.47C213.77 75.47 212.03 76.17 210.72 77.57C209.41 78.97 208.43 80.67 207.78 82.68C207.13 84.69 206.73 86.76 206.6 88.9C206.47 91.04 206.51 92.86 206.74 94.34C206.88 95.33 207.11 96.37 207.45 97.45C207.79 98.53 208.23 99.52 208.77 100.43C209.31 101.33 210 102.05 210.83 102.59C211.66 103.13 212.67 103.38 213.84 103.33C215.46 103.24 216.83 102.87 217.93 102.21C219.03 101.56 219.97 100.72 220.74 99.71C221.51 98.7 222.13 97.52 222.6 96.19C223.07 94.86 223.45 93.47 223.72 92.03L223.79 91.69L223.77 91.7Z" fill="white"/>
<path d="M294.32 107.46C294.18 108.45 293.85 109.3 293.31 110C292.77 110.7 292.15 111.18 291.45 111.45C290.75 111.72 290.01 111.75 289.22 111.55C288.43 111.35 287.7 110.82 287.02 109.96C286.43 109.24 286.11 108.44 286.04 107.56C285.97 106.68 285.85 105.81 285.67 104.96C285.22 102.48 284.56 99.93 283.71 97.32C280.91 97.37 278.14 97.39 275.39 97.39C272.64 97.39 269.89 97.41 267.14 97.46C266.73 98.63 266.38 99.83 266.09 101.04C265.8 102.26 265.51 103.45 265.24 104.62C265.01 105.52 264.81 106.46 264.63 107.43C264.45 108.4 264.04 109.25 263.41 109.97C262.64 110.87 261.82 111.38 260.94 111.49C260.06 111.6 259.27 111.46 258.57 111.05C257.87 110.64 257.31 110.02 256.88 109.19C256.45 108.36 256.31 107.4 256.44 106.31C256.58 104.91 256.85 103.54 257.25 102.19C257.66 100.84 258.04 99.48 258.4 98.13C260.43 90.38 263.04 82.87 266.25 75.61C266.52 74.98 266.8 74.37 267.1 73.78C267.4 73.19 267.68 72.61 267.95 72.02C268.26 71.39 268.58 70.71 268.9 69.99C269.21 69.27 269.59 68.6 270.02 67.99C270.45 67.38 270.96 66.86 271.54 66.43C272.13 66 272.85 65.79 273.7 65.79C274.83 65.79 275.77 66.15 276.54 66.87C279.61 69.94 282.13 73.4 284.11 77.25C286.09 81.1 287.87 85.04 289.45 89.05C290.4 89.01 291.32 89.01 292.22 89.05C293.12 89.09 293.93 89.5 294.65 90.27C295.28 90.9 295.65 91.58 295.77 92.3C295.88 93.02 295.81 93.72 295.57 94.4C295.32 95.08 294.92 95.66 294.35 96.16C293.79 96.66 293.1 96.99 292.29 97.17C292.74 98.75 293.14 100.36 293.47 102C293.81 103.65 294.09 105.3 294.32 106.97V107.44V107.46ZM280.52 89.06C279.66 87.03 278.75 85.01 277.78 83.01C276.81 81.01 275.72 79.1 274.5 77.3C273.6 79.28 272.75 81.26 271.96 83.22C271.17 85.18 270.44 87.18 269.76 89.21C271.88 89.17 273.74 89.14 275.34 89.14C276.94 89.14 278.66 89.12 280.51 89.07L280.52 89.06Z" fill="white"/>
<path d="M326.58 69.31C326.85 68.41 327.29 67.66 327.9 67.08C328.51 66.49 329.17 66.11 329.9 65.93C330.62 65.75 331.35 65.8 332.1 66.07C332.84 66.34 333.49 66.88 334.03 67.69C334.21 67.92 334.38 68.19 334.54 68.5C334.7 68.82 334.78 69.11 334.78 69.38C334.87 75.83 334.84 82.26 334.68 88.69C334.52 95.11 334.26 101.55 333.9 108C333.9 109.04 333.57 109.85 332.92 110.43C332.27 111.01 331.52 111.39 330.69 111.55C329.86 111.71 329.01 111.62 328.15 111.28C327.29 110.94 326.66 110.37 326.26 109.56C326.21 109.51 326.19 109.47 326.19 109.42V109.56C323.26 104.74 320.17 100.1 316.92 95.66C313.67 91.22 310.29 86.81 306.77 82.44V102.93C306.77 104.33 306.75 105.47 306.7 106.35C306.65 107.23 306.6 107.92 306.53 108.41C306.46 108.91 306.36 109.33 306.23 109.7C305.82 110.78 305.2 111.5 304.37 111.86C303.54 112.22 302.69 112.31 301.83 112.13C300.97 111.95 300.23 111.5 299.6 110.78C298.97 110.06 298.65 109.16 298.65 108.07V89.2C298.65 87.31 298.64 85.54 298.62 83.89C298.6 82.24 298.59 80.86 298.59 79.73C298.59 78.2 298.57 76.68 298.52 75.17C298.47 73.66 298.47 72.14 298.52 70.6C298.52 69.83 298.71 69.18 299.09 68.64C299.47 68.1 299.96 67.68 300.54 67.39C301.13 67.1 301.76 66.93 302.43 66.88C303.1 66.83 303.76 66.92 304.39 67.15C304.93 67.33 305.48 67.7 306.05 68.27C306.61 68.83 307.17 69.44 307.71 70.1C308.25 70.75 308.76 71.41 309.23 72.06C309.7 72.71 310.1 73.24 310.41 73.65C311.58 75.09 312.93 76.75 314.47 78.62C316 80.49 317.42 82.26 318.73 83.93C320.04 85.64 321.31 87.36 322.55 89.07C323.79 90.78 325 92.5 326.17 94.21C326.31 90.11 326.4 86.03 326.44 81.97C326.48 77.91 326.51 73.83 326.51 69.73L326.58 69.32V69.31Z" fill="white"/>
<path d="M346.73 111.99C345.56 111.76 344.55 111.22 343.72 110.37C342.89 109.51 342.47 108.45 342.47 107.19V78.72C341.66 78.85 340.87 78.75 340.1 78.42C339.33 78.08 338.72 77.63 338.27 77.07C337.82 76.51 337.56 75.85 337.49 75.11C337.42 74.37 337.66 73.66 338.2 72.98C338.79 72.21 339.49 71.57 340.3 71.05C341.11 70.53 341.97 70.1 342.87 69.76C343.77 69.42 344.71 69.14 345.68 68.91C346.65 68.69 347.58 68.48 348.49 68.3C351.01 67.89 353.54 67.79 356.06 68C358.58 68.2 360.97 68.75 363.23 69.66C365.48 70.56 367.55 71.82 369.42 73.45C371.29 75.07 372.81 77.1 373.98 79.54C374.7 81.03 375.22 82.57 375.54 84.17C375.85 85.77 376.04 87.38 376.08 89.01C376.12 91.13 375.88 93.18 375.34 95.16C374.8 97.14 373.99 99 372.9 100.74C371.82 102.48 370.51 104.02 368.98 105.37C367.45 106.72 365.73 107.85 363.84 108.75C362.17 109.52 360.4 110.08 358.53 110.44C356.66 110.8 354.82 111.12 353.02 111.39C352.12 111.53 351.16 111.67 350.15 111.83C349.14 111.99 348.15 112.07 347.21 112.07L346.74 112L346.73 111.99ZM354.03 76.08C353.44 76.08 352.89 76.1 352.37 76.15C351.85 76.19 351.3 76.26 350.71 76.35V103.47C350.98 103.47 351.21 103.45 351.39 103.4C351.57 103.36 351.75 103.33 351.93 103.33C352.11 103.33 352.27 103.31 352.4 103.26C353.03 103.17 353.55 103.1 353.96 103.06C354.37 103.02 354.75 102.96 355.11 102.89C355.47 102.82 355.84 102.74 356.23 102.65C356.61 102.56 357.05 102.45 357.55 102.31C360.16 101.63 362.23 100.56 363.74 99.1C365.25 97.64 366.39 95.62 367.16 93.05C367.66 91.56 367.88 90.05 367.84 88.52C367.79 86.99 367.51 85.52 366.99 84.12C366.47 82.72 365.72 81.45 364.72 80.3C363.73 79.15 362.51 78.24 361.07 77.56C359.9 77.02 358.74 76.66 357.59 76.48C356.44 76.3 355.26 76.17 354.04 76.07L354.03 76.08Z" fill="white"/>
<path d="M449.87 70.19C450.23 68.84 450.88 67.89 451.83 67.35C452.78 66.81 453.75 66.63 454.74 66.81C455.73 66.99 456.57 67.5 457.24 68.33C457.92 69.16 458.16 70.26 457.98 71.61C457.71 73.32 457.36 75.04 456.93 76.75C456.5 78.46 456.04 80.16 455.54 81.82C454.86 83.99 454.11 86.1 453.27 88.18C452.44 90.25 451.66 92.37 450.94 94.54C450.22 96.57 449.49 98.59 448.74 100.59C448 102.6 447.22 104.61 446.41 106.64C446.14 107.32 445.86 108.03 445.56 108.77C445.27 109.51 444.89 110.16 444.44 110.7C443.76 111.6 442.84 112.14 441.67 112.32C440.5 112.5 439.46 112.21 438.56 111.44C437.84 110.81 437.32 110.03 437 109.11C436.68 108.19 436.35 107.3 435.99 106.44C435.58 105.36 435.12 104.16 434.6 102.86C434.08 101.55 433.64 100.38 433.28 99.34C432.51 97.31 431.78 95.27 431.08 93.22C430.38 91.17 429.65 89.13 428.88 87.1C428.25 88.99 427.58 90.83 426.88 92.61C426.18 94.39 425.52 96.21 424.88 98.05C424.38 99.27 423.91 100.48 423.46 101.7C423.01 102.92 422.54 104.11 422.04 105.28C421.72 106.09 421.47 106.71 421.26 107.14C421.06 107.57 420.73 108.23 420.28 109.14C419.96 109.86 419.49 110.5 418.86 111.07C418.23 111.63 417.56 112.02 416.86 112.22C416.16 112.42 415.45 112.41 414.73 112.19C414.01 111.96 413.38 111.42 412.84 110.57C412.07 109.4 411.54 108.02 411.25 106.45C410.96 104.87 410.61 103.43 410.2 102.12C409.93 101.31 409.67 100.5 409.42 99.69C409.17 98.88 408.91 98.09 408.64 97.32C408.37 96.51 408.09 95.7 407.79 94.89C407.5 94.08 407.22 93.29 406.94 92.52C406.04 89.91 405.1 87.3201 404.13 84.7801C403.16 82.2301 402.18 79.67 401.19 77.1C401.01 76.56 400.76 76.01 400.45 75.44C400.13 74.88 399.84 74.29 399.57 73.68C399.3 73.07 399.09 72.46 398.93 71.85C398.77 71.24 398.72 70.64 398.76 70.06C398.85 69.29 399.13 68.64 399.61 68.1C400.08 67.56 400.64 67.17 401.27 66.92C401.9 66.67 402.58 66.58 403.3 66.65C404.02 66.72 404.68 67 405.26 67.5C406.48 68.54 407.39 69.91 408 71.63C408.61 73.34 409.18 74.92 409.72 76.36C410.35 77.94 410.94 79.53 411.48 81.13C412.02 82.73 412.61 84.32 413.24 85.9C413.87 87.6101 414.48 89.3 415.07 90.97C415.66 92.64 416.22 94.33 416.76 96.04C416.94 95.63 417.1 95.22 417.23 94.79C417.37 94.36 417.52 93.92 417.7 93.47C418.6 91.22 419.45 88.98 420.24 86.77C421.03 84.56 421.76 82.31 422.44 80.01C422.67 79.38 422.86 78.74 423.02 78.08C423.18 77.43 423.35 76.78 423.53 76.15C423.84 75.07 424.05 74.22 424.14 73.61C424.23 73 424.5 72.34 424.95 71.61C425.36 70.98 425.9 70.52 426.57 70.22C427.25 69.93 427.94 69.79 428.67 69.81C429.39 69.83 430.06 70.02 430.67 70.39C431.28 70.75 431.74 71.29 432.06 72.01C432.2 72.28 432.37 72.7 432.6 73.26C432.83 73.82 433.05 74.4301 433.28 75.0901C433.51 75.7401 433.73 76.35 433.96 76.92C434.19 77.48 434.34 77.9 434.43 78.17C434.97 79.61 435.49 81.03 435.99 82.43C436.49 83.83 436.98 85.25 437.48 86.69C438.11 88.54 438.75 90.35 439.41 92.13C440.06 93.91 440.73 95.68 441.41 97.44C441.82 96.27 442.2 95.07 442.56 93.86C442.92 92.64 443.33 91.4501 443.78 90.2801C445 87.0301 446.16 83.79 447.26 80.54C448.36 77.29 449.21 73.98 449.8 70.6L449.87 70.19Z" fill="white"/>
<path d="M488.15 101.03C488.96 101.08 489.67 101.29 490.28 101.67C490.89 102.05 491.38 102.52 491.77 103.06C492.15 103.6 492.38 104.22 492.45 104.92C492.52 105.62 492.37 106.33 492.01 107.05C491.87 107.37 491.59 107.74 491.16 108.17C490.73 108.6 490.34 108.86 489.98 108.95C487.09 109.81 484.13 110.34 481.09 110.54C478.05 110.74 475.04 110.69 472.06 110.37C471.2 110.28 470.27 110.19 469.25 110.1C468.24 110.01 467.34 109.72 466.58 109.22C465.18 108.32 464.48 107.03 464.48 105.37V76.56C463.98 76.2 463.58 75.75 463.26 75.21C462.94 74.67 462.75 74.09 462.69 73.49C462.62 72.88 462.7 72.3 462.93 71.73C463.16 71.17 463.54 70.6801 464.08 70.2801C464.98 69.5601 466.02 69.07 467.19 68.83C468.36 68.58 469.51 68.37 470.64 68.19C472.98 67.83 475.33 67.65 477.67 67.65C480.01 67.65 482.4 67.63 484.84 67.58C485.56 67.58 486.4 67.52 487.34 67.41C488.29 67.3 489.12 67.38 489.84 67.65C490.7 67.97 491.37 68.46 491.87 69.14C492.37 69.82 492.66 70.54 492.75 71.3C492.84 72.07 492.69 72.8101 492.31 73.5301C491.93 74.2501 491.26 74.82 490.31 75.22C489.18 75.67 487.98 75.87 486.69 75.83C485.4 75.79 484.18 75.76 483 75.76C481.29 75.76 479.57 75.78 477.86 75.83C476.15 75.87 474.43 76.01 472.72 76.24V85.64C474.34 85.73 475.97 85.73 477.59 85.64C479.21 85.55 480.84 85.44 482.46 85.3C483.18 85.26 483.9 85.19 484.62 85.1C485.34 85.01 486.08 85.01 486.85 85.1C487.84 85.23 488.61 85.64 489.15 86.32C489.69 87 490.02 87.75 490.13 88.59C490.24 89.42 490.1 90.25 489.69 91.06C489.28 91.87 488.63 92.46 487.73 92.82C486.96 93.14 485.93 93.3701 484.62 93.5301C483.31 93.6901 481.94 93.8 480.49 93.87C479.05 93.94 477.63 93.97 476.23 93.97C474.83 93.97 473.66 93.95 472.71 93.9V102.22C475.19 102.54 477.69 102.58 480.22 102.35C482.74 102.13 485.22 101.7 487.66 101.06H488.13L488.15 101.03Z" fill="white"/>
<path d="M504.25 111.04C502.31 110.81 501.13 110.17 500.7 109.11C500.27 108.05 500.26 106.89 500.67 105.63V78.17C499.95 78.17 499.31 77.98 498.74 77.59C498.18 77.21 497.73 76.72 497.39 76.14C497.05 75.55 496.88 74.91 496.88 74.21C496.88 73.51 497.08 72.87 497.49 72.28C498.39 70.93 499.55 69.87 500.97 69.1C502.39 68.33 503.87 67.7 505.4 67.21C507.79 66.44 510.19 66.02 512.6 65.92C515.01 65.83 517.39 66.33 519.74 67.41C521.86 68.4 523.53 69.69 524.74 71.26C525.96 72.84 526.72 74.52 527.04 76.3C527.35 78.08 527.2 79.91 526.57 81.78C525.94 83.65 524.81 85.4 523.19 87.02C525.31 88.37 526.82 89.99 527.72 91.86C528.62 93.73 528.99 95.66 528.84 97.64C528.68 99.63 528.05 101.54 526.95 103.39C525.84 105.24 524.35 106.84 522.45 108.19C521.32 109 520 109.62 518.49 110.05C516.98 110.48 515.42 110.78 513.82 110.96C512.22 111.14 510.63 111.23 509.05 111.23C507.47 111.23 506.03 111.18 504.72 111.09L504.25 111.02V111.04ZM508.92 83.45H511.36C512.17 83.45 512.97 83.37 513.76 83.21C514.55 83.05 515.32 82.79 516.06 82.43C516.8 82.07 517.47 81.55 518.06 80.87C518.92 79.92 519.22 78.92 518.97 77.86C518.72 76.8 518.08 75.96 517.04 75.32C515.87 74.55 514.54 74.16 513.05 74.14C511.56 74.12 510.19 74.29 508.92 74.65V83.44V83.45ZM518.66 93.87C517.85 93.33 517.06 92.92 516.29 92.65C515.52 92.38 514.75 92.2 513.96 92.11C513.17 92.02 512.37 92 511.56 92.04C510.75 92.09 509.87 92.13 508.92 92.18V103C509.91 103 510.97 102.97 512.1 102.9C513.23 102.83 514.31 102.65 515.35 102.36C516.39 102.07 517.36 101.65 518.26 101.11C519.16 100.57 519.88 99.83 520.42 98.88C520.56 97.8 520.53 96.86 520.35 96.07C520.17 95.28 519.61 94.55 518.66 93.87Z" fill="white"/>
<path d="M554.63 77.63C553.86 76.05 552.89 75.23 551.72 75.16C550.55 75.09 549.22 75.55 547.73 76.55C547.01 77 546.23 77.63 545.4 78.44C544.57 79.25 543.7 79.93 542.8 80.47C541.9 81.01 540.98 81.28 540.06 81.28C539.14 81.28 538.22 80.72 537.32 79.59C536.55 78.64 536.27 77.67 536.47 76.68C536.67 75.69 537.11 74.75 537.79 73.87C538.47 72.99 539.27 72.19 540.19 71.47C541.11 70.75 541.89 70.16 542.52 69.71C544.01 68.63 545.63 67.81 547.39 67.24C549.15 66.68 550.9 66.44 552.63 66.53C554.36 66.62 555.99 67.1 557.5 67.98C559.01 68.86 560.26 70.22 561.25 72.07C562.2 73.83 562.81 75.61 563.08 77.41C563.35 79.21 563.28 80.97 562.88 82.69C562.47 84.4 561.76 86.03 560.75 87.56C559.74 89.09 558.42 90.45 556.79 91.62C555.8 92.34 554.7 93.04 553.51 93.72C552.32 94.4 551.17 95.14 550.06 95.95C548.95 96.76 547.99 97.66 547.15 98.66C546.32 99.65 545.76 100.85 545.49 102.24C545.99 102.24 546.72 102.28 547.69 102.37C548.66 102.46 549.72 102.53 550.87 102.57C552.02 102.62 553.21 102.59 554.45 102.5C555.69 102.41 556.81 102.21 557.8 101.89C557.62 102.07 557.48 102.18 557.39 102.23C558.07 101.55 558.71 100.93 559.32 100.37C559.93 99.81 560.77 99.57 561.86 99.66C562.63 99.71 563.31 99.96 563.92 100.44C564.53 100.91 564.99 101.49 565.31 102.16C565.62 102.84 565.77 103.57 565.75 104.36C565.73 105.15 565.45 105.86 564.9 106.49C563.86 107.75 562.71 108.81 561.45 109.67C560.19 110.53 558.7 110.96 556.99 110.96H540.89C539.85 110.96 538.95 110.62 538.18 109.95C537.41 109.27 536.92 108.44 536.69 107.45C536.51 106.68 536.5 105.92 536.66 105.15C536.82 104.38 536.94 103.62 537.03 102.85C537.3 101 537.71 99.33 538.25 97.85C538.79 96.36 539.49 95.01 540.35 93.79C541.21 92.57 542.23 91.46 543.43 90.44C544.62 89.43 546.01 88.44 547.59 87.5C548.31 87.09 549.19 86.55 550.23 85.88C551.27 85.2 552.21 84.44 553.07 83.58C553.93 82.72 554.55 81.79 554.93 80.77C555.31 79.76 555.21 78.71 554.63 77.63Z" fill="white"/>
<path d="M586.28 105.7C586.28 106.83 586.02 107.79 585.5 108.57C584.98 109.36 584.34 109.96 583.57 110.36C582.8 110.77 581.96 110.98 581.03 111C580.11 111.02 579.24 110.86 578.43 110.53C577.62 110.19 576.93 109.66 576.37 108.94C575.81 108.22 575.48 107.29 575.39 106.17C575.3 105 575.51 104.02 576.03 103.23C576.55 102.44 577.21 101.84 578.03 101.44C578.84 101.03 579.72 100.82 580.67 100.8C581.62 100.78 582.51 100.93 583.34 101.27C584.17 101.61 584.87 102.15 585.44 102.89C586 103.63 586.29 104.57 586.29 105.7H586.28Z" fill="white"/>
<path d="M626.05 93.05C625.46 96.34 624.34 99.49 622.67 102.48C621 105.48 618.68 107.9 615.7 109.75C614.21 110.47 612.63 110.94 610.97 111.17C609.3 111.39 607.66 111.37 606.03 111.1C604.41 110.83 602.87 110.28 601.43 109.44C599.99 108.61 598.75 107.49 597.71 106.09C595.46 103.02 594 99.85 593.35 96.55C592.7 93.26 592.66 89.79 593.25 86.13C593.66 83.56 594.37 81.01 595.38 78.49C596.39 75.97 597.83 73.76 599.67 71.86C601.16 70.33 602.8 69.17 604.61 68.38C606.41 67.59 608.25 67.17 610.12 67.13C611.99 67.09 613.84 67.42 615.67 68.14C617.5 68.86 619.18 69.94 620.71 71.39C622.24 72.83 623.45 74.42 624.33 76.16C625.21 77.9 625.83 79.69 626.19 81.54C626.55 83.39 626.71 85.29 626.66 87.26C626.61 89.22 626.41 91.15 626.05 93.04V93.05ZM618.27 91.7C618.54 90.35 618.65 88.75 618.61 86.9C618.56 85.05 618.26 83.27 617.7 81.56C617.14 79.85 616.28 78.4 615.13 77.23C613.98 76.06 612.41 75.47 610.43 75.47C608.27 75.47 606.53 76.17 605.22 77.57C603.91 78.97 602.93 80.67 602.28 82.68C601.63 84.69 601.23 86.76 601.1 88.9C600.97 91.04 601.01 92.86 601.24 94.34C601.38 95.33 601.61 96.37 601.95 97.45C602.29 98.53 602.73 99.52 603.27 100.43C603.81 101.33 604.5 102.05 605.33 102.59C606.16 103.13 607.17 103.38 608.34 103.33C609.96 103.24 611.33 102.87 612.43 102.21C613.53 101.56 614.47 100.72 615.24 99.71C616.01 98.7 616.63 97.52 617.1 96.19C617.57 94.86 617.95 93.47 618.22 92.03L618.29 91.69L618.27 91.7Z" fill="white"/>
<path d="M35.83 161.93C36.55 161.21 37.37 160.79 38.3 160.68C39.22 160.57 40.07 160.69 40.84 161.05C41.61 161.41 42.2 161.99 42.63 162.77C43.06 163.56 43.16 164.49 42.93 165.58C42.66 166.66 42.14 167.67 41.37 168.59C40.6 169.51 39.84 170.36 39.07 171.13C37.31 172.98 35.36 174.34 33.22 175.22C31.08 176.1 28.91 176.51 26.73 176.47C24.54 176.42 22.4 175.91 20.3 174.91C18.2 173.92 16.32 172.43 14.65 170.45C13.66 169.28 12.82 168.04 12.15 166.73C11.47 165.42 10.96 164.05 10.59 162.6C10.05 160.48 9.80001 158.27 9.85001 155.97C9.89001 153.67 10.26 151.44 10.93 149.27C11.6 147.1 12.56 145.07 13.8 143.15C15.04 141.23 16.56 139.6 18.37 138.25C19.68 137.26 21 136.4 22.33 135.68C23.66 134.96 25.07 134.28 26.56 133.65C27.42 133.29 28.29 132.94 29.2 132.6C30.1 132.26 31.03 132 31.97 131.82C32.92 131.64 33.86 131.57 34.81 131.62C35.76 131.67 36.68 131.87 37.58 132.23C38.21 132.5 38.84 132.87 39.47 133.35C40.1 133.82 40.69 134.36 41.23 134.97C41.77 135.58 42.24 136.22 42.65 136.9C43.06 137.58 43.35 138.23 43.53 138.86C43.67 139.45 43.7 140.04 43.63 140.65C43.56 141.26 43.38 141.81 43.09 142.31C42.8 142.81 42.4 143.22 41.91 143.56C41.41 143.9 40.85 144.11 40.22 144.2C39.18 144.33 38.38 144.22 37.82 143.86C37.26 143.5 36.81 143.05 36.47 142.51C36.13 141.97 35.8 141.44 35.49 140.92C35.17 140.4 34.72 140.03 34.14 139.8C33.78 139.8 33.51 139.82 33.33 139.87C31.8 140.28 30.25 140.83 28.7 141.53C27.14 142.23 25.7 143.07 24.37 144.07C23.04 145.06 21.88 146.21 20.89 147.52C19.9 148.83 19.18 150.29 18.73 151.92C18.19 153.86 17.99 155.82 18.12 157.8C18.26 159.78 18.8 161.66 19.74 163.41C20.28 164.45 21 165.35 21.9 166.12C22.8 166.89 23.79 167.46 24.88 167.84C25.96 168.22 27.07 168.36 28.19 168.25C29.32 168.14 30.4 167.74 31.44 167.07C32.34 166.44 33.15 165.66 33.88 164.74C34.6 163.82 35.26 162.88 35.84 161.93H35.83Z" fill="white"/>
<path d="M87.23 156.59C86.46 159.12 85.48 161.58 84.29 164C83.09 166.41 81.64 168.57 79.93 170.46C78.22 172.35 76.22 173.89 73.94 175.06C71.66 176.23 69.0601 176.82 66.1301 176.82C64.2401 176.73 62.74 176.56 61.63 176.31C60.5201 176.06 59.45 175.69 58.42 175.19C56.57 174.65 54.98 173.78 53.65 172.59C52.32 171.4 51.2 170.01 50.3 168.43C49.4 166.85 48.7101 165.17 48.2401 163.39C47.7701 161.61 47.46 159.88 47.33 158.22C47.1 155.29 47.3501 152.31 48.0701 149.29C48.7901 146.27 49.94 143.49 51.52 140.94C53.1 138.39 55.08 136.21 57.47 134.38C59.86 132.55 62.59 131.35 65.65 130.76C67.23 130.49 68.83 130.4 70.45 130.49C72.07 130.58 73.65 130.9 75.18 131.44C76.44 131.89 77.61 132.41 78.7 133C79.78 133.59 80.82 134.33 81.81 135.23C83.12 136.4 84.22 137.76 85.12 139.29C86.02 140.82 86.68 142.42 87.08 144.09C87.58 146.21 87.8 148.31 87.76 150.38C87.71 152.45 87.53 154.53 87.22 156.6L87.23 156.59ZM69.7101 168.02C71.0601 167.43 72.25 166.66 73.26 165.69C74.27 164.72 75.16 163.65 75.93 162.48C76.7 161.31 77.34 160.06 77.86 158.73C78.38 157.4 78.84 156.06 79.25 154.71C79.52 153 79.67 151.24 79.69 149.43C79.71 147.63 79.3401 145.91 78.5701 144.29C77.9401 142.94 76.98 141.78 75.7 140.81C74.42 139.84 73.01 139.16 71.47 138.78C69.94 138.4 68.39 138.32 66.84 138.54C65.28 138.77 63.9 139.37 62.68 140.37C60.97 141.81 59.58 143.43 58.52 145.21C57.46 146.99 56.66 148.96 56.12 151.13C55.67 152.84 55.42 154.65 55.38 156.54C55.33 158.43 55.63 160.24 56.26 161.95C56.76 163.21 57.4901 164.36 58.4601 165.4C59.4301 166.44 60.5201 167.25 61.7401 167.83C62.9601 168.42 64.2501 168.74 65.6301 168.81C67.01 168.88 68.37 168.62 69.72 168.03L69.7101 168.02Z" fill="white"/>
<path d="M121.11 133.73C121.38 132.83 121.82 132.08 122.43 131.5C123.04 130.91 123.7 130.53 124.43 130.35C125.15 130.17 125.88 130.22 126.63 130.49C127.37 130.76 128.02 131.3 128.56 132.11C128.74 132.34 128.91 132.61 129.07 132.92C129.23 133.24 129.31 133.53 129.31 133.8C129.4 140.25 129.37 146.68 129.21 153.11C129.05 159.53 128.79 165.97 128.43 172.42C128.43 173.46 128.1 174.27 127.45 174.85C126.8 175.43 126.05 175.81 125.22 175.97C124.39 176.13 123.54 176.04 122.68 175.7C121.82 175.36 121.19 174.79 120.79 173.98C120.74 173.93 120.72 173.89 120.72 173.84V173.98C117.79 169.16 114.7 164.52 111.45 160.08C108.2 155.64 104.82 151.23 101.3 146.86V167.35C101.3 168.75 101.28 169.89 101.23 170.77C101.18 171.65 101.13 172.34 101.06 172.83C100.99 173.33 100.89 173.75 100.76 174.12C100.35 175.2 99.73 175.92 98.9 176.28C98.07 176.64 97.22 176.73 96.36 176.55C95.5 176.37 94.76 175.92 94.13 175.2C93.5 174.48 93.18 173.58 93.18 172.49V153.62C93.18 151.73 93.17 149.96 93.15 148.31C93.13 146.66 93.12 145.28 93.12 144.15C93.12 142.62 93.1 141.1 93.05 139.59C93 138.08 93 136.56 93.05 135.02C93.05 134.25 93.24 133.6 93.62 133.06C94 132.52 94.49 132.1 95.07 131.81C95.66 131.52 96.29 131.35 96.96 131.3C97.63 131.25 98.29 131.34 98.92 131.57C99.46 131.75 100.01 132.12 100.58 132.69C101.14 133.25 101.7 133.86 102.24 134.52C102.78 135.17 103.29 135.83 103.76 136.48C104.23 137.13 104.63 137.66 104.94 138.07C106.11 139.51 107.46 141.17 109 143.04C110.53 144.91 111.95 146.68 113.26 148.35C114.57 150.06 115.84 151.78 117.08 153.49C118.32 155.2 119.53 156.92 120.7 158.63C120.84 154.53 120.93 150.45 120.97 146.39C121.01 142.33 121.04 138.25 121.04 134.15L121.11 133.74V133.73Z" fill="white"/>
<path d="M162.64 133.73C162.91 132.83 163.35 132.08 163.96 131.5C164.57 130.91 165.23 130.53 165.96 130.35C166.68 130.17 167.41 130.22 168.16 130.49C168.9 130.76 169.55 131.3 170.09 132.11C170.27 132.34 170.44 132.61 170.6 132.92C170.76 133.24 170.84 133.53 170.84 133.8C170.93 140.25 170.9 146.68 170.74 153.11C170.58 159.53 170.32 165.97 169.96 172.42C169.96 173.46 169.63 174.27 168.98 174.85C168.33 175.43 167.58 175.81 166.75 175.97C165.92 176.13 165.07 176.04 164.21 175.7C163.35 175.36 162.72 174.79 162.32 173.98C162.27 173.93 162.25 173.89 162.25 173.84V173.98C159.32 169.16 156.23 164.52 152.98 160.08C149.73 155.64 146.35 151.23 142.83 146.86V167.35C142.83 168.75 142.81 169.89 142.76 170.77C142.71 171.65 142.66 172.34 142.59 172.83C142.52 173.33 142.42 173.75 142.29 174.12C141.88 175.2 141.26 175.92 140.43 176.28C139.6 176.64 138.75 176.73 137.89 176.55C137.03 176.37 136.29 175.92 135.66 175.2C135.03 174.48 134.71 173.58 134.71 172.49V153.62C134.71 151.73 134.7 149.96 134.68 148.31C134.66 146.66 134.65 145.28 134.65 144.15C134.65 142.62 134.63 141.1 134.58 139.59C134.53 138.08 134.53 136.56 134.58 135.02C134.58 134.25 134.77 133.6 135.15 133.06C135.53 132.52 136.02 132.1 136.6 131.81C137.19 131.52 137.82 131.35 138.49 131.3C139.16 131.25 139.82 131.34 140.45 131.57C140.99 131.75 141.54 132.12 142.11 132.69C142.67 133.25 143.23 133.86 143.77 134.52C144.31 135.17 144.82 135.83 145.29 136.48C145.76 137.13 146.16 137.66 146.47 138.07C147.64 139.51 148.99 141.17 150.53 143.04C152.06 144.91 153.48 146.68 154.79 148.35C156.1 150.06 157.37 151.78 158.61 153.49C159.85 155.2 161.06 156.92 162.23 158.63C162.37 154.53 162.46 150.45 162.5 146.39C162.54 142.33 162.57 138.25 162.57 134.15L162.64 133.74V133.73Z" fill="white"/>
<path d="M201.53 165.45C202.34 165.5 203.05 165.71 203.66 166.09C204.27 166.47 204.76 166.94 205.15 167.48C205.53 168.02 205.76 168.64 205.83 169.34C205.9 170.04 205.75 170.75 205.39 171.47C205.25 171.79 204.97 172.16 204.54 172.59C204.11 173.02 203.72 173.28 203.36 173.37C200.47 174.23 197.51 174.76 194.47 174.96C191.43 175.16 188.42 175.11 185.44 174.79C184.58 174.7 183.65 174.61 182.63 174.52C181.62 174.43 180.72 174.14 179.96 173.64C178.56 172.74 177.86 171.45 177.86 169.79V140.98C177.36 140.62 176.96 140.17 176.64 139.63C176.32 139.09 176.13 138.51 176.07 137.91C176 137.3 176.08 136.72 176.31 136.15C176.54 135.59 176.92 135.1 177.46 134.7C178.36 133.98 179.4 133.49 180.57 133.25C181.74 133 182.89 132.79 184.02 132.61C186.36 132.25 188.71 132.07 191.05 132.07C193.39 132.07 195.78 132.05 198.22 132C198.94 132 199.78 131.94 200.72 131.83C201.67 131.72 202.5 131.8 203.22 132.07C204.08 132.39 204.75 132.88 205.25 133.56C205.75 134.24 206.04 134.96 206.13 135.72C206.22 136.49 206.07 137.23 205.69 137.95C205.31 138.67 204.64 139.24 203.69 139.64C202.56 140.09 201.36 140.29 200.07 140.25C198.78 140.21 197.56 140.18 196.38 140.18C194.67 140.18 192.95 140.2 191.24 140.25C189.53 140.29 187.81 140.43 186.1 140.66V150.06C187.72 150.15 189.35 150.15 190.97 150.06C192.59 149.97 194.22 149.86 195.84 149.72C196.56 149.68 197.28 149.61 198 149.52C198.72 149.43 199.46 149.43 200.23 149.52C201.22 149.65 201.99 150.06 202.53 150.74C203.07 151.42 203.4 152.17 203.51 153.01C203.62 153.84 203.48 154.67 203.07 155.48C202.66 156.29 202.01 156.88 201.11 157.24C200.34 157.56 199.31 157.79 198 157.95C196.69 158.11 195.32 158.22 193.87 158.29C192.43 158.36 191.01 158.39 189.61 158.39C188.21 158.39 187.04 158.37 186.09 158.32V166.64C188.57 166.96 191.07 167 193.6 166.77C196.12 166.55 198.6 166.12 201.04 165.48H201.51L201.53 165.45Z" fill="white"/>
<path d="M235.21 161.93C235.93 161.21 236.75 160.79 237.68 160.68C238.6 160.57 239.45 160.69 240.22 161.05C240.99 161.41 241.58 161.99 242.01 162.77C242.44 163.56 242.54 164.49 242.31 165.58C242.04 166.66 241.52 167.67 240.75 168.59C239.98 169.51 239.22 170.36 238.45 171.13C236.69 172.98 234.74 174.34 232.6 175.22C230.46 176.1 228.29 176.51 226.11 176.47C223.92 176.42 221.78 175.91 219.68 174.91C217.58 173.92 215.7 172.43 214.03 170.45C213.04 169.28 212.2 168.04 211.53 166.73C210.85 165.42 210.34 164.05 209.97 162.6C209.43 160.48 209.18 158.27 209.23 155.97C209.27 153.67 209.64 151.44 210.31 149.27C210.98 147.1 211.94 145.07 213.18 143.15C214.42 141.23 215.94 139.6 217.75 138.25C219.06 137.26 220.38 136.4 221.71 135.68C223.04 134.96 224.45 134.28 225.94 133.65C226.8 133.29 227.67 132.94 228.58 132.6C229.48 132.26 230.41 132 231.35 131.82C232.3 131.64 233.24 131.57 234.19 131.62C235.14 131.67 236.06 131.87 236.96 132.23C237.59 132.5 238.22 132.87 238.85 133.35C239.48 133.82 240.07 134.36 240.61 134.97C241.15 135.58 241.62 136.22 242.03 136.9C242.44 137.58 242.73 138.23 242.91 138.86C243.05 139.45 243.08 140.04 243.01 140.65C242.94 141.26 242.76 141.81 242.47 142.31C242.18 142.81 241.78 143.22 241.29 143.56C240.79 143.9 240.23 144.11 239.6 144.2C238.56 144.33 237.76 144.22 237.2 143.86C236.64 143.5 236.19 143.05 235.85 142.51C235.51 141.97 235.18 141.44 234.87 140.92C234.55 140.4 234.1 140.03 233.52 139.8C233.16 139.8 232.89 139.82 232.71 139.87C231.18 140.28 229.63 140.83 228.08 141.53C226.52 142.23 225.08 143.07 223.75 144.07C222.42 145.06 221.26 146.21 220.27 147.52C219.28 148.83 218.56 150.29 218.11 151.92C217.57 153.86 217.37 155.82 217.5 157.8C217.64 159.78 218.18 161.66 219.12 163.41C219.66 164.45 220.38 165.35 221.28 166.12C222.18 166.89 223.17 167.46 224.26 167.84C225.34 168.22 226.45 168.36 227.57 168.25C228.7 168.14 229.78 167.74 230.82 167.07C231.72 166.44 232.53 165.66 233.26 164.74C233.98 163.82 234.64 162.88 235.22 161.93H235.21Z" fill="white"/>
<path d="M276.73 132.24C277.59 132.6 278.3 133.18 278.86 133.96C279.42 134.75 279.76 135.56 279.87 136.4C279.98 137.23 279.82 137.99 279.4 138.67C278.97 139.35 278.22 139.8 277.13 140.02C275.06 140.38 273.11 140.54 271.28 140.49C269.45 140.44 267.86 140.42 266.51 140.42C266.51 145.83 266.53 151.15 266.58 156.38C266.62 161.61 266.6 167.13 266.51 172.95C266.51 174.21 266.08 175.12 265.22 175.69C264.36 176.25 263.43 176.49 262.41 176.4C261.4 176.31 260.46 175.9 259.6 175.18C258.74 174.46 258.32 173.47 258.32 172.2C258.27 166.88 258.25 161.58 258.25 156.31V140.42C257.84 140.42 257.16 140.44 256.19 140.49C255.22 140.53 254.16 140.55 253.01 140.52C251.86 140.5 250.68 140.41 249.46 140.25C248.24 140.09 247.18 139.79 246.28 139.34C245.56 138.98 245.09 138.45 244.86 137.75C244.63 137.05 244.62 136.34 244.83 135.62C245.03 134.9 245.41 134.22 245.95 133.59C246.49 132.96 247.17 132.53 247.98 132.31C251.77 132.08 255.43 132.01 258.97 132.07C262.51 132.14 266.11 132.17 269.76 132.17C270.84 132.17 271.92 132.16 273.01 132.14C274.09 132.12 275.2 132.11 276.32 132.11L276.73 132.24Z" fill="white"/>
<path d="M301.35 166.73C302.52 166.78 303.49 167.13 304.26 167.78C305.03 168.43 305.52 169.19 305.75 170.05C305.98 170.91 305.91 171.75 305.55 172.59C305.19 173.42 304.44 174.07 303.32 174.52C302.51 174.83 301.55 175.04 300.45 175.13C299.35 175.22 298.24 175.25 297.14 175.23C296.04 175.21 295.01 175.16 294.06 175.09C293.11 175.02 292.39 174.99 291.9 174.99H287.91C286.96 174.99 286.15 174.73 285.48 174.21C284.81 173.69 284.32 173.07 284.03 172.35C283.74 171.63 283.67 170.86 283.83 170.05C283.99 169.24 284.41 168.49 285.08 167.82C285.71 167.19 286.54 166.83 287.58 166.74C288.62 166.65 289.65 166.65 290.69 166.74V139.96C289.65 139.96 288.68 139.95 287.78 139.93C286.88 139.91 285.98 139.58 285.07 138.95C284.39 138.45 283.94 137.88 283.72 137.23C283.49 136.58 283.46 135.92 283.62 135.27C283.78 134.62 284.08 134 284.53 133.41C284.98 132.82 285.54 132.4 286.22 132.12C286.85 131.85 287.5 131.71 288.18 131.71C290.48 131.71 292.79 131.7 295.11 131.68C297.43 131.66 299.77 131.67 302.11 131.71C302.34 131.71 302.55 131.78 302.75 131.91C302.95 132.05 303.17 132.16 303.39 132.25C304.43 132.84 305.12 133.67 305.49 134.75C305.85 135.83 305.72 136.89 305.08 137.93C304.76 138.47 304.37 138.89 303.9 139.18C303.43 139.47 302.91 139.68 302.34 139.79C301.78 139.9 301.2 139.96 300.62 139.96H298.93V166.88C299.29 166.88 299.62 166.87 299.91 166.85C300.2 166.83 300.53 166.79 300.89 166.75H301.36L301.35 166.73Z" fill="white"/>
<path d="M351.26 156.59C350.49 159.12 349.51 161.58 348.32 164C347.12 166.41 345.67 168.57 343.96 170.46C342.25 172.35 340.25 173.89 337.97 175.06C335.69 176.23 333.09 176.82 330.16 176.82C328.27 176.73 326.77 176.56 325.66 176.31C324.55 176.06 323.48 175.69 322.45 175.19C320.6 174.65 319.01 173.78 317.68 172.59C316.35 171.4 315.23 170.01 314.33 168.43C313.43 166.85 312.74 165.17 312.27 163.39C311.8 161.61 311.49 159.88 311.36 158.22C311.13 155.29 311.38 152.31 312.1 149.29C312.82 146.27 313.97 143.49 315.55 140.94C317.13 138.39 319.11 136.21 321.5 134.38C323.89 132.55 326.62 131.35 329.68 130.76C331.26 130.49 332.86 130.4 334.48 130.49C336.1 130.58 337.68 130.9 339.21 131.44C340.47 131.89 341.64 132.41 342.73 133C343.81 133.59 344.85 134.33 345.84 135.23C347.15 136.4 348.25 137.76 349.15 139.29C350.05 140.82 350.71 142.42 351.11 144.09C351.61 146.21 351.83 148.31 351.79 150.38C351.74 152.45 351.56 154.53 351.25 156.6L351.26 156.59ZM333.74 168.02C335.09 167.43 336.28 166.66 337.29 165.69C338.3 164.72 339.19 163.65 339.96 162.48C340.73 161.31 341.37 160.06 341.89 158.73C342.41 157.4 342.87 156.06 343.28 154.71C343.55 153 343.7 151.24 343.72 149.43C343.74 147.63 343.37 145.91 342.6 144.29C341.97 142.94 341.01 141.78 339.73 140.81C338.45 139.84 337.04 139.16 335.5 138.78C333.97 138.4 332.42 138.32 330.87 138.54C329.31 138.77 327.93 139.37 326.71 140.37C325 141.81 323.61 143.43 322.55 145.21C321.49 146.99 320.69 148.96 320.15 151.13C319.7 152.84 319.45 154.65 319.41 156.54C319.36 158.43 319.66 160.24 320.29 161.95C320.79 163.21 321.52 164.36 322.49 165.4C323.46 166.44 324.55 167.25 325.77 167.83C326.99 168.42 328.28 168.74 329.66 168.81C331.04 168.88 332.4 168.62 333.75 168.03L333.74 168.02Z" fill="white"/>
<path d="M385.15 133.73C385.42 132.83 385.86 132.08 386.47 131.5C387.08 130.91 387.74 130.53 388.47 130.35C389.19 130.17 389.92 130.22 390.67 130.49C391.41 130.76 392.06 131.3 392.6 132.11C392.78 132.34 392.95 132.61 393.11 132.92C393.27 133.24 393.35 133.53 393.35 133.8C393.44 140.25 393.41 146.68 393.25 153.11C393.09 159.53 392.83 165.97 392.47 172.42C392.47 173.46 392.14 174.27 391.49 174.85C390.84 175.43 390.09 175.81 389.26 175.97C388.43 176.13 387.58 176.04 386.72 175.7C385.86 175.36 385.23 174.79 384.83 173.98C384.78 173.93 384.76 173.89 384.76 173.84V173.98C381.83 169.16 378.74 164.52 375.49 160.08C372.24 155.64 368.86 151.23 365.34 146.86V167.35C365.34 168.75 365.32 169.89 365.27 170.77C365.22 171.65 365.17 172.34 365.1 172.83C365.03 173.33 364.93 173.75 364.8 174.12C364.39 175.2 363.77 175.92 362.94 176.28C362.11 176.64 361.26 176.73 360.4 176.55C359.54 176.37 358.8 175.92 358.17 175.2C357.54 174.48 357.22 173.58 357.22 172.49V153.62C357.22 151.73 357.21 149.96 357.19 148.31C357.17 146.66 357.16 145.28 357.16 144.15C357.16 142.62 357.14 141.1 357.09 139.59C357.04 138.08 357.04 136.56 357.09 135.02C357.09 134.25 357.28 133.6 357.66 133.06C358.04 132.52 358.53 132.1 359.11 131.81C359.7 131.52 360.33 131.35 361 131.3C361.67 131.25 362.33 131.34 362.96 131.57C363.5 131.75 364.05 132.12 364.62 132.69C365.18 133.25 365.74 133.86 366.28 134.52C366.82 135.17 367.33 135.83 367.8 136.48C368.27 137.13 368.67 137.66 368.98 138.07C370.15 139.51 371.5 141.17 373.04 143.04C374.57 144.91 375.99 146.68 377.3 148.35C378.61 150.06 379.88 151.78 381.12 153.49C382.36 155.2 383.57 156.92 384.74 158.63C384.88 154.53 384.97 150.45 385.01 146.39C385.05 142.33 385.08 138.25 385.08 134.15L385.15 133.74V133.73Z" fill="white"/>
</g>
<g filter="url(#filter2_d_3_3)">
<path d="M30.33 244.2C30.11 244.4 29.8 244.56 29.41 244.7C29.02 244.84 28.57 244.91 28.07 244.91C27.49 244.91 26.98 244.82 26.54 244.64C26.11 244.46 25.81 244.17 25.64 243.78C24.36 240.83 23.25 238.21 22.32 235.92C21.39 233.64 20.64 231.73 20.08 230.19H19.87C19.79 232.17 19.71 233.99 19.64 235.65C19.57 237.31 19.49 238.93 19.41 240.52C19.33 242.11 19.24 243.73 19.14 245.37C19.04 247.01 18.94 248.78 18.83 250.68C18.61 250.76 18.32 250.84 17.97 250.91C17.62 250.98 17.25 251.01 16.86 251.01C15.36 251.01 14.6 250.4 14.6 249.17C14.6 248.81 14.62 248.17 14.66 247.25C14.7 246.33 14.76 245.24 14.83 243.97C14.9 242.7 14.98 241.3 15.08 239.77C15.18 238.24 15.28 236.68 15.39 235.11C15.5 233.54 15.61 231.99 15.72 230.47C15.83 228.95 15.94 227.55 16.05 226.27C16.27 226.05 16.64 225.81 17.16 225.56C17.68 225.31 18.31 225.18 19.06 225.18C19.95 225.18 20.66 225.34 21.19 225.66C21.72 225.98 22.14 226.46 22.44 227.1C22.89 228.08 23.35 229.13 23.82 230.26C24.29 231.39 24.77 232.53 25.24 233.69C25.71 234.85 26.17 236 26.62 237.14C27.07 238.28 27.5 239.36 27.92 240.36H28.13C28.66 238.97 29.2 237.59 29.74 236.22C30.28 234.85 30.81 233.54 31.33 232.29C31.85 231.04 32.33 229.85 32.79 228.74C33.25 227.63 33.67 226.62 34.06 225.73C34.37 225.59 34.74 225.47 35.19 225.35C35.64 225.24 36.1 225.18 36.57 225.18C37.49 225.18 38.18 225.32 38.64 225.6C39.1 225.88 39.4 226.28 39.54 226.81C39.65 227.31 39.78 228.14 39.92 229.3C40.06 230.46 40.2 231.79 40.34 233.29C40.48 234.79 40.62 236.39 40.76 238.08C40.9 239.77 41.02 241.4 41.14 242.97C41.25 244.54 41.35 245.99 41.43 247.32C41.51 248.64 41.57 249.68 41.6 250.43C41.29 250.63 40.97 250.77 40.62 250.87C40.27 250.97 39.86 251.02 39.39 251.02C38.81 251.02 38.3 250.89 37.86 250.64C37.43 250.39 37.18 249.92 37.13 249.22C37.02 247.33 36.91 245.46 36.82 243.62C36.72 241.78 36.63 240.04 36.55 238.4C36.47 236.76 36.39 235.24 36.32 233.84C36.25 232.45 36.19 231.26 36.13 230.29H35.96C35.43 231.71 34.71 233.52 33.81 235.72C32.9 237.92 31.74 240.75 30.32 244.21L30.33 244.2Z" fill="white"/>
<path d="M50.39 246.16C49.69 244.79 48.84 242.86 47.84 240.35C46.84 237.84 45.86 235 44.91 231.82C45.16 231.51 45.5 231.26 45.91 231.05C46.32 230.84 46.77 230.74 47.25 230.74C47.86 230.74 48.36 230.89 48.75 231.18C49.14 231.47 49.46 231.98 49.71 232.71C50.46 234.97 51.24 237.19 52.05 239.38C52.86 241.57 53.75 243.83 54.73 246.17H54.9C55.32 245.28 55.74 244.23 56.17 243.04C56.6 241.84 57.03 240.57 57.44 239.24C57.86 237.9 58.25 236.54 58.61 235.16C58.97 233.78 59.29 232.46 59.57 231.21C59.85 231.07 60.13 230.96 60.43 230.88C60.72 230.8 61.06 230.75 61.45 230.75C62.06 230.75 62.58 230.9 63 231.19C63.42 231.48 63.63 231.94 63.63 232.55C63.63 233.27 63.44 234.38 63.07 235.87C62.69 237.36 62.2 239 61.59 240.8C60.98 242.6 60.28 244.42 59.5 246.26C58.72 248.1 57.94 249.73 57.16 251.15C55.77 253.6 54.51 255.47 53.38 256.75C52.25 258.03 51.19 258.67 50.18 258.67C49.4 258.67 48.78 258.45 48.32 258.02C47.86 257.59 47.57 257.05 47.46 256.41C47.91 256.02 48.39 255.55 48.92 254.99C49.45 254.43 49.98 253.83 50.51 253.19C51.04 252.55 51.54 251.89 52.01 251.2C52.48 250.52 52.89 249.86 53.22 249.21C52.75 249.07 52.29 248.8 51.84 248.39C51.39 247.99 50.91 247.24 50.38 246.15L50.39 246.16Z" fill="white"/>
<path d="M82.4101 245.32C82.4101 247.19 81.7101 248.65 80.3201 249.71C78.9301 250.77 76.9101 251.3 74.2601 251.3C73.1701 251.3 72.1701 251.22 71.2501 251.05C70.3301 250.88 69.5401 250.65 68.8901 250.34C68.2301 250.03 67.7301 249.67 67.3601 249.25C67.0001 248.83 66.8201 248.37 66.8201 247.87C66.8201 247.45 66.9201 247.06 67.1301 246.7C67.3401 246.34 67.6201 246.05 67.9901 245.82C68.7701 246.32 69.6601 246.78 70.6701 247.2C71.6701 247.62 72.8401 247.83 74.1801 247.83C75.4301 247.83 76.4001 247.62 77.0601 247.18C77.7301 246.75 78.0601 246.13 78.0601 245.32C78.0601 244.62 77.8301 244.07 77.3701 243.65C76.9101 243.23 76.2301 242.91 75.3401 242.69L72.5001 241.94C70.6001 241.44 69.2101 240.76 68.3201 239.89C67.4301 239.03 66.9801 237.84 66.9801 236.34C66.9801 235.53 67.1501 234.77 67.4801 234.06C67.8101 233.35 68.3101 232.74 68.9601 232.22C69.6101 231.7 70.4301 231.3 71.4101 231.01C72.3901 230.72 73.5001 230.57 74.7501 230.57C75.7501 230.57 76.6701 230.65 77.4901 230.8C78.3101 230.95 79.0201 231.16 79.6201 231.43C80.2201 231.69 80.6901 232.02 81.0201 232.41C81.3501 232.8 81.5201 233.22 81.5201 233.66C81.5201 234.1 81.4201 234.49 81.2301 234.81C81.0301 235.13 80.7801 235.39 80.4801 235.58C79.9801 235.27 79.2301 234.94 78.2401 234.58C77.2501 234.22 76.1801 234.04 75.0401 234.04C73.9001 234.04 72.9501 234.24 72.2801 234.65C71.6101 235.05 71.2801 235.62 71.2801 236.34C71.2801 236.9 71.4701 237.36 71.8401 237.72C72.2201 238.08 72.8601 238.38 73.7801 238.6L76.2001 239.23C78.3201 239.79 79.8801 240.54 80.8801 241.49C81.8801 242.44 82.3801 243.72 82.3801 245.34L82.4101 245.32Z" fill="white"/>
<path d="M92.28 247.12C92.86 247.54 93.69 247.75 94.75 247.75C95.22 247.75 95.73 247.68 96.25 247.54C96.78 247.4 97.2401 247.23 97.6301 247.04C97.8201 247.26 98 247.51 98.15 247.79C98.3 248.07 98.3801 248.4 98.3801 248.79C98.3801 249.51 98.01 250.11 97.2701 250.59C96.5301 251.06 95.41 251.3 93.91 251.3C91.82 251.3 90.15 250.83 88.91 249.9C87.67 248.97 87.05 247.43 87.05 245.28V225.76C87.24 225.7 87.52 225.63 87.89 225.55C88.25 225.47 88.64 225.42 89.06 225.42C89.87 225.42 90.46 225.57 90.84 225.88C91.22 226.19 91.4 226.7 91.4 227.43V231.57H97.8801C97.9901 231.74 98.1 231.97 98.19 232.28C98.29 232.59 98.34 232.91 98.34 233.24C98.34 234.44 97.82 235.04 96.79 235.04H91.4V244.99C91.4 245.99 91.69 246.7 92.28 247.12Z" fill="white"/>
<path d="M105.74 243.15C106.13 244.74 106.89 245.92 108.02 246.68C109.15 247.45 110.59 247.83 112.35 247.83C113.52 247.83 114.59 247.65 115.57 247.29C116.55 246.93 117.33 246.54 117.91 246.12C118.69 246.57 119.08 247.19 119.08 248C119.08 248.47 118.9 248.91 118.54 249.32C118.18 249.72 117.68 250.07 117.06 250.36C116.43 250.65 115.69 250.88 114.84 251.05C113.99 251.22 113.08 251.3 112.1 251.3C110.48 251.3 109.01 251.08 107.69 250.63C106.37 250.18 105.23 249.52 104.28 248.62C103.33 247.73 102.6 246.63 102.09 245.32C101.57 244.01 101.32 242.49 101.32 240.76C101.32 239.03 101.57 237.62 102.07 236.35C102.57 235.08 103.25 234.02 104.12 233.17C104.98 232.32 106 231.67 107.17 231.23C108.34 230.78 109.59 230.56 110.93 230.56C112.27 230.56 113.49 230.78 114.59 231.21C115.69 231.64 116.64 232.24 117.43 233.01C118.22 233.78 118.84 234.69 119.27 235.75C119.7 236.81 119.92 237.97 119.92 239.22C119.92 239.92 119.75 240.43 119.42 240.75C119.09 241.07 118.6 241.29 117.96 241.4L105.75 243.15H105.74ZM110.92 233.95C109.39 233.95 108.11 234.47 107.1 235.5C106.08 236.53 105.55 238.01 105.49 239.93L115.77 238.47C115.66 237.22 115.2 236.15 114.39 235.27C113.58 234.39 112.43 233.95 110.92 233.95Z" fill="white"/>
<path d="M128.73 250.63C128.54 250.71 128.26 250.79 127.92 250.86C127.57 250.93 127.19 250.96 126.77 250.96C125.96 250.96 125.36 250.81 124.97 250.5C124.58 250.19 124.38 249.68 124.38 248.95V235.24C124.38 234.54 124.52 233.98 124.8 233.55C125.08 233.12 125.52 232.71 126.14 232.32C126.95 231.82 127.98 231.4 129.23 231.07C130.48 230.74 131.86 230.57 133.37 230.57C135.82 230.57 137.05 231.27 137.05 232.66C137.05 232.99 136.99 233.31 136.88 233.6C136.77 233.89 136.64 234.15 136.5 234.37C136.22 234.31 135.87 234.26 135.46 234.2C135.04 234.14 134.6 234.12 134.12 234.12C133.01 234.12 131.99 234.24 131.07 234.48C130.15 234.72 129.37 235.02 128.73 235.38V250.64V250.63Z" fill="white"/>
<path d="M145.07 246.16C144.37 244.79 143.52 242.86 142.52 240.35C141.52 237.84 140.54 235 139.59 231.82C139.84 231.51 140.18 231.26 140.59 231.05C141 230.84 141.45 230.74 141.93 230.74C142.54 230.74 143.04 230.89 143.43 231.18C143.82 231.47 144.14 231.98 144.39 232.71C145.14 234.97 145.92 237.19 146.73 239.38C147.54 241.57 148.43 243.83 149.41 246.17H149.58C150 245.28 150.42 244.23 150.85 243.04C151.28 241.84 151.71 240.57 152.12 239.24C152.54 237.9 152.93 236.54 153.29 235.16C153.65 233.78 153.97 232.46 154.25 231.21C154.53 231.07 154.81 230.96 155.11 230.88C155.4 230.8 155.74 230.75 156.13 230.75C156.74 230.75 157.26 230.9 157.68 231.19C158.1 231.48 158.31 231.94 158.31 232.55C158.31 233.27 158.12 234.38 157.75 235.87C157.37 237.36 156.88 239 156.27 240.8C155.66 242.6 154.96 244.42 154.18 246.26C153.4 248.1 152.62 249.73 151.84 251.15C150.45 253.6 149.19 255.47 148.06 256.75C146.93 258.03 145.87 258.67 144.86 258.67C144.08 258.67 143.46 258.45 143 258.02C142.54 257.59 142.25 257.05 142.14 256.41C142.59 256.02 143.07 255.55 143.6 254.99C144.13 254.43 144.66 253.83 145.19 253.19C145.72 252.55 146.22 251.89 146.69 251.2C147.16 250.52 147.57 249.86 147.9 249.21C147.43 249.07 146.97 248.8 146.52 248.39C146.07 247.99 145.59 247.24 145.06 246.15L145.07 246.16Z" fill="white"/>
<path d="M180.19 230.57C181.5 230.57 182.73 230.79 183.87 231.22C185.01 231.65 186 232.29 186.84 233.14C187.68 233.99 188.33 235.06 188.8 236.36C189.27 237.66 189.51 239.17 189.51 240.9C189.51 242.63 189.27 244.19 188.78 245.5C188.29 246.81 187.6 247.89 186.71 248.74C185.82 249.59 184.75 250.23 183.51 250.66C182.27 251.09 180.9 251.31 179.39 251.31C177.88 251.31 176.55 251.13 175.4 250.77C174.24 250.41 173.3 249.99 172.58 249.52C172 249.13 171.58 248.74 171.33 248.35C171.08 247.96 170.95 247.46 170.95 246.85V223.61C171.14 223.55 171.42 223.48 171.79 223.4C172.15 223.32 172.54 223.27 172.96 223.27C173.77 223.27 174.36 223.42 174.74 223.73C175.12 224.04 175.3 224.55 175.3 225.28V231.88C175.91 231.55 176.62 231.25 177.43 230.98C178.24 230.72 179.16 230.58 180.19 230.58V230.57ZM179.48 234.08C178.59 234.08 177.79 234.23 177.1 234.52C176.4 234.81 175.8 235.15 175.3 235.54V246.66C175.69 246.94 176.23 247.19 176.93 247.41C177.63 247.63 178.43 247.74 179.35 247.74C181.05 247.74 182.43 247.18 183.49 246.07C184.55 244.96 185.08 243.23 185.08 240.89C185.08 238.55 184.56 236.79 183.51 235.71C182.46 234.63 181.12 234.08 179.48 234.08Z" fill="white"/>
<path d="M213.04 240.94C213.04 242.53 212.8 243.96 212.33 245.25C211.86 246.53 211.19 247.62 210.34 248.51C209.49 249.4 208.45 250.09 207.23 250.58C206 251.07 204.64 251.31 203.13 251.31C201.62 251.31 200.26 251.07 199.03 250.58C197.8 250.09 196.77 249.4 195.92 248.51C195.07 247.62 194.41 246.53 193.93 245.25C193.46 243.97 193.22 242.53 193.22 240.94C193.22 239.35 193.46 237.92 193.93 236.63C194.4 235.35 195.07 234.26 195.94 233.37C196.8 232.48 197.85 231.79 199.08 231.3C200.31 230.81 201.66 230.57 203.13 230.57C204.6 230.57 205.96 230.81 207.18 231.3C208.41 231.79 209.45 232.48 210.32 233.39C211.18 234.3 211.85 235.38 212.33 236.65C212.8 237.92 213.04 239.35 213.04 240.94ZM203.13 234.08C201.46 234.08 200.13 234.68 199.16 235.88C198.18 237.08 197.7 238.76 197.7 240.94C197.7 243.12 198.17 244.79 199.12 245.98C200.07 247.16 201.4 247.76 203.13 247.76C204.86 247.76 206.2 247.17 207.14 245.98C208.09 244.8 208.56 243.12 208.56 240.94C208.56 238.76 208.08 237.11 207.12 235.9C206.16 234.69 204.83 234.08 203.13 234.08Z" fill="white"/>
<path d="M217.43 246.75C218.24 245.72 219.06 244.71 219.9 243.72C220.74 242.73 221.56 241.73 222.37 240.73C221.31 239.39 220.29 238.11 219.3 236.88C218.31 235.65 217.29 234.4 216.23 233.12C216.37 232.42 216.64 231.87 217.04 231.45C217.44 231.03 217.95 230.82 218.57 230.82C219.19 230.82 219.61 230.97 219.95 231.28C220.29 231.59 220.65 231.99 221.04 232.49C221.68 233.35 222.34 234.27 223.03 235.23C223.71 236.19 224.42 237.15 225.14 238.09C226.09 236.86 226.99 235.69 227.86 234.56C228.72 233.43 229.62 232.2 230.54 230.86C230.68 230.83 230.86 230.82 231.08 230.82C231.86 230.82 232.47 231 232.92 231.36C233.37 231.72 233.59 232.18 233.59 232.74C233.59 233.16 233.5 233.54 233.32 233.89C233.14 234.24 232.82 234.69 232.38 235.25C231.63 236.17 230.85 237.09 230.06 238.01C229.27 238.93 228.49 239.85 227.74 240.77L234.01 248.84C233.93 249.51 233.68 250.04 233.26 250.43C232.84 250.82 232.31 251.02 231.67 251.02C231.03 251.02 230.56 250.85 230.19 250.52C229.81 250.19 229.39 249.73 228.92 249.14C228.28 248.25 227.62 247.32 226.93 246.36C226.25 245.4 225.59 244.46 224.94 243.54C224.02 244.77 223.1 246 222.18 247.24C221.26 248.48 220.37 249.73 219.5 250.98H218.83C217.97 250.98 217.32 250.8 216.89 250.44C216.46 250.08 216.24 249.63 216.24 249.1C216.24 248.74 216.32 248.4 216.49 248.08C216.66 247.76 216.98 247.32 217.45 246.76L217.43 246.75Z" fill="white"/>
<path d="M241.26 243.15C241.65 244.74 242.41 245.92 243.54 246.68C244.67 247.45 246.11 247.83 247.87 247.83C249.04 247.83 250.11 247.65 251.09 247.29C252.07 246.93 252.85 246.54 253.43 246.12C254.21 246.57 254.6 247.19 254.6 248C254.6 248.47 254.42 248.91 254.06 249.32C253.7 249.72 253.2 250.07 252.58 250.36C251.95 250.65 251.21 250.88 250.36 251.05C249.51 251.22 248.6 251.3 247.62 251.3C246 251.3 244.53 251.08 243.21 250.63C241.89 250.18 240.75 249.52 239.8 248.62C238.85 247.73 238.12 246.63 237.61 245.32C237.09 244.01 236.84 242.49 236.84 240.76C236.84 239.03 237.09 237.62 237.59 236.35C238.09 235.08 238.77 234.02 239.64 233.17C240.5 232.32 241.52 231.67 242.69 231.23C243.86 230.78 245.11 230.56 246.45 230.56C247.79 230.56 249.01 230.78 250.11 231.21C251.21 231.64 252.16 232.24 252.95 233.01C253.74 233.78 254.36 234.69 254.79 235.75C255.22 236.81 255.44 237.97 255.44 239.22C255.44 239.92 255.27 240.43 254.94 240.75C254.61 241.07 254.12 241.29 253.48 241.4L241.27 243.15H241.26ZM246.44 233.95C244.91 233.95 243.63 234.47 242.62 235.5C241.6 236.53 241.07 238.01 241.01 239.93L251.29 238.47C251.18 237.22 250.72 236.15 249.91 235.27C249.1 234.39 247.95 233.95 246.44 233.95Z" fill="white"/>
<path d="M274.66 245.32C274.66 247.19 273.96 248.65 272.57 249.71C271.18 250.77 269.16 251.3 266.51 251.3C265.42 251.3 264.42 251.22 263.5 251.05C262.58 250.88 261.79 250.65 261.14 250.34C260.48 250.03 259.98 249.67 259.61 249.25C259.25 248.83 259.07 248.37 259.07 247.87C259.07 247.45 259.17 247.06 259.38 246.7C259.59 246.34 259.87 246.05 260.24 245.82C261.02 246.32 261.91 246.78 262.92 247.2C263.92 247.62 265.09 247.83 266.43 247.83C267.68 247.83 268.65 247.62 269.31 247.18C269.98 246.75 270.31 246.13 270.31 245.32C270.31 244.62 270.08 244.07 269.62 243.65C269.16 243.23 268.48 242.91 267.59 242.69L264.75 241.94C262.85 241.44 261.46 240.76 260.57 239.89C259.68 239.03 259.23 237.84 259.23 236.34C259.23 235.53 259.4 234.77 259.73 234.06C260.06 233.35 260.56 232.74 261.21 232.22C261.86 231.7 262.68 231.3 263.66 231.01C264.64 230.72 265.75 230.57 267 230.57C268 230.57 268.92 230.65 269.74 230.8C270.56 230.95 271.27 231.16 271.87 231.43C272.47 231.69 272.94 232.02 273.27 232.41C273.6 232.8 273.77 233.22 273.77 233.66C273.77 234.1 273.67 234.49 273.48 234.81C273.28 235.13 273.03 235.39 272.73 235.58C272.23 235.27 271.48 234.94 270.49 234.58C269.5 234.22 268.43 234.04 267.29 234.04C266.15 234.04 265.2 234.24 264.53 234.65C263.86 235.05 263.53 235.62 263.53 236.34C263.53 236.9 263.72 237.36 264.09 237.72C264.47 238.08 265.11 238.38 266.03 238.6L268.45 239.23C270.57 239.79 272.13 240.54 273.13 241.49C274.13 242.44 274.63 243.72 274.63 245.34L274.66 245.32Z" fill="white"/>
<path d="M306.39 240.94C306.39 242.53 306.15 243.96 305.68 245.25C305.21 246.53 304.54 247.62 303.69 248.51C302.84 249.4 301.8 250.09 300.58 250.58C299.35 251.07 297.99 251.31 296.48 251.31C294.97 251.31 293.61 251.07 292.38 250.58C291.15 250.09 290.12 249.4 289.27 248.51C288.42 247.62 287.76 246.53 287.28 245.25C286.81 243.97 286.57 242.53 286.57 240.94C286.57 239.35 286.81 237.92 287.28 236.63C287.75 235.35 288.42 234.26 289.29 233.37C290.15 232.48 291.2 231.79 292.43 231.3C293.66 230.81 295.01 230.57 296.48 230.57C297.95 230.57 299.31 230.81 300.53 231.3C301.76 231.79 302.8 232.48 303.67 233.39C304.53 234.3 305.2 235.38 305.68 236.65C306.15 237.92 306.39 239.35 306.39 240.94ZM296.48 234.08C294.81 234.08 293.48 234.68 292.51 235.88C291.53 237.08 291.05 238.76 291.05 240.94C291.05 243.12 291.52 244.79 292.47 245.98C293.42 247.16 294.75 247.76 296.48 247.76C298.21 247.76 299.55 247.17 300.49 245.98C301.44 244.8 301.91 243.12 301.91 240.94C301.91 238.76 301.43 237.11 300.47 235.9C299.51 234.69 298.18 234.08 296.48 234.08Z" fill="white"/>
<path d="M319.97 251.3C319.08 251.3 318.24 251.21 317.46 251.03C316.68 250.85 316.01 250.62 315.45 250.34V258.2C315.26 258.28 314.98 258.36 314.64 258.43C314.29 258.5 313.91 258.53 313.49 258.53C312.68 258.53 312.08 258.38 311.69 258.07C311.3 257.76 311.1 257.23 311.1 256.48V234.87C311.1 234.26 311.21 233.76 311.43 233.39C311.65 233.01 312.07 232.64 312.68 232.28C313.46 231.83 314.41 231.44 315.54 231.09C316.67 230.74 317.94 230.57 319.37 230.57C320.8 230.57 322.17 230.77 323.42 231.18C324.67 231.59 325.76 232.2 326.68 233.04C327.6 233.88 328.32 234.94 328.85 236.24C329.38 237.54 329.64 239.08 329.64 240.86C329.64 242.64 329.4 244.14 328.91 245.44C328.42 246.74 327.75 247.82 326.9 248.7C326.05 249.58 325.03 250.23 323.85 250.66C322.66 251.09 321.36 251.31 319.94 251.31L319.97 251.3ZM319.3 247.75C321.11 247.75 322.55 247.2 323.61 246.1C324.67 245 325.2 243.25 325.2 240.85C325.2 239.62 325.05 238.58 324.74 237.72C324.43 236.86 324.02 236.15 323.51 235.61C322.99 235.07 322.38 234.68 321.67 234.44C320.96 234.2 320.2 234.08 319.39 234.08C318.5 234.08 317.74 234.18 317.11 234.39C316.48 234.6 315.93 234.84 315.46 235.12V246.62C315.93 246.95 316.49 247.23 317.13 247.44C317.77 247.65 318.5 247.75 319.3 247.75Z" fill="white"/>
<path d="M337.78 243.15C338.17 244.74 338.93 245.92 340.06 246.68C341.19 247.45 342.63 247.83 344.39 247.83C345.56 247.83 346.63 247.65 347.61 247.29C348.59 246.93 349.37 246.54 349.95 246.12C350.73 246.57 351.12 247.19 351.12 248C351.12 248.47 350.94 248.91 350.58 249.32C350.22 249.72 349.72 250.07 349.1 250.36C348.47 250.65 347.73 250.88 346.88 251.05C346.03 251.22 345.12 251.3 344.14 251.3C342.52 251.3 341.05 251.08 339.73 250.63C338.41 250.18 337.27 249.52 336.32 248.62C335.37 247.73 334.64 246.63 334.13 245.32C333.61 244.01 333.36 242.49 333.36 240.76C333.36 239.03 333.61 237.62 334.11 236.35C334.61 235.08 335.29 234.02 336.16 233.17C337.02 232.32 338.04 231.67 339.21 231.23C340.38 230.78 341.63 230.56 342.97 230.56C344.31 230.56 345.53 230.78 346.63 231.21C347.73 231.64 348.68 232.24 349.47 233.01C350.26 233.78 350.88 234.69 351.31 235.75C351.74 236.81 351.96 237.97 351.96 239.22C351.96 239.92 351.79 240.43 351.46 240.75C351.13 241.07 350.64 241.29 350 241.4L337.79 243.15H337.78ZM342.96 233.95C341.43 233.95 340.15 234.47 339.14 235.5C338.12 236.53 337.59 238.01 337.53 239.93L347.81 238.47C347.7 237.22 347.24 236.15 346.43 235.27C345.62 234.39 344.47 233.95 342.96 233.95Z" fill="white"/>
<path d="M368.48 235.04C367.71 234.4 366.68 234.08 365.37 234.08C364.39 234.08 363.52 234.2 362.76 234.46C361.99 234.71 361.33 234.99 360.77 235.3V250.64C360.58 250.72 360.3 250.8 359.96 250.87C359.61 250.94 359.23 250.97 358.81 250.97C358 250.97 357.4 250.82 357.01 250.51C356.62 250.2 356.42 249.69 356.42 248.96V235.17C356.42 234.53 356.55 234.01 356.8 233.62C357.05 233.23 357.47 232.84 358.05 232.45C358.83 231.98 359.85 231.54 361.1 231.15C362.35 230.76 363.78 230.57 365.36 230.57C368.06 230.57 370.18 231.18 371.71 232.39C373.24 233.6 374.01 235.43 374.01 237.89V250.64C373.81 250.72 373.54 250.8 373.17 250.87C372.81 250.94 372.42 250.97 372 250.97C371.19 250.97 370.59 250.82 370.2 250.51C369.81 250.2 369.62 249.69 369.62 248.96V238.05C369.62 236.68 369.24 235.68 368.47 235.04H368.48Z" fill="white"/>
<path d="M379.5 225.13C379.5 224.41 379.75 223.8 380.25 223.31C380.75 222.82 381.39 222.58 382.17 222.58C382.95 222.58 383.58 222.83 384.05 223.31C384.52 223.8 384.76 224.4 384.76 225.13C384.76 225.86 384.52 226.46 384.05 226.95C383.58 227.44 382.95 227.68 382.17 227.68C381.39 227.68 380.75 227.44 380.25 226.95C379.75 226.46 379.5 225.86 379.5 225.13ZM384.35 250.63C384.15 250.71 383.88 250.79 383.53 250.86C383.18 250.93 382.78 250.96 382.34 250.96C381.53 250.96 380.93 250.81 380.54 250.5C380.15 250.19 379.96 249.68 379.96 248.95V231.27C380.18 231.21 380.47 231.14 380.82 231.06C381.17 230.98 381.57 230.93 382.01 230.93C382.82 230.93 383.41 231.08 383.79 231.39C384.17 231.7 384.35 232.23 384.35 232.98V250.62V250.63Z" fill="white"/>
<path d="M402.38 235.04C401.61 234.4 400.58 234.08 399.27 234.08C398.29 234.08 397.42 234.2 396.66 234.46C395.89 234.71 395.23 234.99 394.67 235.3V250.64C394.48 250.72 394.2 250.8 393.86 250.87C393.51 250.94 393.13 250.97 392.71 250.97C391.9 250.97 391.3 250.82 390.91 250.51C390.52 250.2 390.32 249.69 390.32 248.96V235.17C390.32 234.53 390.45 234.01 390.7 233.62C390.95 233.23 391.37 232.84 391.95 232.45C392.73 231.98 393.75 231.54 395 231.15C396.25 230.76 397.68 230.57 399.26 230.57C401.96 230.57 404.08 231.18 405.61 232.39C407.14 233.6 407.91 235.43 407.91 237.89V250.64C407.71 250.72 407.44 250.8 407.07 250.87C406.71 250.94 406.32 250.97 405.9 250.97C405.09 250.97 404.49 250.82 404.1 250.51C403.71 250.2 403.52 249.69 403.52 248.96V238.05C403.52 236.68 403.14 235.68 402.37 235.04H402.38Z" fill="white"/>
<path d="M426.48 248.88C425.95 249.21 425.3 249.49 424.54 249.72C423.77 249.94 422.86 250.05 421.8 250.05C420.57 250.05 419.41 249.88 418.31 249.53C417.21 249.18 416.24 248.62 415.4 247.86C414.56 247.1 413.9 246.1 413.41 244.87C412.92 243.64 412.68 242.14 412.68 240.36C412.68 238.74 412.92 237.33 413.41 236.12C413.9 234.91 414.58 233.89 415.46 233.07C416.34 232.25 417.38 231.63 418.6 231.21C419.81 230.79 421.16 230.58 422.63 230.58C423.99 230.58 425.26 230.75 426.41 231.1C427.57 231.45 428.51 231.86 429.23 232.33C429.7 232.64 430.07 232.99 430.34 233.37C430.6 233.76 430.74 234.23 430.74 234.79V251.26C430.74 252.65 430.5 253.85 430.01 254.86C429.52 255.86 428.85 256.68 428 257.31C427.15 257.94 426.14 258.4 424.97 258.69C423.8 258.98 422.55 259.13 421.21 259.13C419.79 259.13 418.56 258.99 417.53 258.71C416.5 258.43 415.75 258.15 415.27 257.87C414.41 257.34 413.97 256.64 413.97 255.78C413.97 255.31 414.07 254.91 414.26 254.59C414.45 254.27 414.71 254.01 415.01 253.82C415.65 254.27 416.5 254.67 417.56 255.03C418.62 255.39 419.75 255.57 420.95 255.57C422.71 255.57 424.06 255.22 425.03 254.5C426 253.78 426.47 252.64 426.47 251.05V248.88H426.48ZM422.42 246.62C423.37 246.62 424.16 246.48 424.8 246.2C425.44 245.92 425.98 245.59 426.43 245.2V235.08C426.01 234.83 425.5 234.6 424.88 234.39C424.27 234.18 423.54 234.08 422.71 234.08C421.01 234.08 419.64 234.6 418.61 235.63C417.58 236.66 417.06 238.22 417.06 240.31C417.06 241.45 417.2 242.43 417.48 243.24C417.76 244.05 418.13 244.7 418.61 245.2C419.08 245.7 419.65 246.06 420.3 246.29C420.95 246.52 421.66 246.62 422.41 246.62H422.42Z" fill="white"/>
</g>
<defs>
<filter id="filter0_d_3_3" x="7.02003" y="0.529993" width="63.47" height="47.7" filterUnits="userSpaceOnUse" color-interpolation-filters="sRGB">
<feFlood flood-opacity="0" result="BackgroundImageFix"/>
<feColorMatrix in="SourceAlpha" type="matrix" values="0 0 0 0 0 0 0 0 0 0 0 0 0 0 0 0 0 0 127 0" result="hardAlpha"/>
<feOffset dx="-2.4" dy="2.4"/>
<feGaussianBlur stdDeviation="2.4"/>
<feColorMatrix type="matrix" values="0 0 0 0 0 0 0 0 0 0 0 0 0 0 0 0 0 0 0.6 0"/>
<feBlend mode="normal" in2="BackgroundImageFix" result="effect1_dropShadow_3_3"/>
<feBlend mode="normal" in="SourceGraphic" in2="effect1_dropShadow_3_3" result="shape"/>
</filter>
<filter id="filter1_d_3_3" x="0.636914" y="63.39" width="628.432" height="120.63" filterUnits="userSpaceOnUse" color-interpolation-filters="sRGB">
<feFlood flood-opacity="0" result="BackgroundImageFix"/>
<feColorMatrix in="SourceAlpha" type="matrix" values="0 0 0 0 0 0 0 0 0 0 0 0 0 0 0 0 0 0 127 0" result="hardAlpha"/>
<feOffset dx="-2.4" dy="2.4"/>
<feGaussianBlur stdDeviation="2.4"/>
<feColorMatrix type="matrix" values="0 0 0 0 0 0 0 0 0 0 0 0 0 0 0 0 0 0 0.6 0"/>
<feBlend mode="normal" in2="BackgroundImageFix" result="effect1_dropShadow_3_3"/>
<feBlend mode="normal" in="SourceGraphic" in2="effect1_dropShadow_3_3" result="shape"/>
</filter>
<filter id="filter2_d_3_3" x="7.40004" y="220.18" width="425.74" height="46.15" filterUnits="userSpaceOnUse" color-interpolation-filters="sRGB">
<feFlood flood-opacity="0" result="BackgroundImageFix"/>
<feColorMatrix in="SourceAlpha" type="matrix" values="0 0 0 0 0 0 0 0 0 0 0 0 0 0 0 0 0 0 127 0" result="hardAlpha"/>
<feOffset dx="-2.4" dy="2.4"/>
<feGaussianBlur stdDeviation="2.4"/>
<feColorMatrix type="matrix" values="0 0 0 0 0 0 0 0 0 0 0 0 0 0 0 0 0 0 0.6 0"/>
<feBlend mode="normal" in2="BackgroundImageFix" result="effect1_dropShadow_3_3"/>
<feBlend mode="normal" in="SourceGraphic" in2="effect1_dropShadow_3_3" result="shape"/>
</filter>
</defs>
</svg>
