<svg width="595" height="267" viewBox="0 0 595 267" fill="none" xmlns="http://www.w3.org/2000/svg">
<g filter="url(#filter0_d_3_3)">
<path d="M43.87 18.43C43.87 22.01 43.16 24.98 41.75 27.34C40.33 29.7 38.44 31.45 36.07 32.59C37.92 33.53 39.57 34.27 41.02 34.81C42.47 35.35 43.91 35.86 45.34 36.35C45.37 36.55 45.39 36.72 45.39 36.86V37.27C45.39 38.54 45.06 39.48 44.39 40.1C43.72 40.72 42.82 41.03 41.68 41.03C40.38 41.03 38.91 40.61 37.29 39.76C35.66 38.91 33.91 37.73 32.02 36.2L29.34 34.05H29.05C26.94 34.05 24.97 33.72 23.15 33.05C21.33 32.38 19.76 31.39 18.44 30.07C17.12 28.75 16.09 27.12 15.34 25.17C14.59 23.22 14.22 20.97 14.22 18.44C14.22 15.91 14.6 13.68 15.37 11.76C16.13 9.84001 17.18 8.21997 18.52 6.90997C19.85 5.58997 21.42 4.59999 23.23 3.92999C25.04 3.25999 26.98 2.92999 29.06 2.92999C31.14 2.92999 33.09 3.25999 34.89 3.92999C36.69 4.59999 38.26 5.58997 39.6 6.90997C40.93 8.22997 41.98 9.85001 42.75 11.76C43.51 13.68 43.9 15.91 43.9 18.44L43.87 18.43ZM37.38 18.43C37.38 15.05 36.62 12.48 35.11 10.72C33.6 8.95997 31.57 8.09003 29.03 8.09003C26.49 8.09003 24.52 8.96997 23 10.72C21.48 12.47 20.73 15.05 20.73 18.43C20.73 21.81 21.48 24.47 22.97 26.21C24.47 27.95 26.48 28.82 29.02 28.82C31.56 28.82 33.58 27.95 35.1 26.21C36.62 24.47 37.37 21.88 37.37 18.43H37.38Z" fill="white"/>
<path d="M48.26 7.35999C48.26 6.70999 48.47 6.12002 48.89 5.58002C49.31 5.04002 49.9 4.58 50.65 4.19C51.4 3.8 52.3 3.49998 53.36 3.28998C54.42 3.07998 55.56 2.96997 56.8 2.96997C58.56 2.96997 60.11 3.19 61.46 3.63C62.81 4.07 63.95 4.68002 64.88 5.46002C65.81 6.24002 66.51 7.16999 66.98 8.23999C67.45 9.30999 67.69 10.5 67.69 11.8C67.69 13.56 67.21 15.26 66.25 16.92C65.29 18.58 63.7 20.35 61.49 22.24L54.37 28.44H67.45C67.61 28.7 67.76 29.04 67.89 29.47C68.02 29.89 68.09 30.35 68.09 30.84C68.09 31.69 67.89 32.31 67.5 32.72C67.11 33.13 66.57 33.33 65.89 33.33H48.81C48.29 32.97 47.88 32.52 47.59 31.96C47.3 31.41 47.15 30.76 47.15 30.01C47.15 29.2 47.32 28.5 47.66 27.91C48 27.32 48.4 26.82 48.86 26.4L56.62 19.32C58.44 17.69 59.69 16.34 60.38 15.25C61.07 14.16 61.4 13.09 61.4 12.05C61.4 10.85 60.96 9.87 60.08 9.12C59.2 8.37 57.92 8 56.23 8C54.86 8 53.64 8.21997 52.57 8.65997C51.5 9.09997 50.6 9.57998 49.89 10.1C49.43 9.83998 49.05 9.48003 48.74 9.03003C48.43 8.57003 48.28 8.02 48.28 7.37L48.26 7.35999Z" fill="white"/>
</g>
<g filter="url(#filter1_d_3_3)">
<path d="M58.96 70.19C59.32 68.84 59.97 67.89 60.92 67.35C61.87 66.81 62.84 66.63 63.83 66.81C64.82 66.99 65.66 67.5 66.33 68.33C67.01 69.16 67.25 70.26 67.07 71.61C66.8 73.32 66.45 75.04 66.02 76.75C65.59 78.46 65.13 80.16 64.63 81.82C63.95 83.99 63.2 86.1 62.36 88.18C61.53 90.25 60.75 92.37 60.03 94.54C59.31 96.57 58.58 98.59 57.83 100.59C57.09 102.6 56.31 104.61 55.5 106.64C55.23 107.32 54.95 108.03 54.65 108.77C54.36 109.51 53.98 110.16 53.53 110.7C52.85 111.6 51.93 112.14 50.76 112.32C49.59 112.5 48.55 112.21 47.65 111.44C46.93 110.81 46.41 110.03 46.09 109.11C45.77 108.19 45.44 107.3 45.08 106.44C44.67 105.36 44.21 104.16 43.69 102.86C43.17 101.55 42.73 100.38 42.37 99.34C41.6 97.31 40.87 95.27 40.17 93.22C39.47 91.17 38.74 89.13 37.97 87.1C37.34 88.99 36.67 90.83 35.97 92.61C35.27 94.39 34.61 96.21 33.97 98.05C33.47 99.27 33 100.48 32.55 101.7C32.1 102.92 31.63 104.11 31.13 105.28C30.81 106.09 30.56 106.71 30.35 107.14C30.15 107.57 29.82 108.23 29.37 109.14C29.05 109.86 28.58 110.5 27.95 111.07C27.32 111.63 26.65 112.02 25.95 112.22C25.25 112.42 24.54 112.41 23.82 112.19C23.1 111.96 22.47 111.42 21.93 110.57C21.16 109.4 20.63 108.02 20.34 106.45C20.05 104.87 19.7 103.43 19.29 102.12C19.02 101.31 18.76 100.5 18.51 99.69C18.26 98.88 18 98.09 17.73 97.32C17.46 96.51 17.18 95.7 16.88 94.89C16.59 94.08 16.31 93.29 16.03 92.52C15.13 89.91 14.19 87.3201 13.22 84.7801C12.25 82.2301 11.27 79.67 10.28 77.1C10.1 76.56 9.85002 76.01 9.54002 75.44C9.22002 74.88 8.93003 74.29 8.66003 73.68C8.39003 73.07 8.18003 72.46 8.02003 71.85C7.86003 71.24 7.81004 70.64 7.85004 70.06C7.94004 69.29 8.22003 68.64 8.70003 68.1C9.17003 67.56 9.73003 67.17 10.36 66.92C10.99 66.67 11.67 66.58 12.39 66.65C13.11 66.72 13.77 67 14.35 67.5C15.57 68.54 16.48 69.91 17.09 71.63C17.7 73.34 18.27 74.92 18.81 76.36C19.44 77.94 20.03 79.53 20.57 81.13C21.11 82.73 21.7 84.32 22.33 85.9C22.96 87.6101 23.57 89.3 24.16 90.97C24.75 92.64 25.31 94.33 25.85 96.04C26.03 95.63 26.19 95.22 26.32 94.79C26.46 94.36 26.61 93.92 26.79 93.47C27.69 91.22 28.54 88.98 29.33 86.77C30.12 84.56 30.85 82.31 31.53 80.01C31.76 79.38 31.95 78.74 32.11 78.08C32.27 77.43 32.44 76.78 32.62 76.15C32.93 75.07 33.14 74.22 33.23 73.61C33.32 73 33.59 72.34 34.04 71.61C34.45 70.98 34.99 70.52 35.66 70.22C36.34 69.93 37.03 69.79 37.76 69.81C38.48 69.83 39.15 70.02 39.76 70.39C40.37 70.75 40.83 71.29 41.15 72.01C41.29 72.28 41.46 72.7 41.69 73.26C41.92 73.82 42.14 74.4301 42.37 75.0901C42.6 75.7401 42.82 76.35 43.05 76.92C43.28 77.48 43.43 77.9 43.52 78.17C44.06 79.61 44.58 81.03 45.08 82.43C45.58 83.83 46.07 85.25 46.57 86.69C47.2 88.54 47.84 90.35 48.5 92.13C49.15 93.91 49.82 95.68 50.5 97.44C50.91 96.27 51.29 95.07 51.65 93.86C52.01 92.64 52.42 91.4501 52.87 90.2801C54.09 87.0301 55.25 83.79 56.35 80.54C57.45 77.29 58.3 73.98 58.89 70.6L58.96 70.19Z" fill="white"/>
<path d="M97.24 101.03C98.05 101.08 98.76 101.29 99.37 101.67C99.98 102.05 100.47 102.52 100.86 103.06C101.24 103.6 101.47 104.22 101.54 104.92C101.61 105.62 101.46 106.33 101.1 107.05C100.96 107.37 100.68 107.74 100.25 108.17C99.82 108.6 99.43 108.86 99.07 108.95C96.18 109.81 93.22 110.34 90.18 110.54C87.14 110.74 84.13 110.69 81.15 110.37C80.29 110.28 79.36 110.19 78.34 110.1C77.33 110.01 76.43 109.72 75.67 109.22C74.27 108.32 73.57 107.03 73.57 105.37V76.56C73.07 76.2 72.67 75.75 72.35 75.21C72.03 74.67 71.84 74.09 71.78 73.49C71.71 72.88 71.79 72.3 72.02 71.73C72.25 71.17 72.63 70.6801 73.17 70.2801C74.07 69.5601 75.11 69.07 76.28 68.83C77.45 68.58 78.6 68.37 79.73 68.19C82.07 67.83 84.42 67.65 86.76 67.65C89.1 67.65 91.49 67.63 93.93 67.58C94.65 67.58 95.49 67.52 96.43 67.41C97.38 67.3 98.21 67.38 98.93 67.65C99.79 67.97 100.46 68.46 100.96 69.14C101.46 69.82 101.75 70.54 101.84 71.3C101.93 72.07 101.78 72.8101 101.4 73.5301C101.02 74.2501 100.35 74.82 99.4 75.22C98.27 75.67 97.07 75.87 95.78 75.83C94.49 75.79 93.27 75.76 92.09 75.76C90.38 75.76 88.66 75.78 86.95 75.83C85.24 75.87 83.52 76.01 81.81 76.24V85.64C83.43 85.73 85.06 85.73 86.68 85.64C88.3 85.55 89.93 85.44 91.55 85.3C92.27 85.26 92.99 85.19 93.71 85.1C94.43 85.01 95.17 85.01 95.94 85.1C96.93 85.23 97.7 85.64 98.24 86.32C98.78 87 99.11 87.75 99.22 88.59C99.33 89.42 99.19 90.25 98.78 91.06C98.37 91.87 97.72 92.46 96.82 92.82C96.05 93.14 95.02 93.3701 93.71 93.5301C92.4 93.6901 91.03 93.8 89.58 93.87C88.14 93.94 86.72 93.97 85.32 93.97C83.92 93.97 82.75 93.95 81.8 93.9V102.22C84.28 102.54 86.78 102.58 89.31 102.35C91.83 102.13 94.31 101.7 96.75 101.06H97.22L97.24 101.03Z" fill="white"/>
<path d="M113.33 111.04C111.39 110.81 110.21 110.17 109.78 109.11C109.35 108.05 109.34 106.89 109.75 105.63V78.17C109.03 78.17 108.39 77.98 107.82 77.59C107.26 77.21 106.81 76.72 106.47 76.14C106.13 75.55 105.96 74.91 105.96 74.21C105.96 73.51 106.16 72.87 106.57 72.28C107.47 70.93 108.63 69.87 110.05 69.1C111.47 68.33 112.95 67.7 114.48 67.21C116.87 66.44 119.27 66.02 121.68 65.92C124.09 65.83 126.47 66.33 128.82 67.41C130.94 68.4 132.61 69.69 133.82 71.26C135.04 72.84 135.8 74.52 136.12 76.3C136.43 78.08 136.28 79.91 135.65 81.78C135.02 83.65 133.89 85.4 132.27 87.02C134.39 88.37 135.9 89.99 136.8 91.86C137.7 93.73 138.07 95.66 137.92 97.64C137.76 99.63 137.13 101.54 136.03 103.39C134.92 105.24 133.43 106.84 131.53 108.19C130.4 109 129.08 109.62 127.57 110.05C126.06 110.48 124.5 110.78 122.9 110.96C121.3 111.14 119.71 111.23 118.13 111.23C116.55 111.23 115.11 111.18 113.8 111.09L113.33 111.02V111.04ZM118 83.45H120.44C121.25 83.45 122.05 83.37 122.84 83.21C123.63 83.05 124.4 82.79 125.14 82.43C125.88 82.07 126.55 81.55 127.14 80.87C128 79.92 128.3 78.92 128.05 77.86C127.8 76.8 127.16 75.96 126.12 75.32C124.95 74.55 123.62 74.16 122.13 74.14C120.64 74.12 119.27 74.29 118 74.65V83.44V83.45ZM127.74 93.87C126.93 93.33 126.14 92.92 125.37 92.65C124.6 92.38 123.83 92.2 123.04 92.11C122.25 92.02 121.45 92 120.64 92.04C119.83 92.09 118.95 92.13 118 92.18V103C118.99 103 120.05 102.97 121.18 102.9C122.31 102.83 123.39 102.65 124.43 102.36C125.47 102.07 126.44 101.65 127.34 101.11C128.24 100.57 128.96 99.83 129.5 98.88C129.64 97.8 129.61 96.86 129.43 96.07C129.25 95.28 128.69 94.55 127.74 93.87Z" fill="white"/>
<path d="M146.74 106.1C146.24 105.33 145.95 104.53 145.86 103.7C145.77 102.87 145.88 102.1 146.2 101.4C146.51 100.7 147.02 100.15 147.72 99.74C148.42 99.33 149.26 99.18 150.26 99.27C151.34 99.36 152.27 99.73 153.03 100.39C153.8 101.04 154.57 101.65 155.36 102.22C156.15 102.78 156.99 103.17 157.9 103.37C158.8 103.57 159.91 103.27 161.21 102.46C161.52 102.23 161.8 102 162.02 101.75C162.25 101.5 162.47 101.24 162.7 100.97C162.97 100.61 163.17 100.3 163.31 100.06C163.45 99.81 163.58 99.48 163.72 99.08C163.99 98.31 164.17 97.59 164.26 96.92C164.35 96.24 164.35 95.52 164.26 94.75C163.58 93.49 162.74 92.65 161.72 92.25C160.71 91.84 159.65 91.5799 158.54 91.4699C157.43 91.3599 156.34 91.23 155.26 91.1C154.18 90.96 153.25 90.56 152.49 89.88C151.81 89.29 151.4 88.62 151.24 87.85C151.08 87.08 151.13 86.35 151.38 85.65C151.63 84.95 152.06 84.33 152.67 83.79C153.28 83.25 154.01 82.91 154.87 82.78C155.55 82.65 156.28 82.5199 157.07 82.41C157.86 82.3 158.61 82.12 159.34 81.87C160.06 81.62 160.74 81.29 161.37 80.89C162 80.48 162.52 79.94 162.93 79.27C162.97 78.77 162.99 78.29 162.96 77.82C162.94 77.35 162.81 76.88 162.59 76.43C162.14 76.02 161.5 75.74 160.66 75.58C159.83 75.42 158.95 75.36 158.02 75.38C157.1 75.4 156.23 75.5 155.42 75.68C154.61 75.86 153.95 76.06 153.46 76.29C152.38 77.37 151.27 77.88 150.15 77.81C149.02 77.74 148.08 77.35 147.31 76.63C146.54 75.91 146.07 75.01 145.89 73.92C145.71 72.84 146.03 71.87 146.84 71.01C147.47 70.29 148.18 69.72 148.97 69.29C149.76 68.86 150.63 68.51 151.57 68.24C153.87 67.61 156.27 67.28 158.77 67.26C161.27 67.24 163.61 67.79 165.77 68.92C167.53 69.82 168.85 71.02 169.73 72.5C170.61 73.99 171.11 75.57 171.22 77.23C171.33 78.9 171.07 80.56 170.44 82.2C169.81 83.85 168.84 85.3 167.53 86.56C169.15 87.69 170.38 88.98 171.22 90.45C172.05 91.92 172.57 93.43 172.78 94.98C172.98 96.54 172.89 98.11 172.51 99.71C172.13 101.31 171.48 102.81 170.58 104.21C169.68 105.61 168.56 106.88 167.23 108.03C165.9 109.18 164.4 110.09 162.73 110.77C161.29 111.36 159.87 111.63 158.47 111.58C157.07 111.54 155.71 111.29 154.38 110.84C153.05 110.39 151.76 109.77 150.53 108.98C149.29 108.19 148.13 107.32 147.05 106.38L146.78 106.11L146.74 106.1Z" fill="white"/>
<path d="M240.927 105.67C240.787 106.66 240.457 107.51 239.917 108.21C239.377 108.91 238.757 109.39 238.057 109.66C237.357 109.93 236.617 109.96 235.827 109.76C235.037 109.56 234.307 109.03 233.627 108.17C233.037 107.45 232.717 106.65 232.647 105.77C232.577 104.89 232.457 104.02 232.277 103.17C231.827 100.69 231.167 98.14 230.317 95.53C227.517 95.58 224.747 95.6 221.997 95.6C219.247 95.6 216.497 95.62 213.747 95.67C213.337 96.84 212.987 98.04 212.697 99.25C212.407 100.47 212.117 101.66 211.847 102.83C211.617 103.73 211.417 104.67 211.237 105.64C211.057 106.61 210.647 107.46 210.017 108.18C209.247 109.08 208.427 109.59 207.547 109.7C206.667 109.81 205.877 109.67 205.177 109.26C204.477 108.85 203.917 108.23 203.487 107.4C203.057 106.57 202.917 105.61 203.047 104.52C203.187 103.12 203.457 101.75 203.857 100.4C204.267 99.05 204.647 97.69 205.007 96.34C207.037 88.59 209.647 81.08 212.857 73.82C213.127 73.19 213.407 72.5801 213.707 71.9901C214.007 71.4001 214.287 70.82 214.557 70.23C214.867 69.6 215.187 68.92 215.507 68.2C215.817 67.48 216.197 66.81 216.627 66.2C217.057 65.59 217.567 65.07 218.147 64.64C218.737 64.21 219.457 64 220.307 64C221.437 64 222.377 64.36 223.147 65.08C226.217 68.15 228.737 71.61 230.717 75.46C232.697 79.31 234.477 83.25 236.057 87.26C237.007 87.22 237.927 87.22 238.827 87.26C239.727 87.3 240.537 87.71 241.257 88.48C241.887 89.11 242.257 89.79 242.377 90.51C242.487 91.23 242.417 91.93 242.177 92.61C241.927 93.29 241.527 93.87 240.957 94.37C240.397 94.87 239.707 95.2 238.897 95.38C239.347 96.96 239.747 98.57 240.077 100.21C240.417 101.86 240.697 103.51 240.927 105.18V105.65V105.67ZM227.127 87.27C226.267 85.24 225.357 83.22 224.387 81.22C223.417 79.22 222.327 77.31 221.107 75.51C220.207 77.49 219.357 79.47 218.567 81.43C217.777 83.39 217.047 85.39 216.367 87.42C218.487 87.38 220.347 87.35 221.947 87.35C223.547 87.35 225.267 87.33 227.117 87.28L227.127 87.27Z" fill="white"/>
<path d="M273.187 67.52C273.457 66.62 273.897 65.87 274.507 65.29C275.117 64.7 275.777 64.32 276.507 64.14C277.227 63.96 277.957 64.01 278.707 64.28C279.447 64.55 280.097 65.09 280.637 65.9C280.817 66.13 280.987 66.4 281.147 66.71C281.307 67.03 281.387 67.32 281.387 67.59C281.477 74.04 281.447 80.47 281.287 86.9C281.127 93.32 280.867 99.76 280.507 106.21C280.507 107.25 280.177 108.06 279.527 108.64C278.877 109.22 278.127 109.6 277.297 109.76C276.467 109.92 275.617 109.83 274.757 109.49C273.897 109.15 273.267 108.58 272.867 107.77C272.817 107.72 272.797 107.68 272.797 107.63V107.77C269.867 102.95 266.777 98.31 263.527 93.87C260.277 89.43 256.897 85.02 253.377 80.65V101.14C253.377 102.54 253.357 103.68 253.307 104.56C253.257 105.44 253.207 106.13 253.137 106.62C253.067 107.12 252.967 107.54 252.837 107.91C252.427 108.99 251.807 109.71 250.977 110.07C250.147 110.43 249.297 110.52 248.437 110.34C247.577 110.16 246.837 109.71 246.207 108.99C245.577 108.27 245.257 107.37 245.257 106.28V87.41C245.257 85.52 245.247 83.75 245.227 82.1C245.207 80.45 245.197 79.07 245.197 77.94C245.197 76.41 245.177 74.89 245.127 73.38C245.077 71.87 245.077 70.35 245.127 68.81C245.127 68.04 245.317 67.39 245.697 66.85C246.077 66.31 246.567 65.89 247.147 65.6C247.737 65.31 248.367 65.14 249.037 65.09C249.707 65.04 250.367 65.13 250.997 65.36C251.537 65.54 252.087 65.91 252.657 66.48C253.217 67.04 253.777 67.65 254.317 68.31C254.857 68.96 255.367 69.62 255.837 70.27C256.307 70.92 256.707 71.45 257.017 71.86C258.187 73.3 259.537 74.96 261.077 76.83C262.607 78.7 264.027 80.47 265.337 82.14C266.647 83.85 267.917 85.57 269.157 87.28C270.397 88.99 271.607 90.71 272.777 92.42C272.917 88.32 273.007 84.24 273.047 80.18C273.087 76.12 273.117 72.04 273.117 67.94L273.187 67.53V67.52Z" fill="white"/>
<path d="M293.337 110.2C292.167 109.97 291.157 109.43 290.327 108.58C289.497 107.72 289.077 106.66 289.077 105.4V76.93C288.267 77.06 287.477 76.96 286.707 76.63C285.937 76.29 285.327 75.84 284.877 75.28C284.427 74.72 284.167 74.06 284.097 73.32C284.027 72.58 284.267 71.87 284.807 71.19C285.397 70.42 286.097 69.78 286.907 69.26C287.717 68.74 288.577 68.31 289.477 67.97C290.377 67.63 291.317 67.35 292.287 67.12C293.257 66.9 294.187 66.69 295.097 66.51C297.617 66.1 300.147 66 302.667 66.21C305.187 66.41 307.577 66.96 309.837 67.87C312.087 68.77 314.157 70.03 316.027 71.66C317.897 73.28 319.417 75.31 320.587 77.75C321.307 79.24 321.827 80.78 322.147 82.38C322.457 83.98 322.647 85.59 322.687 87.22C322.727 89.34 322.487 91.39 321.947 93.37C321.407 95.35 320.597 97.21 319.507 98.95C318.427 100.69 317.117 102.23 315.587 103.58C314.057 104.93 312.337 106.06 310.447 106.96C308.777 107.73 307.007 108.29 305.137 108.65C303.267 109.01 301.427 109.33 299.627 109.6C298.727 109.74 297.767 109.88 296.757 110.04C295.747 110.2 294.757 110.28 293.817 110.28L293.347 110.21L293.337 110.2ZM300.637 74.29C300.047 74.29 299.497 74.3101 298.977 74.3601C298.457 74.4001 297.907 74.47 297.317 74.56V101.68C297.587 101.68 297.817 101.66 297.997 101.61C298.177 101.57 298.357 101.54 298.537 101.54C298.717 101.54 298.877 101.52 299.007 101.47C299.637 101.38 300.157 101.31 300.567 101.27C300.977 101.23 301.357 101.17 301.717 101.1C302.077 101.03 302.447 100.95 302.837 100.86C303.217 100.77 303.657 100.66 304.157 100.52C306.767 99.84 308.837 98.77 310.347 97.31C311.857 95.85 312.997 93.83 313.767 91.26C314.267 89.77 314.487 88.26 314.447 86.73C314.397 85.2 314.117 83.73 313.597 82.33C313.077 80.93 312.327 79.66 311.327 78.51C310.337 77.36 309.117 76.45 307.677 75.77C306.507 75.23 305.347 74.87 304.197 74.69C303.047 74.51 301.867 74.38 300.647 74.28L300.637 74.29Z" fill="white"/>
<path d="M396.477 68.4C396.837 67.05 397.487 66.1 398.437 65.56C399.387 65.02 400.357 64.84 401.347 65.02C402.337 65.2 403.177 65.7101 403.847 66.5401C404.527 67.3701 404.767 68.47 404.587 69.82C404.317 71.53 403.967 73.25 403.537 74.96C403.107 76.67 402.647 78.3701 402.147 80.0301C401.467 82.2001 400.717 84.31 399.877 86.39C399.047 88.46 398.267 90.58 397.547 92.75C396.827 94.78 396.097 96.8001 395.347 98.8001C394.607 100.81 393.827 102.82 393.017 104.85C392.747 105.53 392.467 106.24 392.167 106.98C391.877 107.72 391.497 108.37 391.047 108.91C390.367 109.81 389.447 110.35 388.277 110.53C387.107 110.71 386.067 110.42 385.167 109.65C384.447 109.02 383.927 108.24 383.607 107.32C383.287 106.4 382.957 105.51 382.597 104.65C382.187 103.57 381.727 102.37 381.207 101.07C380.687 99.76 380.247 98.5901 379.887 97.5501C379.117 95.5201 378.387 93.48 377.687 91.43C376.987 89.38 376.257 87.34 375.487 85.31C374.857 87.2 374.187 89.04 373.487 90.82C372.787 92.6 372.127 94.42 371.487 96.26C370.987 97.48 370.517 98.6901 370.067 99.9101C369.617 101.13 369.147 102.32 368.647 103.49C368.327 104.3 368.077 104.92 367.867 105.35C367.667 105.78 367.337 106.44 366.887 107.35C366.567 108.07 366.097 108.71 365.467 109.28C364.837 109.84 364.167 110.23 363.467 110.43C362.767 110.63 362.057 110.62 361.337 110.4C360.617 110.17 359.987 109.63 359.447 108.78C358.677 107.61 358.147 106.23 357.857 104.66C357.567 103.08 357.217 101.64 356.807 100.33C356.537 99.52 356.277 98.71 356.027 97.9C355.777 97.09 355.517 96.3001 355.247 95.5301C354.977 94.7201 354.697 93.9101 354.397 93.1001C354.107 92.2901 353.827 91.5001 353.547 90.7301C352.647 88.1201 351.707 85.5301 350.737 82.9901C349.767 80.4401 348.787 77.88 347.797 75.31C347.617 74.77 347.367 74.22 347.057 73.65C346.737 73.09 346.447 72.5 346.177 71.89C345.907 71.28 345.697 70.67 345.537 70.06C345.377 69.45 345.327 68.85 345.367 68.27C345.457 67.5 345.737 66.85 346.217 66.31C346.687 65.77 347.247 65.38 347.877 65.13C348.507 64.88 349.187 64.7901 349.907 64.8601C350.627 64.9301 351.287 65.21 351.867 65.71C353.087 66.75 353.997 68.1201 354.607 69.8401C355.217 71.5501 355.787 73.13 356.327 74.57C356.957 76.15 357.547 77.7401 358.087 79.3401C358.627 80.9401 359.217 82.5301 359.847 84.1101C360.477 85.8201 361.087 87.51 361.677 89.18C362.267 90.85 362.827 92.54 363.367 94.25C363.547 93.84 363.707 93.43 363.837 93C363.977 92.57 364.127 92.13 364.307 91.68C365.207 89.43 366.057 87.1901 366.847 84.9801C367.637 82.7701 368.367 80.5201 369.047 78.2201C369.277 77.5901 369.467 76.9501 369.627 76.2901C369.787 75.6401 369.957 74.9901 370.137 74.3601C370.447 73.2801 370.657 72.43 370.747 71.82C370.837 71.21 371.107 70.55 371.557 69.82C371.967 69.19 372.507 68.73 373.177 68.43C373.857 68.14 374.547 68 375.277 68.02C375.997 68.04 376.667 68.2301 377.277 68.6001C377.887 68.9601 378.347 69.5001 378.667 70.2201C378.807 70.4901 378.977 70.9101 379.207 71.4701C379.437 72.0301 379.657 72.6401 379.887 73.3001C380.117 73.9501 380.337 74.56 380.567 75.13C380.797 75.69 380.947 76.11 381.037 76.38C381.577 77.82 382.097 79.24 382.597 80.64C383.097 82.04 383.587 83.46 384.087 84.9C384.717 86.75 385.357 88.5601 386.017 90.3401C386.667 92.1201 387.337 93.89 388.017 95.65C388.427 94.48 388.807 93.28 389.167 92.07C389.527 90.85 389.937 89.6601 390.387 88.4901C391.607 85.2401 392.767 82 393.867 78.75C394.967 75.5 395.817 72.19 396.407 68.81L396.477 68.4Z" fill="white"/>
<path d="M434.757 99.2401C435.567 99.2901 436.277 99.5 436.887 99.88C437.497 100.26 437.987 100.73 438.377 101.27C438.757 101.81 438.987 102.43 439.057 103.13C439.127 103.83 438.977 104.54 438.617 105.26C438.477 105.58 438.197 105.95 437.767 106.38C437.337 106.81 436.947 107.07 436.587 107.16C433.697 108.02 430.737 108.55 427.697 108.75C424.657 108.95 421.647 108.9 418.667 108.58C417.807 108.49 416.877 108.4 415.857 108.31C414.847 108.22 413.947 107.93 413.187 107.43C411.787 106.53 411.087 105.24 411.087 103.58V74.77C410.587 74.41 410.187 73.9601 409.867 73.4201C409.547 72.8801 409.357 72.3 409.297 71.7C409.227 71.09 409.307 70.51 409.537 69.94C409.767 69.38 410.147 68.8901 410.687 68.4901C411.587 67.7701 412.627 67.2801 413.797 67.0401C414.967 66.7901 416.117 66.58 417.247 66.4C419.587 66.04 421.937 65.8601 424.277 65.8601C426.617 65.8601 429.007 65.8401 431.447 65.7901C432.167 65.7901 433.007 65.73 433.947 65.62C434.897 65.51 435.727 65.5901 436.447 65.8601C437.307 66.1801 437.977 66.6701 438.477 67.3501C438.977 68.0301 439.267 68.75 439.357 69.51C439.447 70.28 439.297 71.0201 438.917 71.7401C438.537 72.4601 437.867 73.03 436.917 73.43C435.787 73.88 434.587 74.0801 433.297 74.0401C432.007 74.0001 430.787 73.9701 429.607 73.9701C427.897 73.9701 426.177 73.9901 424.467 74.0401C422.757 74.0801 421.037 74.22 419.327 74.45V83.8501C420.947 83.9401 422.577 83.9401 424.197 83.8501C425.817 83.7601 427.447 83.65 429.067 83.51C429.787 83.47 430.507 83.4 431.227 83.31C431.947 83.22 432.687 83.22 433.457 83.31C434.447 83.44 435.217 83.8501 435.757 84.5301C436.297 85.2101 436.627 85.9601 436.737 86.8001C436.847 87.6301 436.707 88.46 436.297 89.27C435.887 90.08 435.237 90.6701 434.337 91.0301C433.567 91.3501 432.537 91.5801 431.227 91.7401C429.917 91.9001 428.547 92.01 427.097 92.08C425.657 92.15 424.237 92.18 422.837 92.18C421.437 92.18 420.267 92.1601 419.317 92.1101V100.43C421.797 100.75 424.297 100.79 426.827 100.56C429.347 100.34 431.827 99.91 434.267 99.27H434.737L434.757 99.2401Z" fill="white"/>
<path d="M450.857 109.25C448.917 109.02 447.737 108.38 447.307 107.32C446.877 106.26 446.867 105.1 447.277 103.84V76.38C446.557 76.38 445.917 76.19 445.347 75.8C444.787 75.42 444.337 74.93 443.997 74.35C443.657 73.76 443.487 73.12 443.487 72.42C443.487 71.72 443.687 71.08 444.097 70.49C444.997 69.14 446.157 68.08 447.577 67.31C448.997 66.54 450.477 65.91 452.007 65.42C454.397 64.65 456.797 64.23 459.207 64.13C461.617 64.04 463.997 64.54 466.347 65.62C468.467 66.61 470.137 67.9 471.347 69.47C472.567 71.05 473.327 72.73 473.647 74.51C473.957 76.29 473.807 78.12 473.177 79.99C472.547 81.86 471.417 83.61 469.797 85.23C471.917 86.58 473.427 88.2 474.327 90.07C475.227 91.94 475.597 93.87 475.447 95.85C475.287 97.84 474.657 99.75 473.557 101.6C472.447 103.45 470.957 105.05 469.057 106.4C467.927 107.21 466.607 107.83 465.097 108.26C463.587 108.69 462.027 108.99 460.427 109.17C458.827 109.35 457.237 109.44 455.657 109.44C454.077 109.44 452.637 109.39 451.327 109.3L450.857 109.23V109.25ZM455.527 81.66H457.967C458.777 81.66 459.577 81.58 460.367 81.42C461.157 81.26 461.927 81 462.667 80.64C463.407 80.28 464.077 79.76 464.667 79.08C465.527 78.13 465.827 77.13 465.577 76.07C465.327 75.01 464.687 74.17 463.647 73.53C462.477 72.76 461.147 72.37 459.657 72.35C458.167 72.33 456.797 72.5 455.527 72.86V81.65V81.66ZM465.267 92.08C464.457 91.54 463.667 91.13 462.897 90.86C462.127 90.59 461.357 90.41 460.567 90.32C459.777 90.23 458.977 90.21 458.167 90.25C457.357 90.3 456.477 90.34 455.527 90.39V101.21C456.517 101.21 457.577 101.18 458.707 101.11C459.837 101.04 460.917 100.86 461.957 100.57C462.997 100.28 463.967 99.86 464.867 99.32C465.767 98.78 466.487 98.04 467.027 97.09C467.167 96.01 467.137 95.07 466.957 94.28C466.777 93.49 466.217 92.76 465.267 92.08Z" fill="white"/>
<path d="M520.222 76.1184C519.452 74.5384 518.482 73.7184 517.312 73.6484C516.142 73.5784 514.812 74.0384 513.322 75.0384C512.602 75.4884 511.822 76.1184 510.992 76.9284C510.162 77.7384 509.292 78.4184 508.392 78.9584C507.492 79.4984 506.572 79.7684 505.652 79.7684C504.732 79.7684 503.812 79.2084 502.912 78.0784C502.142 77.1284 501.862 76.1584 502.062 75.1684C502.262 74.1784 502.702 73.2384 503.382 72.3584C504.062 71.4784 504.862 70.6784 505.782 69.9584C506.702 69.2384 507.482 68.6484 508.112 68.1984C509.602 67.1184 511.222 66.2984 512.982 65.7284C514.742 65.1684 516.492 64.9284 518.222 65.0184C519.952 65.1084 521.582 65.5884 523.092 66.4684C524.602 67.3484 525.852 68.7084 526.842 70.5584C527.792 72.3184 528.402 74.0984 528.672 75.8984C528.942 77.6984 528.872 79.4584 528.472 81.1784C528.062 82.8884 527.352 84.5184 526.342 86.0484C525.332 87.5784 524.012 88.9384 522.382 90.1084C521.392 90.8284 520.292 91.5284 519.102 92.2084C517.912 92.8884 516.762 93.6284 515.652 94.4384C514.542 95.2484 513.582 96.1484 512.742 97.1484C511.912 98.1384 511.352 99.3384 511.082 100.728C511.582 100.728 512.312 100.768 513.282 100.858C514.252 100.948 515.312 101.018 516.462 101.058C517.612 101.108 518.802 101.078 520.042 100.988C521.282 100.898 522.402 100.698 523.392 100.378C523.212 100.558 523.072 100.668 522.982 100.718C523.662 100.038 524.302 99.4184 524.912 98.8584C525.522 98.2984 526.362 98.0584 527.452 98.1484C528.222 98.1984 528.902 98.4484 529.512 98.9284C530.122 99.3984 530.582 99.9784 530.902 100.648C531.212 101.328 531.362 102.058 531.342 102.848C531.322 103.638 531.042 104.348 530.492 104.978C529.452 106.238 528.302 107.298 527.042 108.158C525.782 109.018 524.292 109.448 522.582 109.448H506.482C505.442 109.448 504.542 109.108 503.772 108.438C503.002 107.758 502.512 106.928 502.282 105.938C502.102 105.168 502.092 104.408 502.252 103.638C502.412 102.868 502.532 102.108 502.622 101.338C502.892 99.4884 503.302 97.8184 503.842 96.3384C504.382 94.8484 505.082 93.4984 505.942 92.2784C506.802 91.0584 507.822 89.9484 509.022 88.9284C510.212 87.9184 511.602 86.9284 513.182 85.9884C513.902 85.5784 514.782 85.0384 515.822 84.3684C516.862 83.6884 517.802 82.9284 518.662 82.0684C519.522 81.2084 520.142 80.2784 520.522 79.2584C520.902 78.2484 520.802 77.1984 520.222 76.1184Z" fill="white"/>
<path d="M551.873 104.188C551.873 105.318 551.612 106.278 551.092 107.058C550.572 107.848 549.932 108.448 549.162 108.848C548.392 109.258 547.553 109.468 546.623 109.488C545.703 109.508 544.832 109.348 544.022 109.018C543.212 108.678 542.522 108.148 541.962 107.428C541.402 106.708 541.072 105.778 540.982 104.658C540.892 103.488 541.103 102.508 541.623 101.718C542.143 100.928 542.803 100.328 543.623 99.9284C544.433 99.5184 545.312 99.3084 546.262 99.2884C547.212 99.2684 548.103 99.4184 548.933 99.7584C549.763 100.098 550.462 100.638 551.032 101.378C551.592 102.118 551.882 103.058 551.882 104.188H551.873Z" fill="white"/>
<path d="M591.642 91.5384C591.052 94.8284 589.932 97.9784 588.262 100.968C586.592 103.968 584.272 106.388 581.292 108.238C579.802 108.958 578.222 109.428 576.562 109.658C574.892 109.878 573.252 109.858 571.622 109.588C570.002 109.318 568.462 108.768 567.022 107.928C565.582 107.098 564.342 105.978 563.302 104.578C561.052 101.508 559.592 98.3384 558.942 95.0384C558.292 91.7484 558.252 88.2784 558.842 84.6184C559.252 82.0484 559.962 79.4984 560.972 76.9784C561.982 74.4584 563.422 72.2484 565.262 70.3484C566.752 68.8184 568.392 67.6584 570.202 66.8684C572.002 66.0784 573.842 65.6584 575.712 65.6184C577.582 65.5784 579.432 65.9084 581.262 66.6284C583.092 67.3484 584.772 68.4284 586.302 69.8784C587.832 71.3184 589.042 72.9084 589.922 74.6484C590.802 76.3884 591.422 78.1784 591.782 80.0284C592.142 81.8784 592.302 83.7784 592.252 85.7484C592.202 87.7084 592.002 89.6384 591.642 91.5284V91.5384ZM583.862 90.1884C584.132 88.8384 584.242 87.2384 584.202 85.3884C584.152 83.5384 583.852 81.7584 583.292 80.0484C582.732 78.3384 581.872 76.8884 580.722 75.7184C579.572 74.5484 578.002 73.9584 576.022 73.9584C573.862 73.9584 572.122 74.6584 570.812 76.0584C569.502 77.4584 568.522 79.1584 567.872 81.1684C567.222 83.1784 566.822 85.2484 566.692 87.3884C566.562 89.5284 566.602 91.3484 566.832 92.8284C566.972 93.8184 567.202 94.8584 567.542 95.9384C567.882 97.0184 568.322 98.0084 568.862 98.9184C569.402 99.8184 570.092 100.538 570.922 101.078C571.752 101.618 572.762 101.868 573.932 101.818C575.552 101.728 576.922 101.358 578.022 100.698C579.122 100.048 580.062 99.2084 580.832 98.1984C581.602 97.1884 582.222 96.0084 582.692 94.6784C583.162 93.3484 583.542 91.9584 583.812 90.5184L583.882 90.1784L583.862 90.1884Z" fill="white"/>
<path d="M35.83 161.93C36.55 161.21 37.37 160.79 38.3 160.68C39.22 160.57 40.07 160.69 40.84 161.05C41.61 161.41 42.2 161.99 42.63 162.77C43.06 163.56 43.16 164.49 42.93 165.58C42.66 166.66 42.14 167.67 41.37 168.59C40.6 169.51 39.84 170.36 39.07 171.13C37.31 172.98 35.36 174.34 33.22 175.22C31.08 176.1 28.91 176.51 26.73 176.47C24.54 176.42 22.4 175.91 20.3 174.91C18.2 173.92 16.32 172.43 14.65 170.45C13.66 169.28 12.82 168.04 12.15 166.73C11.47 165.42 10.96 164.05 10.59 162.6C10.05 160.48 9.80001 158.27 9.85001 155.97C9.89001 153.67 10.26 151.44 10.93 149.27C11.6 147.1 12.56 145.07 13.8 143.15C15.04 141.23 16.56 139.6 18.37 138.25C19.68 137.26 21 136.4 22.33 135.68C23.66 134.96 25.07 134.28 26.56 133.65C27.42 133.29 28.29 132.94 29.2 132.6C30.1 132.26 31.03 132 31.97 131.82C32.92 131.64 33.86 131.57 34.81 131.62C35.76 131.67 36.68 131.87 37.58 132.23C38.21 132.5 38.84 132.87 39.47 133.35C40.1 133.82 40.69 134.36 41.23 134.97C41.77 135.58 42.24 136.22 42.65 136.9C43.06 137.58 43.35 138.23 43.53 138.86C43.67 139.45 43.7 140.04 43.63 140.65C43.56 141.26 43.38 141.81 43.09 142.31C42.8 142.81 42.4 143.22 41.91 143.56C41.41 143.9 40.85 144.11 40.22 144.2C39.18 144.33 38.38 144.22 37.82 143.86C37.26 143.5 36.81 143.05 36.47 142.51C36.13 141.97 35.8 141.44 35.49 140.92C35.17 140.4 34.72 140.03 34.14 139.8C33.78 139.8 33.51 139.82 33.33 139.87C31.8 140.28 30.25 140.83 28.7 141.53C27.14 142.23 25.7 143.07 24.37 144.07C23.04 145.06 21.88 146.21 20.89 147.52C19.9 148.83 19.18 150.29 18.73 151.92C18.19 153.86 17.99 155.82 18.12 157.8C18.26 159.78 18.8 161.66 19.74 163.41C20.28 164.45 21 165.35 21.9 166.12C22.8 166.89 23.79 167.46 24.88 167.84C25.96 168.22 27.07 168.36 28.19 168.25C29.32 168.14 30.4 167.74 31.44 167.07C32.34 166.44 33.15 165.66 33.88 164.74C34.6 163.82 35.26 162.88 35.84 161.93H35.83Z" fill="white"/>
<path d="M87.23 156.59C86.46 159.12 85.48 161.58 84.29 164C83.09 166.41 81.64 168.57 79.93 170.46C78.22 172.35 76.22 173.89 73.94 175.06C71.66 176.23 69.0601 176.82 66.1301 176.82C64.2401 176.73 62.74 176.56 61.63 176.31C60.5201 176.06 59.45 175.69 58.42 175.19C56.57 174.65 54.98 173.78 53.65 172.59C52.32 171.4 51.2 170.01 50.3 168.43C49.4 166.85 48.7101 165.17 48.2401 163.39C47.7701 161.61 47.46 159.88 47.33 158.22C47.1 155.29 47.3501 152.31 48.0701 149.29C48.7901 146.27 49.94 143.49 51.52 140.94C53.1 138.39 55.08 136.21 57.47 134.38C59.86 132.55 62.59 131.35 65.65 130.76C67.23 130.49 68.83 130.4 70.45 130.49C72.07 130.58 73.65 130.9 75.18 131.44C76.44 131.89 77.61 132.41 78.7 133C79.78 133.59 80.82 134.33 81.81 135.23C83.12 136.4 84.22 137.76 85.12 139.29C86.02 140.82 86.68 142.42 87.08 144.09C87.58 146.21 87.8 148.31 87.76 150.38C87.71 152.45 87.53 154.53 87.22 156.6L87.23 156.59ZM69.7101 168.02C71.0601 167.43 72.25 166.66 73.26 165.69C74.27 164.72 75.16 163.65 75.93 162.48C76.7 161.31 77.34 160.06 77.86 158.73C78.38 157.4 78.84 156.06 79.25 154.71C79.52 153 79.67 151.24 79.69 149.43C79.71 147.63 79.3401 145.91 78.5701 144.29C77.9401 142.94 76.98 141.78 75.7 140.81C74.42 139.84 73.01 139.16 71.47 138.78C69.94 138.4 68.39 138.32 66.84 138.54C65.28 138.77 63.9 139.37 62.68 140.37C60.97 141.81 59.58 143.43 58.52 145.21C57.46 146.99 56.66 148.96 56.12 151.13C55.67 152.84 55.42 154.65 55.38 156.54C55.33 158.43 55.63 160.24 56.26 161.95C56.76 163.21 57.4901 164.36 58.4601 165.4C59.4301 166.44 60.5201 167.25 61.7401 167.83C62.9601 168.42 64.2501 168.74 65.6301 168.81C67.01 168.88 68.37 168.62 69.72 168.03L69.7101 168.02Z" fill="white"/>
<path d="M121.11 133.73C121.38 132.83 121.82 132.08 122.43 131.5C123.04 130.91 123.7 130.53 124.43 130.35C125.15 130.17 125.88 130.22 126.63 130.49C127.37 130.76 128.02 131.3 128.56 132.11C128.74 132.34 128.91 132.61 129.07 132.92C129.23 133.24 129.31 133.53 129.31 133.8C129.4 140.25 129.37 146.68 129.21 153.11C129.05 159.53 128.79 165.97 128.43 172.42C128.43 173.46 128.1 174.27 127.45 174.85C126.8 175.43 126.05 175.81 125.22 175.97C124.39 176.13 123.54 176.04 122.68 175.7C121.82 175.36 121.19 174.79 120.79 173.98C120.74 173.93 120.72 173.89 120.72 173.84V173.98C117.79 169.16 114.7 164.52 111.45 160.08C108.2 155.64 104.82 151.23 101.3 146.86V167.35C101.3 168.75 101.28 169.89 101.23 170.77C101.18 171.65 101.13 172.34 101.06 172.83C100.99 173.33 100.89 173.75 100.76 174.12C100.35 175.2 99.73 175.92 98.9 176.28C98.07 176.64 97.22 176.73 96.36 176.55C95.5 176.37 94.76 175.92 94.13 175.2C93.5 174.48 93.18 173.58 93.18 172.49V153.62C93.18 151.73 93.17 149.96 93.15 148.31C93.13 146.66 93.12 145.28 93.12 144.15C93.12 142.62 93.1 141.1 93.05 139.59C93 138.08 93 136.56 93.05 135.02C93.05 134.25 93.24 133.6 93.62 133.06C94 132.52 94.49 132.1 95.07 131.81C95.66 131.52 96.29 131.35 96.96 131.3C97.63 131.25 98.29 131.34 98.92 131.57C99.46 131.75 100.01 132.12 100.58 132.69C101.14 133.25 101.7 133.86 102.24 134.52C102.78 135.17 103.29 135.83 103.76 136.48C104.23 137.13 104.63 137.66 104.94 138.07C106.11 139.51 107.46 141.17 109 143.04C110.53 144.91 111.95 146.68 113.26 148.35C114.57 150.06 115.84 151.78 117.08 153.49C118.32 155.2 119.53 156.92 120.7 158.63C120.84 154.53 120.93 150.45 120.97 146.39C121.01 142.33 121.04 138.25 121.04 134.15L121.11 133.74V133.73Z" fill="white"/>
<path d="M162.64 133.73C162.91 132.83 163.35 132.08 163.96 131.5C164.57 130.91 165.23 130.53 165.96 130.35C166.68 130.17 167.41 130.22 168.16 130.49C168.9 130.76 169.55 131.3 170.09 132.11C170.27 132.34 170.44 132.61 170.6 132.92C170.76 133.24 170.84 133.53 170.84 133.8C170.93 140.25 170.9 146.68 170.74 153.11C170.58 159.53 170.32 165.97 169.96 172.42C169.96 173.46 169.63 174.27 168.98 174.85C168.33 175.43 167.58 175.81 166.75 175.97C165.92 176.13 165.07 176.04 164.21 175.7C163.35 175.36 162.72 174.79 162.32 173.98C162.27 173.93 162.25 173.89 162.25 173.84V173.98C159.32 169.16 156.23 164.52 152.98 160.08C149.73 155.64 146.35 151.23 142.83 146.86V167.35C142.83 168.75 142.81 169.89 142.76 170.77C142.71 171.65 142.66 172.34 142.59 172.83C142.52 173.33 142.42 173.75 142.29 174.12C141.88 175.2 141.26 175.92 140.43 176.28C139.6 176.64 138.75 176.73 137.89 176.55C137.03 176.37 136.29 175.92 135.66 175.2C135.03 174.48 134.71 173.58 134.71 172.49V153.62C134.71 151.73 134.7 149.96 134.68 148.31C134.66 146.66 134.65 145.28 134.65 144.15C134.65 142.62 134.63 141.1 134.58 139.59C134.53 138.08 134.53 136.56 134.58 135.02C134.58 134.25 134.77 133.6 135.15 133.06C135.53 132.52 136.02 132.1 136.6 131.81C137.19 131.52 137.82 131.35 138.49 131.3C139.16 131.25 139.82 131.34 140.45 131.57C140.99 131.75 141.54 132.12 142.11 132.69C142.67 133.25 143.23 133.86 143.77 134.52C144.31 135.17 144.82 135.83 145.29 136.48C145.76 137.13 146.16 137.66 146.47 138.07C147.64 139.51 148.99 141.17 150.53 143.04C152.06 144.91 153.48 146.68 154.79 148.35C156.1 150.06 157.37 151.78 158.61 153.49C159.85 155.2 161.06 156.92 162.23 158.63C162.37 154.53 162.46 150.45 162.5 146.39C162.54 142.33 162.57 138.25 162.57 134.15L162.64 133.74V133.73Z" fill="white"/>
<path d="M201.53 165.45C202.34 165.5 203.05 165.71 203.66 166.09C204.27 166.47 204.76 166.94 205.15 167.48C205.53 168.02 205.76 168.64 205.83 169.34C205.9 170.04 205.75 170.75 205.39 171.47C205.25 171.79 204.97 172.16 204.54 172.59C204.11 173.02 203.72 173.28 203.36 173.37C200.47 174.23 197.51 174.76 194.47 174.96C191.43 175.16 188.42 175.11 185.44 174.79C184.58 174.7 183.65 174.61 182.63 174.52C181.62 174.43 180.72 174.14 179.96 173.64C178.56 172.74 177.86 171.45 177.86 169.79V140.98C177.36 140.62 176.96 140.17 176.64 139.63C176.32 139.09 176.13 138.51 176.07 137.91C176 137.3 176.08 136.72 176.31 136.15C176.54 135.59 176.92 135.1 177.46 134.7C178.36 133.98 179.4 133.49 180.57 133.25C181.74 133 182.89 132.79 184.02 132.61C186.36 132.25 188.71 132.07 191.05 132.07C193.39 132.07 195.78 132.05 198.22 132C198.94 132 199.78 131.94 200.72 131.83C201.67 131.72 202.5 131.8 203.22 132.07C204.08 132.39 204.75 132.88 205.25 133.56C205.75 134.24 206.04 134.96 206.13 135.72C206.22 136.49 206.07 137.23 205.69 137.95C205.31 138.67 204.64 139.24 203.69 139.64C202.56 140.09 201.36 140.29 200.07 140.25C198.78 140.21 197.56 140.18 196.38 140.18C194.67 140.18 192.95 140.2 191.24 140.25C189.53 140.29 187.81 140.43 186.1 140.66V150.06C187.72 150.15 189.35 150.15 190.97 150.06C192.59 149.97 194.22 149.86 195.84 149.72C196.56 149.68 197.28 149.61 198 149.52C198.72 149.43 199.46 149.43 200.23 149.52C201.22 149.65 201.99 150.06 202.53 150.74C203.07 151.42 203.4 152.17 203.51 153.01C203.62 153.84 203.48 154.67 203.07 155.48C202.66 156.29 202.01 156.88 201.11 157.24C200.34 157.56 199.31 157.79 198 157.95C196.69 158.11 195.32 158.22 193.87 158.29C192.43 158.36 191.01 158.39 189.61 158.39C188.21 158.39 187.04 158.37 186.09 158.32V166.64C188.57 166.96 191.07 167 193.6 166.77C196.12 166.55 198.6 166.12 201.04 165.48H201.51L201.53 165.45Z" fill="white"/>
<path d="M235.21 161.93C235.93 161.21 236.75 160.79 237.68 160.68C238.6 160.57 239.45 160.69 240.22 161.05C240.99 161.41 241.58 161.99 242.01 162.77C242.44 163.56 242.54 164.49 242.31 165.58C242.04 166.66 241.52 167.67 240.75 168.59C239.98 169.51 239.22 170.36 238.45 171.13C236.69 172.98 234.74 174.34 232.6 175.22C230.46 176.1 228.29 176.51 226.11 176.47C223.92 176.42 221.78 175.91 219.68 174.91C217.58 173.92 215.7 172.43 214.03 170.45C213.04 169.28 212.2 168.04 211.53 166.73C210.85 165.42 210.34 164.05 209.97 162.6C209.43 160.48 209.18 158.27 209.23 155.97C209.27 153.67 209.64 151.44 210.31 149.27C210.98 147.1 211.94 145.07 213.18 143.15C214.42 141.23 215.94 139.6 217.75 138.25C219.06 137.26 220.38 136.4 221.71 135.68C223.04 134.96 224.45 134.28 225.94 133.65C226.8 133.29 227.67 132.94 228.58 132.6C229.48 132.26 230.41 132 231.35 131.82C232.3 131.64 233.24 131.57 234.19 131.62C235.14 131.67 236.06 131.87 236.96 132.23C237.59 132.5 238.22 132.87 238.85 133.35C239.48 133.82 240.07 134.36 240.61 134.97C241.15 135.58 241.62 136.22 242.03 136.9C242.44 137.58 242.73 138.23 242.91 138.86C243.05 139.45 243.08 140.04 243.01 140.65C242.94 141.26 242.76 141.81 242.47 142.31C242.18 142.81 241.78 143.22 241.29 143.56C240.79 143.9 240.23 144.11 239.6 144.2C238.56 144.33 237.76 144.22 237.2 143.86C236.64 143.5 236.19 143.05 235.85 142.51C235.51 141.97 235.18 141.44 234.87 140.92C234.55 140.4 234.1 140.03 233.52 139.8C233.16 139.8 232.89 139.82 232.71 139.87C231.18 140.28 229.63 140.83 228.08 141.53C226.52 142.23 225.08 143.07 223.75 144.07C222.42 145.06 221.26 146.21 220.27 147.52C219.28 148.83 218.56 150.29 218.11 151.92C217.57 153.86 217.37 155.82 217.5 157.8C217.64 159.78 218.18 161.66 219.12 163.41C219.66 164.45 220.38 165.35 221.28 166.12C222.18 166.89 223.17 167.46 224.26 167.84C225.34 168.22 226.45 168.36 227.57 168.25C228.7 168.14 229.78 167.74 230.82 167.07C231.72 166.44 232.53 165.66 233.26 164.74C233.98 163.82 234.64 162.88 235.22 161.93H235.21Z" fill="white"/>
<path d="M276.73 132.24C277.59 132.6 278.3 133.18 278.86 133.96C279.42 134.75 279.76 135.56 279.87 136.4C279.98 137.23 279.82 137.99 279.4 138.67C278.97 139.35 278.22 139.8 277.13 140.02C275.06 140.38 273.11 140.54 271.28 140.49C269.45 140.44 267.86 140.42 266.51 140.42C266.51 145.83 266.53 151.15 266.58 156.38C266.62 161.61 266.6 167.13 266.51 172.95C266.51 174.21 266.08 175.12 265.22 175.69C264.36 176.25 263.43 176.49 262.41 176.4C261.4 176.31 260.46 175.9 259.6 175.18C258.74 174.46 258.32 173.47 258.32 172.2C258.27 166.88 258.25 161.58 258.25 156.31V140.42C257.84 140.42 257.16 140.44 256.19 140.49C255.22 140.53 254.16 140.55 253.01 140.52C251.86 140.5 250.68 140.41 249.46 140.25C248.24 140.09 247.18 139.79 246.28 139.34C245.56 138.98 245.09 138.45 244.86 137.75C244.63 137.05 244.62 136.34 244.83 135.62C245.03 134.9 245.41 134.22 245.95 133.59C246.49 132.96 247.17 132.53 247.98 132.31C251.77 132.08 255.43 132.01 258.97 132.07C262.51 132.14 266.11 132.17 269.76 132.17C270.84 132.17 271.92 132.16 273.01 132.14C274.09 132.12 275.2 132.11 276.32 132.11L276.73 132.24Z" fill="white"/>
<path d="M301.35 166.73C302.52 166.78 303.49 167.13 304.26 167.78C305.03 168.43 305.52 169.19 305.75 170.05C305.98 170.91 305.91 171.75 305.55 172.59C305.19 173.42 304.44 174.07 303.32 174.52C302.51 174.83 301.55 175.04 300.45 175.13C299.35 175.22 298.24 175.25 297.14 175.23C296.04 175.21 295.01 175.16 294.06 175.09C293.11 175.02 292.39 174.99 291.9 174.99H287.91C286.96 174.99 286.15 174.73 285.48 174.21C284.81 173.69 284.32 173.07 284.03 172.35C283.74 171.63 283.67 170.86 283.83 170.05C283.99 169.24 284.41 168.49 285.08 167.82C285.71 167.19 286.54 166.83 287.58 166.74C288.62 166.65 289.65 166.65 290.69 166.74V139.96C289.65 139.96 288.68 139.95 287.78 139.93C286.88 139.91 285.98 139.58 285.07 138.95C284.39 138.45 283.94 137.88 283.72 137.23C283.49 136.58 283.46 135.92 283.62 135.27C283.78 134.62 284.08 134 284.53 133.41C284.98 132.82 285.54 132.4 286.22 132.12C286.85 131.85 287.5 131.71 288.18 131.71C290.48 131.71 292.79 131.7 295.11 131.68C297.43 131.66 299.77 131.67 302.11 131.71C302.34 131.71 302.55 131.78 302.75 131.91C302.95 132.05 303.17 132.16 303.39 132.25C304.43 132.84 305.12 133.67 305.49 134.75C305.85 135.83 305.72 136.89 305.08 137.93C304.76 138.47 304.37 138.89 303.9 139.18C303.43 139.47 302.91 139.68 302.34 139.79C301.78 139.9 301.2 139.96 300.62 139.96H298.93V166.88C299.29 166.88 299.62 166.87 299.91 166.85C300.2 166.83 300.53 166.79 300.89 166.75H301.36L301.35 166.73Z" fill="white"/>
<path d="M351.26 156.59C350.49 159.12 349.51 161.58 348.32 164C347.12 166.41 345.67 168.57 343.96 170.46C342.25 172.35 340.25 173.89 337.97 175.06C335.69 176.23 333.09 176.82 330.16 176.82C328.27 176.73 326.77 176.56 325.66 176.31C324.55 176.06 323.48 175.69 322.45 175.19C320.6 174.65 319.01 173.78 317.68 172.59C316.35 171.4 315.23 170.01 314.33 168.43C313.43 166.85 312.74 165.17 312.27 163.39C311.8 161.61 311.49 159.88 311.36 158.22C311.13 155.29 311.38 152.31 312.1 149.29C312.82 146.27 313.97 143.49 315.55 140.94C317.13 138.39 319.11 136.21 321.5 134.38C323.89 132.55 326.62 131.35 329.68 130.76C331.26 130.49 332.86 130.4 334.48 130.49C336.1 130.58 337.68 130.9 339.21 131.44C340.47 131.89 341.64 132.41 342.73 133C343.81 133.59 344.85 134.33 345.84 135.23C347.15 136.4 348.25 137.76 349.15 139.29C350.05 140.82 350.71 142.42 351.11 144.09C351.61 146.21 351.83 148.31 351.79 150.38C351.74 152.45 351.56 154.53 351.25 156.6L351.26 156.59ZM333.74 168.02C335.09 167.43 336.28 166.66 337.29 165.69C338.3 164.72 339.19 163.65 339.96 162.48C340.73 161.31 341.37 160.06 341.89 158.73C342.41 157.4 342.87 156.06 343.28 154.71C343.55 153 343.7 151.24 343.72 149.43C343.74 147.63 343.37 145.91 342.6 144.29C341.97 142.94 341.01 141.78 339.73 140.81C338.45 139.84 337.04 139.16 335.5 138.78C333.97 138.4 332.42 138.32 330.87 138.54C329.31 138.77 327.93 139.37 326.71 140.37C325 141.81 323.61 143.43 322.55 145.21C321.49 146.99 320.69 148.96 320.15 151.13C319.7 152.84 319.45 154.65 319.41 156.54C319.36 158.43 319.66 160.24 320.29 161.95C320.79 163.21 321.52 164.36 322.49 165.4C323.46 166.44 324.55 167.25 325.77 167.83C326.99 168.42 328.28 168.74 329.66 168.81C331.04 168.88 332.4 168.62 333.75 168.03L333.74 168.02Z" fill="white"/>
<path d="M385.15 133.73C385.42 132.83 385.86 132.08 386.47 131.5C387.08 130.91 387.74 130.53 388.47 130.35C389.19 130.17 389.92 130.22 390.67 130.49C391.41 130.76 392.06 131.3 392.6 132.11C392.78 132.34 392.95 132.61 393.11 132.92C393.27 133.24 393.35 133.53 393.35 133.8C393.44 140.25 393.41 146.68 393.25 153.11C393.09 159.53 392.83 165.97 392.47 172.42C392.47 173.46 392.14 174.27 391.49 174.85C390.84 175.43 390.09 175.81 389.26 175.97C388.43 176.13 387.58 176.04 386.72 175.7C385.86 175.36 385.23 174.79 384.83 173.98C384.78 173.93 384.76 173.89 384.76 173.84V173.98C381.83 169.16 378.74 164.52 375.49 160.08C372.24 155.64 368.86 151.23 365.34 146.86V167.35C365.34 168.75 365.32 169.89 365.27 170.77C365.22 171.65 365.17 172.34 365.1 172.83C365.03 173.33 364.93 173.75 364.8 174.12C364.39 175.2 363.77 175.92 362.94 176.28C362.11 176.64 361.26 176.73 360.4 176.55C359.54 176.37 358.8 175.92 358.17 175.2C357.54 174.48 357.22 173.58 357.22 172.49V153.62C357.22 151.73 357.21 149.96 357.19 148.31C357.17 146.66 357.16 145.28 357.16 144.15C357.16 142.62 357.14 141.1 357.09 139.59C357.04 138.08 357.04 136.56 357.09 135.02C357.09 134.25 357.28 133.6 357.66 133.06C358.04 132.52 358.53 132.1 359.11 131.81C359.7 131.52 360.33 131.35 361 131.3C361.67 131.25 362.33 131.34 362.96 131.57C363.5 131.75 364.05 132.12 364.62 132.69C365.18 133.25 365.74 133.86 366.28 134.52C366.82 135.17 367.33 135.83 367.8 136.48C368.27 137.13 368.67 137.66 368.98 138.07C370.15 139.51 371.5 141.17 373.04 143.04C374.57 144.91 375.99 146.68 377.3 148.35C378.61 150.06 379.88 151.78 381.12 153.49C382.36 155.2 383.57 156.92 384.74 158.63C384.88 154.53 384.97 150.45 385.01 146.39C385.05 142.33 385.08 138.25 385.08 134.15L385.15 133.74V133.73Z" fill="white"/>
</g>
<g filter="url(#filter2_d_3_3)">
<path d="M30.33 244.2C30.11 244.4 29.8 244.56 29.41 244.7C29.02 244.84 28.57 244.91 28.07 244.91C27.49 244.91 26.98 244.82 26.54 244.64C26.11 244.46 25.81 244.17 25.64 243.78C24.36 240.83 23.25 238.21 22.32 235.92C21.39 233.64 20.64 231.73 20.08 230.19H19.87C19.79 232.17 19.71 233.99 19.64 235.65C19.57 237.31 19.49 238.93 19.41 240.52C19.33 242.11 19.24 243.73 19.14 245.37C19.04 247.01 18.94 248.78 18.83 250.68C18.61 250.76 18.32 250.84 17.97 250.91C17.62 250.98 17.25 251.01 16.86 251.01C15.36 251.01 14.6 250.4 14.6 249.17C14.6 248.81 14.62 248.17 14.66 247.25C14.7 246.33 14.76 245.24 14.83 243.97C14.9 242.7 14.98 241.3 15.08 239.77C15.18 238.24 15.28 236.68 15.39 235.11C15.5 233.54 15.61 231.99 15.72 230.47C15.83 228.95 15.94 227.55 16.05 226.27C16.27 226.05 16.64 225.81 17.16 225.56C17.68 225.31 18.31 225.18 19.06 225.18C19.95 225.18 20.66 225.34 21.19 225.66C21.72 225.98 22.14 226.46 22.44 227.1C22.89 228.08 23.35 229.13 23.82 230.26C24.29 231.39 24.77 232.53 25.24 233.69C25.71 234.85 26.17 236 26.62 237.14C27.07 238.28 27.5 239.36 27.92 240.36H28.13C28.66 238.97 29.2 237.59 29.74 236.22C30.28 234.85 30.81 233.54 31.33 232.29C31.85 231.04 32.33 229.85 32.79 228.74C33.25 227.63 33.67 226.62 34.06 225.73C34.37 225.59 34.74 225.47 35.19 225.35C35.64 225.24 36.1 225.18 36.57 225.18C37.49 225.18 38.18 225.32 38.64 225.6C39.1 225.88 39.4 226.28 39.54 226.81C39.65 227.31 39.78 228.14 39.92 229.3C40.06 230.46 40.2 231.79 40.34 233.29C40.48 234.79 40.62 236.39 40.76 238.08C40.9 239.77 41.02 241.4 41.14 242.97C41.25 244.54 41.35 245.99 41.43 247.32C41.51 248.64 41.57 249.68 41.6 250.43C41.29 250.63 40.97 250.77 40.62 250.87C40.27 250.97 39.86 251.02 39.39 251.02C38.81 251.02 38.3 250.89 37.86 250.64C37.43 250.39 37.18 249.92 37.13 249.22C37.02 247.33 36.91 245.46 36.82 243.62C36.72 241.78 36.63 240.04 36.55 238.4C36.47 236.76 36.39 235.24 36.32 233.84C36.25 232.45 36.19 231.26 36.13 230.29H35.96C35.43 231.71 34.71 233.52 33.81 235.72C32.9 237.92 31.74 240.75 30.32 244.21L30.33 244.2Z" fill="white"/>
<path d="M50.39 246.16C49.69 244.79 48.84 242.86 47.84 240.35C46.84 237.84 45.86 235 44.91 231.82C45.16 231.51 45.5 231.26 45.91 231.05C46.32 230.84 46.77 230.74 47.25 230.74C47.86 230.74 48.36 230.89 48.75 231.18C49.14 231.47 49.46 231.98 49.71 232.71C50.46 234.97 51.24 237.19 52.05 239.38C52.86 241.57 53.75 243.83 54.73 246.17H54.9C55.32 245.28 55.74 244.23 56.17 243.04C56.6 241.84 57.03 240.57 57.44 239.24C57.86 237.9 58.25 236.54 58.61 235.16C58.97 233.78 59.29 232.46 59.57 231.21C59.85 231.07 60.13 230.96 60.43 230.88C60.72 230.8 61.06 230.75 61.45 230.75C62.06 230.75 62.58 230.9 63 231.19C63.42 231.48 63.63 231.94 63.63 232.55C63.63 233.27 63.44 234.38 63.07 235.87C62.69 237.36 62.2 239 61.59 240.8C60.98 242.6 60.28 244.42 59.5 246.26C58.72 248.1 57.94 249.73 57.16 251.15C55.77 253.6 54.51 255.47 53.38 256.75C52.25 258.03 51.19 258.67 50.18 258.67C49.4 258.67 48.78 258.45 48.32 258.02C47.86 257.59 47.57 257.05 47.46 256.41C47.91 256.02 48.39 255.55 48.92 254.99C49.45 254.43 49.98 253.83 50.51 253.19C51.04 252.55 51.54 251.89 52.01 251.2C52.48 250.52 52.89 249.86 53.22 249.21C52.75 249.07 52.29 248.8 51.84 248.39C51.39 247.99 50.91 247.24 50.38 246.15L50.39 246.16Z" fill="white"/>
<path d="M82.4101 245.32C82.4101 247.19 81.7101 248.65 80.3201 249.71C78.9301 250.77 76.9101 251.3 74.2601 251.3C73.1701 251.3 72.1701 251.22 71.2501 251.05C70.3301 250.88 69.5401 250.65 68.8901 250.34C68.2301 250.03 67.7301 249.67 67.3601 249.25C67.0001 248.83 66.8201 248.37 66.8201 247.87C66.8201 247.45 66.9201 247.06 67.1301 246.7C67.3401 246.34 67.6201 246.05 67.9901 245.82C68.7701 246.32 69.6601 246.78 70.6701 247.2C71.6701 247.62 72.8401 247.83 74.1801 247.83C75.4301 247.83 76.4001 247.62 77.0601 247.18C77.7301 246.75 78.0601 246.13 78.0601 245.32C78.0601 244.62 77.8301 244.07 77.3701 243.65C76.9101 243.23 76.2301 242.91 75.3401 242.69L72.5001 241.94C70.6001 241.44 69.2101 240.76 68.3201 239.89C67.4301 239.03 66.9801 237.84 66.9801 236.34C66.9801 235.53 67.1501 234.77 67.4801 234.06C67.8101 233.35 68.3101 232.74 68.9601 232.22C69.6101 231.7 70.4301 231.3 71.4101 231.01C72.3901 230.72 73.5001 230.57 74.7501 230.57C75.7501 230.57 76.6701 230.65 77.4901 230.8C78.3101 230.95 79.0201 231.16 79.6201 231.43C80.2201 231.69 80.6901 232.02 81.0201 232.41C81.3501 232.8 81.5201 233.22 81.5201 233.66C81.5201 234.1 81.4201 234.49 81.2301 234.81C81.0301 235.13 80.7801 235.39 80.4801 235.58C79.9801 235.27 79.2301 234.94 78.2401 234.58C77.2501 234.22 76.1801 234.04 75.0401 234.04C73.9001 234.04 72.9501 234.24 72.2801 234.65C71.6101 235.05 71.2801 235.62 71.2801 236.34C71.2801 236.9 71.4701 237.36 71.8401 237.72C72.2201 238.08 72.8601 238.38 73.7801 238.6L76.2001 239.23C78.3201 239.79 79.8801 240.54 80.8801 241.49C81.8801 242.44 82.3801 243.72 82.3801 245.34L82.4101 245.32Z" fill="white"/>
<path d="M92.28 247.12C92.86 247.54 93.69 247.75 94.75 247.75C95.22 247.75 95.73 247.68 96.25 247.54C96.78 247.4 97.2401 247.23 97.6301 247.04C97.8201 247.26 98 247.51 98.15 247.79C98.3 248.07 98.3801 248.4 98.3801 248.79C98.3801 249.51 98.01 250.11 97.2701 250.59C96.5301 251.06 95.41 251.3 93.91 251.3C91.82 251.3 90.15 250.83 88.91 249.9C87.67 248.97 87.05 247.43 87.05 245.28V225.76C87.24 225.7 87.52 225.63 87.89 225.55C88.25 225.47 88.64 225.42 89.06 225.42C89.87 225.42 90.46 225.57 90.84 225.88C91.22 226.19 91.4 226.7 91.4 227.43V231.57H97.8801C97.9901 231.74 98.1 231.97 98.19 232.28C98.29 232.59 98.34 232.91 98.34 233.24C98.34 234.44 97.82 235.04 96.79 235.04H91.4V244.99C91.4 245.99 91.69 246.7 92.28 247.12Z" fill="white"/>
<path d="M105.74 243.15C106.13 244.74 106.89 245.92 108.02 246.68C109.15 247.45 110.59 247.83 112.35 247.83C113.52 247.83 114.59 247.65 115.57 247.29C116.55 246.93 117.33 246.54 117.91 246.12C118.69 246.57 119.08 247.19 119.08 248C119.08 248.47 118.9 248.91 118.54 249.32C118.18 249.72 117.68 250.07 117.06 250.36C116.43 250.65 115.69 250.88 114.84 251.05C113.99 251.22 113.08 251.3 112.1 251.3C110.48 251.3 109.01 251.08 107.69 250.63C106.37 250.18 105.23 249.52 104.28 248.62C103.33 247.73 102.6 246.63 102.09 245.32C101.57 244.01 101.32 242.49 101.32 240.76C101.32 239.03 101.57 237.62 102.07 236.35C102.57 235.08 103.25 234.02 104.12 233.17C104.98 232.32 106 231.67 107.17 231.23C108.34 230.78 109.59 230.56 110.93 230.56C112.27 230.56 113.49 230.78 114.59 231.21C115.69 231.64 116.64 232.24 117.43 233.01C118.22 233.78 118.84 234.69 119.27 235.75C119.7 236.81 119.92 237.97 119.92 239.22C119.92 239.92 119.75 240.43 119.42 240.75C119.09 241.07 118.6 241.29 117.96 241.4L105.75 243.15H105.74ZM110.92 233.95C109.39 233.95 108.11 234.47 107.1 235.5C106.08 236.53 105.55 238.01 105.49 239.93L115.77 238.47C115.66 237.22 115.2 236.15 114.39 235.27C113.58 234.39 112.43 233.95 110.92 233.95Z" fill="white"/>
<path d="M128.73 250.63C128.54 250.71 128.26 250.79 127.92 250.86C127.57 250.93 127.19 250.96 126.77 250.96C125.96 250.96 125.36 250.81 124.97 250.5C124.58 250.19 124.38 249.68 124.38 248.95V235.24C124.38 234.54 124.52 233.98 124.8 233.55C125.08 233.12 125.52 232.71 126.14 232.32C126.95 231.82 127.98 231.4 129.23 231.07C130.48 230.74 131.86 230.57 133.37 230.57C135.82 230.57 137.05 231.27 137.05 232.66C137.05 232.99 136.99 233.31 136.88 233.6C136.77 233.89 136.64 234.15 136.5 234.37C136.22 234.31 135.87 234.26 135.46 234.2C135.04 234.14 134.6 234.12 134.12 234.12C133.01 234.12 131.99 234.24 131.07 234.48C130.15 234.72 129.37 235.02 128.73 235.38V250.64V250.63Z" fill="white"/>
<path d="M145.07 246.16C144.37 244.79 143.52 242.86 142.52 240.35C141.52 237.84 140.54 235 139.59 231.82C139.84 231.51 140.18 231.26 140.59 231.05C141 230.84 141.45 230.74 141.93 230.74C142.54 230.74 143.04 230.89 143.43 231.18C143.82 231.47 144.14 231.98 144.39 232.71C145.14 234.97 145.92 237.19 146.73 239.38C147.54 241.57 148.43 243.83 149.41 246.17H149.58C150 245.28 150.42 244.23 150.85 243.04C151.28 241.84 151.71 240.57 152.12 239.24C152.54 237.9 152.93 236.54 153.29 235.16C153.65 233.78 153.97 232.46 154.25 231.21C154.53 231.07 154.81 230.96 155.11 230.88C155.4 230.8 155.74 230.75 156.13 230.75C156.74 230.75 157.26 230.9 157.68 231.19C158.1 231.48 158.31 231.94 158.31 232.55C158.31 233.27 158.12 234.38 157.75 235.87C157.37 237.36 156.88 239 156.27 240.8C155.66 242.6 154.96 244.42 154.18 246.26C153.4 248.1 152.62 249.73 151.84 251.15C150.45 253.6 149.19 255.47 148.06 256.75C146.93 258.03 145.87 258.67 144.86 258.67C144.08 258.67 143.46 258.45 143 258.02C142.54 257.59 142.25 257.05 142.14 256.41C142.59 256.02 143.07 255.55 143.6 254.99C144.13 254.43 144.66 253.83 145.19 253.19C145.72 252.55 146.22 251.89 146.69 251.2C147.16 250.52 147.57 249.86 147.9 249.21C147.43 249.07 146.97 248.8 146.52 248.39C146.07 247.99 145.59 247.24 145.06 246.15L145.07 246.16Z" fill="white"/>
<path d="M180.19 230.57C181.5 230.57 182.73 230.79 183.87 231.22C185.01 231.65 186 232.29 186.84 233.14C187.68 233.99 188.33 235.06 188.8 236.36C189.27 237.66 189.51 239.17 189.51 240.9C189.51 242.63 189.27 244.19 188.78 245.5C188.29 246.81 187.6 247.89 186.71 248.74C185.82 249.59 184.75 250.23 183.51 250.66C182.27 251.09 180.9 251.31 179.39 251.31C177.88 251.31 176.55 251.13 175.4 250.77C174.24 250.41 173.3 249.99 172.58 249.52C172 249.13 171.58 248.74 171.33 248.35C171.08 247.96 170.95 247.46 170.95 246.85V223.61C171.14 223.55 171.42 223.48 171.79 223.4C172.15 223.32 172.54 223.27 172.96 223.27C173.77 223.27 174.36 223.42 174.74 223.73C175.12 224.04 175.3 224.55 175.3 225.28V231.88C175.91 231.55 176.62 231.25 177.43 230.98C178.24 230.72 179.16 230.58 180.19 230.58V230.57ZM179.48 234.08C178.59 234.08 177.79 234.23 177.1 234.52C176.4 234.81 175.8 235.15 175.3 235.54V246.66C175.69 246.94 176.23 247.19 176.93 247.41C177.63 247.63 178.43 247.74 179.35 247.74C181.05 247.74 182.43 247.18 183.49 246.07C184.55 244.96 185.08 243.23 185.08 240.89C185.08 238.55 184.56 236.79 183.51 235.71C182.46 234.63 181.12 234.08 179.48 234.08Z" fill="white"/>
<path d="M213.04 240.94C213.04 242.53 212.8 243.96 212.33 245.25C211.86 246.53 211.19 247.62 210.34 248.51C209.49 249.4 208.45 250.09 207.23 250.58C206 251.07 204.64 251.31 203.13 251.31C201.62 251.31 200.26 251.07 199.03 250.58C197.8 250.09 196.77 249.4 195.92 248.51C195.07 247.62 194.41 246.53 193.93 245.25C193.46 243.97 193.22 242.53 193.22 240.94C193.22 239.35 193.46 237.92 193.93 236.63C194.4 235.35 195.07 234.26 195.94 233.37C196.8 232.48 197.85 231.79 199.08 231.3C200.31 230.81 201.66 230.57 203.13 230.57C204.6 230.57 205.96 230.81 207.18 231.3C208.41 231.79 209.45 232.48 210.32 233.39C211.18 234.3 211.85 235.38 212.33 236.65C212.8 237.92 213.04 239.35 213.04 240.94ZM203.13 234.08C201.46 234.08 200.13 234.68 199.16 235.88C198.18 237.08 197.7 238.76 197.7 240.94C197.7 243.12 198.17 244.79 199.12 245.98C200.07 247.16 201.4 247.76 203.13 247.76C204.86 247.76 206.2 247.17 207.14 245.98C208.09 244.8 208.56 243.12 208.56 240.94C208.56 238.76 208.08 237.11 207.12 235.9C206.16 234.69 204.83 234.08 203.13 234.08Z" fill="white"/>
<path d="M217.43 246.75C218.24 245.72 219.06 244.71 219.9 243.72C220.74 242.73 221.56 241.73 222.37 240.73C221.31 239.39 220.29 238.11 219.3 236.88C218.31 235.65 217.29 234.4 216.23 233.12C216.37 232.42 216.64 231.87 217.04 231.45C217.44 231.03 217.95 230.82 218.57 230.82C219.19 230.82 219.61 230.97 219.95 231.28C220.29 231.59 220.65 231.99 221.04 232.49C221.68 233.35 222.34 234.27 223.03 235.23C223.71 236.19 224.42 237.15 225.14 238.09C226.09 236.86 226.99 235.69 227.86 234.56C228.72 233.43 229.62 232.2 230.54 230.86C230.68 230.83 230.86 230.82 231.08 230.82C231.86 230.82 232.47 231 232.92 231.36C233.37 231.72 233.59 232.18 233.59 232.74C233.59 233.16 233.5 233.54 233.32 233.89C233.14 234.24 232.82 234.69 232.38 235.25C231.63 236.17 230.85 237.09 230.06 238.01C229.27 238.93 228.49 239.85 227.74 240.77L234.01 248.84C233.93 249.51 233.68 250.04 233.26 250.43C232.84 250.82 232.31 251.02 231.67 251.02C231.03 251.02 230.56 250.85 230.19 250.52C229.81 250.19 229.39 249.73 228.92 249.14C228.28 248.25 227.62 247.32 226.93 246.36C226.25 245.4 225.59 244.46 224.94 243.54C224.02 244.77 223.1 246 222.18 247.24C221.26 248.48 220.37 249.73 219.5 250.98H218.83C217.97 250.98 217.32 250.8 216.89 250.44C216.46 250.08 216.24 249.63 216.24 249.1C216.24 248.74 216.32 248.4 216.49 248.08C216.66 247.76 216.98 247.32 217.45 246.76L217.43 246.75Z" fill="white"/>
<path d="M241.26 243.15C241.65 244.74 242.41 245.92 243.54 246.68C244.67 247.45 246.11 247.83 247.87 247.83C249.04 247.83 250.11 247.65 251.09 247.29C252.07 246.93 252.85 246.54 253.43 246.12C254.21 246.57 254.6 247.19 254.6 248C254.6 248.47 254.42 248.91 254.06 249.32C253.7 249.72 253.2 250.07 252.58 250.36C251.95 250.65 251.21 250.88 250.36 251.05C249.51 251.22 248.6 251.3 247.62 251.3C246 251.3 244.53 251.08 243.21 250.63C241.89 250.18 240.75 249.52 239.8 248.62C238.85 247.73 238.12 246.63 237.61 245.32C237.09 244.01 236.84 242.49 236.84 240.76C236.84 239.03 237.09 237.62 237.59 236.35C238.09 235.08 238.77 234.02 239.64 233.17C240.5 232.32 241.52 231.67 242.69 231.23C243.86 230.78 245.11 230.56 246.45 230.56C247.79 230.56 249.01 230.78 250.11 231.21C251.21 231.64 252.16 232.24 252.95 233.01C253.74 233.78 254.36 234.69 254.79 235.75C255.22 236.81 255.44 237.97 255.44 239.22C255.44 239.92 255.27 240.43 254.94 240.75C254.61 241.07 254.12 241.29 253.48 241.4L241.27 243.15H241.26ZM246.44 233.95C244.91 233.95 243.63 234.47 242.62 235.5C241.6 236.53 241.07 238.01 241.01 239.93L251.29 238.47C251.18 237.22 250.72 236.15 249.91 235.27C249.1 234.39 247.95 233.95 246.44 233.95Z" fill="white"/>
<path d="M274.66 245.32C274.66 247.19 273.96 248.65 272.57 249.71C271.18 250.77 269.16 251.3 266.51 251.3C265.42 251.3 264.42 251.22 263.5 251.05C262.58 250.88 261.79 250.65 261.14 250.34C260.48 250.03 259.98 249.67 259.61 249.25C259.25 248.83 259.07 248.37 259.07 247.87C259.07 247.45 259.17 247.06 259.38 246.7C259.59 246.34 259.87 246.05 260.24 245.82C261.02 246.32 261.91 246.78 262.92 247.2C263.92 247.62 265.09 247.83 266.43 247.83C267.68 247.83 268.65 247.62 269.31 247.18C269.98 246.75 270.31 246.13 270.31 245.32C270.31 244.62 270.08 244.07 269.62 243.65C269.16 243.23 268.48 242.91 267.59 242.69L264.75 241.94C262.85 241.44 261.46 240.76 260.57 239.89C259.68 239.03 259.23 237.84 259.23 236.34C259.23 235.53 259.4 234.77 259.73 234.06C260.06 233.35 260.56 232.74 261.21 232.22C261.86 231.7 262.68 231.3 263.66 231.01C264.64 230.72 265.75 230.57 267 230.57C268 230.57 268.92 230.65 269.74 230.8C270.56 230.95 271.27 231.16 271.87 231.43C272.47 231.69 272.94 232.02 273.27 232.41C273.6 232.8 273.77 233.22 273.77 233.66C273.77 234.1 273.67 234.49 273.48 234.81C273.28 235.13 273.03 235.39 272.73 235.58C272.23 235.27 271.48 234.94 270.49 234.58C269.5 234.22 268.43 234.04 267.29 234.04C266.15 234.04 265.2 234.24 264.53 234.65C263.86 235.05 263.53 235.62 263.53 236.34C263.53 236.9 263.72 237.36 264.09 237.72C264.47 238.08 265.11 238.38 266.03 238.6L268.45 239.23C270.57 239.79 272.13 240.54 273.13 241.49C274.13 242.44 274.63 243.72 274.63 245.34L274.66 245.32Z" fill="white"/>
<path d="M306.39 240.94C306.39 242.53 306.15 243.96 305.68 245.25C305.21 246.53 304.54 247.62 303.69 248.51C302.84 249.4 301.8 250.09 300.58 250.58C299.35 251.07 297.99 251.31 296.48 251.31C294.97 251.31 293.61 251.07 292.38 250.58C291.15 250.09 290.12 249.4 289.27 248.51C288.42 247.62 287.76 246.53 287.28 245.25C286.81 243.97 286.57 242.53 286.57 240.94C286.57 239.35 286.81 237.92 287.28 236.63C287.75 235.35 288.42 234.26 289.29 233.37C290.15 232.48 291.2 231.79 292.43 231.3C293.66 230.81 295.01 230.57 296.48 230.57C297.95 230.57 299.31 230.81 300.53 231.3C301.76 231.79 302.8 232.48 303.67 233.39C304.53 234.3 305.2 235.38 305.68 236.65C306.15 237.92 306.39 239.35 306.39 240.94ZM296.48 234.08C294.81 234.08 293.48 234.68 292.51 235.88C291.53 237.08 291.05 238.76 291.05 240.94C291.05 243.12 291.52 244.79 292.47 245.98C293.42 247.16 294.75 247.76 296.48 247.76C298.21 247.76 299.55 247.17 300.49 245.98C301.44 244.8 301.91 243.12 301.91 240.94C301.91 238.76 301.43 237.11 300.47 235.9C299.51 234.69 298.18 234.08 296.48 234.08Z" fill="white"/>
<path d="M319.97 251.3C319.08 251.3 318.24 251.21 317.46 251.03C316.68 250.85 316.01 250.62 315.45 250.34V258.2C315.26 258.28 314.98 258.36 314.64 258.43C314.29 258.5 313.91 258.53 313.49 258.53C312.68 258.53 312.08 258.38 311.69 258.07C311.3 257.76 311.1 257.23 311.1 256.48V234.87C311.1 234.26 311.21 233.76 311.43 233.39C311.65 233.01 312.07 232.64 312.68 232.28C313.46 231.83 314.41 231.44 315.54 231.09C316.67 230.74 317.94 230.57 319.37 230.57C320.8 230.57 322.17 230.77 323.42 231.18C324.67 231.59 325.76 232.2 326.68 233.04C327.6 233.88 328.32 234.94 328.85 236.24C329.38 237.54 329.64 239.08 329.64 240.86C329.64 242.64 329.4 244.14 328.91 245.44C328.42 246.74 327.75 247.82 326.9 248.7C326.05 249.58 325.03 250.23 323.85 250.66C322.66 251.09 321.36 251.31 319.94 251.31L319.97 251.3ZM319.3 247.75C321.11 247.75 322.55 247.2 323.61 246.1C324.67 245 325.2 243.25 325.2 240.85C325.2 239.62 325.05 238.58 324.74 237.72C324.43 236.86 324.02 236.15 323.51 235.61C322.99 235.07 322.38 234.68 321.67 234.44C320.96 234.2 320.2 234.08 319.39 234.08C318.5 234.08 317.74 234.18 317.11 234.39C316.48 234.6 315.93 234.84 315.46 235.12V246.62C315.93 246.95 316.49 247.23 317.13 247.44C317.77 247.65 318.5 247.75 319.3 247.75Z" fill="white"/>
<path d="M337.78 243.15C338.17 244.74 338.93 245.92 340.06 246.68C341.19 247.45 342.63 247.83 344.39 247.83C345.56 247.83 346.63 247.65 347.61 247.29C348.59 246.93 349.37 246.54 349.95 246.12C350.73 246.57 351.12 247.19 351.12 248C351.12 248.47 350.94 248.91 350.58 249.32C350.22 249.72 349.72 250.07 349.1 250.36C348.47 250.65 347.73 250.88 346.88 251.05C346.03 251.22 345.12 251.3 344.14 251.3C342.52 251.3 341.05 251.08 339.73 250.63C338.41 250.18 337.27 249.52 336.32 248.62C335.37 247.73 334.64 246.63 334.13 245.32C333.61 244.01 333.36 242.49 333.36 240.76C333.36 239.03 333.61 237.62 334.11 236.35C334.61 235.08 335.29 234.02 336.16 233.17C337.02 232.32 338.04 231.67 339.21 231.23C340.38 230.78 341.63 230.56 342.97 230.56C344.31 230.56 345.53 230.78 346.63 231.21C347.73 231.64 348.68 232.24 349.47 233.01C350.26 233.78 350.88 234.69 351.31 235.75C351.74 236.81 351.96 237.97 351.96 239.22C351.96 239.92 351.79 240.43 351.46 240.75C351.13 241.07 350.64 241.29 350 241.4L337.79 243.15H337.78ZM342.96 233.95C341.43 233.95 340.15 234.47 339.14 235.5C338.12 236.53 337.59 238.01 337.53 239.93L347.81 238.47C347.7 237.22 347.24 236.15 346.43 235.27C345.62 234.39 344.47 233.95 342.96 233.95Z" fill="white"/>
<path d="M368.48 235.04C367.71 234.4 366.68 234.08 365.37 234.08C364.39 234.08 363.52 234.2 362.76 234.46C361.99 234.71 361.33 234.99 360.77 235.3V250.64C360.58 250.72 360.3 250.8 359.96 250.87C359.61 250.94 359.23 250.97 358.81 250.97C358 250.97 357.4 250.82 357.01 250.51C356.62 250.2 356.42 249.69 356.42 248.96V235.17C356.42 234.53 356.55 234.01 356.8 233.62C357.05 233.23 357.47 232.84 358.05 232.45C358.83 231.98 359.85 231.54 361.1 231.15C362.35 230.76 363.78 230.57 365.36 230.57C368.06 230.57 370.18 231.18 371.71 232.39C373.24 233.6 374.01 235.43 374.01 237.89V250.64C373.81 250.72 373.54 250.8 373.17 250.87C372.81 250.94 372.42 250.97 372 250.97C371.19 250.97 370.59 250.82 370.2 250.51C369.81 250.2 369.62 249.69 369.62 248.96V238.05C369.62 236.68 369.24 235.68 368.47 235.04H368.48Z" fill="white"/>
<path d="M379.5 225.13C379.5 224.41 379.75 223.8 380.25 223.31C380.75 222.82 381.39 222.58 382.17 222.58C382.95 222.58 383.58 222.83 384.05 223.31C384.52 223.8 384.76 224.4 384.76 225.13C384.76 225.86 384.52 226.46 384.05 226.95C383.58 227.44 382.95 227.68 382.17 227.68C381.39 227.68 380.75 227.44 380.25 226.95C379.75 226.46 379.5 225.86 379.5 225.13ZM384.35 250.63C384.15 250.71 383.88 250.79 383.53 250.86C383.18 250.93 382.78 250.96 382.34 250.96C381.53 250.96 380.93 250.81 380.54 250.5C380.15 250.19 379.96 249.68 379.96 248.95V231.27C380.18 231.21 380.47 231.14 380.82 231.06C381.17 230.98 381.57 230.93 382.01 230.93C382.82 230.93 383.41 231.08 383.79 231.39C384.17 231.7 384.35 232.23 384.35 232.98V250.62V250.63Z" fill="white"/>
<path d="M402.38 235.04C401.61 234.4 400.58 234.08 399.27 234.08C398.29 234.08 397.42 234.2 396.66 234.46C395.89 234.71 395.23 234.99 394.67 235.3V250.64C394.48 250.72 394.2 250.8 393.86 250.87C393.51 250.94 393.13 250.97 392.71 250.97C391.9 250.97 391.3 250.82 390.91 250.51C390.52 250.2 390.32 249.69 390.32 248.96V235.17C390.32 234.53 390.45 234.01 390.7 233.62C390.95 233.23 391.37 232.84 391.95 232.45C392.73 231.98 393.75 231.54 395 231.15C396.25 230.76 397.68 230.57 399.26 230.57C401.96 230.57 404.08 231.18 405.61 232.39C407.14 233.6 407.91 235.43 407.91 237.89V250.64C407.71 250.72 407.44 250.8 407.07 250.87C406.71 250.94 406.32 250.97 405.9 250.97C405.09 250.97 404.49 250.82 404.1 250.51C403.71 250.2 403.52 249.69 403.52 248.96V238.05C403.52 236.68 403.14 235.68 402.37 235.04H402.38Z" fill="white"/>
<path d="M426.48 248.88C425.95 249.21 425.3 249.49 424.54 249.72C423.77 249.94 422.86 250.05 421.8 250.05C420.57 250.05 419.41 249.88 418.31 249.53C417.21 249.18 416.24 248.62 415.4 247.86C414.56 247.1 413.9 246.1 413.41 244.87C412.92 243.64 412.68 242.14 412.68 240.36C412.68 238.74 412.92 237.33 413.41 236.12C413.9 234.91 414.58 233.89 415.46 233.07C416.34 232.25 417.38 231.63 418.6 231.21C419.81 230.79 421.16 230.58 422.63 230.58C423.99 230.58 425.26 230.75 426.41 231.1C427.57 231.45 428.51 231.86 429.23 232.33C429.7 232.64 430.07 232.99 430.34 233.37C430.6 233.76 430.74 234.23 430.74 234.79V251.26C430.74 252.65 430.5 253.85 430.01 254.86C429.52 255.86 428.85 256.68 428 257.31C427.15 257.94 426.14 258.4 424.97 258.69C423.8 258.98 422.55 259.13 421.21 259.13C419.79 259.13 418.56 258.99 417.53 258.71C416.5 258.43 415.75 258.15 415.27 257.87C414.41 257.34 413.97 256.64 413.97 255.78C413.97 255.31 414.07 254.91 414.26 254.59C414.45 254.27 414.71 254.01 415.01 253.82C415.65 254.27 416.5 254.67 417.56 255.03C418.62 255.39 419.75 255.57 420.95 255.57C422.71 255.57 424.06 255.22 425.03 254.5C426 253.78 426.47 252.64 426.47 251.05V248.88H426.48ZM422.42 246.62C423.37 246.62 424.16 246.48 424.8 246.2C425.44 245.92 425.98 245.59 426.43 245.2V235.08C426.01 234.83 425.5 234.6 424.88 234.39C424.27 234.18 423.54 234.08 422.71 234.08C421.01 234.08 419.64 234.6 418.61 235.63C417.58 236.66 417.06 238.22 417.06 240.31C417.06 241.45 417.2 242.43 417.48 243.24C417.76 244.05 418.13 244.7 418.61 245.2C419.08 245.7 419.65 246.06 420.3 246.29C420.95 246.52 421.66 246.62 422.41 246.62H422.42Z" fill="white"/>
</g>
<defs>
<filter id="filter0_d_3_3" x="7.02003" y="0.529993" width="63.47" height="47.7" filterUnits="userSpaceOnUse" color-interpolation-filters="sRGB">
<feFlood flood-opacity="0" result="BackgroundImageFix"/>
<feColorMatrix in="SourceAlpha" type="matrix" values="0 0 0 0 0 0 0 0 0 0 0 0 0 0 0 0 0 0 127 0" result="hardAlpha"/>
<feOffset dx="-2.4" dy="2.4"/>
<feGaussianBlur stdDeviation="2.4"/>
<feColorMatrix type="matrix" values="0 0 0 0 0 0 0 0 0 0 0 0 0 0 0 0 0 0 0.6 0"/>
<feBlend mode="normal" in2="BackgroundImageFix" result="effect1_dropShadow_3_3"/>
<feBlend mode="normal" in="SourceGraphic" in2="effect1_dropShadow_3_3" result="shape"/>
</filter>
<filter id="filter1_d_3_3" x="0.636914" y="61.6" width="594.024" height="122.42" filterUnits="userSpaceOnUse" color-interpolation-filters="sRGB">
<feFlood flood-opacity="0" result="BackgroundImageFix"/>
<feColorMatrix in="SourceAlpha" type="matrix" values="0 0 0 0 0 0 0 0 0 0 0 0 0 0 0 0 0 0 127 0" result="hardAlpha"/>
<feOffset dx="-2.4" dy="2.4"/>
<feGaussianBlur stdDeviation="2.4"/>
<feColorMatrix type="matrix" values="0 0 0 0 0 0 0 0 0 0 0 0 0 0 0 0 0 0 0.6 0"/>
<feBlend mode="normal" in2="BackgroundImageFix" result="effect1_dropShadow_3_3"/>
<feBlend mode="normal" in="SourceGraphic" in2="effect1_dropShadow_3_3" result="shape"/>
</filter>
<filter id="filter2_d_3_3" x="7.40004" y="220.18" width="425.74" height="46.15" filterUnits="userSpaceOnUse" color-interpolation-filters="sRGB">
<feFlood flood-opacity="0" result="BackgroundImageFix"/>
<feColorMatrix in="SourceAlpha" type="matrix" values="0 0 0 0 0 0 0 0 0 0 0 0 0 0 0 0 0 0 127 0" result="hardAlpha"/>
<feOffset dx="-2.4" dy="2.4"/>
<feGaussianBlur stdDeviation="2.4"/>
<feColorMatrix type="matrix" values="0 0 0 0 0 0 0 0 0 0 0 0 0 0 0 0 0 0 0.6 0"/>
<feBlend mode="normal" in2="BackgroundImageFix" result="effect1_dropShadow_3_3"/>
<feBlend mode="normal" in="SourceGraphic" in2="effect1_dropShadow_3_3" result="shape"/>
</filter>
</defs>
</svg>
